<svg width="140" height="140" viewBox="0 0 140 140" fill="none" xmlns="http://www.w3.org/2000/svg">
<circle cx="69.7565" cy="70.2438" r="69.7565" fill="#FFDD93"/>
<mask id="mask0_342_5813" style="mask-type:alpha" maskUnits="userSpaceOnUse" x="0" y="0" width="140" height="141">
<circle cx="69.7565" cy="70.2438" r="69.7565" fill="#EEF0F2"/>
</mask>
<g mask="url(#mask0_342_5813)">
<path d="M83.4607 124.862C82.5415 124.009 77.5559 126.67 76.586 127.435C75.9739 127.926 75.3045 128.353 74.6767 128.805C73.4469 129.693 73.325 130.114 73.8388 131.567C75.0304 134.983 72.7464 138.365 69.1564 138.431C67.7013 138.451 66.4667 137.91 65.4425 136.862C64.2326 135.611 63.8699 135.579 62.3307 136.432C58.7857 138.38 55.2548 140.34 51.2589 141.218C50.1117 141.473 40.1034 142.349 38.9609 142.457C38.6598 143.236 38.5955 143.053 39.3474 144.464C31.9226 145.199 51.7676 144.608 51.8201 144.592C55.6962 143.72 59.2123 141.961 62.6548 140.087C63.224 139.773 63.585 139.778 64.1295 140.173C67.0622 142.31 70.1964 142.444 73.2967 140.657C76.397 138.87 77.9014 136.081 77.4466 132.474C77.3143 131.373 77.5607 130.798 78.4626 130.236C79.7637 129.424 88.3527 122.875 83.4489 124.89L83.4607 124.862Z" fill="#8ECF9E"/>
<path d="M84.1719 33.1687C82.8128 32.5548 86.1839 29.2549 78.2377 36.7278C77.2383 37.8961 76.3235 39.1395 75.5607 40.4674C75.3064 40.91 75.027 41.1538 74.4569 41.2277C67.9203 42.0703 64.8076 49.2694 68.6545 54.6522C68.99 55.1266 69.0074 55.4194 68.7571 55.9287C66.6747 60.007 64.2586 63.8647 61.5111 67.5417C61.1151 68.0729 60.8419 68.1961 60.1689 67.8887C56.8568 66.3353 53.0668 67.0815 50.5763 69.6878C48.0607 72.3222 47.4685 76.0716 49.1331 79.3528C49.4515 79.9886 49.3749 80.2737 48.8528 80.7055C43.8844 84.7817 38.4277 88.0585 32.7383 91.0151C24.4432 95.3157 19.4373 102.133 17.5632 111.289C17.3156 112.52 17.4049 113.797 16.9404 114.974L17.3272 121.484C17.7645 122.099 17.7431 122.862 17.9439 123.545C18.367 125.043 18.8174 126.552 19.4886 127.955C19.7019 128.397 19.7232 128.756 19.3867 129.164C18.6159 130.131 18.5046 131.407 17.9805 132.48L18.1807 135.849C18.5637 136 18.5076 136.404 18.6315 136.69C20.4966 141.322 25.5335 143.348 30.1255 141.258C30.5679 141.058 30.8999 141.025 31.3433 141.293C34.4724 143.137 37.8273 144.287 41.3613 144.852C41.9721 143.44 43.1328 142.289 44.8688 141.825C42.82 141.746 40.7687 141.401 38.7392 140.746C36.3972 140.231 34.279 139.208 32.3046 137.909C31.2336 137.197 30.3345 137.131 29.2299 137.878C27.1115 139.326 24.3875 138.9 22.7127 137.022C21.038 135.145 20.9675 132.383 22.6564 130.452C23.5071 129.48 23.5356 128.61 22.9883 127.493C16.9679 115.212 21.9948 100.204 34.214 94.0404C40.8031 90.7097 46.9846 86.8153 52.5751 81.9673C53.858 80.849 53.925 80.177 52.8301 78.8392C51.0879 76.7249 51.1755 73.9274 53.0383 71.9998C54.851 70.1285 57.646 69.9491 59.7866 71.5721C61.1436 72.6004 61.861 72.531 62.9182 71.2124C66.6872 66.5127 69.8458 61.4352 72.4905 56.0275C73.0153 54.9676 72.8997 54.1461 72.0096 53.3306C70.3554 51.7989 69.9228 49.9141 70.6922 47.7975C71.4287 45.8032 73.2645 44.5451 75.5106 44.572C76.6736 44.583 77.3986 44.1926 77.9243 43.146C78.701 41.6035 79.7269 40.2065 80.8516 38.8972C81.6139 38.0102 84.9635 34.1237 84.1727 33.182L84.1719 33.1687Z" fill="#13BC79"/>
<path d="M18.193 135.834C18.5761 135.985 18.5199 136.389 18.6438 136.676C20.5089 141.308 25.5459 143.334 30.1379 141.244C30.5802 141.044 30.9123 141.011 31.3557 141.278C35.1624 143.51 39.2708 144.749 43.6622 145.13C43.8635 145.144 44.125 145.049 44.2356 145.336C36.0613 145.822 27.8869 146.307 19.7134 146.806C19.061 146.845 18.8166 146.779 18.7856 146.033C18.6372 142.635 18.4088 139.242 18.2071 135.847L18.193 135.834Z" fill="#E5E5E5"/>
<path d="M17.3387 121.456C17.776 122.072 17.7546 122.835 17.9555 123.517C18.3785 125.015 18.8289 126.525 19.5001 127.928C19.7134 128.37 19.7347 128.729 19.3982 129.136C18.6274 130.104 18.5161 131.38 17.9921 132.453L17.3379 121.443L17.3387 121.456Z" fill="#E5E5E5"/>
<path d="M122.909 44.5081C120.934 44.3315 119.183 45.2105 117.189 45.3824C115.887 45.4998 114.594 45.5632 113.316 45.8663C113.187 44.8052 109.661 45.509 108.984 44.6808C107.989 43.444 106.68 42.7736 105.104 42.7871C104.076 42.7947 103.387 42.4482 102.958 41.5251C100.374 42.1061 98.2917 44.8351 98.3535 47.4501C98.3922 49.2247 98.6782 50.8911 99.8945 52.2484C100.467 52.8824 99.9765 53.1787 99.6368 53.5329C97.1573 56.0984 95.2332 59.0184 93.9751 62.3531C92.9484 65.0861 91.9765 67.8426 90.772 70.5061C90.3114 71.5221 89.7692 72.5163 89.2678 73.5214C88.1106 74.0577 86.3294 78.9332 85.7309 79.8772C82.8132 84.5129 79.4615 88.8137 75.66 92.7403C71.1032 97.4467 66.0134 101.503 60.4496 105C57.6939 106.741 54.7422 108.105 51.9112 109.703C46.0277 112.992 41.8492 117.769 39.4487 124.137C37.7393 128.648 37.6387 133.25 38.1309 137.937C38.2278 138.893 39.1186 143.543 39.322 144.493C43.4368 145.838 47.0262 142.165 51.2203 141.247C55.217 140.382 58.7471 138.409 62.2921 136.461C63.8446 135.607 64.1947 135.653 65.4039 136.891C66.4281 137.939 67.6627 138.48 69.1178 138.46C72.6944 138.395 74.9926 135.025 73.8002 131.596C73.2863 130.143 73.4216 129.721 74.6381 128.834C75.2784 128.368 75.9345 127.942 76.5474 127.464C77.5173 126.699 78.4375 126.671 79.3566 127.525L81.9352 125.501C81.4346 124.048 81.5347 123.708 82.8466 122.628C95.6248 112.156 106.082 99.7239 114.219 85.3457C114.739 84.433 115.232 83.5086 115.725 82.5842C116.605 80.9688 116.904 80.8308 118.663 81.2072C120.814 81.6672 122.939 80.7661 124.084 78.9078C125.192 77.0918 125.055 74.7886 123.714 73.1314C123.44 72.787 123.087 72.4739 122.737 72.2008C121.363 71.1201 121.279 70.8178 121.914 69.1501C122.862 66.6622 123.905 64.2087 124.541 61.6325C125.749 56.7778 125.665 51.9998 124.014 47.3684L122.909 44.5081ZM93.4642 101.876C90.5732 105.161 85.5785 105.645 82.0809 102.994C80.8641 102.077 80.722 101.484 81.4158 100.121C80.9366 98.7997 80.4847 97.4905 80.4509 96.0229C80.3936 93.0336 83.1485 89.9306 86.1235 89.6336C87.5848 89.4934 88.9375 89.7737 90.3066 90.1065C91.5404 89.2851 92.1443 89.3294 93.1536 90.3516C96.2669 93.5066 96.4054 98.5352 93.4642 101.876Z" fill="#8ECF9E"/>
<path d="M124.205 44.7248C124.697 44.6956 125.173 44.6138 125.649 44.5188C125.912 44.4497 126.188 44.3799 126.45 44.2975C124.2 40.383 118.355 37.3368 114.864 34.8053C106.322 28.6461 95.2712 28.3942 86.3896 34.0656C85.0384 34.9341 84.6366 34.9179 83.4746 34.025C82.648 34.7288 81.8089 35.4467 80.9823 36.1504C81.7731 37.0921 81.6256 37.9826 80.8633 38.8696C79.7254 40.1797 78.7128 41.5759 77.936 43.1184C77.4103 44.1651 76.6854 44.5555 75.5224 44.5444C73.2762 44.5176 71.4405 45.7756 70.7039 47.77C69.9212 49.8873 70.3672 51.7714 72.0213 53.303C72.9122 54.1319 73.0271 54.94 72.5022 55.9999C69.8575 61.4077 66.6997 66.4985 62.93 71.1848C61.8852 72.4894 61.1553 72.5728 59.7983 71.5446C57.6578 69.9216 54.8628 70.101 53.0501 71.9722C51.1873 73.8999 51.0996 76.6974 52.8419 78.8117C53.9367 80.1495 53.8831 80.8207 52.5868 81.9398C46.9956 86.7744 40.8148 90.6821 34.2257 94.0129C22.0065 100.177 16.993 115.184 23.0133 127.465C23.5606 128.582 23.5321 129.452 22.6814 130.424C20.9933 132.368 21.063 135.116 22.7378 136.994C24.4133 138.885 27.1499 139.297 29.255 137.849C30.3588 137.089 31.2454 137.17 32.3297 137.88C34.304 139.179 36.4223 140.202 38.7642 140.718C38.5608 139.768 38.2783 138.836 38.1814 137.88C37.6759 133.194 37.7899 128.591 39.4992 124.081C41.8998 117.712 46.0782 112.935 51.9617 109.646C54.7935 108.062 57.7444 106.684 60.5001 104.944C66.0507 101.447 71.1537 97.39 75.7105 92.6837C79.4987 88.7578 82.8645 84.4696 85.7814 79.8206C86.3667 78.8773 88.2959 75.3692 89.3183 73.4647C89.8198 72.4596 90.3627 71.4788 90.8226 70.4494C92.0271 67.786 92.9989 65.0295 94.0256 62.2964C95.2704 58.9625 97.2078 56.0418 99.6874 53.4762C100.027 53.122 100.517 52.8257 99.945 52.1917C98.7163 50.8485 98.4427 49.168 98.4041 47.3934C98.3556 44.7777 100.438 42.0487 103.009 41.4684C103.955 42.1069 103.578 42.7305 105.155 42.7304C108.12 42.7145 108.282 50.3871 111.644 46.4865C113.159 46.1293 116.084 45.4345 117.239 45.3257C118.475 45.2122 123.01 44.8626 125.296 44.8738C125.533 44.5925 123.882 44.6906 124.241 44.6559L124.205 44.7248ZM50.9864 106.498C49.2262 109.702 45.6779 111.369 42.0585 110.715C38.6287 110.104 35.8123 107.225 35.2597 103.771C34.9846 102.064 35.4768 101.353 37.1048 101.096C37.4328 98.0709 40.3739 96.0791 42.5619 95.8022C46.5526 95.2845 49.1102 97.6309 50.0062 100.343C50.3491 101.392 50.2142 102.495 50.3049 103.572C51.5867 104.458 51.7468 105.13 50.9997 106.497L50.9864 106.498Z" fill="#13BC79"/>
<path d="M86.3903 34.079C95.2719 28.4076 106.337 28.672 114.865 34.8187C118.619 37.5216 121.522 40.9564 123.237 45.3035C123.472 44.9822 124.289 45.241 124.675 45.218C125.167 45.1888 125.174 44.6272 125.649 44.5322C125.952 44.4607 126.241 44.3768 126.544 44.292C119.779 28.0337 99.7718 21.3933 84.423 31.3234C83.1618 32.1332 83.014 32.5695 83.4754 34.0384C84.6381 34.9446 85.0258 34.9483 86.3903 34.079Z" fill="#13BC79"/>
<path d="M126.268 67.3145C128.786 61.1128 129.583 54.746 127.885 48.1935C127.763 47.7197 126.612 44.7687 126.464 44.2965C125.466 44.583 123.909 44.916 122.87 44.9777C122.751 44.9848 124.188 47.3577 124.066 47.3382C125.718 51.9829 125.801 56.7476 124.593 61.6024C123.958 64.1786 122.915 66.6453 121.967 69.1199C121.331 70.7876 121.416 71.0899 122.789 72.1706C123.14 72.4437 123.479 72.7576 123.766 73.1012C125.121 74.7576 125.258 77.0608 124.136 78.8776C122.991 80.7359 120.867 81.637 118.715 81.177C116.956 80.8006 116.644 80.9394 115.778 82.554C115.271 83.4792 114.779 84.4036 114.272 85.3155C106.134 99.6937 95.6771 112.125 82.899 122.598C81.5871 123.678 81.487 124.018 81.9875 125.471C83.2427 126.358 83.6562 126.347 84.853 125.354C98.4484 114.245 109.486 101.004 117.95 85.618C118.312 84.9552 118.626 84.6159 119.536 84.642C122.975 84.7449 125.637 83.224 127.26 80.175C128.859 77.1808 128.753 74.0608 126.645 71.4071C125.52 70.0044 125.402 68.9158 126.199 67.4924C126.235 67.4234 126.257 67.3553 126.28 67.2871L126.268 67.3145Z" fill="#8ECF9E"/>
<path d="M81.4549 100.091C80.9756 98.7706 80.5237 97.4614 80.49 95.9937C80.4326 93.0045 83.1875 89.9015 86.1625 89.6045C87.6238 89.4642 88.9765 89.7446 90.3457 90.0774C89.7495 91.0614 89.9708 91.8632 90.7545 92.6851C92.6916 94.7077 92.7419 97.5771 90.9637 99.5799C89.173 101.597 86.3303 101.873 84.0926 100.189C83.1838 99.5078 82.3606 99.3696 81.4549 100.091Z" fill="#00B179"/>
<path d="M37.0919 101.111C37.4198 98.0852 40.361 96.0935 42.549 95.8165C46.5397 95.2988 49.0973 97.6452 49.9933 100.358C50.3361 101.406 50.2013 102.51 50.292 103.586C49.143 103.361 48.5246 103.972 47.9926 104.912C46.8449 106.958 44.8648 107.81 42.5934 107.357C40.4167 106.925 38.851 105.308 38.5991 103.092C38.4849 102.07 38.0593 101.427 37.0919 101.111Z" fill="#00CD8D"/>
<path d="M105.692 54.469C109.412 54.248 112.249 51.0527 112.028 47.3323C111.807 43.6118 108.612 40.7749 104.891 40.996C101.171 41.217 98.334 44.4123 98.555 48.1328C98.7761 51.8532 101.971 54.6901 105.692 54.469Z" fill="#8ECF9E"/>
<path d="M88.8311 109.112C94.3236 108.786 98.4556 103.127 98.0602 96.4727C97.6649 89.8185 92.8918 84.6887 87.3994 85.0151C81.9069 85.3414 77.7748 91.0003 78.1702 97.6545C78.5656 104.309 83.3386 109.438 88.8311 109.112Z" fill="#8ECF9E"/>
<path d="M44.3094 112.399C49.8018 112.073 53.9339 106.414 53.5385 99.7597C53.1432 93.1055 48.3701 87.9757 42.8776 88.3021C37.3852 88.6284 33.2531 94.2872 33.6485 100.941C34.0438 107.596 38.8169 112.725 44.3094 112.399Z" fill="#13BC79"/>
<path d="M73.6825 113.419C77.403 113.198 80.2398 110.003 80.0188 106.282C79.7977 102.562 76.6025 99.7251 72.882 99.9462C69.1615 100.167 66.3247 103.362 66.5458 107.083C66.7668 110.803 69.962 113.64 73.6825 113.419Z" fill="#13BC79"/>
<path d="M35.8092 113.692C39.5297 113.471 42.3666 110.276 42.1455 106.555C41.9244 102.835 38.7292 99.998 35.0087 100.219C31.2883 100.44 28.4514 103.635 28.6725 107.356C28.8935 111.076 32.0888 113.913 35.8092 113.692Z" fill="#8ECF9E"/>
<path d="M86.9923 94.5787L88.1056 92.6288L90.2527 94.8126C84.846 97.8058 79.4669 95.8676 74.9441 89.229C75.3348 89.0588 75.7012 88.9302 76.0496 88.7225C76.4113 88.5139 76.7417 88.2271 76.7283 88.2279L78.9023 93.3359C80.4192 90.5337 81.2421 87.5188 84.5178 88.4598C87.0463 89.1913 87.1127 91.659 87.0056 94.578L86.9923 94.5787Z" fill="black"/>
<path d="M101.773 81.1553C103.858 81.8464 105.604 83.1321 105.927 85.6381C105.999 86.1815 105.462 86.8146 105.203 87.4045C104.714 87.0328 103.99 86.7685 103.76 86.2745C102.18 82.8413 100.526 82.4319 97.212 84.6729C96.7877 84.9519 96.1282 84.8709 95.5722 84.9573C95.575 84.3292 95.3693 83.5666 95.6345 83.0832C96.5749 81.3706 99.3178 80.5397 101.76 81.1694L101.773 81.1553Z" fill="black"/>
<path d="M78.6036 74.5956C77.9215 77.2815 76.0077 79.0252 74.1686 78.6535C72.2888 78.2708 71.266 75.6729 71.9489 73.0003C72.6545 70.2597 74.6889 68.5222 76.59 69.0372C78.4229 69.5295 79.2857 71.9098 78.5911 74.6097L78.6036 74.5956Z" fill="black"/>
</g>
</svg>
