<svg width="68" height="202" viewBox="0 0 68 202" fill="none" xmlns="http://www.w3.org/2000/svg">
<path d="M2.82227 147.457C16.4954 147.895 30.1793 148.311 43.8525 148.792C49.9947 149.005 57.7179 147.617 63.8602 147.905C63.1124 148.653 61.1255 152.36 60.3778 153.107C46.7687 152.947 32.8178 151.559 19.2087 151.42C14.6154 151.377 10.022 151.398 5.42871 151.388C5.40735 149.518 3.65547 148.803 2.82227 147.467V147.457Z" fill="#5E7BA2"/>
<path d="M2.83319 71.3355C3.59163 60.6854 2.1709 49.9071 4.88417 39.3852C9.31727 30.7754 15.1284 23.5969 24.7316 20.4137C27.9576 19.3454 26.6331 16.6856 26.9428 14.5812C33.1812 14.1753 39.3982 14.4957 45.6153 14.9337C45.1239 18.2131 45.9678 20.1786 49.4074 21.8878C63.5293 28.906 68.5392 41.0516 67.6846 56.263C67.3748 61.7216 67.3855 67.2015 67.3001 72.6708C67.2787 73.8993 66.9796 75.1063 66.4241 76.2066C65.8687 77.3069 65.42 78.3537 64.01 78.6315C44.2052 77.9371 24.3898 77.2428 4.58507 76.5484C2.75842 75.2239 3.35662 73.0874 2.82251 71.3249L2.83319 71.3355Z" fill="#96B8E4"/>
<path d="M64.8859 162.561C64.074 161.237 63.7642 163.523 62.9524 162.187C49.7706 156.184 35.6061 153.588 21.5163 150.736C16.8054 151.431 12.1053 151.014 7.40514 150.672C6.09123 150.576 4.80937 151.121 3.92275 152.093C2.22429 153.952 0.974472 156.045 0.301495 158.545C0.194673 168.971 -0.115109 179.396 0.0451231 189.822C0.151945 197.172 3.78388 200.034 11.1439 200.269C23.1507 200.643 35.1895 200.109 47.1535 201.444C49.0549 201.658 50.967 201.786 52.8791 201.669C54.9621 201.551 57.0131 201.209 59 200.494C60.4421 199.97 61.7026 199.02 62.4931 197.716C65.5054 192.749 64.0847 186.917 64.6188 181.458L64.8859 162.54V162.561Z" fill="#96B8E4"/>
<path d="M61.2432 104.621C65.1636 107.901 68.8276 116.019 64.8965 124.031C61.4782 123.208 59.2243 115.453 55.7953 114.694C47.335 112.804 44.6325 115.613 46.6727 124.116C44.4295 124.533 42.1862 124.939 39.943 125.355C35.9158 125.473 31.9848 123.059 27.8935 124.928C19.7323 124.575 11.5711 124.234 3.42065 123.881C1.08126 121.467 2.21357 118.241 1.42309 115.464C1.2949 110.827 2.68358 106.896 6.63598 104.13C11.2293 104.13 15.8226 104.13 20.416 104.162C34.0251 104.301 47.6341 104.472 61.2432 104.621Z" fill="#96B8E4"/>
<path d="M28.4595 140.043C20.9072 138.505 18.5572 140.332 18.7708 147.895C13.4724 147.745 8.18477 147.595 2.88642 147.457C-0.553243 140.652 0.696571 132.758 6.00561 127.812C12.682 126.797 19.3583 127.844 26.024 127.791C25.2976 132.833 27.8186 135.151 32.5294 136.23C43.5 138.761 54.6736 140.62 65.1314 145.053" fill="#96B8E4"/>
<path d="M59.5231 130.825C42.9017 131.263 26.3337 129.425 9.68016 131.839C9.74425 127.994 5.26842 126.669 3.42041 123.881C23.7165 124.202 44.002 124.511 64.2981 124.832C62.7064 126.829 61.1148 128.827 59.5231 130.825Z" fill="#5E7BA2"/>
<path d="M63.465 147.168C62.9309 146.88 62.3327 147.051 62.0016 147.553C61.1043 148.899 60.1963 150.352 59.8117 151.922C57.2587 150.159 54.695 148.386 52.1419 146.624C35.7235 146.901 19.305 147.179 2.88647 147.446C4.05083 148.386 4.83063 149.358 5.73861 150.33C5.17246 150.448 5.2045 151.377 5.84543 151.377C6.14454 151.377 6.30477 151.174 6.3475 150.95C7.35162 151.911 8.60143 152.851 10.6631 153.695C26.9748 153.791 43.233 154.55 59.7049 152.403C59.6195 152.905 59.5767 153.417 59.6195 153.941C59.6622 154.496 60.0788 155.041 60.6877 155.009C61.2325 154.988 61.8093 154.539 61.7559 153.941C61.7345 153.674 61.7345 153.407 61.7559 153.15C61.7559 153.118 61.7773 152.937 61.7773 152.905C61.7986 152.787 61.82 152.659 61.852 152.541C61.9054 152.296 61.9802 152.061 62.055 151.826C62.087 151.73 62.1298 151.623 62.1618 151.527C62.1832 151.473 62.1939 151.441 62.1939 151.431C62.2152 151.377 62.2366 151.334 62.258 151.281C62.6852 150.341 63.2621 149.486 63.8389 148.632C64.1487 148.162 63.9457 147.425 63.4544 147.168H63.465Z" fill="#5E7BA2"/>
<path d="M7.21259 80.3941C6.47552 79.0268 4.77706 78.3004 4.59546 76.5592C24.4002 77.2535 45.647 77.1467 65.4518 77.841C64.8536 78.8986 64.0738 81.6439 63.4649 82.7014C45.1343 82.2314 25.5432 80.8748 7.20191 80.3941H7.21259Z" fill="#5E7BA2"/>
<path d="M7.21278 80.394C25.5434 80.8747 45.5404 81.3554 63.8817 81.8254C66.0608 85.5214 66.2211 90.2857 66.6697 95.0072C66.7445 95.7977 66.6911 96.5988 66.5949 97.4C66.4454 98.7887 65.9433 100.124 65.1101 101.246C64.7149 101.78 64.2449 102.239 63.4651 102.367C57.3228 102.079 51.1913 101.748 45.049 101.534C31.3758 101.053 17.692 100.637 4.01881 100.199C0.525747 93.2446 1.7542 85.6069 7.2021 80.394H7.21278Z" fill="#96B8E4"/>
<path d="M4.02954 100.199C17.7027 100.637 31.3866 101.053 45.0597 101.534C51.202 101.748 57.3336 102.089 63.4758 102.367C62.7281 103.115 61.991 103.863 61.2432 104.61C47.6341 104.45 34.0251 104.29 20.416 104.151C15.8227 104.108 11.2293 104.13 6.63599 104.119C6.61463 102.25 4.86275 101.534 4.02954 100.199Z" fill="#5E7BA2"/>
<path d="M30.5321 0L42.3893 0C45.1132 0 47.3245 2.21121 47.3245 4.93516V13.7693C47.3245 14.453 46.769 15.0084 46.0853 15.0084L26.8361 15.0084C26.1524 15.0084 25.5969 14.453 25.5969 13.7693V4.93516C25.5969 2.21121 27.8081 0 30.5321 0Z" fill="white"/>
<path d="M6.58247 103.745C24.9131 104.226 43.2543 104.696 61.5849 105.177C66.8512 108.285 65.5801 113.648 66.0394 118.369C66.1355 119.352 66.0287 120.345 65.9005 121.349C65.7724 122.354 65.4412 123.23 64.8964 124.031C64.3837 124.778 63.903 125.558 62.8454 125.729C56.7032 125.441 50.5716 125.11 44.4294 124.896C30.7562 124.415 17.0724 123.999 3.39919 123.561C-0.0938821 116.607 1.13457 108.969 6.58247 103.756V103.745Z" fill="#96B8E4"/>
<path d="M6.58241 127.342C24.913 127.823 43.2543 128.293 61.5849 128.773C66.8512 131.882 65.58 137.244 66.0393 141.966C66.1141 142.756 66.0607 143.558 65.9646 144.359C65.815 145.747 65.313 147.083 64.4797 148.204C64.0845 148.738 63.6145 149.198 62.8347 149.326C56.6925 149.037 50.5609 148.706 44.4186 148.493C30.7455 148.012 17.0616 147.595 3.38844 147.157C-0.104624 140.203 1.12382 132.566 6.57173 127.353L6.58241 127.342Z" fill="#96B8E4"/>
<path d="M6.67849 150.971C24.5818 151.43 42.4744 151.9 60.3777 152.36C65.644 155.468 64.8642 160.82 64.8322 165.552C64.8215 167.09 64.6292 168.671 64.501 170.231C63.4969 171.075 63.1871 172.656 61.6275 172.912C55.4853 172.624 49.3537 172.293 43.2115 172.079C29.5383 171.598 15.8545 171.182 2.18129 170.744C-1.08745 164.249 -0.222193 157.145 4.36046 151.986C4.94797 151.324 5.79187 150.95 6.67849 150.971Z" fill="#96B8E4"/>
</svg>
