<svg width="190" height="219" viewBox="0 0 190 219" fill="none" xmlns="http://www.w3.org/2000/svg">
<path d="M106.199 36.0885C58.9111 28.9326 39.2794 63.5274 37.9371 80.6324" stroke="#CDC2FC" stroke-width="4"/>
<path d="M35.4991 93.582C35.0649 105.663 39.4966 115.504 41.7667 118.909" stroke="#CDC2FC" stroke-width="4"/>
<path d="M139.915 127.516C148.038 118.564 150.999 108.191 151.463 104.114" stroke="#CDC2FC" stroke-width="4"/>
<path d="M144.12 69.2612C151.888 79.7038 152.213 91.3111 151.404 95.802" stroke="#CDC2FC" stroke-width="4"/>
<path d="M140.33 133.725C126.571 146.615 109.318 151.738 102.409 152.686" stroke="#CDC2FC" stroke-width="4"/>
<path d="M187.657 145.765C187.657 184.643 146.607 216.968 94.8286 216.968C43.0499 216.968 2 184.643 2 145.765C2 106.886 43.0499 74.5615 94.8286 74.5615C146.607 74.5615 187.657 106.886 187.657 145.765Z" fill="#EBDCC5" stroke="#EBDCC5" stroke-width="4"/>
<path d="M187.657 130.792C187.657 169.67 146.607 201.995 94.8286 201.995C43.0499 201.995 2 169.67 2 130.792C2 91.9131 43.0499 59.5884 94.8286 59.5884C146.607 59.5884 187.657 91.9131 187.657 130.792Z" fill="#F7EFE2" stroke="#F7EFE2" stroke-width="4"/>
<path d="M177.678 122.481C177.678 156.77 141.465 185.373 95.6576 185.373C49.8503 185.373 13.6368 156.77 13.6368 122.481C13.6368 88.192 49.8503 59.5884 95.6576 59.5884C141.465 59.5884 177.678 88.192 177.678 122.481Z" fill="#84B86B" stroke="#84B86B" stroke-width="4"/>
<path d="M178.3 91.7158V124.978" stroke="#84B86B" stroke-width="4"/>
<path d="M13.6368 91.7158V124.978" stroke="#84B86B" stroke-width="4"/>
<path d="M94.8284 154.916C141.217 154.916 178.823 125.874 178.823 90.0491C178.823 54.2243 141.217 25.1826 94.8284 25.1826C48.4393 25.1826 10.8336 54.2243 10.8336 90.0491C10.8336 125.874 48.4393 154.916 94.8284 154.916Z" fill="#8ECF9E"/>
<path d="M34.1567 69.2622C48.8632 45.7022 70.6269 39.2274 79.658 38.9214" stroke="#F7EFE2" stroke-width="4"/>
<path d="M146.449 26.2083L147.88 1" stroke="#F7EFE2" stroke-width="4"/>
<path d="M155.5 27.5399L174.461 16.1597" stroke="#F7EFE2" stroke-width="4"/>
<path d="M165.508 41.0826L186.719 33.7393" stroke="#F7EFE2" stroke-width="4"/>
</svg>
