<svg width="141" height="140" viewBox="0 0 141 140" fill="none" xmlns="http://www.w3.org/2000/svg">
<circle cx="70.4486" cy="70.2438" r="69.7565" fill="#FFDD93"/>
<mask id="mask0_342_5865" style="mask-type:alpha" maskUnits="userSpaceOnUse" x="0" y="0" width="141" height="141">
<circle cx="70.4486" cy="70.2438" r="69.7565" fill="#EEF0F2"/>
</mask>
<g mask="url(#mask0_342_5865)">
<path d="M26.4884 90.4617L26.4918 84.2999C26.7255 84.1977 26.711 83.9786 26.7403 83.7742C27.048 81.73 27.604 79.7588 28.6708 77.9775C28.9924 77.4227 28.9196 77.0284 28.5986 76.5319C26.9354 73.9474 27.2143 71.4213 28.8802 68.9392C29.6108 67.8587 30.3707 66.7782 31.043 65.6539C31.7007 64.5442 31.7597 63.3323 30.9572 62.2956C28.7101 59.419 28.5075 56.1336 28.9328 52.7023C29.0795 51.4758 29.6641 50.5413 30.6573 49.8551C33.272 48.0592 35.9887 46.4677 38.968 45.3582C41.1149 44.5552 43.3201 43.8982 45.4669 43.1244C47.5846 42.3506 48.0961 41.5622 47.9659 39.3281C47.8935 38.1746 47.7773 37.0211 47.9823 35.8822C48.905 30.7279 50.0447 29.297 55.3309 28.5817C57.9593 28.2314 60.5729 28.4359 63.1717 28.8449C65.6392 29.2392 66.7784 28.6114 67.8748 26.3336C68.9127 24.1581 70.5339 23.3843 72.7821 24.1436C74.4172 24.6986 75.7461 24.3482 76.9441 23.1655C77.6745 22.4355 78.3758 21.6908 79.1355 21.0046C82.1157 18.245 85.5767 17.3545 89.4893 18.4644C93.9129 19.7203 97.7957 21.9253 101.152 25.0648C102.787 26.598 104.101 26.7879 106.073 25.8243C107.256 25.2403 108.482 24.8023 109.797 24.5979C115.244 23.7805 116.966 25.3429 118.059 29.1247C118.685 31.2712 120.335 32.0889 122.584 31.6948C123.562 31.5196 124.555 31.4905 125.533 31.6073C129.636 32.0747 131.183 33.6226 131.794 37.7402C131.998 39.1274 132.012 40.5145 131.996 41.9163C131.966 44.3109 133.279 45.7565 135.659 45.9902C136.681 46.0925 137.718 46.0633 138.725 46.2532C141.266 46.706 142.535 48.8817 141.687 51.3055C141.292 52.4298 140.795 53.5103 140.312 54.5907C139.727 55.9195 139.201 57.3066 139.419 58.7521C140.147 63.5853 141.02 68.36 145.939 70.9885C146.903 71.4996 147.764 72.2443 148.596 72.9744C150.522 74.6683 151.821 76.7563 152.491 79.2532C152.957 80.9908 152.489 82.4072 151.262 83.619C150.079 84.7871 148.633 85.5609 147.085 86.1449C146.998 84.4657 146.736 82.8158 146.284 81.195C145.191 77.3547 142.784 74.5219 139.397 72.4776C139.121 70.6378 138.494 68.9002 137.911 67.1479C137.736 66.6223 137.4 66.374 136.845 66.2718C135.108 65.9359 133.385 65.5708 131.677 65.1765C123.589 63.3217 115.691 60.8245 107.968 57.7725C107.107 57.4366 106.347 57.4658 105.5 57.8746C102.448 59.3054 99.3516 60.6048 96.445 62.313C96.0945 62.5174 95.5104 62.5904 95.5247 63.0285C95.5244 63.5687 96.1815 63.5834 96.5611 63.7294C104.225 66.5916 112.021 68.972 120.066 70.5201C122.927 71.0605 125.804 71.4841 128.665 71.9806C128.928 72.0245 129.352 71.9807 129.351 72.3457C129.351 72.8276 128.899 72.7253 128.606 72.7399C127.453 72.7837 126.314 72.6084 125.175 72.55C118.663 72.1554 112.239 71.0746 105.844 69.8478C101.012 68.9131 96.223 67.7594 91.4783 66.445C90.7921 66.2552 90.1206 65.9339 89.361 66.445C86.4543 68.3868 83.5621 70.3141 80.8596 72.5188C80.6259 72.7086 80.1732 72.8108 80.2606 73.2051C80.3334 73.5993 80.7861 73.5409 81.0781 73.6139C84.3192 74.3587 87.5457 75.1036 90.8015 75.8046C97.4152 77.2212 104.102 78.229 110.848 78.6674C113.257 78.8281 115.666 78.9888 118.075 79.1495C118.353 79.1641 118.747 79.1349 118.761 79.5C118.776 79.8796 118.382 79.8504 118.104 79.8796C116.878 80.011 115.666 80.1715 114.424 80.1423C111.183 80.0691 107.956 80.0836 104.714 79.9374C100.582 79.7474 96.4503 79.4844 92.3475 79.0754C87.0182 78.5495 81.689 77.8776 76.4037 77.0013C75.8197 76.899 75.3962 77.0596 74.9433 77.4393C72.8836 79.206 70.9843 81.1333 69.0851 83.0752C68.4715 83.703 67.9746 84.4185 67.3025 85.2361C70.6314 85.7473 73.7706 86.0395 76.8951 86.3463C81.3775 86.7991 85.8599 87.2812 90.3718 87.2814C90.9851 87.2814 91.5983 87.3106 92.2115 87.369C94.5915 87.6028 96.9569 87.5445 99.3371 87.384C102.111 87.2089 104.9 87.136 107.689 87.0339C107.952 87.0339 108.361 86.9755 108.375 87.3552C108.375 87.7056 107.996 87.7056 107.718 87.764C107.441 87.8224 107.163 87.8954 106.871 87.9391C100.738 88.7858 94.5759 89.3404 88.3994 89.4569C82.0331 89.5734 75.6669 89.4855 69.3152 89.4853C68.2055 89.4852 67.1104 89.5144 66.0008 89.2807C64.5554 88.9886 63.3141 89.339 62.5248 90.7261C61.0941 90.4048 59.8679 89.6601 58.598 88.9883C60.2932 86.3601 62.4992 84.1408 64.5155 81.7755C65.1145 81.0746 65.1731 80.7242 64.4434 80.1401C61.0865 77.5117 58.5476 74.2262 56.8121 70.3421C54.1433 64.3408 54.4386 58.3104 56.6759 52.2654C56.8368 51.8128 57.0707 51.2288 57.6839 51.3894C58.3847 51.5793 58.0631 52.1779 57.9753 52.6305C57.4043 55.4632 57.2129 58.2959 57.7662 61.1724C59.0475 67.8162 62.9873 72.6056 68.3002 76.4753C68.9132 76.9279 69.3659 76.8842 69.9064 76.3439C72.0833 74.11 74.4206 72.0513 76.8893 70.1532C77.9411 69.3502 77.7077 68.8391 76.9781 68.0214C71.7101 62.1951 69.8739 55.5076 72.0537 47.8711C72.5804 46.0021 73.4282 44.2646 74.3345 42.5562C74.5683 42.1182 74.9335 41.8262 75.4299 41.9868C76.0284 42.1912 75.7215 42.6585 75.6191 43.0235C75.4582 43.6222 75.2827 44.2062 75.1071 44.8049C72.6784 53.6971 76.267 59.9467 81.4915 65.1305C82.0899 65.7292 82.6739 65.773 83.4335 65.2328C86.0043 63.4077 88.6627 61.6848 91.4379 60.1518C92.3873 59.6262 92.4605 59.1735 91.877 58.2244C88.8133 53.3182 87.648 48.1346 89.8413 42.5131C90.704 40.3083 91.8586 38.2933 93.3343 36.4682C93.6704 36.0448 94.1671 35.6068 94.7072 35.928C95.3348 36.3077 94.7505 36.7895 94.6043 37.2129C94.5165 37.4758 94.3558 37.724 94.2242 37.9868C91.1252 44.4843 92.5966 50.5002 97.0326 55.8008C97.5142 56.3703 98.0543 56.5601 98.77 56.2097C101.925 54.6329 105.152 53.2167 108.468 51.9903C109.344 51.6691 109.432 51.2164 109.082 50.3987C107.201 46.135 107.174 41.886 109.41 37.7246C109.892 36.834 109.922 36.3521 108.812 35.8848C103.353 33.6068 97.7025 32.2486 91.8037 31.7519C87.5111 31.3866 83.2911 31.6347 79.0709 32.2916C74.5441 32.9922 70.2213 34.35 66.0297 36.1896C58.2598 39.606 51.7593 44.7016 46.3678 51.2137C43.2703 54.9661 40.7274 59.0837 38.8267 63.5662C37.7156 66.1945 36.5314 68.8373 36.194 71.7284C33.4192 72.765 31.155 74.4294 29.3138 77.0868C30.5258 76.9409 31.3 76.3568 32.2929 76.3715C35.987 76.4447 39.2863 77.6421 42.3077 79.6573C47.0807 82.826 50.4075 87.2358 52.9892 92.2734C53.3538 92.9889 53.7332 93.573 54.5653 93.8651C56.5069 94.5514 58.3316 95.5444 59.9371 96.8002C62.3453 98.6693 64.5782 100.743 63.3935 104.335C63.2034 104.904 63.5245 105.138 64.0355 105.284C65.1304 105.62 66.2546 105.926 67.3056 106.365C72.7507 108.701 75.5812 112.848 72.8619 119.053C72.4672 119.973 72.6129 120.441 73.4449 121.054C79.3123 125.391 81.9958 131.217 81.291 138.532C81.1882 139.554 81.1439 140.576 81.0557 141.584C80.0627 141.803 79.0553 141.657 78.1501 141.336C73.5807 139.715 68.7919 138.941 64.1786 137.509C54.2804 134.428 45.9313 129.069 39.4965 120.848C33.7183 113.459 30.2039 104.99 27.8141 95.9957C27.3187 94.1559 27.2467 92.2285 26.5907 90.4179L26.4884 90.4617ZM136.744 64.3152C136.642 64.0232 136.555 63.7019 136.409 63.4099C135.709 61.9789 135.009 60.5333 134.265 59.117C132.558 55.9045 130.72 52.8089 126.895 51.7137C126.851 51.7137 126.822 51.6845 126.778 51.6553C126.092 51.261 125.406 51.261 124.646 51.4653C121.565 52.3121 118.455 53.0858 115.431 54.1224C114.599 54.4144 113.241 54.4436 113.168 55.1882C113.094 55.7869 114.467 56.2104 115.255 56.6047C120.306 59.1601 125.517 61.3506 130.875 63.1906C132.495 63.7456 134.16 64.1983 135.809 64.6802C136.174 64.7824 136.642 65.0161 136.744 64.3006L136.744 64.3152ZM113.089 38.0898C112.622 38.0898 112.359 38.4256 112.286 39.1995C111.948 42.7185 112.676 45.96 114.792 48.8512C115.171 49.3769 115.522 49.5229 116.135 49.3039C118.618 48.4134 121.173 47.844 123.714 47.1871C124.853 46.8951 124.912 46.7637 123.992 45.9167C120.811 42.9963 117.366 40.4409 113.6 38.3089C113.425 38.2067 113.235 38.1483 113.089 38.0752L113.089 38.0898Z" fill="#79C88C"/>
<path d="M88.3168 138.209C87.2509 138.209 86.1704 138.209 85.1045 138.209C85.7043 136.151 85.866 134.048 85.8672 131.901C85.8561 125.36 83.0846 120.235 77.8448 116.453C76.9982 115.839 76.9984 115.387 77.3639 114.54C78.1826 112.686 78.6655 110.758 78.2432 108.714C80.7112 108.057 82.9167 106.758 85.2535 105.779C85.5164 105.677 85.8085 105.487 85.6919 105.137C85.5607 104.772 85.2394 104.86 84.9619 104.947C84.6552 105.049 84.3485 105.181 84.0418 105.298C82.0556 106.042 80.0986 106.918 77.9812 107.239C76.4059 104.041 73.6472 102.348 70.377 101.296C70.5669 101.223 70.7568 101.106 70.9466 101.077C77.9558 100.231 84.8775 98.9751 91.6974 97.121C92.8511 96.8144 93.9902 96.4641 95.1147 96.1137C95.436 96.0115 95.9471 95.9385 95.8014 95.442C95.6702 95.0186 95.2612 95.223 94.94 95.2814C94.4581 95.369 93.9762 95.4858 93.4943 95.5879C85.1412 97.4274 76.6865 98.2885 68.1446 98.3319C68.2916 96.5213 67.4601 95.1633 66.2926 93.8637C65.1544 92.608 63.6216 91.8924 62.4542 90.7096C63.2434 89.3371 64.4847 88.9868 65.9301 89.2643C67.0251 89.4833 68.1348 89.4542 69.2445 89.4688C75.6108 89.4691 81.977 89.5716 88.3287 89.4405C94.5052 89.3239 100.667 88.7694 106.8 87.9228C107.078 87.879 107.355 87.806 107.647 87.7476C107.925 87.6892 108.319 87.6892 108.305 87.3388C108.305 86.9445 107.896 87.0029 107.619 87.0175C104.83 87.1196 102.055 87.1925 99.2663 87.3676C96.8862 87.5281 94.5207 87.5864 92.1408 87.3526C91.5276 87.2942 90.9143 87.265 90.301 87.2649C85.7892 87.2647 81.3068 86.7827 76.8244 86.3298C73.6852 86.0231 70.5607 85.7163 67.2318 85.2197C67.9039 84.4021 68.4008 83.672 69.0144 83.0588C70.899 81.1169 72.8129 79.1895 74.8726 77.4229C75.3109 77.0432 75.749 76.8826 76.333 76.9849C81.6183 77.8758 86.9474 78.5331 92.2767 79.059C96.3795 79.468 100.512 79.7164 104.644 79.921C107.885 80.0672 111.112 80.0528 114.354 80.1259C115.595 80.1552 116.807 79.9946 118.033 79.8632C118.311 79.8341 118.705 79.8633 118.691 79.4836C118.676 79.1186 118.282 79.1624 118.004 79.1332C115.595 78.9724 113.186 78.7971 110.777 78.651C104.017 78.2126 97.3444 77.1902 90.7307 75.7882C87.475 75.1018 84.2484 74.3424 81.0073 73.5975C80.7153 73.5245 80.2627 73.5829 80.1899 73.1887C80.1171 72.7944 80.5552 72.6922 80.7889 72.5024C83.4914 70.2977 86.3981 68.3559 89.2902 66.4286C90.0498 65.9176 90.7213 66.2388 91.4075 66.4287C96.1522 67.743 100.941 68.8968 105.773 69.8315C112.168 71.0583 118.592 72.1391 125.104 72.5336C126.243 72.6067 127.382 72.7673 128.536 72.7236C128.828 72.7236 129.295 72.8112 129.28 72.3294C129.281 71.9643 128.857 72.0081 128.594 71.9643C125.733 71.4823 122.842 71.0588 119.995 70.5038C111.95 68.9703 104.154 66.5753 96.4902 63.713C96.0961 63.567 95.4536 63.5524 95.4539 63.0121C95.4542 62.5741 96.0383 62.5011 96.3742 62.2967C99.2808 60.603 102.392 59.289 105.43 57.8582C106.277 57.464 107.036 57.4203 107.897 57.7561C115.62 60.8228 123.503 63.32 131.606 65.1602C133.329 65.5545 135.052 65.9196 136.774 66.2555C137.329 66.3577 137.665 66.606 137.84 67.1316C138.423 68.8838 139.05 70.6215 139.326 72.4613C137.604 71.5997 135.822 71.5996 133.997 72.0668C132.902 72.3441 131.806 72.6653 130.711 72.9573C129.966 73.3077 129.221 73.6289 128.491 74.0231C122.649 77.1622 118.879 82.1995 115.868 87.9086C115.517 88.5656 115.123 88.9744 114.436 89.281C111.763 90.4636 109.135 91.7339 107.133 93.9386C105.774 95.4279 104.853 97.1216 105.524 99.1951C105.859 100.232 105.538 100.611 104.603 100.83C102.456 101.312 100.456 102.144 98.7027 103.488C96.906 104.875 95.4157 106.495 95.2392 108.905C95.0775 110.89 95.2371 112.862 96.2144 114.643C96.6812 115.49 96.4765 115.899 95.717 116.41C91.4664 119.286 88.8944 123.287 87.8987 128.31C87.2399 131.639 87.5593 134.909 88.3168 138.18L88.3168 138.209Z" fill="#13BC78"/>
<path d="M36.1034 71.7453C36.4409 68.8542 37.6104 66.226 38.7362 63.5831C40.6369 59.1005 43.1799 54.9829 46.2775 51.2304C51.6691 44.7183 58.1696 39.6226 65.9396 36.2061C70.1313 34.3664 74.4541 33.0086 78.981 32.3079C83.2013 31.651 87.4213 31.4029 91.714 31.7681C97.6128 32.2648 103.263 33.623 108.723 35.901C109.832 36.3683 109.803 36.8355 109.32 37.7408C107.099 41.9022 107.125 46.1513 108.992 50.415C109.357 51.2327 109.254 51.6854 108.378 52.0066C105.063 53.233 101.835 54.6492 98.6801 56.2261C97.9645 56.5911 97.4243 56.3867 96.9428 55.8172C92.5068 50.5166 91.0499 44.5007 94.1344 38.0031C94.2514 37.7403 94.4267 37.4921 94.5145 37.2292C94.6607 36.8058 95.2451 36.324 94.6174 35.9443C94.0773 35.623 93.5806 36.0611 93.2446 36.4845C91.7688 38.3243 90.5995 40.3392 89.7514 42.5294C87.5581 48.1364 88.738 53.3346 91.787 58.2409C92.3706 59.19 92.3119 59.6426 91.3479 60.1683C88.5874 61.7013 85.9289 63.4242 83.3434 65.2493C82.5838 65.7896 81.9998 65.7457 81.4015 65.147C76.1769 59.9633 72.5883 53.7137 75.0171 44.8214C75.178 44.2227 75.3682 43.6386 75.5291 43.04C75.6315 42.6749 75.9384 42.2077 75.3399 42.0033C74.8435 41.828 74.4783 42.12 74.2444 42.5727C73.3382 44.281 72.4903 46.0186 71.9637 47.8876C69.7838 55.5388 71.6199 62.2264 76.888 68.038C77.6322 68.8557 77.8509 69.3522 76.7992 70.1698C74.3304 72.068 71.9784 74.1267 69.8162 76.3607C69.2902 76.9009 68.8229 76.9447 68.2099 76.492C62.897 72.6224 58.9572 67.8329 57.6759 61.1891C57.1226 58.3272 57.314 55.4799 57.885 52.6472C57.9729 52.1946 58.2945 51.5959 57.5937 51.4061C56.9805 51.2308 56.7465 51.8295 56.5857 52.2821C54.3483 58.3271 54.053 64.3576 56.7218 70.3589C58.4572 74.243 60.9961 77.5285 64.3531 80.1569C65.0974 80.741 65.0242 81.0914 64.4252 81.7923C62.4088 84.1577 60.1882 86.3624 58.5075 89.0053C57.763 88.7716 57.6758 88.0415 57.384 87.4866C55.0648 83.0331 52.0444 79.1781 48.1183 76.024C46.615 74.8266 44.834 74.0673 43.243 73.0013C43.0249 71.2053 42.9821 69.4093 42.9977 67.5987C42.9979 67.1899 43.2173 66.5766 42.5749 66.489C42.0346 66.4159 41.8591 66.9562 41.7275 67.3942C41.6397 67.7009 41.6103 68.0367 41.5225 68.3579C41.1275 69.7159 41.4772 71.1468 41.0238 72.4902C39.4032 72.0813 37.7827 71.7016 36.1034 71.7599L36.1034 71.7453Z" fill="#13BC78"/>
<path d="M130.728 72.9854C131.823 72.6934 132.918 72.3722 134.013 72.0948C135.824 71.6277 137.62 71.6278 139.343 72.4893C142.729 74.5337 145.122 77.3665 146.23 81.2067C146.696 82.8275 146.944 84.4775 147.03 86.1567C146.102 101.415 140.415 114.644 129.794 125.623C123.278 132.354 115.056 136.165 106.089 138.501C102.599 139.406 99.0796 140.165 95.6477 141.289C93.5593 141.975 91.442 142.136 89.7347 140.267C90.6839 140.004 91.6185 139.712 92.5823 139.493C99.0077 138.033 105.244 136.077 110.984 132.748C118.009 128.66 123.561 123.083 127.843 116.22C129.976 112.803 131.818 109.241 133.222 105.459C135.678 98.8301 137.974 92.172 137.379 84.9297C137.191 82.6226 136.637 80.4178 135.543 78.3443C134.376 76.1687 132.742 74.431 130.757 73L130.728 72.9854Z" fill="#8ECF9E"/>
<path d="M36.1057 71.7428C37.7995 71.6698 39.42 72.0642 41.0259 72.4731C41.7705 72.6337 42.4566 73.0134 43.2451 72.9842C44.836 74.0502 46.617 74.795 48.1203 76.007C52.0464 79.1465 55.0814 83.016 57.386 87.4695C57.6777 88.0244 57.7649 88.7691 58.5095 88.9881C59.7794 89.6599 61.0202 90.4046 62.4363 90.7259C63.6038 91.9087 65.1366 92.6242 66.2748 93.88C67.4422 95.1796 68.2737 96.5376 68.1268 98.3481C67.9605 99.8764 68.6608 100.86 70.2278 101.298C70.2278 101.298 70.3154 101.298 70.3446 101.312C73.6147 102.364 76.3735 104.058 77.9487 107.255C78.036 107.752 78.1234 108.234 78.2253 108.73C78.6477 110.774 78.1648 112.716 77.3461 114.556C76.9806 115.388 76.9804 115.856 77.8269 116.469C83.0814 120.266 85.8383 125.376 85.8494 131.918C85.8482 134.049 85.7011 136.167 85.0867 138.225C84.2535 140.036 83.1284 141.481 80.9381 141.642C81.0117 140.62 81.0706 139.598 81.1734 138.59C81.8782 131.275 79.1946 125.449 73.3272 121.112C72.4953 120.499 72.3495 120.017 72.7442 119.112C75.4634 112.906 72.633 108.759 67.1879 106.423C66.1369 105.97 65.0273 105.663 63.9178 105.342C63.4068 105.181 63.0857 104.962 63.2759 104.393C64.4751 100.816 62.2276 98.7275 59.8194 96.8584C58.2139 95.6026 56.3893 94.6096 54.4477 93.9232C53.6155 93.6312 53.2362 93.0471 52.8716 92.3316C50.2898 87.294 46.9631 82.8842 42.1901 79.7154C39.1541 77.7003 35.8549 76.5028 32.1754 76.4296C31.1971 76.415 30.4229 76.999 29.1963 77.145C31.0521 74.4876 33.3016 72.8085 36.0764 71.7866L36.1057 71.7428Z" fill="#8ECF9E"/>
<path d="M136.746 64.3149C136.644 65.0158 136.176 64.7967 135.811 64.6945C134.162 64.2126 132.497 63.7599 130.877 63.205C125.519 61.365 120.322 59.1746 115.256 56.6192C114.468 56.2249 113.096 55.7868 113.169 55.2028C113.257 54.4581 114.601 54.4289 115.433 54.1369C118.456 53.1003 121.567 52.3265 124.648 51.4796C125.408 51.2752 126.094 51.2753 126.78 51.6695C126.809 51.6841 126.853 51.7133 126.897 51.7279C130.736 52.8232 132.575 55.9188 134.267 59.1312C135.011 60.5476 135.711 61.9932 136.411 63.4242C136.557 63.7162 136.644 64.0375 136.746 64.3295L136.746 64.3149Z" fill="#13BC78"/>
<path d="M113.09 38.0907C113.221 38.1491 113.425 38.2222 113.601 38.3244C117.367 40.4564 120.811 43.0118 123.993 45.9322C124.912 46.7791 124.868 46.8959 123.715 47.2025C121.174 47.8595 118.618 48.4434 116.135 49.3194C115.537 49.5384 115.186 49.3924 114.792 48.8667C112.677 45.9755 111.948 42.734 112.286 39.215C112.359 38.4265 112.608 38.1053 113.09 38.1053L113.09 38.0907Z" fill="#13BC78"/>
<path d="M130.727 72.986C132.726 74.417 134.346 76.1546 135.513 78.3303C136.622 80.3892 137.161 82.594 137.349 84.9156C137.944 92.1579 135.648 98.816 133.191 105.445C131.788 109.227 129.946 112.789 127.812 116.206C123.531 123.083 117.979 128.66 110.954 132.734C105.214 136.077 98.9778 138.033 92.5525 139.479C91.5887 139.698 90.654 139.99 89.7048 140.252C88.9604 139.756 88.8149 138.865 88.3042 138.208C87.5613 134.937 87.2272 131.667 87.886 128.338C88.8816 123.315 91.4536 119.314 95.7041 116.438C96.4636 115.927 96.6536 115.518 96.2015 114.671C95.2241 112.89 95.0646 110.919 95.2262 108.933C95.4173 106.524 96.893 104.888 98.6896 103.516C100.443 102.173 102.443 101.34 104.59 100.859C105.539 100.64 105.846 100.275 105.511 99.2234C104.84 97.1499 105.776 95.4562 107.12 93.9669C109.136 91.7622 111.765 90.492 114.423 89.3095C115.109 89.0029 115.504 88.5941 115.855 87.937C118.88 82.228 122.635 77.1907 128.477 74.0517C129.193 73.6721 129.953 73.351 130.697 72.986L130.727 72.986Z" fill="#8ECF9E"/>
<path d="M70.3601 101.297C70.3601 101.297 70.2725 101.297 70.2433 101.283C68.6762 100.854 67.9758 99.8712 68.1421 98.3332C76.6845 98.2894 85.1397 97.4279 93.4932 95.5881C93.9752 95.4859 94.4571 95.3836 94.939 95.2814C95.2457 95.223 95.6693 95.0186 95.8005 95.4421C95.9463 95.9385 95.4351 96.0115 95.1138 96.1138C93.9746 96.4788 92.8355 96.8146 91.6963 97.1213C84.8761 98.9757 77.9539 100.231 70.9443 101.078C70.7545 101.108 70.5646 101.224 70.3747 101.297L70.3601 101.297Z" fill="#79C88C"/>
<path d="M78.2419 108.714C78.1545 108.218 78.0672 107.736 77.9652 107.239C80.0827 106.918 82.0399 106.042 84.0261 105.298C84.3328 105.181 84.6396 105.049 84.9463 104.947C85.2237 104.86 85.545 104.772 85.6762 105.137C85.7929 105.487 85.5007 105.663 85.2378 105.779C82.901 106.758 80.6954 108.057 78.2273 108.714L78.2419 108.714Z" fill="#79C88C"/>
<path d="M43.2419 72.9725C42.4534 73.0016 41.7674 72.622 41.0228 72.4613C41.4761 71.118 41.1119 69.6725 41.5214 68.3292C41.6091 68.0226 41.6239 67.6868 41.7263 67.3656C41.8579 66.9276 42.0334 66.4019 42.5736 66.4604C43.216 66.548 42.9966 67.1612 42.9964 67.5701C42.9809 69.3806 43.0238 71.1765 43.2419 72.9725Z" fill="#79C88C"/>
<path d="M84.898 84.3165C85.5983 85.4701 85.992 86.5798 86.7509 87.3246C88.2833 88.8286 90.62 88.2299 92.0228 86.2733C92.4758 85.6454 93.25 85.2366 93.8782 84.7255C93.8923 85.6454 94.2129 86.6968 93.8767 87.4561C92.7071 90.0698 89.3187 91.2379 86.4429 89.7923C84.9393 89.0476 84.0047 89.179 82.5587 89.8361C79.2724 91.34 75.2724 89.4855 74.909 86.4775C74.8363 85.908 75.3477 85.2655 75.5963 84.6523C76.0196 84.8567 76.5744 84.9589 76.8371 85.2948C79.8868 89.2227 81.1134 89.1936 83.8317 85.0612C83.9778 84.8276 84.2991 84.7254 84.898 84.3165Z" fill="black"/>
<path d="M107.172 73.994C109.684 74.1547 112.005 75.0747 113.113 77.7761C113.361 78.3601 112.937 79.2216 112.834 79.9517C112.177 79.6743 111.287 79.6012 110.893 79.1048C108.135 75.7463 106.164 75.7608 103.139 79.236C102.759 79.6741 101.985 79.7762 101.386 80.0245C101.212 79.3236 100.745 78.5351 100.906 77.9218C101.462 75.7461 104.266 74.0086 107.172 73.994Z" fill="black"/>
<path d="M68.02 76.9145C68.0475 80.1122 66.4255 82.6089 64.2644 82.7256C62.0596 82.8423 60.1628 80.2432 60.1499 77.0747C60.137 73.8186 61.8905 71.278 64.1683 71.2928C66.3585 71.2929 68.0071 73.7022 68.02 76.9145Z" fill="black"/>
</g>
</svg>
