<svg width="113" height="146" viewBox="0 0 113 146" fill="none" xmlns="http://www.w3.org/2000/svg">
<path d="M23.3209 145.156C22.3123 144.584 21.1525 144.635 20.0767 144.366C14.2608 142.92 9.77276 139.659 6.5118 134.617C3.82235 130.465 1.60355 126.128 0.595005 121.237C-1.13633 112.815 0.964804 105.285 6.19243 98.6619C12.7312 90.3919 21.3374 85.1811 31.3724 82.1722C38.6339 80.0039 45.0718 76.3395 50.7533 71.3472C61.9313 61.5475 68.5037 49.0079 72.3698 34.8547C72.9749 32.6527 73.7985 30.5684 74.7567 28.5177C76.1518 27.6436 77.5302 26.7191 78.9589 25.9123C80.9424 24.8029 83.094 24.3322 85.3632 24.618C85.8338 24.6852 86.4894 24.5844 86.4558 25.3912C86.2541 29.5262 88.0526 33.0729 89.784 36.6365C90.4731 38.0484 91.1623 38.0484 91.9691 36.7541C92.1877 36.4011 92.3894 36.0145 92.6079 35.6615C94.5073 32.5519 96.6757 29.6775 99.5332 27.1729L100.222 29.3077C100.206 29.543 100.138 29.7952 100.172 30.0137C101.046 34.5017 101.197 39.0233 101.046 43.5786C100.912 47.5455 100.441 51.4453 99.7517 55.3282C98.5247 62.1358 96.6757 68.7922 94.272 75.2805C92.1036 81.1301 89.4646 86.7611 86.5566 92.2745C84.674 95.8548 82.5729 99.3343 80.2868 102.679C76.7233 107.873 72.9245 112.882 68.655 117.555C63.6458 123.035 58.3174 128.128 52.451 132.667C48.7362 135.541 44.618 137.693 40.3485 139.592C35.2217 141.878 29.9437 143.71 24.363 144.568C23.9596 144.635 23.6066 144.635 23.5562 145.139H23.2705L23.3209 145.156Z" fill="#BDA6ED"/>
<path d="M23.5901 145.156C23.6405 144.651 23.9935 144.635 24.3969 144.584C29.9775 143.727 35.2388 141.895 40.3824 139.609C44.6519 137.709 48.7869 135.558 52.4849 132.683C58.3513 128.145 63.6797 123.052 68.6888 117.572C72.9583 112.899 76.7572 107.89 80.3207 102.696C82.6068 99.3509 84.6911 95.8714 86.5905 92.2911C89.4817 86.7777 92.1375 81.1467 94.3059 75.2971C96.7096 68.792 98.5586 62.1524 99.7856 55.3447C100.492 51.4786 100.962 47.5621 101.08 43.5952C101.231 39.0231 101.08 34.5183 100.206 30.0303C100.155 29.8117 100.239 29.5596 100.256 29.3243C102.307 33.4929 105.534 36.1656 110.106 37.1573C110.577 54.3362 106.055 70.372 98.8443 85.7692C91.8686 100.645 82.3042 113.639 70.5042 125.052C60.7045 134.532 49.392 141.105 36.0624 144.164C34.3815 144.55 32.6334 144.55 31.0029 145.156H23.6237H23.5901Z" fill="#A48ADC"/>
<path d="M110.106 37.1575C105.534 36.1658 102.29 33.4931 100.256 29.3245C100.038 28.6521 99.8191 27.9966 99.567 27.1897C96.7095 29.6943 94.5243 32.5686 92.6417 35.6783C92.4231 36.0481 92.2214 36.4179 92.0029 36.7709C91.1961 38.0652 90.4901 38.0652 89.8177 36.6532C88.0864 33.0897 86.2878 29.543 86.4895 25.408C86.5232 24.6011 85.8508 24.702 85.3969 24.6348C83.1277 24.349 80.9762 24.8028 78.9927 25.929C77.5639 26.7359 76.1856 27.6604 74.7904 28.5345C73.8491 28.2823 73.6474 27.694 73.95 26.8031C76.6226 19.1214 82.4217 13.1205 91.2969 12.112C93.4653 11.8599 93.4989 11.8262 92.8602 9.74191C91.9861 6.93479 90.2043 4.90089 87.5653 3.6066C86.187 2.93423 85.7499 1.92569 86.3719 0.917144C87.0106 -0.10821 87.9015 -0.209064 88.9437 0.295208C93.4317 2.4972 96.0875 6.06072 96.7599 11.0194C96.8775 11.9103 97.1297 12.2801 98.0374 12.4818C102.206 13.4399 104.946 16.1462 106.761 19.9282C108.425 23.3909 109.283 27.1225 110.459 30.7533C110.964 32.3165 111.569 33.8629 112.123 35.4094C112.308 35.9305 112.678 36.4683 112.258 37.0062C111.838 37.5441 111.249 37.3592 110.678 37.2247C110.493 37.1911 110.308 37.1743 110.123 37.1575H110.106Z" fill="#8ECF9E"/>
<path d="M65.9989 73.4312C66.3183 78.8101 68.1169 79.3312 72.4704 77.1796C73.1764 78.7093 73.479 80.844 74.6724 81.6172C75.765 82.3232 77.8157 81.55 80.0177 81.3987C79.7824 81.9198 79.6479 82.8275 79.11 83.2813C76.9752 85.1303 73.832 84.4412 71.7308 82.0207C71.0753 81.2642 69.9491 80.6759 68.9573 80.491C66.3015 80.0036 64.0995 78.1882 64.1163 75.9021C64.1163 74.944 64.7214 73.9691 65.0408 73.011L65.9653 73.4144L65.9989 73.4312Z" fill="black"/>
<path d="M69.3942 66.2878C68.2176 68.4394 66.2005 69.4983 64.7045 68.7755C63.1749 68.0191 62.8891 65.5818 64.0658 63.4471C65.276 61.2619 67.394 60.2197 68.9236 61.077C70.386 61.9006 70.5877 64.1362 69.4111 66.2878H69.3942Z" fill="black"/>
<path d="M88.9939 77.2473C87.8172 79.3989 85.8001 80.4579 84.3041 79.7351C82.7745 78.9787 82.4887 76.5413 83.6654 74.4066C84.8756 72.2214 86.9936 71.1793 88.5232 72.0365C89.9856 72.8602 90.1873 75.0958 89.0107 77.2473H88.9939Z" fill="black"/>
</svg>
