<svg width="150" height="192" viewBox="0 0 150 192" fill="none" xmlns="http://www.w3.org/2000/svg">
<path d="M61.321 61.7314C61.321 64.2688 48.1136 66.5524 31.6043 66.5524C15.0951 66.5524 1.8877 64.5225 1.8877 61.7314C1.8877 60.209 6.2055 58.9403 12.8092 57.9253C13.3172 58.4328 13.8251 58.9403 14.5871 59.194C20.6828 60.9702 36.1761 64.5225 50.3995 59.194C50.9075 58.9403 51.4154 58.6866 51.9234 58.1791C57.7651 59.194 61.321 60.4627 61.321 61.7314Z" fill="#FFDD93" stroke="#FFDD93" stroke-width="3" stroke-miterlimit="10"/>
<path d="M51.1615 59.4478C51.6695 58.9403 51.9234 58.1791 51.9234 57.1641L52.4314 29.7605C52.4314 25.1932 50.1455 20.8797 46.0817 18.8498L16.1111 2.35685C14.3332 1.3419 12.3013 2.61058 12.3013 4.64048V5.90917V6.16291C12.3013 6.41664 12.3013 7.43159 12.3013 10.4764V24.6857V59.194" stroke="#F2897D" stroke-width="3" stroke-miterlimit="10" stroke-linecap="round" stroke-linejoin="round"/>
<path d="M1.8877 139.629V61.7313" stroke="#F2897D" stroke-width="3" stroke-miterlimit="10" stroke-linecap="round" stroke-linejoin="round"/>
<path d="M59.7971 153.838C60.0511 153.077 60.0511 152.569 60.0511 151.808L61.3211 61.7313" stroke="#F2897D" stroke-width="3" stroke-miterlimit="10" stroke-linecap="round" stroke-linejoin="round"/>
<path d="M95.779 189.585C97.9507 189.019 97.0121 178.227 93.6827 165.481C90.3533 152.735 85.8938 142.862 83.7222 143.428C81.5505 143.994 82.4891 154.785 85.8184 167.531C89.1478 180.277 93.6073 190.151 95.779 189.585Z" fill="#FFDD93" stroke="#FFDD93" stroke-width="3" stroke-miterlimit="10"/>
<path d="M83.6719 143.435L131.168 131.002C133.2 130.494 135.485 131.002 137.009 132.524C149.455 145.718 148.439 164.749 147.169 172.614C146.915 174.898 145.137 176.674 142.851 177.182L95.6093 189.361" stroke="#F2897D" stroke-width="3" stroke-miterlimit="10"/>
<path d="M1.8877 140.39V174.645" stroke="#F2897D" stroke-width="3"/>
<path d="M60.305 150.54V177.182C46.3357 194.944 9.50735 187.332 1.8877 173.376" stroke="#F2897D" stroke-width="3"/>
</svg>
