<svg width="118" height="146" viewBox="0 0 118 146" fill="none" xmlns="http://www.w3.org/2000/svg">
<path d="M52.8043 21.5829C53.1573 18.7422 53.359 15.8846 54.1994 13.1111C56.3174 6.1858 60.9567 2.00034 67.9324 0.302624C68.1846 0.235388 68.5208 0.336243 68.672 6.10352e-05H70.9413C72.4373 0.588379 73.8156 1.29436 74.7233 2.73994C76.7572 6.03452 75.3957 10.0519 71.6809 11.3966C66.9743 13.0943 64.1672 16.3889 63.1755 21.2804C61.898 26.4912 62.4023 31.6852 63.2931 36.8792C63.3772 37.7364 63.1587 38.6777 64.2176 39.1484C67.0248 40.4259 69.8319 41.6025 72.9247 40.0057C73.076 39.9216 73.2945 40.0057 73.4794 40.0057C73.698 41.1823 73.0592 42.09 72.5549 43.0481C72.0002 43.2834 71.4287 43.1826 70.874 43.0985C68.4367 42.7623 65.9994 42.88 63.5621 43.1994C61.7803 43.2834 59.9986 43.4515 58.2168 43.4515C53.7624 43.4515 49.3248 42.5102 44.8536 43.0985C44.551 42.6111 44.2148 42.1572 43.9795 41.653C43.6938 41.031 43.2903 40.3418 44.1644 39.804C46.5345 39.8376 48.9382 40.2242 51.1738 38.9467C51.8125 38.5769 52.5689 38.392 53.3085 38.2575C54.1994 38.0894 54.3507 37.6188 54.0818 36.8624C53.2749 31.786 52.7875 26.6929 52.7707 21.5661L52.8043 21.5829Z" fill="#8ECF9E"/>
<path d="M44.8869 43.1153C49.3581 42.5269 53.7957 43.4682 58.2502 43.4682C60.0319 43.4682 61.8137 43.3002 63.5954 43.2161C64.0997 43.5019 64.6376 43.5859 65.1923 43.7204C70.6721 45.0987 74.8575 47.9731 76.7569 53.5873C78.5555 58.899 79.2447 64.3787 79.4128 69.9257C79.5809 75.6576 79.5641 81.4063 78.9421 87.1382C78.6059 90.2143 78.421 93.324 77.9672 96.3664C77.0595 102.35 76.051 108.318 74.3532 114.134C72.2185 121.479 69.5459 128.606 65.0746 134.91C62.7046 138.238 59.9983 141.196 56.4012 143.247C55.6616 143.667 54.5858 143.6 54.2328 144.625C51.1903 143.818 48.7362 142.037 46.4838 139.936C46.0804 139.549 45.7778 139.045 45.1727 138.91C44.4163 137.431 43.1892 136.305 42.2647 134.96C37.5582 128.052 34.7511 120.336 32.7004 112.318C31.2716 106.788 30.2294 101.157 29.5066 95.4755C28.767 89.6428 28.1283 83.8268 28.1451 77.9437C28.1451 75.624 28.1451 73.3212 28.1451 71.0015C28.1115 66.1437 28.7334 61.3531 29.8764 56.6466C30.9522 52.2426 32.8012 48.2924 36.9531 45.8719C39.424 44.4264 42.1471 43.7036 44.9206 43.1489L44.8869 43.1153Z" fill="#EC776A"/>
<path d="M44.887 43.1152C42.1135 43.6699 39.3904 44.3927 36.9195 45.8383C32.7845 48.2588 30.9186 52.2089 29.8429 56.6129C28.6998 61.3194 28.0779 66.11 28.1115 70.9678C28.1115 73.2875 28.1115 75.5903 28.1115 77.91C28.1115 83.7932 28.7503 89.6091 29.4731 95.4419C30.1959 101.123 31.238 106.754 32.6668 112.285C34.7343 120.302 37.5246 128.018 42.2311 134.926C43.1556 136.288 44.3827 137.414 45.1391 138.877C39.5921 139.213 34.1124 138.843 28.7503 137.263C22.9511 135.548 19.5053 131.346 16.799 126.287C11.9748 117.243 8.76428 107.578 6.0244 97.7447C3.68794 89.3738 1.82213 80.902 0.712734 72.279C-0.0436747 66.4126 -0.68242 60.5294 1.46914 54.7807C1.88937 53.6377 2.3096 52.4947 2.72982 51.3517C3.11643 51.2676 3.20048 50.9314 3.36857 50.6457C4.96543 48.0403 7.04976 45.9055 9.57112 44.1574C15.7905 39.8543 22.9343 38.7953 30.2127 38.3414C34.936 38.0557 39.5921 38.8121 44.1978 39.8206C43.3237 40.3417 43.7272 41.0309 44.0129 41.6696C44.2482 42.1739 44.5844 42.6277 44.887 43.1152Z" fill="#F2897D"/>
<path d="M72.555 43.0482C73.0425 42.0901 73.698 41.1824 73.4795 40.0058C76.606 38.9468 79.8333 38.5097 83.1279 38.5938C85.8174 39.1653 88.5572 39.5015 91.1963 40.3083C96.8777 42.0565 101.92 44.8468 105.165 50.024C108.257 54.949 109.384 60.3447 108.762 66.2279C108.123 72.2624 107.047 78.196 105.618 84.0792C103.803 91.6264 101.652 99.0728 98.9789 106.385C96.0205 114.487 92.894 122.521 88.2547 129.85C86.288 132.977 83.7666 135.464 80.2535 136.927C77.6986 137.986 74.9755 138.221 72.3701 138.91C72.0171 138.978 71.7482 138.793 71.4624 138.641C71.6305 137.835 72.3869 137.482 72.8407 136.876C76.7909 131.615 79.6484 125.816 81.7664 119.614C84.002 113.058 85.4644 106.318 86.5906 99.4931C87.4983 94.0133 88.1034 88.5168 88.4228 82.9866C88.6245 79.3054 88.6749 75.5738 88.574 71.859C88.4564 67.0852 88.0193 62.3954 87.0948 57.7225C85.7333 50.7131 82.1698 45.6872 74.9083 43.8382C74.1182 43.6365 73.2105 43.6701 72.5382 43.0482H72.555Z" fill="#F2897D"/>
<path d="M72.555 43.0483C73.2273 43.6702 74.1182 43.6366 74.9251 43.8383C82.1866 45.6705 85.7333 50.7132 87.1116 57.7226C88.0193 62.3955 88.4732 67.1021 88.5908 71.859C88.6749 75.5739 88.6413 79.3055 88.4395 82.9867C88.1202 88.5 87.515 94.0134 86.6074 99.4932C85.4812 106.334 84.0188 113.058 81.7832 119.614C79.6652 125.816 76.8077 131.615 72.8575 136.877C72.4037 137.465 71.6641 137.835 71.4792 138.642C70.5715 139.079 70 139.936 69.2604 140.575C65.2598 143.987 60.8222 146.037 55.4097 144.979C54.9895 144.894 54.6029 144.76 54.1995 144.642C54.5693 143.634 55.6282 143.684 56.3678 143.264C59.965 141.213 62.6712 138.255 65.0413 134.927C69.5293 128.623 72.1852 121.513 74.3199 114.151C76.0176 108.335 77.0262 102.351 77.9339 96.3835C78.4045 93.341 78.5894 90.2314 78.9088 87.1553C79.5307 81.4234 79.5475 75.6747 79.3795 69.9428C79.2114 64.4126 78.5222 58.9161 76.7236 53.6044C74.8242 47.9902 70.6387 45.1158 65.159 43.7375C64.6043 43.603 64.0664 43.5189 63.5621 43.2332C65.9994 42.9138 68.4199 42.7962 70.8741 43.1323C71.4288 43.1996 72.0003 43.3172 72.555 43.0819V43.0483Z" fill="#E36050"/>
<path d="M72.3869 138.911C75.0091 138.221 77.7322 137.986 80.2704 136.927C83.7835 135.465 86.288 132.977 88.2715 129.85C92.894 122.505 96.0373 114.487 98.9957 106.385C101.652 99.0898 103.82 91.6266 105.635 84.0793C107.047 78.1962 108.14 72.2626 108.779 66.2281C109.401 60.3449 108.274 54.966 105.181 50.0241C101.937 44.8469 96.9114 42.0734 91.2131 40.3085C88.5741 39.5017 85.8342 39.1655 83.1447 38.594C83.3464 38.3418 83.6154 38.325 83.9011 38.3082C87.431 38.2242 90.9273 38.5099 94.4236 39.0814C102.542 40.3925 109.619 43.4182 114.191 50.7133C114.292 50.8814 114.578 50.9318 114.779 51.0495C114.88 51.7387 115.082 52.411 115.385 53.0666C117.671 58.0084 117.855 63.2025 117.082 68.4637C114.208 87.9118 108.56 106.519 99.9706 124.219C99.0293 126.169 97.8359 128.001 96.7433 129.867C94.0874 134.372 90.0701 136.977 85.0442 138.07C80.8755 138.978 76.6396 139.196 72.3701 138.911H72.3869Z" fill="#E36051"/>
<path d="M114.779 51.0494C114.577 50.9485 114.292 50.8813 114.191 50.7132C109.602 43.418 102.542 40.3924 94.4234 39.0813C90.9271 38.5266 87.4308 38.224 83.9009 38.3081C83.6152 38.3081 83.3294 38.3417 83.1445 38.5938C79.85 38.5098 76.6226 38.9636 73.4961 40.0058C73.3112 40.0058 73.0927 39.9386 72.9414 40.0058C69.8486 41.6027 67.0414 40.426 64.2343 39.1485C63.1753 38.6611 63.3939 37.7198 63.3098 36.8793C65.3773 36.1397 67.4617 35.4001 69.5292 34.6437C72.6893 33.4839 75.8494 32.3072 79.0263 31.1306C81.6653 30.4414 84.2539 29.5505 86.9266 29.0967C96.7935 27.4158 104.929 30.5423 111.232 38.3249C113.703 41.3673 114.124 45.0989 114.611 48.7969C114.712 49.5365 114.746 50.2929 114.796 51.0494H114.779Z" fill="#EC776A"/>
<path d="M44.198 39.8209C39.5923 38.8123 34.9362 38.0391 30.2128 38.3417C22.9345 38.7955 15.7906 39.8377 9.57127 44.1576C7.04991 45.9058 4.96559 48.0405 3.36873 50.6459C3.20063 50.9149 3.11659 51.2679 2.72998 51.3519C2.83083 49.1331 3.15021 46.9311 3.55363 44.7459C4.6126 38.9804 8.34421 35.232 13.0508 32.2904C20.0769 27.9032 27.557 27.7351 35.2555 30.2397C36.3313 30.5927 37.4239 30.8616 38.5165 31.1642C43.7273 33.0804 48.9213 34.9799 54.1321 36.8961C54.4011 37.6525 54.2498 38.1232 53.3589 38.2912C52.6361 38.4257 51.8629 38.6274 51.2242 38.9804C48.9886 40.2579 46.5849 39.8713 44.2148 39.8377L44.198 39.8209Z" fill="#EC776A"/>
<path d="M78.9926 31.1472C75.8325 32.3238 72.6724 33.5004 69.4955 34.6603C67.428 35.4167 65.3605 36.1563 63.2761 36.8959C62.3684 31.7019 61.881 26.5079 63.1585 21.2971C68.924 22.3056 73.7314 25.0623 77.6983 29.315C78.2026 29.8697 78.7069 30.4412 78.9926 31.1472Z" fill="#F2897D"/>
<path d="M54.1151 36.8962C48.9043 34.98 43.7103 33.0806 38.4995 31.1643C40.8864 27.2646 44.5844 24.9786 48.5345 23.0456C49.8793 22.39 51.308 21.8857 52.7872 21.6C52.804 26.7436 53.2915 31.8367 54.0983 36.8962H54.1151Z" fill="#F2897D"/>
<path d="M60.6369 76.5989C59.8805 76.7502 59.1409 76.9855 58.3845 77.0023C57.9643 77.0023 57.4264 76.7502 57.1575 76.4308C57.023 76.2796 57.3255 75.4055 57.5273 75.3719C58.8216 75.1029 60.3512 74.481 61.3765 74.9348C62.1498 75.271 62.4523 77.0024 62.7213 78.1622C62.9734 79.2211 63.0406 80.381 62.8893 81.4568C62.6876 82.9023 62.6036 84.7345 61.6959 85.6086C60.9227 86.3482 59.0569 86.1129 57.6953 86.012C57.3255 85.9784 57.0398 84.869 56.7036 84.2639C57.3087 84.2302 57.9307 84.2639 58.519 84.1462C59.3258 83.9949 60.1159 83.7596 60.9227 83.5579C60.6201 82.7342 60.5193 81.3895 59.9646 81.1542C56.6868 79.7758 57.7458 78.9858 60.1831 78.1454C60.452 78.0613 60.6033 77.6411 60.805 77.3721L60.5697 76.6326L60.6369 76.5989Z" fill="black"/>
<path d="M30.3642 68.7999C32.23 69.9261 33.8437 71.6743 35.4237 71.6407C36.987 71.607 38.5334 69.8085 40.2311 68.6823C41.1724 70.5144 39.9454 71.7079 38.7519 72.7501C36.9365 74.3301 33.8269 74.3469 31.9611 72.7669C30.7508 71.7415 29.4901 70.5649 30.381 68.7999H30.3642Z" fill="black"/>
<path d="M80.8582 68.5138C82.4382 70.6317 81.1103 71.7915 80.0849 72.8169C78.4377 74.481 75.5297 74.7331 73.5294 73.422C71.983 72.4135 70.7055 71.1528 71.6468 68.3625C74.7733 73.1867 77.9166 73.8422 80.8582 68.5138Z" fill="black"/>
</svg>
