<svg width="139" height="155" viewBox="0 0 139 155" fill="none" xmlns="http://www.w3.org/2000/svg">
<path d="M27.9778 154.912C25.9102 154.055 23.6914 153.618 21.7584 152.374C17.0687 149.365 14.8331 144.911 13.7909 139.582C9.43735 117.596 4.98294 95.6095 0.646204 73.6233C-1.16918 64.4287 0.831104 56.0578 6.76471 48.7122C7.00003 48.8803 6.98323 49.0988 6.94961 49.3678C6.563 52.1413 6.17639 54.9148 6.1932 57.7219C6.1932 59.9239 6.34448 62.1258 6.42853 64.3278C6.63023 69.0008 7.43707 73.5728 8.21029 78.1449C9.01712 82.8851 10.261 87.5412 11.7402 92.1132C13.2194 96.7021 14.9843 101.207 17.3208 105.443C18.3462 107.325 20.1279 108.132 21.8256 107.578C23.4729 107.04 24.6328 105.275 24.2966 103.577C23.3889 99.0722 22.5316 94.5506 21.792 90.0121C20.8843 84.4651 20.4641 78.8845 20.1447 73.3039C19.9935 70.8161 20.1784 68.2948 20.3464 65.7902C20.6154 61.9746 21.0188 58.2261 21.9097 54.5113C23.3553 48.5609 25.7253 43.098 30.2134 38.7444C30.4655 38.4923 30.7008 38.2233 30.7008 37.8367C34.4324 37.8367 38.1473 37.8367 41.8789 37.8367C41.4754 38.6604 40.6014 38.9461 39.9794 39.5344C35.7099 43.5518 32.7515 48.3928 30.8353 53.9062C29.6755 57.2512 29.2721 60.7811 29.2721 64.2606C29.2721 66.8828 29.6755 69.5386 30.0285 72.1609C30.7849 77.8591 31.2555 83.6078 31.9279 89.3229C32.7852 96.5676 33.7265 103.812 34.6005 111.057C35.441 118.066 36.0797 125.093 37.0715 132.068C38.2313 140.204 42.6353 146.339 49.443 150.844C51.4264 152.155 53.7125 152.811 55.78 153.954L52.7711 154.912H27.9609H27.9778Z" fill="#8ECF9E"/>
<path d="M46.72 88.987C46.72 89.34 46.6864 89.693 46.7537 90.046C47.8462 96.2486 48.8212 102.468 50.0987 108.62C51.2249 114.1 51.9813 119.68 53.9479 124.975C55.8474 130.102 58.9402 134.321 63.3946 137.481C66.8237 139.919 70.6394 141.549 74.7744 142.44C80.5231 143.701 86.2886 143.768 92.0877 142.86C94.1048 142.541 96.1387 142.221 98.1558 141.902C96.0547 145.634 92.9954 148.39 89.5159 150.777C87.4989 152.156 85.1624 152.828 83.0445 153.971C81.2795 154.072 79.5818 154.425 77.8841 154.929H60.638C59.0747 154.358 57.4442 154.089 55.7801 153.971C53.7126 152.828 51.4266 152.172 49.4431 150.861C42.6354 146.356 38.2315 140.238 37.0716 132.086C36.0799 125.11 35.4411 118.084 34.6007 111.074C33.7266 103.829 32.7853 96.5847 31.9281 89.34C31.2557 83.6249 30.785 77.893 30.0286 72.178C29.6756 69.5389 29.2722 66.8831 29.2722 64.2777C29.2722 60.7982 29.6756 57.2683 30.8355 53.9233C32.7517 48.4267 35.7101 43.5857 39.9796 39.5515C40.6015 38.9632 41.4756 38.6775 41.879 37.8538C46.72 34.3407 51.9813 31.8698 57.9485 31.0125C59.0579 30.8613 60.1505 30.8444 61.2599 30.8276C61.2599 31.2815 60.9909 31.5168 60.638 31.7858C58.7049 33.2818 56.8559 34.8618 55.1918 36.7108C50.9223 41.451 48.5858 47.0988 47.0562 53.1501C45.8796 57.7726 45.6611 62.5464 45.224 67.2697C45.1904 67.6563 45.1232 68.0934 45.5266 68.3791C44.4172 70.5475 44.8542 72.7999 45.2072 75.0523" fill="#0BAD67"/>
<path d="M83.0438 153.954C85.1617 152.811 87.4982 152.138 89.5153 150.76C92.9948 148.39 96.0708 145.617 98.1552 141.885C99.0965 140.507 99.8024 139.011 100.391 137.447C102.492 131.816 102.425 125.832 103.265 119.999C103.954 115.243 104.307 110.452 104.862 105.678C105.417 100.904 106.055 96.1474 106.61 91.3904C107.165 86.6671 107.652 81.9437 108.173 77.2204C108.728 72.1609 109.653 67.1518 109.384 62.0082C109.098 56.3267 107.316 51.1999 104.442 46.3926C102.458 43.098 99.8024 40.3581 96.9281 37.8367C101.836 37.8367 106.728 37.8367 111.636 37.8872C112.174 37.8872 112.712 38.0721 113.25 38.1729C113.401 38.5427 113.485 38.9629 113.704 39.2655C117.939 44.947 119.267 51.5697 119.536 58.3774C119.805 64.8825 119.738 71.4213 118.713 77.9096C117.973 82.5993 117.452 87.3227 116.796 92.0124C116.259 95.8281 115.771 99.6605 115.704 103.493C115.62 107.762 115.384 112.032 115.956 116.302C116.443 119.899 117.082 123.462 118.948 126.622C120.629 129.463 122.881 131.598 126.478 131.598C125.789 135.346 125.235 139.128 124.142 142.793C122.226 149.264 117.805 153.08 111.283 154.593C110.997 154.66 110.661 154.576 110.493 154.895H85.6828C84.8592 154.34 83.8674 154.307 82.9766 153.937L83.0438 153.954Z" fill="#8ECF9E"/>
<path d="M55.7967 153.954C57.4608 154.072 59.0744 154.341 60.6545 154.912H52.7878L55.7967 153.954Z" fill="#FEFEFE"/>
<path d="M83.0442 153.954C83.9351 154.307 84.9436 154.341 85.7504 154.912H77.8838C79.5647 154.408 81.2792 154.072 83.0442 153.954Z" fill="#FEFEFE"/>
<path d="M96.9619 37.8534C99.8362 40.3915 102.492 43.1146 104.476 46.4092C107.35 51.2166 109.132 56.3434 109.417 62.0248C109.686 67.1684 108.762 72.1775 108.207 77.237C107.686 81.9604 107.199 86.6837 106.644 91.4071C106.089 96.1809 105.45 100.938 104.896 105.695C104.341 110.469 103.988 115.259 103.299 120.016C102.458 125.849 102.526 131.833 100.425 137.464C99.8362 139.027 99.1302 140.506 98.1889 141.902C96.1718 142.221 94.1548 142.557 92.1209 142.86C86.3217 143.751 80.5562 143.683 74.8075 142.439C70.6725 141.532 66.8568 139.918 63.4278 137.481C58.9734 134.321 55.8805 130.085 53.9811 124.975C52.0312 119.68 51.2748 114.099 50.1318 108.62C48.8543 102.467 47.8794 96.2313 46.7868 90.0456C46.7195 89.7094 46.7532 89.3396 46.7532 88.9866C48.4677 88.7513 45.3244 89.9951 46.7532 88.9866C42.2147 55.3852 47.9802 85.0701 46.7027 82.3638C45.6606 80.1618 49.3081 79.4726 47.0893 78.733C48.1987 77.2202 49.3081 72.2111 49.4762 70.5638C49.6947 68.4459 48.5685 87.4401 46.7532 88.9866C46.3665 88.7008 44.8033 71.7741 44.8537 71.3875C45.2908 66.6641 45.9295 57.7889 47.0893 53.1664C48.619 47.1152 50.9554 41.4673 55.2249 36.7272C56.889 34.8782 58.7212 33.2981 60.6711 31.8021C61.0073 31.5332 61.2762 31.2978 61.293 30.844C62.4528 30.3901 63.6799 30.7431 64.8565 30.5582C68.689 30.5582 72.5383 30.5582 76.3707 30.5582C79.2451 30.9448 82.1363 31.0625 84.9602 31.8357C89.381 33.046 93.2975 35.2143 96.9955 37.8366L96.9619 37.8534ZM93.6337 75.035C94.222 73.2197 93.9867 71.3539 93.8522 69.5385C93.785 68.5299 92.9613 67.8744 91.8855 67.8071C90.7593 67.7399 89.7676 68.2778 89.6163 69.3536C89.3305 71.4043 88.9271 73.5222 90.1038 75.4721C89.0448 75.8083 88.0531 76.2957 87.1454 76.9513C83.7836 79.4222 83.5314 83.7421 86.5907 86.5829C90.0533 89.7934 96.4576 89.743 99.8698 86.4652C102.475 83.9607 102.576 80.3131 100.021 77.7245C98.273 75.9427 96.0542 75.2199 93.6337 75.035ZM69.5126 70.2613C68.1007 70.2613 66.6887 70.2108 65.2936 70.2613C63.6967 70.3285 63.1084 70.9504 63.0748 72.4969C63.0412 73.9593 63.0243 75.4217 63.0748 76.8672C63.2092 80.2963 65.9323 82.9017 69.3109 82.9353C72.8072 82.9689 75.5807 80.3803 75.732 76.9009C75.7992 75.4385 75.7656 73.9929 75.732 72.5305C75.6984 70.9673 75.1269 70.3453 73.5468 70.2613C72.1853 70.194 70.8406 70.2613 69.479 70.2613H69.5126Z" fill="#13BC79"/>
<path d="M126.546 131.615C122.932 131.615 120.697 129.48 119.016 126.639C117.133 123.479 116.495 119.915 116.024 116.318C115.452 112.066 115.688 107.779 115.772 103.51C115.839 99.6605 116.343 95.8448 116.864 92.0292C117.52 87.3226 118.024 82.5993 118.781 77.9264C119.806 71.4381 119.856 64.9161 119.604 58.3942C119.335 51.5697 118.007 44.9469 113.771 39.2823C113.536 38.9797 113.469 38.5595 113.318 38.1897C118.949 38.8284 123.891 41.0809 128.143 44.7284C135.943 51.4016 139.523 59.9743 138.699 70.211C138.262 75.4722 136.834 80.599 135.808 85.7762C132.867 100.619 129.891 115.478 126.916 130.32C126.832 130.757 126.698 131.194 126.58 131.631L126.546 131.615Z" fill="#8ECF9E"/>
<path d="M30.701 37.8535C30.701 38.2401 30.4657 38.5091 30.2135 38.7612C25.7255 43.1148 23.3554 48.5609 21.9098 54.5281C21.019 58.2429 20.5987 61.9914 20.3466 65.807C20.1785 68.3116 19.9936 70.8329 20.1449 73.3207C20.4643 78.9013 20.8845 84.4819 21.7922 90.0289C22.5318 94.5673 23.389 99.089 24.2967 103.594C24.6329 105.292 23.4899 107.056 21.8258 107.594C20.1281 108.149 18.3631 107.325 17.321 105.46C14.9845 101.224 13.2196 96.7189 11.7404 92.13C10.2612 87.558 9.01728 82.9018 8.21045 78.1617C7.42042 73.5896 6.61359 69.0175 6.42869 64.3446C6.34464 62.1426 6.21017 59.9406 6.19336 57.7387C6.19336 54.9315 6.56316 52.158 6.94977 49.3845C6.98339 49.1156 7.00019 48.8971 6.76487 48.729C13.0347 41.333 20.9853 37.6686 30.701 37.8871V37.8535Z" fill="#8ECF9E"/>
<path d="M66.4705 23.6164C68.8069 15.5648 72.236 8.06797 78.1528 1.94947C79.8337 0.218131 81.8508 -0.471041 84.1872 0.335795C86.5069 1.14263 87.7844 2.84035 88.0197 5.27766C88.1542 6.74005 87.7676 8.13521 86.759 9.17737C82.708 13.3964 80.1362 18.4728 78.136 23.9021C77.2955 23.8349 76.4887 23.5659 75.6314 23.5827C72.5722 23.6332 69.5297 23.5996 66.4705 23.5996V23.6164Z" fill="#13BC79"/>
<path d="M66.4703 23.6163C69.5295 23.6163 72.5719 23.6499 75.6312 23.5995C76.5053 23.5995 77.2953 23.8516 78.1357 23.9189C77.5306 26.1377 76.7238 28.306 76.3204 30.5753H64.8062C65.1255 28.1884 65.7979 25.9023 66.4534 23.6163H66.4703Z" fill="#13BC79"/>
<path d="M103.064 75.2538C103.064 90.3819 90.1042 102.636 74.1356 102.636C58.167 102.636 50.3171 91.2224 50.3171 76.0942C50.3171 60.966 58.167 47.8718 74.1356 47.8718C90.1042 47.8718 103.064 60.1256 103.064 75.2538Z" fill="#13BC79"/>
<path d="M63.1254 80.9017C67.1259 85.2273 70.9752 85.457 74.6732 81.5909C75.0934 82.1624 75.5809 82.6331 75.8835 83.2214C77.682 86.6841 81.2287 86.9362 83.4812 83.8097C84.0359 83.0533 84.9435 82.549 85.7 81.9439C85.7168 83.0533 86.1202 84.3476 85.7 85.2553C84.2544 88.3818 80.2538 89.7097 76.7239 88.012C74.9421 87.1547 73.7823 87.2556 72.0342 88.096C68.5883 89.7937 64.3356 88.2473 63.1926 85.1208C62.8396 84.1291 63.1422 82.902 63.1422 80.9185L63.1254 80.9017Z" fill="black"/>
<path d="M56.9564 76.632C56.4353 75.8588 55.931 75.0688 55.3931 74.2956C52.9222 70.8665 48.8712 70.9674 46.3835 74.3628C45.7951 75.1528 44.7362 75.5899 43.8789 76.195C43.963 75.0688 43.7108 73.7577 44.1815 72.8332C45.6271 70.0261 48.3165 68.3956 51.2413 69.1352C53.6282 69.7235 55.7965 71.5893 57.78 73.2198C58.3515 73.6905 57.9649 75.3209 58.0153 76.4303L56.9396 76.6152L56.9564 76.632Z" fill="black"/>
<path d="M88.9103 76.632C86.8932 74.1106 88.8598 72.4801 90.2886 71.0346C92.9445 68.3619 97.5501 68.3283 100.525 70.6984C102.845 72.5474 103.282 74.1274 102.089 76.4639C97.7406 72.99 93.3423 73.0404 88.8935 76.6152L88.9103 76.632Z" fill="black"/>
</svg>
