<svg width="291" height="144" viewBox="0 0 291 144" fill="none" xmlns="http://www.w3.org/2000/svg">
<path d="M61.2241 139.83C61.2241 139.83 22.5245 141.312 7.35422 100.711C6.73502 99.2288 6.11583 97.7469 5.49663 96.2651C1.78147 90.3379 -8.74484 67.8144 15.4037 35.8073C15.4037 35.8073 31.8124 1.72572 76.3944 3.80025C79.4904 3.80025 82.5863 4.39297 85.6823 5.57842C94.6606 8.54203 120.667 15.6547 146.363 11.5057C148.221 11.2093 149.769 10.6166 151.627 10.0238C156.89 7.94931 170.512 3.20753 188.778 0.836632C192.493 0.243909 196.518 0.243909 200.233 0.836632C210.76 2.6148 234.599 7.94932 250.698 19.8038C250.698 19.8038 285.992 47.6618 266.487 96.2651C265.249 99.2288 265.868 102.192 267.725 104.563L290.636 135.089C291.874 136.57 289.707 138.941 287.849 138.052L262.772 128.569L258.747 127.087C251.317 124.419 242.339 125.012 235.218 129.161C221.595 136.867 207.973 139.238 207.973 139.238C195.28 141.016 182.586 140.423 178.561 140.127C177.633 140.127 176.704 140.127 175.775 140.127C161.534 140.719 146.363 142.794 140.171 143.683C138.004 143.979 136.147 143.979 133.979 143.979C114.165 143.387 61.2241 139.83 61.2241 139.83Z" fill="#80D194"/>
</svg>
