<svg width="164" height="103" viewBox="0 0 164 103" fill="none" xmlns="http://www.w3.org/2000/svg">
<path d="M78.0516 96.5799C78.0516 96.5799 77.5976 96.1259 77.5976 96.0502C77.503 95.6719 76.9922 96.3718 76.8409 96.0124C76.6139 95.407 76.6139 95.0854 76.576 94.4423C76.5382 93.9504 74.9681 93.818 75.2897 93.4586C75.3653 93.3829 75.441 92.9667 74.8546 93.137C72.5089 93.8369 70.0308 95.0854 67.7986 96.088C61.3857 98.9823 54.8593 99.1526 48.56 95.9935C41.2012 92.3046 33.729 91.6615 25.8406 93.7802C19.4845 95.4827 13.3932 90.9994 13.223 84.3406C13.0906 79.1952 11.18 75.2037 7.51005 71.704C2.57271 66.9937 4.50225 59.1242 10.9529 56.9109C13.5257 56.0218 13.9986 54.9246 12.8068 52.4843C9.87468 46.4876 13.7905 39.8667 20.4682 39.4694C22.9652 39.3181 23.7219 38.3344 23.249 35.8374C21.9626 29.1029 27.3351 23.7872 34.0317 25.1493C36.3585 25.6222 37.5124 24.7898 37.5881 22.4441C37.6448 20.6848 38.1367 19.0958 39.1015 17.6581C39.9716 16.3718 45.5332 10.6588 44.455 9.54272C42.5443 8.71037 36.1315 13.4775 34.9775 15.2367C34.2398 16.3528 33.6344 17.5446 33.3507 18.8499C33.1237 19.8714 32.7264 20.1362 31.6671 20.1552C24.1192 20.3632 18.3117 26.2086 18.236 33.7187C18.236 34.778 17.8009 35.005 16.9686 35.2699C9.72334 37.4075 5.61835 44.5581 7.49113 51.8412C7.75597 52.8627 7.43438 53.1843 6.65879 53.6572C3.6699 55.4354 1.6647 58.0459 0.605344 61.3564C0.454008 61.8293 0.548593 62.4347 0 62.7373V68.1665C0.529676 68.3179 0.454008 68.8475 0.548593 69.207C1.28636 71.7229 2.59163 73.8605 4.559 75.582C7.15063 77.852 8.39915 80.6328 8.39915 84.1325C8.39915 88.4077 9.98818 92.1155 13.2041 95.0098C17.3658 98.7364 22.2086 99.7958 27.581 98.3581C33.7669 96.7123 39.7446 96.9204 45.5143 99.9282C47.5384 100.988 49.6382 101.839 51.8893 102.331C59.04 103.844 65.7177 102.652 72.263 99.4363C73.0575 99.0391 76.0653 98.0554 76.8787 97.7527C76.8598 97.6392 78.0894 96.7123 78.0894 96.5988L78.0516 96.5799Z" fill="#ECBF04"/>
<path d="M76.5 96.5232C76.6703 96.9772 76.8027 97.242 76.8595 97.7339C81.0969 97.0529 86.9044 97.469 91.1607 99.3607C93.7713 100.515 96.3062 101.896 99.1626 102.387C107.392 103.844 115.961 102.539 110.191 100.193C110.078 98.6608 101.906 98.0176 100.354 97.7528C98.633 97.4501 96.9683 96.8637 95.4171 96.0124C89.3069 92.683 82.8751 91.2832 74.9299 92.9479C75.0624 93.2127 75.3083 93.7045 75.5542 93.9315C75.8947 94.2531 76.1785 96.2205 76.519 96.5232" fill="#FFC74D"/>
<path d="M153.001 57.0818C152.66 56.9494 152.301 56.8359 151.941 56.7224C149.974 56.0225 149.312 54.6794 150.352 52.9012C153.682 47.1504 149.804 39.6025 142.577 39.4323C140.364 39.3755 139.645 38.1837 140.137 35.6678C140.894 31.7709 139.286 28.082 135.956 26.1147C133.838 24.8662 131.568 24.6581 129.184 25.1688C127.084 25.6228 125.76 24.7337 125.779 22.615C125.836 16.0697 118.666 11.454 112.424 14.859C110.494 15.9184 109.189 15.3131 108.489 13.2511C106.143 6.44097 99.1061 4.54927 93.5823 9.27853C91.9365 10.6784 90.5556 10.4892 89.3449 8.67318C85.3912 2.78999 76.1219 1.33338 72.2628 7.23549C71.3548 8.61643 71.3548 8.93802 70.5225 10.0163C70.6171 12.589 70.1063 15.2185 71.2602 17.7155C71.6386 18.5289 70.7684 18.3019 70.39 18.4344C66.0391 19.891 63.107 22.6718 62.0855 27.2497C61.4234 30.2575 62.1233 33.0383 63.6934 35.6299C63.9583 36.0839 64.2799 36.5001 64.6393 37.0676C62.1801 37.5595 60.0046 38.4107 58.2264 40.0754C51.9649 45.9019 54.0647 56.2684 62.1422 59.1438C63.1448 59.5032 63.2962 59.8059 62.8989 60.695C60.9883 65.0459 61.5936 69.1131 64.5258 72.7641C66.1148 74.7503 68.3092 75.9989 70.8441 76.434C72.0737 76.642 72.5655 76.7934 71.7521 78.1554C69.4631 82.0523 70.0117 88.4841 73.6816 91.6432C74.1545 92.0594 74.7031 92.4756 74.949 93.0999C75.1761 93.0053 75.4031 92.9674 75.6301 92.9485C75.7814 92.9485 75.9327 92.9864 76.0841 93.0242C82.7996 91.9081 89.2692 92.7026 95.3794 96.032C96.9306 96.8643 98.5953 97.4508 100.317 97.7724C101.868 98.0561 102.644 98.9074 102.776 100.44C104.346 100.78 105.897 100.78 107.467 100.44C107.6 98.9074 108.375 98.0561 109.927 97.7913C111.705 97.4697 113.407 96.8454 115.015 95.9942C122.242 92.1351 129.733 91.7189 137.564 93.8565C142.54 95.2186 147.666 92.4756 149.501 87.7653C149.936 86.6681 150.22 85.5141 150.182 84.3413C150.031 79.1958 152.206 75.2233 155.876 71.7236C160.567 67.2592 158.941 59.5221 153.001 57.1197V57.0818ZM71.8845 30.2575C70.5225 30.3332 69.4064 29.2927 69.3685 27.9496C69.3307 26.6065 70.4468 25.5093 71.7899 25.5282C73.0952 25.5282 74.0978 26.5498 74.1167 27.855C74.1356 29.1792 73.1898 30.2008 71.8845 30.2764V30.2575ZM108.356 25.5093C109.7 25.5093 110.778 26.6065 110.74 27.9685C110.702 29.3306 109.586 30.3332 108.224 30.2575C106.938 30.1818 105.935 29.0846 105.973 27.8172C106.011 26.5687 107.108 25.5093 108.356 25.5093ZM81.7781 15.786C83.0644 15.8427 84.067 16.9021 84.067 18.1884C84.067 19.4559 83.0077 20.5342 81.7592 20.572C80.435 20.6098 79.3189 19.4937 79.3189 18.1695C79.3189 16.8264 80.435 15.7481 81.797 15.8049L81.7781 15.786ZM95.2281 59.7491C94.1876 60.7896 92.8445 61.3003 91.4825 61.7165C92.7689 63.1353 94.1687 64.4784 94.4336 66.5025C94.8119 69.3022 93.6201 71.4399 91.5014 73.1613C87.6234 76.3204 80.8512 76.0367 77.2948 72.556C73.8708 69.2076 74.2491 64.5541 78.146 61.7733C80.3593 60.1842 82.8753 59.7113 85.5237 59.787C85.0507 59.087 84.5021 58.4249 84.6156 57.498C84.8616 55.5874 87.037 54.7172 88.5882 56.0225C89.7989 57.0251 90.8393 57.2143 92.1068 56.1171C93.3742 55.0388 94.6984 55.1145 95.6253 56.1738C96.5144 57.1953 96.3631 58.6141 95.247 59.7302L95.2281 59.7491ZM102.341 83.2252C101.055 83.2441 99.9763 82.2604 99.9006 80.993C99.8438 79.6877 100.941 78.4959 102.265 78.477C103.589 78.4581 104.706 79.5742 104.687 80.9173C104.687 82.2226 103.665 83.2062 102.341 83.2252ZM114.467 89.0516C113.218 89.0516 112.121 87.9733 112.083 86.7248C112.045 85.4195 113.18 84.2845 114.505 84.3034C115.829 84.3034 116.812 85.2871 116.85 86.6113C116.888 87.9923 115.829 89.0705 114.467 89.0516ZM118.023 62.4543C116.169 64.4027 113.88 65.3675 111.194 65.3675C108.489 65.3675 106.238 64.346 104.403 62.3975C103.381 61.3193 103.362 59.9194 104.289 58.9735C105.216 58.0088 106.559 58.0088 107.713 58.9735C110.381 61.1868 112.159 61.2058 114.732 59.0114C115.904 58.0277 117.21 57.9899 118.155 58.9168C119.139 59.8816 119.12 61.3193 118.023 62.4732V62.4543ZM117.645 41.4753C116.358 41.4375 115.337 40.397 115.337 39.1107C115.337 37.7676 116.434 36.7082 117.796 36.746C119.158 36.7839 120.161 37.8811 120.066 39.262C119.99 40.5673 118.931 41.5131 117.626 41.4753H117.645ZM131.568 31.96C132.873 32.0168 133.819 33.0572 133.8 34.3625C133.781 35.6678 132.778 36.6704 131.473 36.6893C130.111 36.6893 129.033 35.611 129.052 34.2679C129.071 32.9248 130.206 31.8844 131.568 31.9411V31.96ZM144.828 72.8586C140.856 76.5096 132.968 75.961 129.544 71.7993C127.33 69.1131 127.425 65.5567 129.789 62.965C130.187 62.5299 130.584 62.1138 130.981 61.6787C129.6 61.2814 128.257 60.7896 127.217 59.7302C126.101 58.6141 125.93 57.1953 126.819 56.1738C127.727 55.1334 129.09 55.0577 130.357 56.1171C131.397 57.0062 132.438 57.2143 133.478 56.2684C134.613 55.2469 135.786 54.9442 137.035 55.9847C138.151 56.9305 138.075 58.1034 136.883 59.787C139.721 59.6546 142.407 60.1464 144.639 62.0192C148.442 65.2162 148.479 69.4914 144.828 72.8397V72.8586Z" fill="#FFC74D"/>
<path d="M74.9683 93.0802C74.7224 92.4559 74.1927 92.0397 73.7009 91.6236C70.031 88.4455 69.4824 82.0327 71.7713 78.1358C72.5659 76.7737 72.0929 76.6224 70.8633 76.4143C68.3285 75.9792 66.1341 74.7307 64.545 72.7444C61.6129 69.0934 61.0076 65.0074 62.9182 60.6754C63.3154 59.7863 63.1452 59.4836 62.1615 59.1242C54.0839 56.2488 51.9841 45.9012 58.2457 40.0559C60.0239 38.4101 62.1993 37.5399 64.6586 37.0481C64.2802 36.4805 63.9775 36.0455 63.7127 35.6104C62.1426 33.0187 61.4427 30.2379 62.1048 27.2301C63.1263 22.6711 66.0584 19.8714 70.4093 18.4148C70.7688 18.3013 71.6389 18.5094 71.2795 17.696C70.1445 15.1989 70.6363 12.5695 70.5417 9.99676C68.442 7.76455 65.926 6.42145 62.7858 6.72412C58.851 7.10246 56.2405 9.259 54.9352 12.9667C54.065 15.4638 53.0057 15.9178 50.6221 14.7071C49.2601 14.0261 47.8413 13.6288 46.328 13.7045C44.8146 13.7802 43.7552 13.2694 43.1499 11.8695C41.4285 12.0398 40.2178 13.2694 38.799 14.0261C39.8773 15.1422 39.934 16.3339 39.0638 17.6203C38.0991 19.058 37.6072 20.6659 37.5505 22.4063C37.4748 24.752 36.3398 25.5844 33.9941 25.1114C27.2974 23.7494 21.9439 29.0651 23.2114 35.7995C23.6843 38.2966 22.9276 39.2992 20.4306 39.4316C13.7529 39.8289 9.83704 46.4687 12.7692 52.4465C13.961 54.8868 13.5069 55.984 10.9153 56.8731C4.46461 59.0863 2.53508 66.9558 7.47242 71.6661C11.1423 75.1658 13.0529 79.1762 13.1854 84.3027C13.3556 90.9615 19.4658 95.4448 25.803 93.7423C33.6914 91.6236 41.1636 92.2668 48.5223 95.9556C54.8217 99.1147 61.3481 98.9255 67.7609 96.0501C69.9931 95.0475 72.2064 93.9882 74.5522 93.2883C74.6657 93.1937 74.7792 93.0991 74.9305 93.0423L74.9683 93.0802ZM25.0463 65.3479C23.76 65.3479 22.7006 64.3642 22.6439 63.0778C22.5871 61.7536 23.7032 60.5808 25.0085 60.5808C26.3138 60.5808 27.4488 61.7158 27.4109 63.04C27.3731 64.3264 26.3327 65.329 25.0463 65.3479ZM31.0052 44.3311C29.6432 44.3122 28.6216 43.1961 28.6784 41.8341C28.7351 40.5477 29.7756 39.564 31.0809 39.5829C32.3483 39.6018 33.4266 40.6612 33.4455 41.9097C33.4644 43.215 32.3294 44.35 31.0052 44.3311ZM35.0723 80.8598C33.8049 80.8031 32.8023 79.7437 32.8023 78.4573C32.8023 77.0764 33.8806 76.036 35.2426 76.0927C36.51 76.1306 37.5694 77.2088 37.5694 78.4763C37.5694 79.7815 36.3776 80.9166 35.0723 80.8598ZM42.0527 45.0689C42.0527 43.7825 43.0553 42.7042 44.3228 42.6475C45.6091 42.5907 46.8198 43.7258 46.8198 45.031C46.8198 46.2985 45.7983 47.3578 44.5119 47.4146C43.131 47.4713 42.0527 46.4498 42.0527 45.0689ZM46.4982 85.6458C45.1929 85.6458 44.039 84.4919 44.0768 83.1866C44.1147 81.9192 45.174 80.8787 46.4604 80.8598C47.8224 80.8598 48.8818 81.9192 48.8628 83.2812C48.8439 84.5675 47.7846 85.608 46.5171 85.6269L46.4982 85.6458ZM47.3873 36.6697C46.101 36.613 45.0984 35.5347 45.1173 34.2483C45.1362 32.9052 46.2523 31.8648 47.6143 31.9215C48.9763 31.9783 49.96 33.1133 49.8465 34.4943C49.7519 35.7995 48.6737 36.7265 47.3684 36.6697H47.3873ZM54.4623 76.0738C53.2138 76.036 52.1355 74.9388 52.1166 73.6903C52.1166 72.3661 53.2138 71.2689 54.5758 71.3067C55.8811 71.3256 56.8647 72.3472 56.8837 73.6524C56.8837 74.9955 55.7865 76.1116 54.4623 76.0738Z" fill="#ECBF04"/>
<path d="M69.9932 3.90508C64.11 1.23777 56.0702 2.20254 52.4192 7.55608C51.3221 9.16403 50.433 9.80721 48.5791 9.10728C47.8602 8.84244 47.009 8.89919 46.2145 8.89919C43.9823 8.93703 43.358 9.58021 43.1499 11.8692C43.7552 13.269 44.8146 13.7798 46.328 13.7041C47.8224 13.6285 49.2601 14.0257 50.6221 14.7067C53.0057 15.9174 54.065 15.4445 54.9352 12.9664C56.2405 9.25862 58.851 7.10207 62.7858 6.72373C65.926 6.42105 68.442 7.76417 70.5418 9.99638C70.6742 10.0342 70.7688 10.0342 70.9012 10.0531C70.2958 9.73154 70.7688 9.06945 70.7688 8.38843C70.7688 7.44258 70.6174 7.06423 70.5039 6.1373C70.4093 5.56978 70.8066 5.07794 70.3715 4.68068" fill="#ECBF04"/>
<path d="M70.5228 9.9969C74.4008 4.11371 85.4105 2.78952 89.3642 8.67271C90.5749 10.4887 91.9558 10.6779 93.6016 9.27805C99.1064 4.56772 106.162 6.4405 108.508 13.2506C109.208 15.3126 110.513 15.9179 112.443 14.8586C118.686 11.4535 125.855 16.0693 125.798 22.6145C125.798 24.7333 127.104 25.6224 129.203 25.1683C131.587 24.6576 133.857 24.8657 135.976 26.1142C139.305 28.0816 140.913 31.7704 140.156 35.6673C139.665 38.1833 140.383 39.375 142.597 39.4318C149.823 39.602 153.701 47.1499 150.372 52.9007C149.331 54.6789 149.993 56.022 151.961 56.7219C152.301 56.8543 152.66 56.9489 153.02 57.0813C158.979 59.4838 160.606 67.202 155.895 71.6853C152.225 75.1849 150.05 79.1575 150.201 84.3029C150.239 85.4569 149.955 86.6108 149.52 87.7269C147.685 92.4372 142.54 95.1802 137.584 93.8182C129.771 91.6805 122.261 92.1156 115.035 95.9558C113.427 96.8071 111.724 97.4313 109.946 97.7529C108.395 98.0367 107.619 98.8879 107.487 100.401C108.3 102.444 109 102.804 111.138 102.388C113.559 101.915 115.81 100.988 117.986 99.8716C123.717 96.9206 129.657 96.6747 135.787 98.3393C145.737 101.044 154.893 94.1587 155.025 83.83C155.063 80.5195 156.311 77.909 158.714 75.7146C165.77 69.245 164.767 58.5569 156.633 53.5817C155.857 53.1088 155.706 52.7493 155.914 51.8602C157.768 44.4637 153.644 37.3509 146.285 35.2322C145.415 34.9863 145.169 34.6458 145.169 33.7378C145.056 26.2088 139.305 20.3634 131.738 20.1553C130.698 20.1175 130.338 19.8527 130.036 18.8501C127.879 11.6048 120.804 7.57552 113.446 9.42939C112.405 9.69423 112.102 9.29697 111.648 8.54029C107.77 2.14634 99.7496 -0.0101982 93.28 3.60295C92.3909 4.09479 91.9369 4.09479 91.1802 3.35703C86.0537 -1.63706 75.271 -0.729045 69.9932 3.90562C70.6931 5.62707 70.5228 8.16195 70.5228 9.9969Z" fill="#FFC74D"/>
<path d="M84.0482 18.1684C84.0482 19.4359 82.9889 20.5141 81.7403 20.552C80.4162 20.5898 79.3 19.4737 79.3 18.1495C79.3 16.8064 80.4162 15.7282 81.7782 15.7849C83.0645 15.8417 84.0671 16.901 84.0671 18.1874L84.0482 18.1684Z" fill="#060805"/>
<path d="M110.74 27.9677C110.703 29.3297 109.586 30.3324 108.224 30.2567C106.938 30.181 105.935 29.0838 105.973 27.8164C106.011 26.5678 107.108 25.5085 108.357 25.4896C109.7 25.4896 110.778 26.5868 110.74 27.9488V27.9677Z" fill="#060805"/>
<path d="M133.819 34.3432C133.8 35.6485 132.798 36.6511 131.492 36.67C130.13 36.67 129.052 35.5917 129.071 34.2486C129.09 32.9055 130.225 31.8651 131.587 31.9218C132.892 31.9786 133.838 33.019 133.819 34.3243V34.3432Z" fill="#060805"/>
<path d="M117.797 36.7272C119.159 36.7651 120.161 37.8623 120.067 39.2432C119.991 40.5485 118.932 41.4944 117.626 41.4565C116.34 41.4187 115.318 40.3783 115.318 39.0919C115.318 37.7488 116.416 36.6894 117.778 36.7272H117.797Z" fill="#060805"/>
<path d="M74.1168 27.855C74.1357 29.1792 73.1898 30.2007 71.8846 30.2764C70.5225 30.3521 69.4064 29.3116 69.3686 27.9685C69.3308 26.6254 70.4469 25.5282 71.79 25.5471C73.0953 25.5471 74.0979 26.5686 74.1168 27.8739V27.855Z" fill="#060805"/>
<path d="M116.832 86.5918C116.87 87.9727 115.81 89.051 114.448 89.0321C113.2 89.0321 112.103 87.9538 112.065 86.7053C112.027 85.4 113.162 84.265 114.486 84.2839C115.81 84.2839 116.794 85.2676 116.832 86.5918Z" fill="#060805"/>
<path d="M25.0459 65.3482C23.7595 65.3482 22.7002 64.3646 22.6434 63.0782C22.5867 61.754 23.7028 60.5812 25.0081 60.5812C26.3133 60.5812 27.4484 61.7162 27.4105 63.0404C27.3727 64.3267 26.3322 65.3293 25.0459 65.3482Z" fill="#060805"/>
<path d="M56.8831 73.6521C56.8831 74.9952 55.7859 76.1113 54.4617 76.0734C53.2132 76.0356 52.1349 74.9384 52.116 73.6899C52.116 72.3657 53.2132 71.2685 54.5752 71.3064C55.8805 71.3253 56.8642 72.3468 56.8831 73.6521Z" fill="#060805"/>
<path d="M31.0805 39.5828C32.3479 39.6017 33.4262 40.6611 33.4451 41.9096C33.464 43.2148 32.329 44.3499 31.0048 44.3309C29.6428 44.312 28.6213 43.1959 28.678 41.8339C28.7348 40.5476 29.7752 39.5639 31.0805 39.5828Z" fill="#040403"/>
<path d="M37.5505 78.4766C37.5505 79.7818 36.3587 80.9168 35.0535 80.8601C33.786 80.8033 32.7834 79.744 32.7834 78.4576C32.7834 77.0767 33.8617 76.0363 35.2237 76.093C36.4912 76.1309 37.5505 77.2091 37.5505 78.4766Z" fill="#060805"/>
<path d="M46.498 85.646C45.1927 85.646 44.0388 84.4921 44.0766 83.1869C44.1144 81.9194 45.1738 80.879 46.4601 80.8601C47.8221 80.8601 48.8815 81.9194 48.8626 83.2814C48.8436 84.5678 47.7843 85.6082 46.5169 85.6271L46.498 85.646Z" fill="#060805"/>
<path d="M47.3877 36.6695C46.1014 36.6128 45.0988 35.5345 45.1177 34.2671C45.1366 32.924 46.2527 31.8835 47.6147 31.9403C48.9768 31.997 49.9604 33.132 49.8469 34.513C49.7524 35.8183 48.6741 36.7452 47.3688 36.6884L47.3877 36.6695Z" fill="#060805"/>
<path d="M46.8195 45.0306C46.8195 46.298 45.798 47.3574 44.5117 47.4141C43.1307 47.4709 42.0525 46.4494 42.0525 45.0684C42.0525 43.782 43.0551 42.7038 44.3225 42.647C45.6089 42.5902 46.8195 43.7253 46.8195 45.0306Z" fill="#060805"/>
<path d="M110.173 82.8843C132.98 82.8843 151.469 74.5081 151.469 64.1754C151.469 53.8427 132.98 45.4664 110.173 45.4664C87.366 45.4664 68.8772 53.8427 68.8772 64.1754C68.8772 74.5081 87.366 82.8843 110.173 82.8843Z" fill="#FFC74D"/>
<path d="M102.322 83.2619C101.036 83.2808 99.9574 82.2971 99.8817 81.0297C99.825 79.7244 100.922 78.5326 102.246 78.5137C103.571 78.4948 104.687 79.6109 104.668 80.954C104.668 82.2593 103.646 83.243 102.322 83.2619Z" fill="#060805"/>
<path d="M97.6678 63.8159C96.476 63.8538 95.2654 64.0429 94.1114 63.8916C93.4682 63.8159 92.6927 63.2862 92.3521 62.7187C92.1819 62.435 92.844 61.1864 93.1845 61.1675C95.2464 61.054 97.7246 60.4676 99.219 61.3945C100.335 62.0945 100.392 64.8374 100.543 66.6913C100.676 68.3749 100.524 70.191 100.032 71.799C99.3703 73.9933 98.8217 76.7931 97.2327 77.9281C95.8707 78.8929 93.0521 78.0795 90.9712 77.5876C90.4037 77.4552 90.2334 75.677 89.874 74.6554C90.8199 74.75 91.7657 74.9203 92.7116 74.9014C93.9979 74.8635 95.2654 74.6744 96.5517 74.5609C96.268 73.2177 96.4571 71.1369 95.6626 70.645C90.9334 67.7507 92.7494 66.767 96.722 66.0481C97.1571 65.9725 97.4976 65.3671 97.8759 64.9888L97.6867 63.7781L97.6678 63.8159Z" fill="black"/>
<path d="M76.4435 50.1575C76.4813 54.2436 74.4194 57.4406 71.6386 57.5919C68.8199 57.7433 66.3985 54.4139 66.3607 50.3656C66.3418 46.2039 68.574 42.9502 71.4872 42.9691C74.287 42.9691 76.4057 46.0526 76.4246 50.1575H76.4435Z" fill="black"/>
<path d="M124.228 50.1575C124.266 54.2436 122.204 57.4406 119.423 57.5919C116.604 57.7433 114.183 54.4139 114.145 50.3656C114.126 46.2039 116.358 42.9502 119.271 42.9691C122.071 42.9691 124.19 46.0526 124.209 50.1575H124.228Z" fill="black"/>
</svg>
