<svg width="145" height="142" viewBox="0 0 145 142" fill="none" xmlns="http://www.w3.org/2000/svg">
<path d="M0.0320143 82.9874L0.0358521 75.9308C0.303465 75.8137 0.28688 75.5629 0.320451 75.3288C0.672883 72.9878 1.30954 70.7303 2.53134 68.6903C2.89957 68.0549 2.81621 67.6034 2.44864 67.0349C0.543956 64.075 0.863244 61.1821 2.77108 58.3395C3.60784 57.1021 4.47805 55.8648 5.24796 54.5772C6.00113 53.3064 6.06877 51.9185 5.14972 50.7312C2.57635 47.4369 2.34429 43.6745 2.83136 39.7448C2.99934 38.3402 3.6688 37.27 4.80631 36.4842C7.80064 34.4275 10.9119 32.605 14.3238 31.3343C16.7824 30.4147 19.3079 29.6623 21.7664 28.7761C24.1916 27.89 24.7774 26.987 24.6282 24.4286C24.5454 23.1076 24.4123 21.7865 24.6471 20.4822C25.7038 14.5795 27.009 12.9408 33.0628 12.1217C36.0729 11.7205 39.066 11.9547 42.0422 12.4231C44.868 12.8747 46.1727 12.1557 47.4282 9.54715C48.6168 7.05565 50.4734 6.16947 53.0481 7.03912C54.9206 7.67463 56.4425 7.27337 57.8145 5.91896C58.651 5.08291 59.4541 4.23013 60.3241 3.44424C63.737 0.283963 67.7007 -0.735896 72.1814 0.53516C77.2474 1.97346 81.694 4.49865 85.5381 8.09402C87.41 9.84989 88.9148 10.0673 91.1729 8.9638C92.5277 8.29498 93.9326 7.79339 95.4377 7.55935C101.675 6.6232 103.648 8.41252 104.899 12.7435C105.617 15.2017 107.506 16.1382 110.082 15.6868C111.202 15.4862 112.339 15.4528 113.459 15.5866C118.158 16.1219 119.93 17.8945 120.629 22.6101C120.863 24.1987 120.878 25.7873 120.861 27.3926C120.826 30.1349 122.33 31.7905 125.055 32.0581C126.226 32.1752 127.413 32.1419 128.567 32.3593C131.476 32.8778 132.93 35.3694 131.958 38.1452C131.506 39.4328 130.937 40.6701 130.384 41.9075C129.715 43.4292 129.112 45.0177 129.362 46.6732C130.195 52.2082 131.195 57.6763 136.829 60.6864C137.932 61.2718 138.918 62.1246 139.871 62.9607C142.077 64.9006 143.564 67.2919 144.332 70.1513C144.866 72.1413 144.33 73.7632 142.924 75.1511C141.569 76.4888 139.913 77.375 138.14 78.0438C138.041 76.1208 137.741 74.2312 137.224 72.375C135.972 67.9771 133.215 64.733 129.337 62.3917C129.02 60.2848 128.302 58.2948 127.634 56.2882C127.434 55.6862 127.049 55.4019 126.414 55.2848C124.424 54.9001 122.451 54.482 120.495 54.0304C111.232 51.9064 102.187 49.0465 93.3435 45.5513C92.3572 45.1666 91.4876 45.2 90.5175 45.6682C87.0217 47.3068 83.4759 48.7949 80.1472 50.7512C79.7457 50.9853 79.0768 51.0689 79.0933 51.5705C79.0929 52.1892 79.8454 52.206 80.2801 52.3732C89.0573 55.6511 97.9852 58.3771 107.198 60.15C110.475 60.7689 113.769 61.254 117.046 61.8227C117.347 61.8728 117.832 61.8227 117.832 62.2407C117.832 62.7926 117.313 62.6755 116.979 62.6922C115.658 62.7423 114.354 62.5416 113.049 62.4746C105.592 62.0228 98.2348 60.7851 90.9113 59.3801C85.377 58.3097 79.893 56.9884 74.4592 55.4832C73.6734 55.2658 72.9044 54.8979 72.0345 55.4831C68.7056 57.707 65.3935 59.9141 62.2986 62.439C62.0309 62.6563 61.5125 62.7734 61.6126 63.2249C61.6959 63.6764 62.2144 63.6095 62.5488 63.6931C66.2605 64.5461 69.9556 65.3991 73.6841 66.2019C81.2583 67.8242 88.9162 68.9784 96.6414 69.4804C99.4005 69.6644 102.159 69.8485 104.918 70.0326C105.236 70.0493 105.688 70.0159 105.704 70.4339C105.721 70.8687 105.269 70.8352 104.951 70.8686C103.547 71.0191 102.159 71.203 100.737 71.1695C97.0252 71.0857 93.3296 71.1022 89.6175 70.9349C84.8853 70.7173 80.1532 70.4161 75.4546 69.9477C69.3515 69.3454 63.2484 68.5759 57.1957 67.5724C56.5268 67.4553 56.0418 67.6392 55.5232 68.0739C53.1643 70.0972 50.9893 72.3044 48.8142 74.5283C48.1115 75.2473 47.5425 76.0666 46.7728 77.003C50.5851 77.5884 54.1801 77.923 57.7584 78.2744C62.8917 78.793 68.025 79.345 73.1921 79.3452C73.8944 79.3453 74.5967 79.3787 75.2989 79.4457C78.0245 79.7133 80.7334 79.6466 83.4592 79.4627C86.6365 79.2622 89.8304 79.1787 93.0243 79.0618C93.3253 79.0618 93.7936 78.995 93.81 79.4297C93.8098 79.8311 93.3751 79.831 93.0573 79.8979C92.7396 79.9648 92.4218 80.0484 92.0873 80.0985C85.0636 81.0681 78.0067 81.7032 70.9333 81.8367C63.6425 81.9701 56.3518 81.8695 49.0778 81.8692C47.8069 81.8691 46.5528 81.9025 45.2821 81.6349C43.6268 81.3004 42.2052 81.7017 41.3014 83.2902C39.6628 82.9222 38.2586 82.0694 36.8043 81.3001C38.7456 78.2902 41.272 75.7486 43.5811 73.0398C44.2671 72.2372 44.3342 71.8359 43.4985 71.167C39.6541 68.1569 36.7466 64.3943 34.7591 59.9462C31.7027 53.0734 32.0409 46.1673 34.6031 39.2446C34.7874 38.7262 35.0553 38.0573 35.7575 38.2413C36.56 38.4587 36.1918 39.1443 36.0911 39.6627C35.4372 42.9067 35.2181 46.1507 35.8517 49.445C37.3191 57.0535 41.831 62.5384 47.9154 66.97C48.6174 67.4884 49.1358 67.4382 49.7548 66.8195C52.2478 64.2612 54.9246 61.9036 57.7517 59.7298C58.9562 58.8102 58.689 58.2249 57.8534 57.2885C51.8204 50.6162 49.7177 42.9575 52.214 34.2121C52.8171 32.0717 53.7881 30.0818 54.8259 28.1254C55.0937 27.6238 55.5119 27.2894 56.0804 27.4733C56.7658 27.7075 56.4144 28.2426 56.2971 28.6606C56.1128 29.3462 55.9118 30.0151 55.7107 30.7006C52.9294 40.8841 57.0391 48.0412 63.0222 53.9778C63.7075 54.6634 64.3763 54.7136 65.2462 54.0949C68.1904 52.0048 71.2348 50.0318 74.4129 48.2761C75.5002 47.6742 75.5841 47.1558 74.9158 46.0689C71.4073 40.4502 70.0727 34.5138 72.5845 28.076C73.5725 25.5511 74.8947 23.2435 76.5848 21.1534C76.9697 20.6685 77.5385 20.1668 78.157 20.5347C78.8758 20.9695 78.2066 21.5213 78.0391 22.0063C77.9386 22.3072 77.7545 22.5915 77.6039 22.8925C74.0548 30.3336 75.74 37.223 80.8201 43.2933C81.3716 43.9455 81.9902 44.1629 82.8098 43.7616C86.4226 41.9558 90.1191 40.3339 93.9157 38.9295C94.9192 38.5616 95.0198 38.0432 94.619 37.1068C92.4645 32.2239 92.4337 27.3579 94.9948 22.5923C95.5471 21.5723 95.5809 21.0204 94.3103 20.4853C88.0578 17.8764 81.5873 16.321 74.8319 15.7521C69.9159 15.3339 65.0832 15.6179 60.2502 16.3702C55.066 17.1726 50.1154 18.7276 45.3151 20.8343C36.417 24.7468 28.9726 30.5824 22.7982 38.0401C19.2508 42.3374 16.3386 47.0529 14.162 52.1864C12.8895 55.1963 11.5334 58.2229 11.147 61.5338C7.96919 62.7209 5.37627 64.6271 3.26766 67.6703C4.65566 67.5032 5.54229 66.8343 6.67936 66.8511C10.9099 66.9349 14.6883 68.3063 18.1485 70.614C23.6146 74.2429 27.4244 79.2931 30.381 85.0622C30.7986 85.8816 31.233 86.5505 32.186 86.885C34.4096 87.671 36.4992 88.8082 38.3378 90.2463C41.0957 92.3869 43.6529 94.7615 42.2962 98.875C42.0785 99.5271 42.4462 99.7947 43.0314 99.9619C44.2853 100.347 45.5727 100.698 46.7764 101.2C53.0122 103.875 56.2536 108.624 53.1395 115.731C52.6874 116.785 52.8544 117.32 53.8071 118.022C60.5266 122.989 63.5998 129.661 62.7926 138.038C62.6749 139.209 62.6241 140.379 62.5231 141.533C61.3859 141.784 60.2322 141.617 59.1957 141.249C53.9627 139.393 48.4784 138.506 43.1952 136.867C31.8597 133.338 22.2982 127.201 14.929 117.786C8.31172 109.325 4.28704 99.6258 1.55026 89.325C0.982858 87.2181 0.90045 85.0108 0.149094 82.9372L0.0320143 82.9874ZM126.298 53.0441C126.181 52.7097 126.081 52.3418 125.914 52.0073C125.112 50.3686 124.311 48.7131 123.459 47.091C121.504 43.4121 119.399 39.867 115.019 38.6127C114.969 38.6127 114.935 38.5792 114.885 38.5458C114.099 38.0942 113.313 38.0942 112.444 38.3283C108.915 39.298 105.353 40.1841 101.891 41.3712C100.937 41.7056 99.3822 41.739 99.2981 42.5918C99.2141 43.2774 100.786 43.7624 101.688 44.2139C107.473 47.1405 113.441 49.649 119.577 51.7562C121.433 52.3917 123.339 52.9102 125.228 53.4621C125.646 53.5792 126.181 53.8467 126.298 53.0274L126.298 53.0441ZM99.2084 23.0105C98.6733 23.0105 98.3721 23.3951 98.2881 24.2813C97.9013 28.3113 98.7353 32.0235 101.158 35.3346C101.593 35.9366 101.994 36.1038 102.696 35.853C105.54 34.8331 108.466 34.1811 111.376 33.4287C112.681 33.0944 112.748 32.9439 111.695 31.9739C108.051 28.6294 104.106 25.7029 99.7936 23.2613C99.593 23.1443 99.3756 23.0774 99.2085 22.9938L99.2084 23.0105Z" fill="#79C88C"/>
<path d="M70.8386 137.669C69.6179 137.669 68.3805 137.669 67.1598 137.669C67.8467 135.311 68.0319 132.903 68.0332 130.445C68.0206 122.953 64.8466 117.084 58.8459 112.753C57.8764 112.05 57.8766 111.532 58.2952 110.562C59.2328 108.438 59.7858 106.231 59.3021 103.89C62.1285 103.138 64.6543 101.65 67.3304 100.529C67.6315 100.412 67.966 100.195 67.8325 99.7937C67.6822 99.3756 67.3143 99.4759 66.9965 99.5763C66.6453 99.6933 66.294 99.8438 65.9428 99.9775C63.6682 100.83 61.4269 101.833 59.0021 102.201C57.1981 98.5391 54.0387 96.5992 50.2937 95.3951C50.5111 95.3115 50.7286 95.1777 50.946 95.1443C58.973 94.1748 66.8999 92.737 74.7101 90.6137C76.0313 90.2626 77.3358 89.8614 78.6236 89.4601C78.9916 89.3431 79.5769 89.2595 79.41 88.6909C79.2598 88.206 78.7914 88.4401 78.4235 88.5069C77.8716 88.6072 77.3197 88.741 76.7678 88.858C67.2018 90.9645 57.5194 91.9507 47.7371 92.0004C47.9055 89.9269 46.9532 88.3717 45.6162 86.8834C44.3127 85.4453 42.5574 84.6259 41.2204 83.2713C42.1242 81.6995 43.5458 81.2983 45.201 81.6161C46.455 81.8669 47.7259 81.8336 48.9968 81.8503C56.2875 81.8507 63.5781 81.968 70.8522 81.8179C77.9255 81.6844 84.9825 81.0493 92.0062 80.0798C92.3239 80.0296 92.6417 79.946 92.9761 79.8791C93.2939 79.8123 93.7454 79.8123 93.7289 79.411C93.7291 78.9595 93.2609 79.0263 92.9431 79.0431C89.7492 79.16 86.572 79.2434 83.3781 79.444C80.6523 79.6278 77.9433 79.6945 75.2178 79.4269C74.5156 79.3599 73.8133 79.3265 73.1109 79.3264C67.9439 79.3262 62.8106 78.7741 57.6773 78.2555C54.0823 77.9042 50.504 77.5529 46.6918 76.9842C47.4615 76.0478 48.0305 75.2117 48.7332 74.5095C50.8915 72.2856 53.0833 70.0784 55.4421 68.0551C55.944 67.6204 56.4458 67.4365 57.1146 67.5536C63.1673 68.5739 69.2704 69.3266 75.3735 69.9289C80.0721 70.3973 84.8042 70.6818 89.5363 70.9161C93.2485 71.0835 96.944 71.0669 100.656 71.1507C102.078 71.1842 103.466 71.0003 104.87 70.8499C105.188 70.8165 105.639 70.8499 105.623 70.4152C105.606 69.9971 105.155 70.0473 104.837 70.0138C102.078 69.8298 99.3193 69.629 96.5603 69.4616C88.8183 68.9596 81.1771 67.7888 73.603 66.1831C69.8745 65.397 66.1794 64.5273 62.4677 63.6744C62.1333 63.5907 61.6149 63.6576 61.5315 63.2061C61.4481 62.7546 61.9498 62.6376 62.2175 62.4202C65.3124 59.8954 68.6413 57.6715 71.9534 55.4644C72.8232 54.8791 73.5922 55.2471 74.378 55.4645C79.8118 56.9697 85.2958 58.291 90.8302 59.3614C98.1535 60.7664 105.51 62.0041 112.968 62.4559C114.272 62.5396 115.577 62.7236 116.898 62.6735C117.232 62.6735 117.767 62.7739 117.751 62.222C117.751 61.804 117.266 61.8541 116.965 61.804C113.688 61.252 110.377 60.7669 107.117 60.1313C97.904 58.3751 88.9761 55.6324 80.1989 52.3545C79.7475 52.1872 79.0118 52.1705 79.0121 51.5518C79.0124 51.0501 79.6813 50.9666 80.066 50.7325C83.3947 48.7929 86.9572 47.2881 90.4363 45.6495C91.4064 45.1981 92.2759 45.1479 93.2623 45.5326C102.106 49.0446 111.134 51.9044 120.414 54.0118C122.387 54.4633 124.36 54.8815 126.333 55.2662C126.968 55.3832 127.353 55.6675 127.553 56.2695C128.221 58.2762 128.939 60.2661 129.255 62.3731C127.283 61.3864 125.243 61.3863 123.152 61.9213C121.898 62.2389 120.643 62.6068 119.389 62.9411C118.536 63.3424 117.683 63.7103 116.847 64.1617C110.156 67.7566 105.839 73.5254 102.39 80.0635C101.989 80.816 101.537 81.2842 100.751 81.6353C97.69 82.9896 94.6793 84.4443 92.387 86.9692C90.831 88.6747 89.7765 90.6144 90.5444 92.9889C90.9283 94.1762 90.5602 94.6109 89.4899 94.8617C87.0315 95.4134 84.7401 96.3665 82.7326 97.9048C80.675 99.4933 78.9684 101.349 78.7662 104.108C78.581 106.383 78.7637 108.64 79.883 110.68C80.4176 111.65 80.1832 112.118 79.3133 112.703C74.4455 115.997 71.5 120.579 70.3598 126.331C69.6052 130.144 69.9711 133.89 70.8386 137.635L70.8386 137.669Z" fill="#13BC78"/>
<path d="M11.0431 61.5532C11.4295 58.2422 12.7689 55.2323 14.0582 52.2057C16.2349 47.0721 19.1471 42.3567 22.6945 38.0592C28.8691 30.6015 36.3136 24.7658 45.2118 20.8532C50.0122 18.7464 54.9628 17.1914 60.147 16.389C64.9801 15.6366 69.8129 15.3525 74.729 15.7708C81.4844 16.3396 87.9549 17.8949 94.2075 20.5038C95.4781 21.0389 95.4444 21.5741 94.892 22.6108C92.3476 27.3765 92.3784 32.2425 94.5161 37.1254C94.9337 38.0619 94.8163 38.5803 93.8128 38.9481C90.0161 40.3526 86.3197 41.9745 82.7067 43.7803C81.8871 44.1984 81.2685 43.9642 80.7171 43.3121C75.6369 37.2418 73.9685 30.3523 77.5009 22.9112C77.6349 22.6102 77.8357 22.3259 77.9362 22.0249C78.1037 21.54 78.7728 20.9882 78.054 20.5534C77.4355 20.1855 76.8667 20.6871 76.4818 21.172C74.7918 23.2789 73.4527 25.5865 72.4815 28.0948C69.9696 34.5159 71.3208 40.469 74.8127 46.0877C75.4809 47.1746 75.4138 47.693 74.3098 48.295C71.1484 50.0507 68.1039 52.0237 65.1429 54.1139C64.273 54.7325 63.6042 54.6824 62.919 53.9967C56.9357 48.0602 52.8261 40.9031 55.6075 30.7195C55.7918 30.0339 56.0096 29.365 56.1939 28.6794C56.3112 28.2614 56.6626 27.7263 55.9772 27.4922C55.4087 27.2915 54.9905 27.6259 54.7227 28.1443C53.6848 30.1007 52.7138 32.0906 52.1107 34.231C49.6143 42.9932 51.717 50.6519 57.75 57.3075C58.6024 58.244 58.8529 58.8125 57.6484 59.7489C54.8212 61.9226 52.1276 64.2803 49.6514 66.8387C49.049 67.4574 48.5139 67.5075 47.8118 66.9891C41.7275 62.5576 37.2155 57.0726 35.7482 49.4641C35.1145 46.1866 35.3337 42.9258 35.9877 39.6818C36.0883 39.1634 36.4565 38.4778 35.654 38.2604C34.9518 38.0597 34.6838 38.7453 34.4996 39.2636C31.9374 46.1864 31.5991 53.0926 34.6555 59.9654C36.643 64.4136 39.5505 68.1761 43.3949 71.1862C44.2474 71.8551 44.1636 72.2564 43.4775 73.0591C41.1684 75.7679 38.6252 78.2929 36.7006 81.3195C35.8479 81.0519 35.748 80.2158 35.4139 79.5803C32.7579 74.48 29.2989 70.0653 24.8026 66.4532C23.081 65.0819 21.0414 64.2123 19.2194 62.9916C18.9697 60.9347 18.9206 58.8779 18.9385 56.8044C18.9388 56.3362 19.19 55.6339 18.4543 55.5335C17.8356 55.4499 17.6346 56.0686 17.4838 56.5703C17.3833 56.9214 17.3496 57.306 17.2491 57.6739C16.7968 59.229 17.1972 60.8678 16.678 62.4062C14.8221 61.9379 12.9662 61.5031 11.0431 61.5699L11.0431 61.5532Z" fill="#13BC78"/>
<path d="M119.408 62.9733C120.662 62.6389 121.917 62.2711 123.171 61.9534C125.245 61.4184 127.302 61.4185 129.274 62.4052C133.152 64.7465 135.893 67.9906 137.162 72.3885C137.696 74.2446 137.979 76.1342 138.078 78.0572C137.015 95.5314 130.502 110.681 118.339 123.255C110.877 130.963 101.46 135.327 91.1918 138.002C87.1948 139.039 83.1644 139.908 79.2341 141.196C76.8425 141.981 74.4178 142.165 72.4625 140.025C73.5495 139.724 74.6199 139.389 75.7237 139.139C83.0821 137.467 90.2235 135.226 96.7971 131.414C104.843 126.733 111.2 120.345 116.104 112.486C118.548 108.573 120.657 104.493 122.264 100.163C125.078 92.571 127.707 84.946 127.026 76.652C126.81 74.01 126.176 71.485 124.923 69.1104C123.587 66.6188 121.715 64.6288 119.442 62.99L119.408 62.9733Z" fill="#8ECF9E"/>
<path d="M11.0458 61.5502C12.9856 61.4667 14.8414 61.9183 16.6806 62.3866C17.5333 62.5706 18.319 63.0054 19.2219 62.972C21.044 64.1928 23.0835 65.0457 24.8051 66.4337C29.3013 70.0291 32.777 74.4605 35.4163 79.5607C35.7504 80.1962 35.8503 81.049 36.703 81.2999C38.1573 82.0691 39.5782 82.922 41.2 83.29C42.537 84.6445 44.2924 85.4639 45.5959 86.9021C46.9328 88.3904 47.8851 89.9455 47.7168 92.019C47.5263 93.7692 48.3284 94.8952 50.1229 95.3969C50.1229 95.3969 50.2232 95.3969 50.2566 95.4137C54.0017 96.6178 57.161 98.5577 58.965 102.22C59.065 102.788 59.165 103.34 59.2818 103.909C59.7655 106.25 59.2124 108.474 58.2749 110.581C57.8563 111.534 57.8561 112.069 58.8255 112.771C64.843 117.119 68.0002 122.972 68.0129 130.463C68.0116 132.905 67.8431 135.329 67.1395 137.687C66.1853 139.76 64.8968 141.416 62.3885 141.6C62.4727 140.429 62.5402 139.259 62.6579 138.105C63.4651 129.727 60.3918 123.055 53.6724 118.088C52.7196 117.386 52.5527 116.834 53.0048 115.798C56.1188 108.691 52.8774 103.942 46.6416 101.266C45.4379 100.748 44.1673 100.396 42.8966 100.029C42.3115 99.8445 41.9437 99.5937 42.1615 98.9416C43.5348 94.8448 40.961 92.4535 38.2031 90.3129C36.3645 88.8748 34.2749 87.7376 32.0513 86.9516C31.0983 86.6171 30.6639 85.9482 30.2463 85.1288C27.2897 79.3597 23.4799 74.3095 18.0138 70.6806C14.537 68.3729 10.7586 67.0015 6.5448 66.9177C5.42446 66.9009 4.53785 67.5697 3.13315 67.7369C5.25843 64.6936 7.8346 62.7708 11.0123 61.6004L11.0458 61.5502Z" fill="#8ECF9E"/>
<path d="M126.301 53.0438C126.183 53.8464 125.648 53.5956 125.23 53.4785C123.341 52.9266 121.435 52.4082 119.579 51.7727C113.443 49.6656 107.491 47.1571 101.69 44.2306C100.788 43.779 99.2161 43.2773 99.3001 42.6085C99.4009 41.7556 100.939 41.7222 101.893 41.3878C105.355 40.2006 108.917 39.3145 112.446 38.3447C113.316 38.1106 114.102 38.1106 114.887 38.5621C114.921 38.5788 114.971 38.6123 115.021 38.629C119.418 39.8833 121.524 43.4284 123.461 47.1074C124.313 48.7294 125.115 50.3849 125.917 52.0237C126.084 52.3582 126.184 52.7261 126.301 53.0605L126.301 53.0438Z" fill="#13BC78"/>
<path d="M99.2087 23.0115C99.3591 23.0784 99.5932 23.162 99.7938 23.2791C104.107 25.7207 108.051 28.6471 111.695 31.9917C112.748 32.9616 112.698 33.0953 111.376 33.4464C108.466 34.1988 105.54 34.8676 102.697 35.8708C102.011 36.1216 101.61 35.9543 101.158 35.3523C98.7355 32.0413 97.9014 28.329 98.2883 24.2991C98.3724 23.3961 98.6568 23.0282 99.2086 23.0282L99.2087 23.0115Z" fill="#13BC78"/>
<path d="M119.407 62.974C121.697 64.6128 123.552 66.6028 124.888 69.0944C126.158 71.4522 126.775 73.9773 126.991 76.636C127.672 84.93 125.043 92.5549 122.23 100.146C120.622 104.477 118.513 108.557 116.07 112.47C111.166 120.346 104.808 126.733 96.7627 131.398C90.1891 135.227 83.0478 137.467 75.6894 139.122C74.5856 139.373 73.5153 139.707 72.4282 140.008C71.5757 139.44 71.409 138.42 70.8242 137.667C69.9734 133.922 69.5908 130.176 70.3453 126.363C71.4855 120.611 74.4309 116.03 79.2986 112.736C80.1685 112.15 80.3861 111.682 79.8683 110.712C78.749 108.672 78.5663 106.415 78.7514 104.141C78.9703 101.382 80.6602 99.5089 82.7178 97.9372C84.7252 96.3989 87.0165 95.4459 89.4749 94.8942C90.5619 94.6434 90.9133 94.2254 90.5294 93.0214C89.7614 90.6469 90.8327 88.7072 92.372 87.0017C94.6809 84.4768 97.6916 83.0222 100.736 81.6679C101.522 81.3168 101.973 80.8486 102.375 80.0961C105.84 73.5581 110.141 67.7894 116.831 64.1946C117.651 63.7598 118.52 63.392 119.373 62.974L119.407 62.974Z" fill="#8ECF9E"/>
<path d="M50.2742 95.3967C50.2742 95.3967 50.1739 95.3967 50.1405 95.3799C48.3458 94.8894 47.5437 93.7634 47.7342 92.002C57.517 91.9518 67.2001 90.9652 76.7666 88.8582C77.3185 88.7412 77.8704 88.6241 78.4224 88.5071C78.7736 88.4402 79.2587 88.2061 79.4089 88.691C79.5758 89.2596 78.9905 89.3432 78.6225 89.4603C77.3179 89.8783 76.0133 90.2629 74.7088 90.6141C66.8981 92.7378 58.9707 94.1759 50.9433 95.1458C50.7259 95.1793 50.5084 95.313 50.291 95.3967L50.2742 95.3967Z" fill="#79C88C"/>
<path d="M59.3007 103.891C59.2006 103.322 59.1006 102.77 58.9839 102.202C61.4088 101.834 63.6501 100.83 65.9249 99.9777C66.2761 99.8439 66.6274 99.6934 66.9786 99.5764C67.2964 99.4761 67.6643 99.3757 67.8146 99.7938C67.9481 100.195 67.6136 100.396 67.3125 100.53C64.6363 101.65 62.1104 103.138 59.2839 103.891L59.3007 103.891Z" fill="#79C88C"/>
<path d="M19.2182 62.9585C18.3153 62.9919 17.5296 62.5571 16.6769 62.3731C17.1961 60.8348 16.7789 59.1794 17.2478 57.641C17.3484 57.2899 17.3653 56.9053 17.4825 56.5374C17.6332 56.0358 17.8342 55.4338 18.4529 55.5008C19.1885 55.6011 18.9374 56.3034 18.9371 56.7716C18.9193 58.845 18.9685 60.9018 19.2182 62.9585Z" fill="#79C88C"/>
<path d="M66.9234 75.9499C67.7254 77.271 68.1762 78.5419 69.0453 79.3947C70.8002 81.1172 73.4762 80.4316 75.0828 78.1908C75.6016 77.4718 76.4882 77.0035 77.2075 76.4183C77.2237 77.4718 77.5909 78.6758 77.2058 79.5453C75.8664 82.5386 71.986 83.8764 68.6926 82.2208C66.9706 81.368 65.9003 81.5185 64.2443 82.2709C60.4808 83.9933 55.9 81.8695 55.4838 78.4247C55.4005 77.7725 55.9862 77.0367 56.2709 76.3344C56.7557 76.5685 57.3911 76.6856 57.6919 77.0702C61.1845 81.5686 62.5892 81.5351 65.7022 76.8027C65.8696 76.5352 66.2375 76.4181 66.9234 75.9499Z" fill="black"/>
<path d="M92.432 64.1284C95.3081 64.3124 97.9664 65.366 99.2356 68.4596C99.5195 69.1285 99.034 70.1151 98.9165 70.9512C98.1642 70.6335 97.1442 70.5498 96.693 69.9813C93.5346 66.1351 91.277 66.1518 87.8133 70.1316C87.3783 70.6332 86.4919 70.7503 85.8061 71.0345C85.6059 70.2318 85.0713 69.3288 85.2556 68.6265C85.8924 66.1349 89.1042 64.145 92.432 64.1284Z" fill="black"/>
<path d="M47.5946 67.473C47.6261 71.135 45.7685 73.9944 43.2936 74.128C40.7686 74.2616 38.5963 71.2851 38.5815 67.6565C38.5668 63.9275 40.5749 61.0181 43.1835 61.0349C45.6917 61.0351 47.5798 63.7942 47.5946 67.473Z" fill="black"/>
</svg>
