<svg width="128" height="120" viewBox="0 0 128 120" fill="none" xmlns="http://www.w3.org/2000/svg">
<path d="M51.0168 94.1751C51.0407 92.2535 51.8051 91.7206 53.1825 92.3019C53.4055 92.3988 53.6444 92.5845 53.8514 92.5603C55.9932 92.31 56.4391 93.8925 57.0124 95.4266C57.6972 97.2918 57.9201 99.2619 58.3978 101.167C59.3692 104.978 60.2133 108.814 61.0891 112.649C61.3917 113.973 61.6943 115.297 61.9172 116.629C62.1322 117.873 61.9889 118.059 60.8184 118.6C58.7243 119.568 57.307 119.092 56.3595 116.961C55.2289 114.425 54.6715 111.688 54.0265 108.999C53.2622 105.834 52.7526 102.605 52.1076 99.4153C51.7334 97.5502 51.3273 95.685 51.0009 94.1751H51.0168Z" fill="#383838"/>
<path d="M97.0265 109.069C95.9639 109.069 95.173 108.629 94.4219 108.114C91.7854 106.311 89.9078 103.895 88.4137 101.213C87.2473 99.115 86.2486 96.9258 85.7772 94.57C85.6813 94.1003 85.4256 93.714 85.2499 93.2822C84.7625 92.0626 84.8424 90.7218 86.8558 90.5703C87.7267 90.5097 88.0303 90.1613 88.0462 89.3886C88.0542 88.7599 88.0383 88.1084 88.5096 87.5706C89.0689 86.9267 89.6122 86.904 90.1395 87.5706C90.539 88.0781 90.8506 88.6311 90.9864 89.2826C91.7294 92.7368 93.0397 96.0395 94.0864 99.418C94.2861 100.069 94.7255 100.668 95.1011 101.259C96.2036 102.993 97.3142 104.721 98.4487 106.433C98.8162 106.986 99.2636 107.546 98.8082 108.175C98.3848 108.766 97.7376 109.114 97.0265 109.076V109.069Z" fill="#383838"/>
<path d="M124.001 22.0213C123.953 23.6242 123.692 24.8303 123.327 26.0441C122.503 28.7987 121.448 31.4676 119.942 33.9031C118.595 36.0896 116.93 38.0739 114.861 39.6846C113.513 40.735 111.769 41.0307 110.311 41.9022C109.843 42.1823 109.336 41.8555 108.955 41.5987C108.242 41.1319 107.568 41.2252 106.894 41.5909C106.046 42.0578 105.079 42.2446 104.247 42.7737C103.668 43.1472 102.939 43.2483 102.4 42.6725C101.829 42.0656 101.916 41.3653 102.376 40.7039C103.43 39.1788 104.397 37.6225 106.141 36.6655C109.185 35.0003 111.714 32.6504 114.235 30.3393C116.7 28.0828 118.674 25.445 119.213 22.0213C119.371 21.0019 119.784 20.076 120.743 19.4846C122.059 18.6676 123.398 19.1111 123.826 20.5817C123.993 21.142 123.969 21.7567 123.993 22.0057L124.001 22.0213Z" fill="#383838"/>
<path d="M123.303 21.0791C122.877 20.4145 122.638 20.0402 122.406 19.6811C120.663 20.0707 120.506 20.002 119.931 18.4283C119.34 16.824 118.779 15.2045 118.173 13.6079C117.881 12.8363 117.866 12.2022 118.884 11.721C120.379 13.1113 120.207 15.4948 121.912 17.1831C122.01 14.9677 122.092 13.0426 122.182 11.0793C123.67 11.064 123.326 12.0877 123.393 12.7676C123.46 13.5238 123.408 14.2878 123.408 15.1816C124.852 14.7538 125.158 13.0578 126.706 13.0655C126.938 15.1052 124.979 15.9837 124.515 17.947C125.173 17.6796 125.592 17.5192 126.011 17.3435C126.43 17.1678 126.826 16.9004 127.26 16.8393C127.484 16.8087 127.828 17.0761 127.978 17.3053C128.06 17.4199 127.91 17.8477 127.746 17.9623C126.332 18.9859 124.896 19.9638 123.296 21.0791H123.303Z" fill="#383838"/>
<path d="M28.5515 51.0785C27.338 51.1014 26.3766 50.4159 25.3522 49.9664C24.3199 49.5094 23.4374 49.3038 22.279 49.7608C20.9631 50.2787 19.7416 49.4256 18.599 48.8696C15.8016 47.5061 13.6267 45.4038 11.6331 43.1187C9.96253 41.2068 8.36289 39.2339 6.77113 37.2611C5.28968 35.4254 4.54895 33.285 4.05251 31.0379C3.87127 30.2381 4.16283 29.6592 4.88779 29.3012C6.12496 28.6842 8.36288 29.4231 8.946 30.6494C9.24544 31.2817 9.45033 31.9596 9.69461 32.6147C10.6796 35.2426 12.6496 37.1697 14.8166 38.8302C18.2996 41.5038 21.9086 44.0251 25.762 46.2112C26.8415 46.8206 27.8581 47.5671 28.9298 48.2145C29.4104 48.504 29.765 48.8848 29.9148 49.418C30.2142 50.492 29.7178 51.0938 28.5515 51.0785V51.0785Z" fill="#383838"/>
<path d="M4.33816 22.0791C5.0182 23.903 5.58098 25.4205 6.21412 27.1098C7.13647 25.697 6.10471 23.9105 7.69928 22.722C7.81653 23.1256 7.98849 23.4396 7.98849 23.761C8.00412 25.6298 8.01193 27.506 7.95721 29.3748C7.94158 29.8233 7.68363 30.2718 7.41005 31.0791C6.85507 30.2793 6.55806 29.8457 6.34701 29.5542C4.71336 29.9279 3.17351 30.3092 1.63365 30.6306C1.02396 30.7577 1.00833 30.6979 0 29.4196C0.930166 29.1281 1.75872 28.874 2.66544 28.5899C2.2199 27.2369 -0.43772 27.0725 0.468996 24.9271C2.11828 24.9047 2.48566 26.8333 4.18184 26.9603C4.86188 25.4803 3.06407 24.0226 4.34598 22.0791H4.33816Z" fill="#383838"/>
<path d="M40.3311 56.7528C40.2058 56.3144 40.2215 55.8602 40.2371 55.4061C40.2606 50.1133 41.3411 45.0162 43.2437 40.0992C44.6687 36.4114 46.446 32.9194 48.9202 29.7953C50.0712 28.339 51.4492 27.1254 52.7176 25.8022C53.1404 25.7631 53.5475 25.7004 53.9703 25.6769C57.1179 25.5595 60.2184 25.1132 63.1937 24.0484C67.3982 22.5529 71.634 21.1984 76.1126 20.7991C80.8965 20.5094 85.6256 20.9009 90.1746 22.4668C101.684 26.4208 109.569 34.1095 113.632 45.6347C113.828 46.1906 113.875 46.8327 114.313 47.2868L115.535 53.5818C115.331 54.7954 115.566 56.009 115.574 57.2148C115.551 63.4863 114.071 69.382 111.056 74.8785C109.851 77.0942 108.465 79.2083 106.727 81.056C98.3488 82.6924 89.9789 84.3288 81.3898 84.5951C74.1395 84.8143 66.9676 84.4698 59.9913 82.2305C54.8394 80.5784 50.2434 78.0416 46.634 73.9467C45.0993 72.2007 41.161 58.9843 40.3546 56.7528C40.6756 56.7528 42.1945 67.9179 42.5234 67.9257C44.6922 67.9414 48.0511 67.4325 49.7971 66.1484C52.7254 63.9953 53.3753 60.284 51.2456 57.849C49.7658 56.1578 47.8162 55.5001 45.6239 55.4453C45.6396 55.1869 45.6631 54.9285 45.6709 54.678C45.6944 53.112 46.2973 52.2038 47.4717 51.9611C48.6384 51.734 49.5231 52.3134 50.173 53.7697C50.1964 53.8324 50.2199 53.895 50.2513 53.9498C50.5879 54.7093 51.1752 55.0225 51.9738 54.8267C52.7176 54.6388 53.1247 53.9028 52.976 53.0729C52.4671 50.2464 49.4448 48.4221 46.5243 49.1816L40.3311 56.7607V56.7528ZM83.3941 48.1011C82.6973 48.3673 82.0553 48.7588 81.4681 49.2129C77.6942 52.0785 78.0074 57.0425 82.0788 59.0469C85.516 60.7303 90.112 59.8847 92.7036 57.0738C95.5693 53.9811 94.6297 49.6513 90.754 47.9914C89.1959 47.3259 87.5752 47.1458 85.9153 47.3807C85.8213 45.3763 84.78 43.9592 83.0262 43.1136C81.194 42.2132 79.3697 42.3932 77.7098 43.6147C76.0578 44.8361 75.4157 46.5273 75.6663 48.5552C75.7681 49.4086 76.3944 49.941 77.1618 49.9175C77.9291 49.8862 78.4615 49.3147 78.5241 48.4456C78.5476 48.1559 78.5241 47.8662 78.5554 47.5686C78.6337 46.5743 79.401 45.7443 80.3641 45.5564C81.3271 45.3685 82.2745 45.8226 82.7365 46.6917C82.9792 47.1537 83.1749 47.6313 83.3941 48.0932V48.1089V48.1011ZM65.8009 58.4675C67.6566 58.0447 69.0972 57.0895 70.1229 55.5392C70.6945 54.6936 70.624 53.9263 69.935 53.3861C69.2851 52.8771 68.4317 53.0181 67.821 53.7776C67.3982 54.31 66.9832 54.8424 66.3647 55.1712C64.9005 55.962 63.5303 55.735 62.1601 54.8894C61.3302 54.3648 60.4611 54.5918 60.054 55.2965C59.6155 56.0403 59.8347 56.792 60.6725 57.3635C62.2463 58.4362 63.9688 58.765 65.7931 58.4675H65.8009Z" fill="#F2897D"/>
<path d="M52.5453 63.149C53.3518 65.3805 45.0602 72.1923 46.6026 73.9383C50.2121 78.0332 54.8003 80.57 59.96 82.2221C66.9362 84.4613 74.1082 84.798 81.3584 84.5866C89.9397 84.3282 98.3174 82.6997 106.695 81.0476C103.258 85.213 99.0221 88.3214 94.1364 90.5685C89.603 92.6512 84.827 93.716 79.8551 93.8961C74.6562 94.0683 69.7079 95.3211 64.7909 96.9574C55.6537 100.011 46.6261 99.5412 37.8569 95.5325C30.5597 92.2127 24.9615 86.959 21.0858 79.9593C18.2984 74.8778 16.8108 69.4284 16.5994 63.6423C16.3175 55.8362 18.3298 48.6485 22.6204 42.1499C27.052 35.4477 33.0887 30.6951 40.6678 27.9548C41.1532 27.7825 41.6386 27.5868 42.1241 27.4067C42.4059 27.3284 42.6878 27.2501 42.9697 27.1875C46.1642 26.381 49.39 25.6998 52.7176 25.8016C51.4413 27.117 50.0633 28.3306 48.9202 29.7947C46.446 32.9266 44.6765 36.4264 43.2437 40.0986C41.3333 45.0234 40.2606 50.1127 40.2371 55.4055C40.2371 55.8596 40.2136 56.3138 40.3311 56.7522" fill="#EB796C"/>
<path d="M52.7097 25.7862C49.3821 25.6845 46.1641 26.35 42.9618 27.1721C42.68 27.2504 42.3981 27.3287 42.1162 27.3913C39.6342 26.2012 37.1914 24.9641 34.9364 23.3669C34.451 23.0224 33.9499 22.7014 34.0517 21.9967C34.1535 21.2842 34.6311 21.0023 35.2888 20.8222C40.6599 19.3268 46.0702 18.1132 51.7076 18.6221C52.835 18.7239 53.1873 18.4107 53.2187 17.2832C53.297 14.5742 53.9625 11.9904 54.8081 9.4301C55.0117 8.7959 55.2309 8.14604 55.959 7.99727C56.695 7.84068 57.157 8.33395 57.5641 8.85854C58.5115 10.0721 59.4745 11.2701 60.4767 12.5463C61.6277 10.0878 62.3715 7.56665 62.7238 4.92805C62.8256 4.19207 62.8883 3.44825 63.0449 2.72009C63.4285 0.919275 65.0727 -0.216024 66.8579 0.0345245C68.6509 0.277244 69.9585 1.78836 69.8332 3.62833C69.5905 7.0264 68.8936 10.3462 67.6409 13.5328C67.5156 13.846 67.1711 14.2297 67.4373 14.5115C67.6722 14.7699 68.1107 14.535 68.4317 14.4254C72.2369 13.1727 76.1595 12.5854 80.1213 12.1548C80.7477 12.0922 81.2018 12.2644 81.5307 12.7734C81.8674 13.3058 81.6325 13.7521 81.3506 14.2062C79.8238 16.5786 78.0073 18.7239 76.0969 20.7987C71.6183 21.1981 67.3825 22.5448 63.178 24.0481C60.2184 25.1051 57.11 25.5435 53.9625 25.6766C53.5475 25.6923 53.1325 25.7471 52.7097 25.8019V25.7862V25.7862Z" fill="#8ECF9E"/>
<path d="M77.3887 83.4207C94.7157 80.0539 106.335 64.8566 103.352 49.4713C100.361 34.0861 83.8951 24.346 66.5681 27.7127C49.2411 31.0795 37.6219 46.2768 40.605 61.6621C43.5881 77.0473 60.0617 86.7874 77.3887 83.4207V83.4207Z" fill="#F2897D"/>
<path d="M67.8444 57.2145C69.4729 56.9013 71.1328 56.6664 72.7379 56.2436C74.7345 55.7112 75.6662 56.5333 75.5644 58.4359C75.4469 60.6517 75.4704 62.9849 74.7423 65.0206C73.1137 69.5305 67.4764 70.932 64.1723 67.5104C62.3714 65.6392 61.4241 62.8831 60.3357 60.4403C60.1635 60.0566 61.1187 58.6943 61.7764 58.4985C63.7495 57.8956 65.8321 57.6373 67.8757 57.2379L67.8522 57.2223L67.8444 57.2145Z" fill="black"/>
<path d="M89.7596 45.6816C91.6152 45.4937 93.3926 46.167 94.4731 48.1401C94.6923 48.5472 94.5279 49.1658 94.5435 49.6904C94.0659 49.5416 93.4709 49.5338 93.1342 49.2362C90.2764 46.6524 88.2485 47.0283 86.6669 50.4263C86.4712 50.8491 85.9466 51.1154 85.5708 51.4677C85.3594 50.9901 84.9522 50.4968 84.9757 50.0349C85.0618 47.8739 87.0192 46.0417 89.7596 45.6816Z" fill="black"/>
<path d="M48.701 58.6001C46.8767 57.8641 45.0915 56.4861 43.6196 56.7523C42.1554 57.0263 41.0123 58.9602 39.5951 60.2835C38.3502 58.9524 39.2663 57.6214 40.1902 56.4313C41.67 54.5287 44.6139 53.9414 46.7044 55.202C47.9728 55.9537 49.3978 56.8384 48.701 58.6079V58.6001Z" fill="black"/>
</svg>
