<svg width="155" height="149" viewBox="0 0 155 149" fill="none" xmlns="http://www.w3.org/2000/svg">
<path d="M39.0346 79.0954C38.9674 78.3894 39.1355 77.7002 39.2868 77.0111C40.9005 68.9259 44.0606 61.4627 48.4309 54.5037C51.7087 49.2929 55.4571 44.4855 60.1637 40.4345C62.3488 38.5519 64.8198 37.1063 67.1562 35.459C67.8118 35.5263 68.4505 35.5431 69.1061 35.6439C73.9471 36.4003 78.8217 36.6357 83.6796 35.8961C90.5545 34.8539 97.4294 34.0471 104.388 34.7699C111.784 35.7448 118.895 37.7451 125.383 41.4935C141.805 50.957 151.571 65.043 154.362 83.8692C154.496 84.7769 154.379 85.7686 154.916 86.5922V96.5768C154.244 98.3754 154.244 100.292 153.891 102.141C151.992 111.722 147.974 120.294 141.738 127.791C139.234 130.817 136.494 133.641 133.283 135.944C119.987 135.96 106.708 135.977 93.5129 133.826C82.3684 132.01 71.5098 129.355 61.5084 123.858C54.1292 119.807 47.8594 114.563 43.5563 107.234C41.7241 104.107 39.6398 82.743 39.0683 79.0954C39.5557 79.1794 38.564 96.7113 39.0683 96.8122C42.3797 97.4845 47.6577 97.703 50.717 96.2575C55.8269 93.837 57.928 88.3572 55.3899 84.0036C53.6249 80.978 50.8514 79.398 47.5064 78.6584C47.6073 78.2718 47.7249 77.8851 47.809 77.4985C48.3133 75.1116 49.5067 73.9014 51.3725 73.8846C53.2215 73.8846 54.3981 75.0276 54.9697 77.4481C54.9865 77.549 55.0033 77.6498 55.0369 77.7507C55.3226 79.0113 56.1295 79.6669 57.407 79.5997C58.6004 79.5324 59.4409 78.5239 59.4577 77.2128C59.5249 72.7416 55.4403 69.0604 50.7506 69.3461L39.0346 79.0954ZM107.414 78.6584C106.271 78.8601 105.178 79.2635 104.136 79.7846C97.5134 83.0455 96.5217 90.7273 102.153 94.9968C106.91 98.5939 114.188 98.6612 118.979 95.1313C124.273 91.2484 124.122 84.3566 118.693 80.6754C116.508 79.1963 114.087 78.4398 111.482 78.3054C111.936 75.2125 110.759 72.7416 108.338 70.9262C105.8 69.01 102.96 68.741 100.068 70.1194C97.1772 71.4977 95.698 73.8846 95.4795 77.0615C95.3787 78.3894 96.1855 79.398 97.3621 79.5829C98.5388 79.7678 99.5305 79.045 99.8835 77.7339C100.001 77.2968 100.052 76.843 100.186 76.4059C100.606 74.9099 102.018 73.8678 103.548 73.8678C105.044 73.8678 106.389 74.8427 106.842 76.3051C107.078 77.0783 107.229 77.8683 107.431 78.6416L107.414 78.6584ZM77.4602 89.2817C80.4186 89.1808 82.9063 88.1555 84.9402 86.088C86.0664 84.9618 86.1841 83.7683 85.2932 82.743C84.4528 81.768 83.108 81.7344 81.9482 82.7093C81.1414 83.3985 80.3514 84.0877 79.3092 84.4071C76.8383 85.1803 74.8044 84.4239 72.9722 82.7262C71.8628 81.684 70.4676 81.768 69.6272 82.7262C68.7363 83.7347 68.8539 84.945 69.9633 86.0712C72.0477 88.1723 74.5858 89.1977 77.4602 89.2817Z" fill="#F2897D"/>
<path d="M55.8101 92.4927C56.3816 96.1403 41.6904 104.091 43.5226 107.217C47.8257 114.546 54.0787 119.791 61.4747 123.842C71.4761 129.338 82.3348 131.977 93.4792 133.809C106.674 135.961 119.953 135.961 133.249 135.927C126.761 141.273 119.365 144.769 111.23 146.752C103.682 148.585 96.0678 148.803 88.4197 147.593C80.4185 146.315 72.4847 146.752 64.4835 147.795C49.6075 149.744 35.9585 146.349 23.7383 137.625C13.5688 130.38 6.57627 120.698 2.72699 108.848C-0.0297005 100.258 -0.685255 91.4841 0.709899 82.5753C2.59252 70.5568 7.80333 60.1688 16.2919 51.5122C25.0494 42.5865 35.6896 37.1068 48.0947 35.1737C48.8847 35.0561 49.6916 34.9048 50.4816 34.7703C50.9354 34.7367 51.3893 34.7031 51.8431 34.6863C56.9699 34.4005 62.0966 34.3165 67.1562 35.4595C64.8197 37.09 62.3488 38.5356 60.1636 40.435C55.4571 44.486 51.7086 49.3102 48.4309 54.5042C44.0437 61.4631 40.9004 68.9264 39.2867 77.0115C39.1523 77.7007 38.9842 78.3899 39.0346 79.0959" fill="#EB796C"/>
<path d="M67.1568 35.4425C62.0973 34.2995 56.9873 34.3667 51.8438 34.6693C51.3899 34.7029 50.9361 34.7365 50.4822 34.7533C47.0364 32.1984 43.6745 29.5761 40.6993 26.4665C40.0606 25.7941 39.3882 25.1553 39.758 24.1132C40.1278 23.0542 40.9347 22.7685 41.9936 22.6844C50.6503 21.9952 59.2734 21.7431 67.7451 24.1972C69.4429 24.6847 70.0648 24.3149 70.4514 22.6004C71.3759 18.4821 73.1577 14.7337 75.2084 11.0693C75.7126 10.1617 76.2337 9.23715 77.3936 9.22034C78.5702 9.20354 79.1249 10.0944 79.5955 11.0189C80.6881 13.1537 81.7975 15.2716 82.9574 17.524C85.4451 14.1118 87.3277 10.481 88.6556 6.5477C89.0254 5.45511 89.3448 4.3289 89.7986 3.26993C90.9249 0.630907 93.7656 -0.612965 96.4214 0.294725C99.0941 1.20242 100.64 3.89187 99.9009 6.66536C98.5226 11.7921 96.4718 16.65 93.6143 21.1548C93.3285 21.5918 92.6898 22.0793 93.0092 22.5836C93.2949 23.0542 94.0345 22.8189 94.5556 22.7516C100.741 21.9616 106.91 22.2306 113.096 22.7516C114.071 22.8357 114.71 23.2391 115.063 24.1132C115.416 25.0209 114.928 25.6428 114.357 26.2479C111.314 29.4249 107.902 32.1647 104.372 34.7701C97.4132 34.0474 90.5382 34.8542 83.6633 35.8963C78.8223 36.6359 73.9477 36.3838 69.0899 35.6442C68.4511 35.5434 67.7956 35.5097 67.14 35.4593L67.1568 35.4425Z" fill="#8ECF9E"/>
<path d="M87.7641 130.851C115.243 130.851 137.519 111.074 137.519 86.6768C137.519 62.28 115.243 42.5025 87.7641 42.5025C60.2853 42.5025 38.0093 62.28 38.0093 86.6768C38.0093 111.074 60.2853 130.851 87.7641 130.851Z" fill="#F2897D"/>
<path d="M80.9569 87.9707C83.5455 87.9707 86.1509 88.1052 88.7227 87.9371C91.9332 87.7186 93.1099 89.2482 92.3871 92.1226C91.5466 95.4676 90.8911 99.0479 89.1765 101.939C85.3441 108.343 76.3176 108.814 72.2834 102.611C70.0814 99.216 69.4595 94.728 68.5182 90.6602C68.3669 90.0214 70.2327 88.2228 71.2917 88.122C74.4854 87.7858 77.7464 88.0043 80.9905 88.0043L80.9569 87.9707Z" fill="black"/>
<path d="M117.869 76.8431C120.76 77.112 123.281 78.6585 124.34 82.0035C124.559 82.6926 124.122 83.5835 123.987 84.3904C123.298 84.0206 122.391 83.8357 121.97 83.281C118.373 78.4904 115.163 78.4568 111.734 83.1801C111.313 83.7684 110.423 84.0206 109.75 84.4408C109.565 83.6508 109.095 82.7767 109.263 82.0707C110.036 78.7929 113.566 76.5741 117.869 76.8431Z" fill="black"/>
<path d="M51.2886 84.4073C48.7168 82.7432 46.3972 80.1042 44.0775 80.0706C41.7579 80.0538 39.4382 82.676 36.8832 84.2728C35.3704 81.8691 37.169 80.1042 38.934 78.5578C41.7579 76.0868 46.4308 76.07 49.2547 78.6082C50.9693 80.1378 52.8855 81.9028 51.2886 84.4073Z" fill="black"/>
</svg>
