<svg width="84" height="82" viewBox="0 0 84 82" fill="none" xmlns="http://www.w3.org/2000/svg">
<path fill-rule="evenodd" clip-rule="evenodd" d="M42 0C30.8609 0 20.178 4.31963 12.3015 12.0086C4.42499 19.6976 0 30.1261 0 41C0 51.8739 4.42499 62.3024 12.3015 69.9914C20.178 77.6804 30.8609 82 42 82C53.1391 82 63.822 77.6804 71.6985 69.9914C79.575 62.3024 84 51.8739 84 41C84 30.1261 79.575 19.6976 71.6985 12.0086C63.822 4.31963 53.1391 0 42 0ZM42 75.6923C32.5746 75.6923 23.5353 72.0372 16.8705 65.5312C10.2058 59.0251 6.46154 50.201 6.46154 41C6.46154 31.799 10.2058 22.9749 16.8705 16.4688C23.5353 9.96277 32.5746 6.30769 42 6.30769C51.4254 6.30769 60.4647 9.96277 67.1295 16.4688C73.7942 22.9749 77.5385 31.799 77.5385 41C77.5385 50.201 73.7942 59.0251 67.1295 65.5312C60.4647 72.0372 51.4254 75.6923 42 75.6923ZM52.0154 22.5815C50.8991 21.4468 49.558 20.5455 48.0738 19.9323C46.2065 19.2024 44.2043 18.8588 42.1938 18.9231C40.2425 18.8885 38.3054 19.2538 36.5077 19.9954C34.9634 20.6262 33.6 21.5975 32.5015 22.8338C31.4315 23.97 30.5976 25.2982 30.0462 26.7446C29.5335 28.2139 29.208 29.7392 29.0769 31.2862H37.0246C37.0612 30.285 37.3878 29.3146 37.9665 28.4873C38.5452 27.66 39.3523 27.0098 40.2942 26.6122C40.9184 26.3721 41.5885 26.2666 42.2585 26.3031C42.8364 26.2134 43.4252 26.2134 44.0031 26.3031C44.534 26.4991 45.0179 26.7997 45.4246 27.1862C45.8735 27.5654 46.2272 28.0401 46.4585 28.5738C46.7232 29.1708 46.8553 29.8157 46.8462 30.4662C46.8462 31.5574 46.6071 32.6297 46.1354 33.62C45.6661 34.6475 45.0809 35.6206 44.3908 36.5215L42.1292 39.1708C41.3538 39.9908 40.5785 40.8738 39.8677 41.7569C39.1785 42.6359 38.5933 43.5881 38.1231 44.5954C37.6748 45.5881 37.4543 46.6645 37.4769 47.7492V51.9123H45.2308V48.8215C45.2527 47.8964 45.4961 46.9891 45.9415 46.1723C46.4726 45.2643 47.0776 44.3994 47.7508 43.5862L50.0769 40.8108C50.9237 39.8558 51.701 38.8441 52.4031 37.7831C53.1456 36.7012 53.753 35.5365 54.2123 34.3138C54.6835 33.0177 54.9239 31.6523 54.9231 30.2769C54.9346 28.8439 54.7166 27.418 54.2769 26.0508C53.789 24.7483 53.0174 23.5647 52.0154 22.5815ZM37.4769 55.6969H45.0369V63.0769H37.4769V55.6969Z" fill="#F2897D"/>
</svg>
