<svg width="140" height="140" viewBox="0 0 140 140" fill="none" xmlns="http://www.w3.org/2000/svg">
<circle cx="70.2182" cy="70.2438" r="69.7565" fill="#FFDD93"/>
<mask id="mask0_342_5850" style="mask-type:alpha" maskUnits="userSpaceOnUse" x="0" y="0" width="140" height="141">
<circle cx="70.2182" cy="70.2438" r="69.7565" fill="#EEF0F2"/>
</mask>
<g mask="url(#mask0_342_5850)">
<path d="M83.9016 57.3386C87.3138 56.4141 90.7261 56.0611 94.2224 56.9688C103.266 59.3053 108.829 67.2224 108.157 76.5514C107.754 82.1152 105.905 87.2252 103.921 92.3183C101.921 97.4451 99.7021 102.521 98.5591 107.951C98.0884 110.22 97.8027 112.506 97.7859 114.826C97.7186 122.827 97.2312 130.761 94.962 138.493C93.9366 141.956 92.5583 145.25 90.3395 148.124C87.4147 151.923 83.6494 154.108 78.758 154.31C77.0099 154.377 75.6483 153.671 74.3372 152.697C72.8412 151.604 71.5133 150.326 70.3535 148.898C69.782 148.192 69.4794 148.124 68.9415 148.948C67.8489 150.646 66.6219 152.276 65.1427 153.671C64.8233 153.638 64.4703 153.671 64.1677 153.571C60.4361 152.226 57.4105 149.889 54.9395 146.813C51.0903 142.006 48.6361 136.459 46.7031 130.677C45.039 125.718 43.8624 120.642 42.9547 115.515C41.694 108.405 38.1977 102.269 34.5333 96.218C31.39 91.024 27.9274 86.0149 25.7758 80.283C24.1789 76.0471 23.3721 71.744 24.0108 67.1719C24.4311 64.1295 25.6749 61.5073 27.1878 58.9523C30.1462 60.1962 32.4322 62.3477 34.7518 64.4489C35.4746 65.1044 36.0125 66.2306 36.8194 66.4491C37.7775 66.7181 38.3826 65.4406 39.1558 64.8523C41.4755 63.121 44.0977 62.0284 46.7703 60.9862C48.6193 60.4483 50.5019 60.1289 52.435 60.0281C54.6034 60.0785 56.7885 59.9777 58.9233 60.3979C58.9905 60.4483 59.0578 60.5492 59.1418 60.566C63.4786 61.4064 67.311 63.289 70.6056 66.2306C71.2612 66.8189 71.6982 66.5332 72.1184 65.9953C74.1355 63.4067 76.7241 61.4569 79.4976 59.7423C80.9264 58.8514 82.4392 58.1287 83.9016 57.3218L83.9016 57.3386Z" fill="#FFC74D"/>
<path d="M27.1872 58.9357C25.6743 61.5075 24.4305 64.1297 24.0102 67.1553C23.3883 71.7274 24.1783 76.0305 25.7752 80.2664C27.9268 85.9983 31.3894 91.0242 34.5327 96.2014C38.2139 102.253 41.6934 108.388 42.9541 115.498C43.8618 120.642 45.0384 125.718 46.7025 130.66C48.6355 136.442 51.0897 141.989 54.9389 146.797C57.4099 149.873 60.4355 152.209 64.1671 153.554C64.4697 153.655 64.8227 153.621 65.142 153.655C59.427 160.109 52.0646 161.421 45.341 155.84C42.87 153.789 40.8866 151.352 39.1552 148.696C38.6341 147.889 38.3484 147.872 37.7601 148.595C36.7515 149.839 35.5749 150.932 34.4319 152.075C31.9945 154.529 29.1874 154.731 26.0778 153.789C21.8082 152.495 18.8835 149.621 16.6647 145.906C13.8576 141.166 12.4792 135.955 11.6051 130.593C10.7143 125.13 10.4957 119.633 10.4117 114.103C10.3276 108.287 8.42822 102.841 6.3439 97.4789C4.41085 92.537 2.24248 87.6792 0.948185 82.502C-0.178023 77.9972 -0.446968 73.4755 0.948185 68.9707C3.80573 59.7257 14.1265 54.2964 23.4387 57.1203C24.0102 57.2884 24.5649 57.6246 25.2037 57.5741C25.6407 58.3642 26.6661 58.2969 27.1872 58.9357Z" fill="#F6B62A"/>
<path d="M83.9014 57.3386C82.4222 58.1455 80.9094 58.8851 79.4974 59.7591C76.7407 61.4737 74.1521 63.4235 72.1182 66.0121C71.698 66.5668 71.2778 66.8358 70.6054 66.2474C67.3108 63.3058 63.4952 61.4064 59.1416 60.5828C59.0576 60.5828 58.9903 60.4819 58.9231 60.4147C59.6459 60.0785 59.4946 59.423 59.5114 58.8346C59.5955 55.4728 59.0744 52.1278 58.9903 48.766C61.0074 48.3122 62.9909 47.7575 65.0752 47.623C71.0424 47.2364 76.0515 49.3879 80.3715 53.3549C81.6826 54.5651 83.0105 55.7754 83.9182 57.3386L83.9014 57.3386Z" fill="#FFC74D"/>
<path d="M52.4345 60.0281C50.5014 60.1289 48.6188 60.4483 46.7698 60.9862C46.1815 60.4987 46.4504 59.8432 46.5009 59.2885C46.6353 57.7588 46.8539 56.246 46.7866 54.7164C47.4086 49.6064 48.0137 44.4965 47.2573 39.3697C46.316 32.9318 42.6516 29.2338 35.9952 27.8051C34.7009 27.5361 33.3898 27.3512 32.0955 27.1999C31.4231 27.1327 31.0869 26.9478 31.0869 26.2082C31.0869 24.376 31.0197 22.527 30.9861 20.6948C34.7513 20.8629 38.1804 22.1404 41.29 24.1575C45.963 27.1831 48.6692 31.7216 50.4846 36.8483C52.9555 43.8073 53.5775 51.0352 53.6111 58.364C53.6111 59.3389 53.3253 59.8264 52.4513 60.0449L52.4345 60.0281Z" fill="#8ECF9E"/>
<path d="M52.4349 60.0281C53.3258 59.8096 53.6116 59.3221 53.5947 58.3472C53.5611 51.0184 52.9224 43.7905 50.4683 36.8315C48.6529 31.7048 45.9634 27.1663 41.2737 24.1407C38.1472 22.1236 34.735 20.8293 30.9697 20.678C32.3817 20.0225 33.8945 20.3418 35.3233 20.4259C41.9124 20.7957 47.5939 23.1322 51.8298 28.4102C54.6873 31.9737 56.3682 36.0919 57.4944 40.4455C58.2004 43.1686 58.6711 45.9589 58.9737 48.766C59.0745 52.1278 59.5788 55.456 59.4947 58.8346C59.4947 59.4229 59.6292 60.0785 58.9064 60.4147C56.7549 59.9945 54.5865 60.0953 52.4181 60.0449L52.4349 60.0281Z" fill="#8ECF9E"/>
<path d="M46.787 54.7165C46.871 56.2461 46.6525 57.7758 46.5012 59.2886C46.4508 59.8433 46.1818 60.4988 46.7701 60.9863C44.1143 62.0285 41.4753 63.121 39.1556 64.8524C38.3824 65.4239 37.7773 66.7182 36.8192 66.4492C36.0123 66.2307 35.4744 65.1045 34.7517 64.449C32.432 62.3478 30.1292 60.1963 27.1876 58.9524C26.6665 58.2968 25.6411 58.3809 25.2041 57.5909C25.7084 55.641 27.0867 54.3635 28.65 53.3045C33.3397 50.094 41.6098 49.2199 46.7701 54.7333L46.787 54.7165Z" fill="#FFC74D"/>
<path d="M55.9985 106.404C52.5358 104.841 49.4598 103.58 46.5518 102.034C45.9635 101.715 45.9467 100.303 45.6777 99.3949C46.5686 99.4621 47.678 99.21 48.2999 99.647C53.5276 103.379 58.6207 103.362 63.8315 99.6134C64.4535 99.1596 65.6133 99.4621 66.521 99.4285C66.2184 100.336 66.1848 101.731 65.5965 102.034C62.554 103.614 59.3771 104.908 55.9817 106.404L55.9985 106.404Z" fill="black"/>
<path d="M40.9031 88.8389C40.9199 92.1335 39.2726 94.7053 37.037 94.8398C34.7678 94.9574 32.8011 92.2848 32.7843 89.007C32.7675 85.6452 34.5829 83.0398 36.9193 83.0398C39.1717 83.0398 40.8695 85.5275 40.9031 88.8389Z" fill="black"/>
<path d="M79.4295 88.8389C79.4463 92.1335 77.799 94.7053 75.5634 94.8398C73.2941 94.9574 71.3275 92.2848 71.3107 89.007C71.2939 85.6452 73.1092 83.0398 75.4457 83.0398C77.6981 83.0398 79.3958 85.5275 79.4295 88.8389Z" fill="black"/>
</g>
</svg>
