<svg width="140" height="140" viewBox="0 0 140 140" fill="none" xmlns="http://www.w3.org/2000/svg">
<circle cx="69.7565" cy="69.7565" r="69.7565" fill="#FFDD93"/>
<mask id="mask0_342_5725" style="mask-type:alpha" maskUnits="userSpaceOnUse" x="0" y="0" width="140" height="140">
<circle cx="69.7565" cy="69.7565" r="69.7565" fill="#EEF0F2"/>
</mask>
<g mask="url(#mask0_342_5725)">
<path d="M76.6016 51.5534C82.8972 46.5629 89.7332 42.5359 97.428 40.0531C97.7273 39.9495 98.0499 39.8851 98.3507 39.8019L99.2674 40.5948C99.2402 41.487 98.7139 41.9857 97.9673 42.4083C93.4144 44.9187 89.4169 48.1766 85.7448 51.8304C85.3063 52.2716 84.3907 52.3381 84.4573 53.2542C83.9661 53.955 83.2537 54.4263 82.5974 54.9652C81.4481 55.898 80.3097 56.8403 79.2274 57.8501C77.4068 59.5377 75.6298 61.2631 73.8216 62.9806C72.2212 62.5375 71.1121 61.5846 70.4945 60.1218L76.5922 51.5643L76.6016 51.5534Z" fill="#13BC79"/>
<path d="M70.5029 60.1118C71.1133 61.5682 72.2223 62.5211 73.83 62.9705C75.1858 63.8952 75.9897 65.1056 75.6722 66.9296C76.5984 66.586 77.3176 66.3496 78.0214 66.0427C79.4479 65.4069 80.7679 65.5566 82.0031 66.5106C82.9927 67.4619 83.3242 68.6453 83.1231 69.9594C82.1843 75.901 82.9175 81.6291 84.815 87.334C86.7387 93.1188 87.9999 99.0746 88.4029 105.185C89.0439 114.992 86.8437 123.983 81.1329 132.092C76.0989 139.242 69.6699 144.365 61.0365 146.456C55.3274 147.832 49.6229 147.725 43.8946 146.586C36.7547 145.16 30.1145 142.45 23.9345 138.612C24.1921 138.358 24.4387 138.514 24.7121 138.617C25.954 139.1 27.1894 139.634 28.4552 140.023C35.836 142.229 43.2311 142.52 50.6577 140.149C56.4753 138.294 61.5113 135.114 65.7261 130.766C69.3044 127.089 72.4477 123.054 74.8954 118.455C78.6569 111.388 80.3815 103.875 80.224 95.9354C80.1459 92.1858 79.8817 88.4087 79.1306 84.6875C78.9346 83.6785 78.5016 83.2085 77.5134 83.4031C76.5551 83.5853 76.5051 84.3052 76.6332 85.0838C77.3845 89.5111 77.8101 93.962 77.7192 98.4811C77.5261 107.929 74.2444 116.252 68.6286 123.7C66.5485 126.46 64.2109 129.055 61.532 131.316C56.0392 135.952 49.7692 138.618 42.6471 139.268C37.9026 139.705 33.2823 138.895 28.7725 137.493C27.7052 137.161 26.5501 136.887 25.6407 136.196C25.7516 135.891 25.9238 135.868 26.0771 135.867C29.6129 135.969 32.9819 135.182 36.2712 134.001C43.6364 131.348 49.5694 126.578 54.8845 121.045C58.5447 117.229 61.7139 112.987 64.5571 108.483C68.5629 102.104 71.3706 95.2791 72.6926 87.8566C73.1494 85.2755 73.5531 82.6676 73.6174 80.0332C73.6381 79.1926 73.3104 78.623 72.3576 78.6001C71.3844 78.5787 71.0799 79.1739 71.0577 79.9941C70.9872 82.2606 70.7102 84.5012 70.33 86.7288C69.6129 90.9352 68.4457 95.0005 66.7253 98.9115C64.7332 103.446 62.2573 107.657 59.2928 111.618C56.3928 115.482 53.2964 119.175 49.7917 122.459C46.3735 125.664 42.5505 128.367 38.2579 130.378C33.4307 132.632 28.4497 133.894 23.0924 133.076C21.3036 132.807 19.5058 132.416 17.7813 131.344C19.6655 130.531 21.3477 129.754 22.9089 128.72C26.3719 126.412 29.511 123.728 32.5911 120.936C35.921 117.921 38.9765 114.649 42.0117 111.38C46.4331 106.638 50.4413 101.558 54.3622 96.4023C55.6777 94.6593 57.0055 92.9461 58.2132 91.1291C60.0209 88.4192 61.774 85.6621 63.4537 82.8796C64.9252 80.4703 66.2157 77.9617 67.4531 75.4263C67.8445 74.6201 67.7376 73.9935 66.9696 73.5581C65.8816 72.9414 65.3601 73.7876 64.9955 74.5406C60.7602 83.3925 55.2608 91.4562 49.0907 99.016C43.5403 105.815 37.9041 112.558 31.4137 118.524C28.0585 121.613 24.6473 124.634 20.7599 127.014C19.0171 128.082 17.2662 129.181 15.0613 129.239C14.0207 129.274 13.6626 128.849 13.5771 127.955C13.4379 126.461 13.8271 125.062 14.3305 123.685C15.4958 120.438 17.1825 117.471 18.9629 114.528C21.6021 110.171 24.5861 106.056 27.832 102.167C33.7795 95.0634 39.7926 88.0164 46.6707 81.7557C49.6441 79.043 52.6393 76.3491 55.8696 73.9349C57.422 72.7784 59.0195 71.68 60.55 70.5046C61.1402 70.0422 61.8219 69.4299 61.1965 68.5646C60.6178 67.7778 59.9964 67.8128 59.1287 68.3977C53.3449 72.2662 48.0874 76.7617 43.0883 81.576C39.6273 84.8972 36.3345 88.4211 33.115 91.9703C28.7228 96.8327 24.6144 101.94 20.7867 107.253C18.994 109.747 17.2857 112.276 15.7177 114.907C13.8488 118.041 12.2126 121.28 11.3792 124.871C11.3329 125.079 11.3457 125.395 11.0092 125.41C10.7745 125.417 10.6972 125.197 10.6025 125.02C10.2098 124.26 9.76845 123.535 9.43534 122.751C7.21951 117.591 7.23245 112.28 8.55206 106.934C10.0944 100.714 13.1297 95.1926 16.9999 90.184C20.7301 85.3596 24.8938 80.8719 29.6652 77.0053C36.8607 71.1718 44.9839 67.2663 54.0653 65.4298C54.983 65.2505 55.6531 64.7618 55.4397 63.795C55.2431 62.9191 54.4398 62.7012 53.5846 62.8963C50.2643 63.6492 46.995 64.5416 43.8199 65.7444C34.2364 69.3979 26.4868 75.6297 19.5992 83.0268C16.1837 86.6927 13.2142 90.7251 10.7298 95.1009C6.82345 102.005 4.38486 109.263 5.38197 117.356C5.4319 117.762 5.55527 118.193 5.25874 118.757C3.72853 116.136 2.41862 113.591 1.52417 110.852C-0.391605 105.036 -0.920807 99.1604 0.37034 93.142C1.4158 88.2466 3.55277 83.8755 6.50049 79.8242C9.1587 76.152 12.2499 72.9498 15.7479 70.1375C21.1691 65.7836 27.2884 62.873 34.1626 61.6266C36.939 61.1281 39.7058 60.6406 42.5722 60.6779C44.4967 60.7018 46.4515 60.5802 48.3884 60.6339C49.3208 60.6582 50.0347 60.2073 49.984 59.2287C49.9284 58.322 49.2273 57.9637 48.3241 58.06C48.0799 58.0777 47.8467 58.1049 47.5901 58.0928C42.7591 57.9015 37.9572 58.2504 33.2199 59.2086C24.0477 61.062 16.221 65.5292 9.69804 72.1733C6.67933 75.2475 3.8724 78.5621 1.75801 82.3994C-1.20621 87.772 -2.95923 93.4863 -2.94131 99.6449C-2.9114 106.672 -0.98306 113.224 2.61691 119.276C2.82666 119.629 3.2791 119.944 2.9796 120.468C-4.42372 111.336 -9.67631 101.26 -10.2314 89.2565C-10.6547 80.8967 -8.08256 73.5061 -2.78391 67.0431C5.99999 56.3259 17.4891 51.5925 31.1536 51.6025C36.1544 51.5973 41.1158 52.0349 46.0378 52.9154C51.4679 53.8921 56.7691 53.5171 62.0252 51.9585C63.407 51.5511 64.6521 51.6551 65.8283 52.5008C67.8467 54.3802 66.6779 56.5934 66.326 58.7883C68.159 58.256 69.4062 58.9533 70.5123 60.1008L70.5029 60.1118Z" fill="#BDA6ED"/>
<path d="M2.9357 120.43C3.23519 119.907 2.78275 119.592 2.573 119.239C-1.02697 113.187 -2.9553 106.635 -2.98521 99.6075C-3.01257 93.4598 -1.25955 87.7455 1.71411 82.362C3.82851 78.5247 6.63544 75.2101 9.65416 72.1359C16.1772 65.4917 23.9944 61.0354 33.1761 59.1711C37.9133 58.2129 42.7153 57.864 47.5463 58.0554C47.7825 58.0689 48.0361 58.0402 48.2803 58.0225C49.1835 57.9262 49.8751 58.2954 49.9402 59.1912C50.0018 60.1793 49.2879 60.6302 48.3446 60.5964C46.4077 60.5427 44.4623 60.6534 42.5284 60.6404C39.662 60.6031 36.8951 61.0906 34.1188 61.5891C27.2445 62.8355 21.1253 65.7462 15.704 70.1C12.2061 72.9123 9.11482 76.1146 6.4566 79.7867C3.5198 83.8475 1.38281 88.2186 0.326439 93.1046C-0.96619 99.1027 -0.435511 104.999 1.48027 110.815C2.37472 113.554 3.69406 116.088 5.21484 118.72C5.52081 118.145 5.39744 117.714 5.33808 117.319C4.34096 109.226 6.77956 101.968 10.6859 95.0635C13.1594 90.6783 16.1289 86.6458 19.5553 82.9894C26.4539 75.6017 34.2035 69.3699 43.7761 65.7069C46.9606 64.4932 50.2299 63.6008 53.5408 62.8588C54.396 62.6637 55.1899 62.8925 55.3959 63.7575C55.6093 64.7244 54.9486 65.2021 54.0215 65.3923C44.9306 67.2398 36.8075 71.1453 29.6214 76.9678C24.8594 80.8236 20.6956 85.3112 16.956 90.1466C13.0858 95.1552 10.0505 100.676 8.50817 106.897C7.18856 112.242 7.17562 117.554 9.39145 122.714C9.72456 123.498 10.1659 124.223 10.5586 124.982C10.6533 125.16 10.7306 125.379 10.9653 125.372C11.3127 125.368 11.289 125.042 11.3353 124.834C12.1687 121.243 13.8049 118.003 15.6738 114.869C17.2418 112.238 18.9501 109.709 20.7428 107.216C24.5799 101.892 28.6681 96.7858 33.0712 91.9329C36.3001 88.3728 39.5835 84.8598 43.0445 81.5386C48.0342 76.7351 53.3012 72.2288 59.0849 68.3602C59.9432 67.7862 60.574 67.7404 61.1527 68.5271C61.7781 69.3924 61.1168 70.0032 60.5062 70.4671C58.9757 71.6425 57.3782 72.7409 55.8258 73.8974C52.5955 76.3116 49.6207 79.004 46.6269 81.7183C39.7488 87.9789 33.7357 95.026 27.7881 102.13C24.5313 106.009 21.5583 110.134 18.9191 114.49C17.1386 117.434 15.4519 120.401 14.2866 123.647C13.7942 125.034 13.394 126.424 13.5332 127.918C13.6187 128.812 13.9862 129.225 15.0174 129.202C17.2114 129.134 18.9732 128.044 20.7161 126.976C24.6128 124.585 28.0146 121.575 31.3698 118.487C37.8603 112.521 43.5059 105.766 49.0469 98.9786C55.217 91.4187 60.7164 83.355 64.9518 74.5032C65.3164 73.7502 65.8488 72.9134 66.9258 73.5207C67.6829 73.9466 67.7913 74.5936 67.4093 75.3888C66.1719 77.9243 64.8611 80.4344 63.4099 82.8421C61.7208 85.6355 59.9771 88.3817 58.1694 91.0917C56.9617 92.9087 55.6339 94.6219 54.3184 96.3649C50.3975 101.52 46.3799 106.611 41.9679 111.342C38.9232 114.623 35.8677 117.894 32.5473 120.898C29.4672 123.69 26.3281 126.374 22.865 128.683C21.3038 129.717 19.6325 130.504 17.7374 131.306C19.4619 132.378 21.2597 132.769 23.0486 133.039C28.3949 133.847 33.3869 132.594 38.2141 130.34C42.4972 128.341 46.3187 125.618 49.7479 122.421C53.262 119.127 56.3584 115.433 59.249 111.581C62.2136 107.62 64.6894 103.409 66.6816 98.8741C68.402 94.9631 69.5691 90.8978 70.2862 86.6913C70.6664 84.4637 70.9434 82.2231 71.014 79.9566C71.0471 79.1459 71.3501 78.5304 72.3138 78.5627C73.2666 78.5855 73.5944 79.1552 73.5736 79.9958C73.5094 82.6302 73.1151 85.2272 72.6489 87.8192C71.3268 95.2417 68.5192 102.066 64.5133 108.446C61.6904 112.948 58.5213 117.19 54.8407 121.008C49.5162 126.552 43.5831 131.321 36.2273 133.964C32.938 135.144 29.5691 135.931 26.0332 135.83C25.869 135.822 25.7077 135.854 25.5969 136.158C26.5077 136.87 27.6614 137.124 28.7287 137.456C33.2385 138.857 37.8588 139.668 42.6032 139.231C49.7363 138.59 55.9954 135.914 61.4882 131.279C64.1765 129.007 66.5047 126.423 68.5849 123.662C74.1912 116.225 77.4729 107.903 77.6754 98.4437C77.7664 93.9245 77.3313 89.4846 76.5895 85.0464C76.4504 84.2584 76.5113 83.5479 77.4697 83.3657C78.4687 83.1805 78.8908 83.641 79.0869 84.65C79.827 88.3618 80.1006 92.128 80.1802 95.898C80.3378 103.837 78.6132 111.35 74.8516 118.418C72.4133 123.005 69.2606 127.051 65.6823 130.729C61.477 135.066 56.4409 138.246 50.6139 140.112C43.1873 142.483 35.7922 142.192 28.4113 139.986C27.1361 139.608 25.9101 139.062 24.6682 138.579C24.3948 138.477 24.1483 138.32 23.8906 138.575C15.7254 133.878 8.75829 127.794 2.90444 120.422L2.9357 120.43Z" fill="#A48ADC"/>
<path d="M82.0027 66.4892C80.7674 65.5352 79.4584 65.395 78.0209 66.0213C77.317 66.3283 76.5978 66.5647 75.6716 66.9083C75.9891 65.0843 75.1852 63.8738 73.8294 62.9491C75.6282 61.2426 77.4145 59.5062 79.2352 57.8186C80.3284 56.8182 81.4668 55.876 82.6052 54.9337C83.2615 54.3948 83.9753 53.9439 84.465 53.2227C85.5808 52.8142 86.4199 51.9756 87.3973 51.352C90.7204 49.2277 94.1876 47.4 98.0302 46.3738C98.8025 46.1642 99.5321 46.0703 99.8726 46.9562C100.199 47.792 99.5951 48.2043 98.9458 48.5585C92.7805 51.9637 88.3603 57.1453 84.3935 62.7955C83.5592 63.9817 82.8013 65.234 81.9903 66.4594L82.0027 66.4892Z" fill="#8ECF9E"/>
<path d="M70.5041 60.111C69.4089 58.9729 68.1507 58.2662 66.3177 58.7984C66.6696 56.6035 67.8384 54.3902 65.8199 52.5108C69.0768 49.7569 72.1575 46.8317 74.8736 43.5338C77.3931 40.4856 79.5271 37.1994 80.9557 33.4937C81.0158 33.3358 81.0665 33.1889 81.1375 33.0404C81.3984 32.4075 81.8318 32.0384 82.5508 32.2215C83.301 32.4125 83.4238 32.9766 83.3491 33.637C82.9735 36.6317 82.1493 39.5056 81.0641 42.3063C79.9079 45.2555 78.4441 48.053 76.8632 50.7875C76.7261 51.0123 76.4437 51.2068 76.5909 51.544C74.5588 54.4033 72.5158 57.2532 70.4932 60.1016L70.5041 60.111Z" fill="#8ECF9E"/>
<path d="M66.142 68.4913C72.0426 73.5951 78.997 75.22 81.6751 72.1207C84.3532 69.0215 81.7408 62.3715 75.8402 57.2677C69.9396 52.1639 62.9852 50.539 60.3072 53.6383C57.6291 56.7376 60.2414 63.3875 66.142 68.4913Z" fill="#BDA6ED"/>
<path d="M46.0095 110.107L48.565 107.414C49.5206 109.023 50.3253 110.387 51.141 111.76C41.2911 114.42 33.4443 109.178 28.8167 96.7237C29.5135 96.6014 30.1631 96.5337 30.7741 96.3563C31.4447 96.1541 32.0765 95.8422 32.0562 95.8436L33.5124 104.906C37.0649 101.015 39.5702 96.5051 44.448 99.3125C48.2051 101.475 47.3496 105.466 46.0001 110.118L46.0095 110.107Z" fill="black"/>
<path d="M71.8647 105.322C73.5908 107.12 74.3599 109.54 73.17 112.308C72.9251 112.878 72.1413 113.211 71.6012 113.66C71.3613 113.033 70.8758 112.403 70.9143 111.807C71.2675 106.675 69.202 104.85 64.3247 105.992C63.7217 106.139 63.0018 105.802 62.3294 105.697C62.6528 105.08 62.8378 104.248 63.3431 103.884C65.6848 102.189 69.2219 102.731 71.8647 105.322Z" fill="black"/>
<path d="M32.032 79.4536C31.2963 76.9285 31.2714 73.9117 29.7843 72.5872C28.2877 71.2737 25.31 71.6742 22.7549 71.2766C23.1218 68.8658 25.2801 68.7294 27.2939 68.7162C30.5141 68.6971 33.5574 71.3103 33.9663 74.5447C34.2209 76.5011 34.4744 78.7236 32.032 79.4536Z" fill="black"/>
</g>
</svg>
