<svg width="140" height="140" viewBox="0 0 140 140" fill="none" xmlns="http://www.w3.org/2000/svg">
<circle cx="69.9103" cy="69.7565" r="69.7565" fill="#FFDD93"/>
<mask id="mask0_342_5791" style="mask-type:alpha" maskUnits="userSpaceOnUse" x="0" y="0" width="140" height="140">
<circle cx="69.9103" cy="69.7565" r="69.7565" fill="#EEF0F2"/>
</mask>
<g mask="url(#mask0_342_5791)">
<path d="M49.1937 134.429C48.6226 134.766 48.2116 135.228 47.836 135.78C41.2534 145.633 33.5152 154.504 24.8347 162.552C24.2631 163.085 23.5849 163.528 22.9778 164.008L20.8753 164.002C20.307 163.288 19.2386 163.017 19.0275 161.965C19.9399 160.542 21.4032 159.691 22.5821 158.554C25.7439 155.48 28.7279 152.263 31.6408 148.974C35.5186 144.602 39.1119 140.014 42.4563 135.23C47.4282 128.134 51.635 120.59 55.2546 112.724C57.3511 108.186 59.145 103.522 60.6896 98.769C63.1864 91.0423 65.0955 83.1537 66.3102 75.1028C67.2165 69.1358 67.6597 63.1498 68.0316 57.1457C68.2175 54.1526 68.0827 51.1408 68.0905 48.1293L72.2763 48.7112C72.7159 64.7497 71.0001 80.5328 66.5056 95.9696C66.3438 96.5394 65.9147 97.0728 66.1803 97.7328C65.5162 99.5842 64.8521 101.453 64.1881 103.305C60.6162 113.381 56.0477 122.99 50.2868 132.027C49.8217 132.756 49.125 133.431 49.2293 134.429L49.1937 134.429Z" fill="#EB796C"/>
<path d="M49.2123 134.444C49.1078 133.446 49.8223 132.753 50.2695 132.041C56.0115 123.006 60.5789 113.397 64.1672 103.322C64.831 101.471 65.4948 99.6015 66.1587 97.7503C68.2666 95.5824 69.7698 92.9851 71.3797 90.4595C77.6224 80.7126 82.3521 70.2666 85.2482 59.0492C88.3651 59.7173 91.5007 60.029 94.6211 59.2359C96.0297 58.8835 96.225 59.187 95.9367 60.5047C95.09 64.2976 95.4017 68.076 96.2658 71.8203C96.6538 73.5141 97.8109 73.9984 99.2744 73.0404C100.452 72.2775 101.559 71.4253 102.666 70.5554C104.952 68.7443 106.721 66.4507 108.456 63.8898C110.088 67.1551 112.595 69.3538 115.299 71.3571C106.188 88.2053 94.4089 102.872 79.6955 115.143C70.8568 122.531 61.2191 128.705 50.8713 133.736C50.3361 134.002 49.7653 134.214 49.2301 134.444L49.2123 134.444Z" fill="#EB796C"/>
<path d="M68.0551 48.1279C68.0472 51.1393 68.1819 54.1512 67.9959 57.1443C67.6239 63.1484 67.1806 69.1523 66.2742 75.1014C65.0593 83.1524 63.15 91.041 60.6532 98.7677C59.1084 103.521 57.3144 108.185 55.2179 112.723C51.5981 120.589 47.3912 128.133 42.4192 135.229C39.0748 140.013 35.4992 144.601 31.6035 148.973C28.6727 152.262 25.6887 155.479 22.5447 158.553C21.3657 159.69 19.9024 160.541 18.99 161.964C18.2453 160.572 18.8007 159.38 19.5878 158.224C22.6463 153.777 25.4735 149.188 28.0339 144.437C28.4098 143.743 28.7147 142.996 29.0373 142.284C31.686 137.819 33.605 133.031 35.5063 128.225C35.6498 127.851 35.6506 127.548 35.277 127.315C35.9734 126.765 36.3138 126.035 36.601 125.216C40.9091 113.075 43.454 100.591 43.9509 87.6912C44.4089 76.0564 43.1558 64.6308 40.0491 53.4138C43.509 52.1939 46.756 50.5991 49.3473 47.6661C49.5597 48.2013 49.6837 48.5046 49.8075 48.8257C51.081 52.4643 53.086 55.6774 55.6979 58.5001C57.2081 60.1436 58.3845 59.9865 59.3697 57.9935C61.0716 54.5056 62.2214 50.8559 62.3208 46.9181C62.3227 46.1875 62.3596 45.6886 63.2847 46.2614C64.7434 47.1743 66.3815 47.6243 68.0016 48.1455L68.0551 48.1279Z" fill="#F2897D"/>
<path d="M115.325 71.3468C112.621 69.3257 110.096 67.1447 108.482 63.8795C106.747 66.4404 104.996 68.7339 102.692 70.5449C101.603 71.4149 100.479 72.2669 99.3006 73.0298C97.8371 73.9878 96.6799 73.5035 96.2919 71.8096C95.4277 68.0654 95.1159 64.2871 95.9626 60.4942C96.2508 59.1765 96.0555 58.873 94.6469 59.2254C91.5264 60.0184 88.3908 59.7066 85.2738 59.0385C82.6563 58.1758 82.4438 57.6229 83.715 55.1319C85.4695 51.7158 87.6332 48.6216 90.6685 46.1891C95.3643 42.4072 100.694 41.6383 106.375 43.2223C107.711 43.6003 108.193 43.4235 108.748 42.1243C110.791 37.3192 113.937 33.4794 118.789 31.2481C119.699 30.823 120.609 30.398 121.66 30.5969C123.316 30.9045 124.543 32.2622 124.646 33.9017C124.749 35.6126 123.747 37.053 121.91 37.5289C117.791 38.6219 114.649 41.0007 112.218 44.4149C111.771 45.0372 111.77 45.358 112.482 45.7698C120.845 50.7113 122.858 58.5747 120.591 67.8694C120.357 68.7952 120.069 69.7031 119.782 70.5932C119.172 72.5159 118.262 72.8696 116.518 71.9203C116.126 71.7054 115.717 71.5083 115.325 71.3112L115.325 71.3468Z" fill="#8ECF9E"/>
<path d="M68.08 48.1329C66.4596 47.6295 64.8036 47.1616 63.3624 46.2488C62.4372 45.676 62.4181 46.1927 62.3986 46.9054C62.2998 50.8252 61.1504 54.4748 59.449 57.9803C58.4818 59.9733 57.3054 60.1304 55.7769 58.4868C53.1644 55.6642 51.1408 52.469 49.8846 48.8127C49.7785 48.4917 49.6366 48.1884 49.4241 47.6532C46.8153 50.586 43.5683 52.1628 40.1261 53.4005C37.2917 53.8203 36.9006 53.4628 36.7832 50.4868C36.6658 47.4751 36.7979 44.482 37.5713 41.5619C39.3695 34.9562 43.6207 30.7985 50.2004 29.035C51.5377 28.6824 51.9486 28.2559 51.7563 26.7407C51.1101 21.429 51.9065 16.3708 55.214 11.961C55.3927 11.7298 55.6249 11.5345 55.8392 11.3391C57.3004 11.3075 58.1177 12.3076 58.4178 13.4667C58.7532 14.7327 58.8032 16.1583 57.6245 17.2242C55.6779 18.9828 54.4963 21.2246 53.5816 23.6276C52.2902 27.0451 53.5149 29.0086 57.1848 29.393C57.4342 29.4115 57.6657 29.4835 57.915 29.5376C61.9577 30.4754 65.3386 32.4449 67.7893 35.8551C70.5242 39.6581 72.2424 43.8502 72.6051 48.5553L72.2662 48.6791C70.8768 48.4792 69.4873 48.2972 68.08 48.0973L68.08 48.1329Z" fill="#8ECF9E"/>
<path d="M35.3147 127.308C35.6884 127.541 35.6877 127.844 35.5442 128.217C33.6261 133.022 31.7258 137.81 29.0778 142.274C24.9049 143.456 20.7142 144.602 16.4706 145.516C15.0798 145.815 13.7611 145.758 12.7838 144.561C11.9308 143.525 11.6483 142.366 12.186 141.067C12.4907 140.338 12.991 139.787 13.6868 139.468C21.2155 135.98 28.4072 131.867 35.3325 127.326L35.3147 127.308Z" fill="#EB796C"/>
<path d="M72.6092 48.596C72.2647 43.8909 70.529 39.6986 67.7945 35.8956C65.344 32.4854 61.9634 30.5159 57.9209 29.5782C57.6716 29.524 57.4401 29.4521 57.1907 29.4336C53.521 29.0492 52.2964 27.0858 53.588 23.6681C54.5028 21.2651 55.6845 19.0232 57.6311 17.2645C58.8277 16.1986 58.76 14.7729 58.4246 13.5069C58.1246 12.3656 57.3074 11.3655 55.8462 11.3793C57.3468 9.88664 59.2893 9.7851 60.7649 11.1256C62.2227 12.4661 62.3417 14.7116 60.859 16.2043C57.8936 19.1718 56.3878 22.7493 55.932 26.8642C55.8228 27.7726 55.8752 28.2183 56.9977 28.2214C65.6398 28.2453 71.0631 32.8042 74.1084 40.5817C74.7103 42.1158 75.1518 43.7029 75.5576 45.3077C76.2456 48.0715 75.5488 48.8002 72.627 48.6139L72.6092 48.596Z" fill="#8DBF99"/>
<path d="M55.8854 72.8684C55.2617 72.8844 54.6378 72.9896 54.0322 72.8988C53.6937 72.8622 53.2846 72.576 53.1071 72.2904C53.0184 72.1476 53.3586 71.4892 53.5368 71.4719C54.6061 71.4036 55.9077 71.1043 56.6904 71.6054C57.2775 71.9813 57.3096 73.4069 57.3784 74.3693C57.4475 75.2605 57.3739 76.1869 57.1044 77.0415C56.763 78.181 56.4742 79.6591 55.6352 80.2448C54.9212 80.7418 53.4434 80.31 52.3571 80.0575C52.0543 79.9854 51.9676 79.0585 51.7907 78.5234C52.2895 78.5783 52.7704 78.6687 53.2694 78.6523C53.9465 78.6542 54.606 78.5491 55.2833 78.4797C55.1425 77.7666 55.2344 76.6799 54.8252 76.4292C52.3522 74.9077 53.2979 74.3936 55.3836 74.0252C55.6153 73.9902 55.7943 73.67 55.9908 73.4745L55.9033 72.8506L55.8854 72.8684Z" fill="black"/>
<path d="M66.4474 63.3877C68.0506 63.7489 69.4388 64.5548 69.8801 66.4092C69.9682 66.8193 69.6285 67.3171 69.4848 67.78C69.0933 67.5472 68.5233 67.4029 68.3281 67.046C66.8901 64.6185 65.6252 64.4365 63.3395 66.3539C63.0538 66.6025 62.537 66.5831 62.1446 66.6889C62.1101 66.2255 61.8797 65.6725 62.0409 65.2988C62.6143 63.9642 64.5767 63.1327 66.4474 63.4055L66.4474 63.3877Z" fill="black"/>
<path d="M48.3181 64.0401C48.0101 66.0885 46.7236 67.5282 45.3341 67.3817C43.9089 67.2352 42.9513 65.3793 43.2593 63.3488C43.5673 61.2649 44.943 59.8076 46.4036 60.0433C47.8107 60.2611 48.6262 61.974 48.3182 64.0223L48.3181 64.0401Z" fill="black"/>
</g>
</svg>
