<svg width="117" height="109" viewBox="0 0 117 109" fill="none" xmlns="http://www.w3.org/2000/svg">
<path d="M107.31 39.0044C117.156 48.8772 118.953 65.2859 111.621 78.5419C104.802 90.8829 94.1789 98.5903 81.2059 103.375C69.7008 107.627 57.8533 109.891 45.5847 108.285C34.2572 106.798 23.3905 103.876 15.1697 95.148C3.61188 82.8793 3.79617 62.3701 19.0859 51.6679C19.6586 51.2664 20.1193 50.7004 21.021 49.8513C18.3751 49.4301 16.2755 49.0483 14.1627 48.7719C8.805 48.0742 4.81636 45.6521 3.16431 40.2089V38.5436C4.13185 38.5305 5.15204 38.4317 6.16565 38.2277C6.10642 38.7279 6.19198 39.3927 6.39602 40.2483C6.56057 40.9394 6.94232 41.6503 7.41622 42.19C10.174 45.3493 13.4452 47.3634 16.9929 46.5604C22.0215 46.6328 26.0562 46.2971 29.7025 43.9869C30.9136 43.2168 31.2032 42.2887 30.1172 41.5252C26.6485 39.0965 23.068 36.8192 19.4874 34.555C19.1847 34.3641 18.3948 34.4958 18.0986 34.7722C15.6568 37.0693 12.8134 37.5103 9.66723 37.1746C11.9643 36.1939 13.9915 34.6998 15.1697 32.6989C15.1697 32.6989 15.1697 32.6945 15.1697 32.6857C15.8345 31.8959 16.1109 30.5927 16.3808 28.4602C16.4927 27.565 16.6375 26.6765 16.7823 25.7879C18.5199 15.2963 23.7591 7.33224 33.7636 3.10666C37.1072 1.69813 40.7601 1.01361 44.2683 0L49.2376 0C53.088 1.40853 57.2544 2.27734 60.7296 4.31115C73.821 11.9725 78.8101 26.2157 73.8803 40.5379C73.7026 41.0448 73.8276 41.6503 73.8145 42.2097C74.4397 42.2097 75.1967 42.4533 75.6706 42.19C78.8233 40.4524 82.0089 38.7345 85.0169 36.7599C93.2706 31.3364 100.3 31.9946 107.303 39.0044H107.31ZM108.679 78.6603C117.011 65.9507 113.938 46.205 102.801 38.7082C97.5751 35.1869 93.5865 34.9697 88.1827 38.1158C83.0094 41.1172 77.6188 43.7433 72.3269 46.5341C71.6688 46.8829 70.9118 47.1396 70.3984 47.6398C67.7196 50.2265 65.383 53.2673 62.3949 55.4065C59.591 57.4205 56.1486 58.5526 52.9235 59.9348C52.5088 60.1059 51.7322 59.4346 51.1266 59.1516C51.4491 58.5789 51.6927 57.9339 52.1271 57.46C52.3969 57.1573 52.9367 57.1046 53.3645 56.9532C60.9863 54.3336 66.9693 49.9698 70.3919 42.3019C76.0128 29.7107 71.4647 15.4872 62.4475 8.67495C47.5132 -2.59985 26.7407 3.68587 20.3957 21.2859C19.3624 24.1622 19.3097 27.407 18.9806 30.5071C18.928 31.0139 19.7046 31.8169 20.2904 32.146C23.3313 33.8836 26.7144 35.1539 29.4722 37.2536C36.2252 42.3875 35.85 44.8162 28.215 48.5152C27.9452 48.6469 27.6556 48.897 27.3989 48.8706C27.3725 48.8706 27.3594 48.8509 27.3725 48.8311C28.3269 48.2585 29.2089 47.6859 29.6696 47.2317C29.4656 47.133 27.4252 48.5679 27.3725 48.8311C25.9377 49.6934 24.3383 50.549 23.7196 51.0032C22.7126 51.7535 21.5936 52.6816 20.6129 53.4516C4.65182 65.9902 7.79139 86.111 20.1259 95.9642C26.6946 101.21 34.2967 103.757 42.6228 104.962C52.6865 106.423 62.6186 105.653 72.3862 103.711C87.9458 100.611 99.9183 92.0216 108.679 78.6603Z" fill="#FFDD93"/>
<path d="M102.801 38.7082C113.937 46.205 117.011 65.9507 108.679 78.6604C99.918 92.0217 87.9455 100.611 72.3859 103.711C62.6184 105.653 52.6863 106.423 42.6226 104.962C34.2965 103.757 26.6944 101.21 20.1256 95.9642C7.79113 86.1111 4.65156 65.9902 20.6127 53.4517C21.5934 52.6816 22.7123 51.7536 23.7193 51.0032C24.338 50.5491 25.9374 49.6934 27.3723 48.8312C27.3591 48.8509 27.3723 48.8707 27.3986 48.8707C27.6553 48.897 27.9449 48.6469 28.2148 48.5153C35.8498 44.8162 36.225 42.3875 29.4719 37.2536C26.7141 35.154 23.331 33.8837 20.2902 32.1461C19.7044 31.817 18.9277 31.014 18.9804 30.5072C19.3095 27.4071 19.3621 24.1622 20.3955 21.2859C26.7404 3.68592 47.5129 -2.5998 62.4473 8.675C71.4645 15.4873 76.0126 29.7108 70.3916 42.3019C66.969 49.9699 60.9861 54.3337 53.3642 56.9533C52.9364 57.1047 52.3967 57.1573 52.1268 57.4601C51.6924 57.934 51.4489 58.579 51.1264 59.1516C51.7319 59.4346 52.5086 60.106 52.9232 59.9349C56.1484 58.5527 59.5907 57.4206 62.3946 55.4065C65.3828 53.2674 67.7194 50.2266 70.3982 47.6399C70.9116 47.1396 71.6685 46.883 72.3267 46.5341C77.6185 43.7434 83.0091 41.1172 88.1825 38.1159C93.5862 34.9697 97.5749 35.1869 102.801 38.7082ZM51.541 29.5396C51.541 26.8213 49.9153 24.6164 47.9078 24.6164C45.9003 24.6164 44.2746 26.8213 44.2746 29.5396C44.2746 32.258 45.9003 34.4629 47.9078 34.4629C49.9153 34.4629 51.541 32.258 51.541 29.5396Z" fill="#FFDD93"/>
<path d="M47.9076 34.4629C49.9142 34.4629 51.5408 32.2587 51.5408 29.5396C51.5408 26.8206 49.9142 24.6164 47.9076 24.6164C45.9011 24.6164 44.2744 26.8206 44.2744 29.5396C44.2744 32.2587 45.9011 34.4629 47.9076 34.4629Z" fill="#CE9840"/>
<path d="M30.1172 41.5254C31.2032 42.2889 30.9136 43.2169 29.7025 43.987C26.0561 46.2973 22.0214 46.6329 16.9929 46.5605C13.4452 47.3635 10.174 45.3495 7.41619 42.1902C6.94229 41.6504 6.56054 40.9396 6.39599 40.2485C6.19195 39.3929 6.10639 38.7281 6.16562 38.2344C7.35037 38.0041 8.54169 37.6552 9.6672 37.1682C12.8133 37.5104 15.6567 37.0694 18.0986 34.7724C18.3948 34.4959 19.1846 34.3643 19.4874 34.5552C23.068 36.8193 26.6485 39.0967 30.1172 41.5254Z" fill="#CE9840"/>
<path d="M27.3721 48.8312C27.4247 48.5679 29.4651 47.1331 29.6692 47.2318C29.2084 47.6859 28.3264 48.2586 27.3721 48.8312Z" fill="#CE9840"/>
<path d="M31.842 42.3345C32.3356 42.9466 33.1123 43.822 32.8622 44.6776C32.7371 45.1318 32.3225 45.4148 31.9605 45.6715C31.6314 45.915 31.2957 46.1454 30.9468 46.3692C30.8876 46.4087 30.8284 46.4482 30.7626 46.4811C32.9017 44.342 31.6314 42.216 26.9911 38.8724C24.2333 36.8847 20.8502 35.6868 17.8094 34.0413C17.6712 33.9689 17.5198 33.8636 17.375 33.7451C16.5983 33.5674 15.8282 33.3831 15.0318 33.3304H14.9397C14.7554 33.3831 14.5711 33.4357 14.3934 33.5016C13.9655 33.6595 13.5377 33.8109 13.0967 33.936C12.3793 35.3511 11.0498 35.6407 7.96942 35.6473C5.19186 35.6604 2.9211 36.2791 1.43359 38.2734C1.84825 37.5034 2.42088 36.8057 3.14489 36.3055C3.95446 35.7394 4.89568 35.463 5.87638 35.3577C7.9036 35.1405 10.0559 35.4696 11.9383 34.4954C12.4912 34.2058 13.0046 33.8372 13.5575 33.5476C14.084 33.2712 14.6501 33.0803 15.2358 32.9816C16.4074 32.7841 17.6382 32.9619 18.6979 33.4884C18.9217 33.6003 19.1192 33.3502 19.0402 33.1791C21.5874 34.1268 24.0029 35.4169 26.2079 37.0163C27.6098 38.0299 28.913 39.162 30.1175 40.3994C30.7165 41.0181 31.2957 41.6631 31.842 42.3345Z" fill="#CE9840"/>
<path d="M16.9402 32.4814C16.9402 32.4814 16.9204 32.4617 16.9007 32.4551C17.7893 32.5933 18.6844 32.7315 19.573 32.8631C22.5151 34.0018 25.2663 35.6012 27.7213 37.5758C29.1167 38.6947 30.4133 39.9453 31.5915 41.3011C32.5854 42.4464 34.323 44.3288 32.6973 45.7044C32.0588 46.2507 31.3282 46.7115 30.6108 47.1459C29.8868 47.5869 29.143 47.9884 28.373 48.3504C27.8069 48.6202 27.2343 48.8638 26.6485 49.0941C28.5441 48.1792 29.9131 47.3368 30.7556 46.4943C30.7622 46.4877 30.7622 46.4811 30.7622 46.4811C30.828 46.4482 30.8872 46.4087 30.9465 46.3692C31.2953 46.1454 31.631 45.9151 31.9601 45.6715C32.3221 45.4148 32.7368 45.1318 32.8618 44.6777C33.1119 43.822 32.3353 42.9466 31.8416 42.3345C31.2953 41.6632 30.7161 41.0181 30.1172 40.3994C28.9127 39.162 27.6095 38.0299 26.2075 37.0163C24.0026 35.4169 21.587 34.1269 19.0398 33.1791C19.1188 33.3502 18.9213 33.6003 18.6976 33.4884C17.6379 32.9619 16.4071 32.7842 15.2355 32.9816C14.6497 33.0804 14.0836 33.2712 13.5571 33.5477C13.0042 33.8373 12.4908 34.2059 11.9379 34.4955C10.0555 35.4696 7.90324 35.1405 5.87601 35.3577C4.89531 35.463 3.9541 35.7394 3.14452 36.3055C2.42051 36.8057 1.84789 37.5034 1.43323 38.2735C1.42664 38.2801 1.42664 38.2866 1.42006 38.2932C1.14362 38.6552 0.900092 39.0699 0.68289 39.5306V41.6632C0.735545 41.8211 0.7882 41.9857 0.840855 42.137C0.919838 42.5912 1.05806 43.0388 1.24235 43.4666C1.73599 44.6184 2.53899 45.6123 3.52627 46.3626C5.38237 48.1529 7.87033 49.1665 10.8124 49.647C12.0433 49.9498 13.3004 50.1604 14.5641 50.2723C14.9525 50.3118 15.3408 50.3381 15.7291 50.3513C16.0845 50.4105 16.4465 50.4632 16.8217 50.5224C20.0337 50.3973 23.1667 49.9432 26.2733 49.2323C25.4045 49.5549 24.516 49.8247 23.6208 50.0551C20.3233 50.8844 16.8612 51.0819 13.4913 50.6277C10.1279 50.1801 6.85013 49.0875 3.92777 47.3433C3.84879 47.2973 3.82246 47.2249 3.81588 47.1525C2.30862 46.1849 1.10413 44.7172 0.557833 42.9993C-0.0147923 41.1893 0.255066 39.2015 1.27526 37.6021C1.76232 36.8386 2.40735 36.1804 3.17743 35.7131C4.07257 35.1668 5.09276 34.9496 6.12612 34.8575C7.25163 34.7587 8.38372 34.818 9.50922 34.6929C10.0621 34.6337 10.615 34.5218 11.1415 34.3309C11.701 34.1203 12.2012 33.7912 12.7146 33.4818C13.669 32.8961 14.676 32.5077 15.8081 32.4419C16.1899 32.4156 16.565 32.4353 16.9402 32.4814Z" fill="#CE9840"/>
<path d="M26.9909 38.8724C31.6311 42.216 32.9014 44.342 30.7623 46.4811C30.7623 46.4811 30.7623 46.4811 30.7557 46.4943C30.1304 46.8892 29.4854 47.2578 28.8272 47.6C27.3726 48.3438 25.8522 48.9361 24.2791 49.3837C21.5081 50.1735 18.6055 50.496 15.7292 50.3512C14.2944 50.1275 12.9912 49.93 11.6814 49.772C11.3852 49.7325 11.0956 49.6931 10.8125 49.647C8.87747 49.1731 7.00162 48.4688 5.24426 47.5342C5.21135 47.521 5.18502 47.5013 5.15869 47.4881C5.16527 47.4091 5.13236 47.3367 5.04022 47.2907C4.50708 47.0405 3.99369 46.7378 3.52638 46.3626C2.37454 45.27 1.47282 43.8812 0.840961 42.1436C0.604013 40.8404 0.794888 39.4845 1.42017 38.2932C1.42675 38.2932 1.42675 38.28 1.43333 38.2735C2.92084 36.2791 5.1916 35.6604 7.96916 35.6473C11.0495 35.6407 12.379 35.3511 13.0965 33.936C13.5375 33.8109 13.9653 33.6595 14.3931 33.5016C14.5708 33.4358 14.7551 33.3831 14.9394 33.3304H15.0315C15.828 33.3831 16.598 33.5674 17.3747 33.7451C17.5195 33.8636 17.6709 33.9689 17.8091 34.0413C20.8499 35.6868 24.233 36.8847 26.9909 38.8724ZM27.2212 45.2437C28.0111 44.7698 28.4126 44.2235 28.2809 43.7101C28.3796 43.2889 28.1822 42.861 27.6359 42.4793C24.1672 40.0506 20.5867 37.7732 17.0061 35.5091C16.7034 35.3182 15.9135 35.4498 15.6173 35.7263C13.0372 38.155 10.0161 38.5104 6.65278 38.0628C4.33595 37.7601 3.53954 38.1879 3.67776 39.8597V39.8729C3.63169 40.3336 3.71725 40.9325 3.91471 41.7026C4.07926 42.3608 4.46101 43.0322 4.93491 43.539C7.69272 46.5337 10.9639 48.4425 14.5116 47.6724C19.5401 47.7448 23.5749 47.4289 27.2212 45.2437Z" fill="#CE9840"/>
<path d="M28.8272 47.6C29.4854 47.2577 30.1305 46.8891 30.7557 46.4942C29.9133 47.3367 28.5442 48.1792 26.6486 49.0941C26.642 49.1007 26.6355 49.1007 26.6289 49.1007C26.517 49.1467 26.3985 49.1862 26.2735 49.2323C23.1668 49.9432 20.0338 50.3973 16.8218 50.5224C16.4467 50.4631 16.0847 50.4105 15.7292 50.3512C18.6055 50.496 21.5082 50.1735 24.2791 49.3837C25.8522 48.9361 27.3726 48.3437 28.8272 47.6Z" fill="#CE9840"/>
<path d="M28.2806 43.71C28.4123 44.2234 28.0108 44.7696 27.221 45.2435C23.5746 47.4287 19.5399 47.7447 14.5113 47.6723C10.9637 48.4423 7.69245 46.5336 4.93463 43.5388C4.46073 43.032 4.07898 42.3607 3.91443 41.7025C3.71698 40.9324 3.63141 40.3334 3.67749 39.8727C3.71039 40.2479 3.78938 40.6889 3.91443 41.2023C4.07898 41.8934 4.46073 42.6042 4.93463 43.1439C7.69245 46.3032 10.9637 48.3239 14.5113 47.5143C19.5399 47.5867 23.5746 47.2576 27.221 44.9408C27.8265 44.559 28.1951 44.1312 28.2806 43.71Z" fill="#CE9840"/>
<path d="M27.6358 42.4792C28.1821 42.8609 28.3796 43.2888 28.2809 43.71C28.2216 43.4336 28.011 43.1637 27.6358 42.9136C24.1672 40.6099 20.5866 38.4642 17.0061 36.3185C16.7033 36.1342 15.9135 36.2659 15.6173 36.5226C13.0372 38.8197 10.0161 39.1553 6.65272 38.7341C4.64524 38.484 3.77643 38.7538 3.6777 39.8596C3.53948 38.1878 4.33589 37.76 6.65272 38.0627C10.0161 38.5103 13.0372 38.1549 15.6173 35.7262C15.9135 35.4497 16.7033 35.3181 17.0061 35.509C20.5866 37.7731 24.1672 40.0505 27.6358 42.4792Z" fill="#CE9840"/>
<path d="M27.6356 42.9138C28.0108 43.1639 28.2214 43.4337 28.2806 43.7102C28.1951 44.1314 27.8265 44.5592 27.221 44.941C23.5746 47.2578 19.5399 47.5869 14.5113 47.5145C10.9637 48.3241 7.69245 46.3035 4.93463 43.1441C4.46074 42.6044 4.07899 41.8936 3.91444 41.2025C3.78938 40.6891 3.7104 40.2481 3.67749 39.8729V39.8598C3.77622 38.754 4.64503 38.4841 6.65251 38.7343C10.0159 39.1555 13.037 38.8198 15.6171 36.5227C15.9132 36.266 16.7031 36.1344 17.0058 36.3187C20.5864 38.4644 24.167 40.6101 27.6356 42.9138Z" fill="#CE9840"/>
<path d="M26.6289 49.1005C26.5696 49.1334 26.5038 49.1663 26.4446 49.1927C26.3853 49.2058 26.3327 49.219 26.2734 49.2322C26.3985 49.1861 26.517 49.1466 26.6289 49.1005Z" fill="#CE9840"/>
<path d="M15.7294 50.3514C15.3411 50.3383 14.9528 50.3119 14.5644 50.2724C13.3007 50.1605 12.0436 49.9499 10.8127 49.6472C11.0958 49.6932 11.3854 49.7327 11.6816 49.7722C12.9914 49.9302 14.2946 50.1276 15.7294 50.3514Z" fill="#CE9840"/>
<path d="M5.24424 47.5343C7.00161 48.469 8.87746 49.1732 10.8125 49.6471C7.87042 49.1667 5.38246 48.153 3.52637 46.3628C3.99368 46.7379 4.50707 47.0407 5.04021 47.2908C5.13235 47.3369 5.16526 47.4093 5.15868 47.4883C5.18501 47.5014 5.21133 47.5212 5.24424 47.5343Z" fill="#CE9840"/>
<path d="M3.52624 46.3627C2.53895 45.6123 1.73596 44.6185 1.24232 43.4666C1.05802 43.0388 0.919803 42.5912 0.84082 42.1437C1.47268 43.8813 2.3744 45.2701 3.52624 46.3627Z" fill="#CE9840"/>
<path d="M0.682861 39.5306C0.900064 39.0698 1.14359 38.6552 1.42003 38.2932C0.794754 39.4845 0.603878 40.8404 0.840827 42.137C0.788172 41.9856 0.735517 41.8211 0.682861 41.6631L0.682861 39.5306Z" fill="#CE9840"/>
</svg>
