<svg width="140" height="140" viewBox="0 0 140 140" fill="none" xmlns="http://www.w3.org/2000/svg">
<circle cx="69.9103" cy="70.2438" r="69.7565" fill="#FFDD93"/>
<mask id="mask0_342_5902" style="mask-type:alpha" maskUnits="userSpaceOnUse" x="0" y="0" width="140" height="141">
<circle cx="69.9103" cy="70.2438" r="69.7565" fill="#EEF0F2"/>
</mask>
<g mask="url(#mask0_342_5902)">
<path d="M74.9386 145.924C73.116 146.008 71.3276 146.455 69.4701 146.208C64.9666 145.614 61.7719 143.103 59.1543 139.533C48.3141 124.822 37.3995 110.145 26.5717 95.4282C22.0422 89.2741 20.6133 82.4044 22.4416 74.9271C22.6736 74.9695 22.737 75.1365 22.8055 75.3466C23.4826 77.527 24.1598 79.7073 25.1462 81.7726C25.9102 83.3972 26.7859 84.9693 27.6119 86.5648C29.3821 89.9425 31.5636 93.0359 33.7204 96.141C35.9603 99.3584 38.4934 102.362 41.171 105.223C43.8544 108.095 46.7194 110.807 49.9127 113.122C51.3223 114.155 52.9166 114.132 53.9765 113.134C55.0051 112.166 55.2482 110.462 54.4112 109.326C52.1785 106.317 49.9773 103.278 47.8569 100.186C45.2627 96.4086 43.0164 92.437 40.8445 88.4304C39.8697 86.6475 39.1312 84.7231 38.3862 82.817C37.2607 79.9085 36.2576 77.0031 35.6259 73.9533C34.6276 69.0619 34.4804 64.2094 36.2806 59.4409C36.3791 59.1674 36.4594 58.8874 36.3252 58.6022C39.0779 57.308 41.8183 56.0197 44.571 54.7256C44.5592 55.4732 44.0135 55.9872 43.7589 56.6369C42.0033 61.0816 41.5007 65.6792 42.0001 70.4115C42.3052 73.2816 43.2324 76.0259 44.4397 78.593C45.3495 80.5276 46.5686 82.3472 47.7388 84.1594C50.274 88.1012 52.6158 92.1794 55.0948 96.1627C58.2409 101.211 61.449 106.229 64.6075 111.271C67.6596 116.151 70.5687 121.113 73.7207 125.916C77.3991 131.516 82.7766 134.516 89.3615 135.478C91.2796 135.758 93.1934 135.449 95.1152 135.575L93.2281 137.325L74.9262 145.93L74.9386 145.924Z" fill="#8ECF9E"/>
<path d="M65.9128 90.7951C66.0353 91.0555 66.133 91.3276 66.3051 91.5647C69.2635 95.7618 72.1409 100.012 75.2181 104.108C77.9505 107.76 80.445 111.615 83.7332 114.839C86.9134 117.963 90.6591 120.003 95.0417 120.789C98.4171 121.398 101.798 121.278 105.157 120.501C109.835 119.437 114.112 117.487 118.075 114.806C119.452 113.871 120.842 112.93 122.219 111.995C121.964 115.477 120.664 118.572 118.925 121.539C117.915 123.256 116.425 124.562 115.259 126.14C113.992 126.826 112.863 127.676 111.785 128.636L99.0627 134.618C97.7112 134.738 96.415 135.105 95.1466 135.596C93.2248 135.469 91.3109 135.778 89.3927 135.499C82.8075 134.537 77.4355 131.55 73.7509 125.938C70.5986 121.135 67.6893 116.173 64.6369 111.293C61.4781 106.252 58.2697 101.233 55.1233 96.1856C52.6441 92.2024 50.3079 88.1369 47.7667 84.1828C46.5905 82.3583 45.3713 80.5388 44.4672 78.6166C43.2598 76.0496 42.3324 73.3055 42.0273 70.4354C41.5335 65.7157 42.036 61.1182 43.7857 56.6612C44.0404 56.0114 44.586 55.4975 44.5978 54.7499C46.9499 50.4792 49.9737 46.8315 54.0782 44.1296C54.8441 43.6332 55.6443 43.2419 56.4568 42.8447C56.6143 43.1795 56.4976 43.4464 56.3305 43.7673C55.4236 45.5414 54.6079 47.3483 54.022 49.2896C52.5173 54.2674 52.7535 59.2445 53.725 64.2394C54.461 68.0578 55.9564 71.6554 57.2731 75.2917C57.3824 75.5886 57.4845 75.9344 57.8812 76.0053C57.8153 77.9898 58.9193 79.4999 59.9613 81.0393" fill="#0BAD67"/>
<path d="M115.272 126.145C116.438 124.567 117.928 123.261 118.938 121.544C120.683 118.589 121.989 115.476 122.232 112C122.449 110.656 122.45 109.308 122.342 107.95C121.939 103.067 119.813 98.675 118.409 94.0799C117.268 90.3311 115.866 86.674 114.619 82.9594C113.372 79.2448 112.193 75.5134 110.952 71.8112C109.723 68.1338 108.444 64.4797 107.189 60.814C105.843 56.8885 104.788 52.872 102.805 49.1702C100.623 45.0773 97.5301 41.9124 93.7421 39.3621C91.136 37.6191 88.2264 36.5184 85.2314 35.6548C88.852 33.9528 92.4602 32.2566 96.0983 30.5918C96.4951 30.4053 96.956 30.3552 97.3878 30.243C97.6277 30.4634 97.8355 30.7444 98.1016 30.8918C103.197 33.6149 106.474 38.041 109.034 42.9706C111.49 47.6771 113.708 52.5249 115.203 57.6678C116.284 61.3845 117.538 65.0502 118.682 68.7378C119.609 71.7397 120.579 74.7364 121.859 77.5875C123.278 80.7668 124.585 83.9986 126.488 86.9506C128.096 89.4357 129.803 91.8435 132.276 93.5281C134.501 95.0412 136.903 95.8352 139.557 94.5879C140.349 97.5926 141.251 100.575 141.717 103.658C142.548 109.097 140.611 113.446 136.325 116.824C136.137 116.972 135.86 117.027 135.847 117.321L117.546 125.924C116.746 125.8 116.002 126.12 115.217 126.156L115.272 126.145Z" fill="#8ECF9E"/>
<path d="M95.1278 135.585C96.3972 135.095 97.6818 134.735 99.0466 134.609L93.2389 137.335L95.1278 135.585Z" fill="#FEFEFE"/>
<path d="M115.245 126.144C116.025 126.096 116.781 125.771 117.575 125.913L111.767 128.639C112.833 127.685 113.982 126.842 115.245 126.144Z" fill="#FEFEFE"/>
<path d="M85.2423 35.6498C88.2435 36.5255 91.1477 37.6133 93.7541 39.356C97.5428 41.9058 100.636 45.0702 102.819 49.1626C104.802 52.864 105.858 56.8802 107.205 60.8052C108.46 64.4706 109.739 68.1244 110.969 71.8014C112.216 75.5157 113.396 79.2467 114.637 82.9485C115.885 86.6628 117.287 90.3195 118.429 94.068C119.833 98.6626 121.959 103.054 122.363 107.937C122.472 109.294 122.464 110.631 122.254 111.986C120.877 112.921 119.506 113.869 118.11 114.798C114.141 117.466 109.865 119.416 105.192 120.492C101.827 121.257 98.4521 121.389 95.0767 120.781C90.694 119.994 86.9425 117.942 83.768 114.83C80.4922 111.6 77.9976 107.746 75.2528 104.099C72.1755 100.004 69.2922 95.741 66.3397 91.5563C66.1734 91.3316 66.0699 91.0471 65.9474 90.7867C67.1305 90.0185 65.2434 92.0263 65.9474 90.7867C50.939 67.5712 65.4935 87.4717 63.6119 85.9182C62.079 84.6551 64.5307 82.8817 62.6372 83.1055C62.9306 81.6047 62.0108 77.5244 61.5631 76.2509C60.9894 74.6125 66.7499 89.0162 65.9474 90.7867C65.563 90.71 58.5359 78.7644 58.4389 78.4617C57.1223 74.8254 54.5136 68.0562 53.7651 64.2436C52.7936 59.2488 52.5573 54.2717 54.062 49.2939C54.648 47.3527 55.4513 45.5516 56.3706 43.7716C56.5252 43.4566 56.642 43.1897 56.4969 42.8491C57.195 42.112 58.2227 41.9469 59.0265 41.4024C61.8538 40.0732 64.6934 38.7382 67.5206 37.4091C69.7752 36.6974 71.9488 35.7815 74.3004 35.3726C77.9816 34.7323 81.6233 34.9737 85.2612 35.6257L85.2423 35.6498ZM95.6898 64.235C95.4938 62.6917 94.6728 61.3968 93.9436 60.1041C93.544 59.3834 92.7089 59.1854 91.892 59.5089C91.0378 59.8499 90.4929 60.5906 90.7546 61.4368C91.2554 63.0488 91.6928 64.7512 93.2374 65.7817C92.5729 66.397 92.0105 67.1005 91.5683 67.899C89.9458 70.8878 91.2589 74.1623 94.5015 75.1971C98.17 76.3648 102.877 74.1065 104.257 70.5049C105.31 67.7535 104.118 65.0276 101.335 64.0039C99.4272 63.2957 97.5396 63.532 95.6898 64.235ZM76.2391 69.0787C75.1975 69.5684 74.1384 70.0209 73.1266 70.5419C71.972 71.1454 71.7538 71.8082 72.2656 72.9608C72.7483 74.0513 73.2434 75.136 73.7822 76.185C75.0714 78.6682 77.9843 79.6459 80.4884 78.499C83.0793 77.3112 84.227 74.4396 83.1312 71.8201C82.6733 70.7179 82.1468 69.6631 81.6146 68.5959C81.0473 67.4542 80.4099 67.1936 79.2151 67.6796C78.1874 68.1022 77.2187 68.6181 76.2143 69.0903L76.2391 69.0787Z" fill="#13BC79"/>
<path d="M139.626 94.5828C136.96 95.8358 134.57 95.0357 132.345 93.5224C129.86 91.8433 128.153 89.4354 126.558 86.9443C124.662 84.0045 123.348 80.7601 121.93 77.5806C120.644 74.717 119.693 71.7267 118.754 68.7306C117.605 65.0304 116.338 61.3703 115.276 57.66C113.781 52.517 111.557 47.6871 109.108 42.9622C106.543 38.0198 103.266 33.5934 98.1769 30.8822C97.8983 30.7406 97.703 30.4538 97.4631 30.2334C101.839 28.7524 106.265 28.7009 110.668 29.9179C118.736 32.1378 124.35 37.2219 127.293 45.061C128.795 49.0946 129.52 53.3729 130.559 57.5486C133.537 69.5203 136.496 81.5161 139.45 93.4995C139.539 93.8511 139.592 94.2202 139.656 94.5835L139.626 94.5828Z" fill="#8ECF9E"/>
<path d="M36.3346 58.6067C36.4687 58.892 36.3884 59.172 36.2899 59.4455C34.4895 64.214 34.6305 69.0542 35.6342 73.9584C36.2657 77.0083 37.256 79.9197 38.3937 82.8225C39.1386 84.7288 39.8768 86.6533 40.8514 88.4364C43.0229 92.4433 45.2688 96.4152 47.8627 100.193C49.9826 103.285 52.1836 106.324 54.4159 109.334C55.2528 110.47 55.0219 112.168 53.981 113.142C52.9211 114.14 51.3334 114.144 49.9174 113.129C46.7244 110.814 43.8598 108.102 41.1767 105.229C38.4995 102.369 35.9668 99.3644 33.7272 96.1467C31.5584 93.0472 29.3772 89.9535 27.6197 86.5697C26.7939 84.9741 25.9308 83.396 25.1545 81.7771C24.1807 79.7059 23.4914 77.5313 22.8144 75.3508C22.746 75.1407 22.6825 74.9736 22.4506 74.9312C24.5099 67.3 29.1036 61.8393 36.3463 58.6315L36.3346 58.6067Z" fill="#8ECF9E"/>
<path d="M57.8336 35.7068C56.7627 28.9572 56.6904 22.2379 58.9321 15.6725C59.5713 13.8124 60.8204 12.6045 62.8243 12.3894C64.8158 12.1801 66.3477 12.9893 67.3674 14.7056C67.9742 15.7377 68.1732 16.9009 67.7908 18.0195C66.2665 22.5366 66.131 27.1732 66.5398 31.8719C65.8964 32.1137 65.2077 32.1952 64.581 32.5049C62.3414 33.6031 60.0849 34.6334 57.8278 35.6944L57.8336 35.7068Z" fill="#13BC78"/>
<path d="M57.8229 35.7093C60.0808 34.6486 62.3379 33.6186 64.5783 32.5207C65.2234 32.2177 65.894 32.1297 66.5376 31.8879C66.8613 33.7342 67.0186 35.6132 67.5087 37.4268L59.0106 41.4188C58.4177 39.5476 58.1203 37.6284 57.8105 35.7151L57.8229 35.7093Z" fill="#13BC78"/>
<path d="M102.73 61.1244C107.981 72.2835 102.673 85.817 90.8905 91.355C79.1083 96.893 69.3545 91.1964 64.1031 80.0373C58.8518 68.8781 60.0983 56.4969 71.8805 50.9588C83.6627 45.4208 97.4786 49.9652 102.73 61.1244Z" fill="#13BC79"/>
<path d="M75.2129 79.1412C79.6674 80.945 82.5885 79.7801 83.9761 75.6468C84.4847 75.9227 85.0079 76.1008 85.4355 76.4299C87.9651 78.3604 90.6706 77.317 91.2479 74.2303C91.3948 73.4801 91.8898 72.7935 92.2381 72.085C92.6356 72.8974 93.3826 73.7123 93.3875 74.5274C93.4058 77.3345 90.9137 79.7006 87.7188 79.672C86.106 79.6573 85.2849 80.1337 84.2863 81.3596C82.332 83.8062 78.6561 84.1397 76.7271 82.2298C76.1223 81.6207 75.9197 80.6108 75.2312 79.1478L75.2129 79.1412Z" fill="black"/>
<path d="M69.1784 78.1225C68.5254 77.7329 67.8789 77.325 67.2135 76.9412C64.1994 75.2688 61.2447 76.7477 60.5874 80.1145C60.4274 80.9012 59.7976 81.5907 59.375 82.3342C59.046 81.4744 58.4048 80.5948 58.4312 79.7498C58.5236 77.1782 59.9424 75.0432 62.3578 74.5746C64.3237 74.181 66.5717 74.8054 68.6017 75.3202C69.1869 75.4692 69.4676 76.8058 69.8899 77.6066L69.1602 78.116L69.1784 78.1225Z" fill="black"/>
<path d="M92.7733 67.0535C90.4093 65.8931 91.2947 64.0087 91.8474 62.4472C92.8797 59.5552 96.2672 57.9336 99.2859 58.6502C101.64 59.2097 102.511 60.2235 102.441 62.3606C98.0262 61.3058 94.7975 62.8679 92.7551 67.0469L92.7733 67.0535Z" fill="black"/>
</g>
</svg>
