<svg width="109" height="140" viewBox="0 0 109 140" fill="none" xmlns="http://www.w3.org/2000/svg">
<path d="M83.9016 37.0645C87.3138 36.14 90.7261 35.787 94.2224 36.6947C103.266 39.0311 108.829 46.9482 108.157 56.2772C107.754 61.841 105.905 66.951 103.921 72.0441C101.921 77.1709 99.7021 82.2473 98.5591 87.6766C98.0884 89.9458 97.8027 92.2318 97.7859 94.5515C97.7186 102.553 97.2312 110.487 94.962 118.219C93.9366 121.681 92.5583 124.976 90.3395 127.85C87.4147 131.649 83.6494 133.834 78.758 134.036C77.0099 134.103 75.6483 133.397 74.3372 132.422C72.8412 131.33 71.5133 130.052 70.3535 128.623C69.782 127.918 69.4794 127.85 68.9415 128.674C67.8489 130.372 66.6219 132.002 65.1427 133.397C64.8233 133.364 64.4703 133.397 64.1677 133.296C60.4361 131.952 57.4105 129.615 54.9395 126.539C51.0903 121.732 48.6361 116.185 46.7031 110.402C45.039 105.444 43.8624 100.367 42.9547 95.2407C41.694 88.1304 38.1977 81.9951 34.5333 75.9439C31.39 70.7498 27.9274 65.7407 25.7758 60.0088C24.1789 55.773 23.3721 51.4698 24.0108 46.8978C24.4311 43.8553 25.6749 41.2331 27.1878 38.6781C30.1462 39.922 32.4322 42.0736 34.7518 44.1747C35.4746 44.8303 36.0125 45.9565 36.8194 46.175C37.7775 46.4439 38.3826 45.1664 39.1558 44.5781C41.4755 42.8468 44.0977 41.7542 46.7703 40.712C48.6193 40.1741 50.5019 39.8548 52.435 39.7539C54.6034 39.8043 56.7885 39.7035 58.9233 40.1237C58.9905 40.1741 59.0578 40.275 59.1418 40.2918C63.4786 41.1323 67.311 43.0149 70.6056 45.9565C71.2612 46.5448 71.6982 46.259 72.1184 45.7211C74.1355 43.1325 76.7241 41.1827 79.4976 39.4682C80.9264 38.5773 82.4392 37.8545 83.9016 37.0477V37.0645Z" fill="#FFC74D"/>
<path d="M27.1872 38.6614C25.6743 41.2332 24.4305 43.8554 24.0102 46.8811C23.3883 51.4531 24.1783 55.7563 25.7752 59.9922C27.9268 65.724 31.3894 70.75 34.5327 75.9272C38.2139 81.9784 41.6934 88.1137 42.9541 95.224C43.8618 100.368 45.0384 105.444 46.7025 110.386C48.6355 116.168 51.0897 121.715 54.9389 126.522C57.4099 129.599 60.4355 131.935 64.1671 133.28C64.4697 133.381 64.8227 133.347 65.142 133.381C59.427 139.835 52.0646 141.146 45.341 135.566C42.87 133.515 40.8866 131.078 39.1552 128.422C38.6341 127.615 38.3484 127.598 37.7601 128.321C36.7515 129.565 35.5749 130.658 34.4319 131.801C31.9945 134.255 29.1874 134.456 26.0778 133.515C21.8082 132.221 18.8835 129.346 16.6647 125.632C13.8576 120.891 12.4792 115.681 11.6051 110.319C10.7143 104.856 10.4957 99.359 10.4117 93.8288C10.3276 88.0129 8.42822 82.5667 6.3439 77.2046C4.41085 72.2628 2.24248 67.405 0.948185 62.2278C-0.178023 57.7229 -0.446968 53.2013 0.948185 48.6965C3.80573 39.4515 14.1265 34.0221 23.4387 36.8461C24.0102 37.0141 24.5649 37.3503 25.2037 37.2999C25.6407 38.0899 26.6661 38.0227 27.1872 38.6614Z" fill="#ECBF04"/>
<path d="M83.9014 37.0644C82.4222 37.8712 80.9094 38.6108 79.4974 39.4849C76.7407 41.1994 74.1521 43.1493 72.1182 45.7379C71.698 46.2926 71.2778 46.5615 70.6054 45.9732C67.3108 43.0316 63.4952 41.1322 59.1416 40.3085C59.0576 40.3085 58.9903 40.2077 58.9231 40.1405C59.6459 39.8043 59.4946 39.1487 59.5114 38.5604C59.5955 35.1986 59.0744 31.8536 58.9903 28.4918C61.0074 28.0379 62.9909 27.4832 65.0752 27.3488C71.0424 26.9621 76.0515 29.1137 80.3715 33.0806C81.6826 34.2909 83.0105 35.5012 83.9182 37.0644H83.9014Z" fill="#FFC74D"/>
<path d="M52.4345 39.7539C50.5014 39.8547 48.6188 40.1741 46.7698 40.712C46.1815 40.2245 46.4504 39.569 46.5009 39.0143C46.6353 37.4847 46.8539 35.9719 46.7866 34.4422C47.4086 29.3323 48.0137 24.2223 47.2573 19.0955C46.316 12.6577 42.6516 8.95967 35.9952 7.53089C34.7009 7.26195 33.3898 7.07705 32.0955 6.92577C31.4231 6.85853 31.0869 6.67363 31.0869 5.93403C31.0869 4.10184 31.0197 2.25284 30.9861 0.420654C34.7513 0.588745 38.1804 1.86623 41.29 3.88332C45.963 6.90896 48.6692 11.4474 50.4846 16.5742C52.9555 23.5331 53.5775 30.761 53.6111 38.0898C53.6111 39.0647 53.3253 39.5522 52.4513 39.7707L52.4345 39.7539Z" fill="#8ECF9E"/>
<path d="M52.4349 39.754C53.3258 39.5354 53.6116 39.048 53.5947 38.0731C53.5611 30.7443 52.9224 23.5164 50.4683 16.5574C48.6529 11.4307 45.9634 6.89222 41.2737 3.86659C38.1472 1.8495 34.735 0.555198 30.9697 0.403916C32.3817 -0.251638 33.8945 0.0677348 35.3233 0.15178C41.9124 0.52158 47.5939 2.85804 51.8298 8.13609C54.6873 11.6996 56.3682 15.8178 57.4944 20.1714C58.2004 22.8945 58.6711 25.6848 58.9736 28.4919C59.0745 31.8537 59.5788 35.1819 59.4947 38.5605C59.4947 39.1488 59.6292 39.8044 58.9064 40.1406C56.7549 39.7203 54.5865 39.8212 52.4181 39.7708L52.4349 39.754Z" fill="#8ECF9E"/>
<path d="M46.787 34.4424C46.871 35.972 46.6525 37.5016 46.5012 39.0145C46.4508 39.5692 46.1818 40.2247 46.7701 40.7122C44.1143 41.7543 41.4753 42.8469 39.1556 44.5783C38.3824 45.1498 37.7773 46.4441 36.8192 46.1751C36.0123 45.9566 35.4744 44.8304 34.7517 44.1749C32.432 42.0737 30.1292 39.9222 27.1876 38.6783C26.6665 38.0227 25.6411 38.1068 25.2041 37.3168C25.7084 35.3669 27.0867 34.0894 28.65 33.0304C33.3397 29.8199 41.6098 28.9458 46.7701 34.4592L46.787 34.4424Z" fill="#FFC74D"/>
<path d="M55.9985 86.1301C52.5358 84.5668 49.4598 83.3061 46.5518 81.7597C45.9635 81.4403 45.9467 80.0284 45.6777 79.1207C46.5686 79.1879 47.678 78.9358 48.2999 79.3728C53.5276 83.1044 58.6207 83.0876 63.8315 79.3392C64.4535 78.8853 65.6133 79.1879 66.521 79.1543C66.2184 80.062 66.1848 81.4571 65.5965 81.7597C62.554 83.3397 59.3771 84.6341 55.9817 86.1301H55.9985Z" fill="black"/>
<path d="M40.9031 68.5647C40.9199 71.8593 39.2726 74.4311 37.037 74.5655C34.7678 74.6832 32.8011 72.0106 32.7843 68.7328C32.7675 65.371 34.5829 62.7656 36.9193 62.7656C39.1717 62.7656 40.8695 65.2533 40.9031 68.5647Z" fill="black"/>
<path d="M79.4295 68.5647C79.4463 71.8593 77.799 74.4311 75.5634 74.5655C73.2941 74.6832 71.3275 72.0106 71.3107 68.7328C71.2939 65.371 73.1092 62.7656 75.4457 62.7656C77.6981 62.7656 79.3958 65.2533 79.4295 68.5647Z" fill="black"/>
</svg>
