<svg width="141" height="146" viewBox="0 0 141 146" fill="none" xmlns="http://www.w3.org/2000/svg">
<path d="M82.4623 26.5514C94.1908 23.4431 105.316 24.0379 115.18 30.7275C122.123 35.4777 126.224 42.2324 129.21 49.5947C140.292 77.1468 131.261 107.895 106.261 127.266C93.3569 137.258 78.8176 140.65 62.626 136.886M82.4623 26.5514L82.3392 26.0673C82.3388 26.0674 82.3385 26.0675 82.3381 26.0676M82.4623 26.5514L82.3373 26.0678C82.3376 26.0677 82.3379 26.0676 82.3381 26.0676M82.4623 26.5514C77.7067 27.7925 73.3238 29.8446 68.7876 32.1955L14.4565 24.9296M82.3381 26.0676C94.1615 22.9343 105.446 23.5199 115.462 30.3126L115.464 30.3138C122.519 35.1406 126.668 41.995 129.673 49.4039L129.673 49.4052C140.846 77.1808 131.729 108.163 106.565 127.661L106.565 127.661C93.5438 137.744 78.8506 141.172 62.5101 137.373M82.3381 26.0676C77.6111 27.3013 73.2581 29.3246 68.7968 31.629C68.8303 29.5231 68.8548 27.612 68.8793 25.7017L68.8793 25.7005C68.8868 24.979 68.9061 24.2517 68.9255 23.5204C69.0132 20.2206 69.1029 16.8397 68.1213 13.5392C67.2617 10.649 65.5645 8.23187 62.152 7.26366L62.152 7.26362L62.1462 7.26207C60.599 6.84306 59.3596 7.1677 58.2817 7.76487C57.7525 8.05805 57.2622 8.41652 56.7984 8.77455C56.6532 8.88668 56.5119 8.99762 56.3727 9.10696C56.0577 9.35438 55.7531 9.59359 55.4364 9.81983L55.4306 9.82396L55.425 9.82825C55.0026 10.1483 54.6222 10.5388 54.5746 11.0685C54.5274 11.593 54.8243 12.0619 55.2124 12.4948L55.2124 12.4949L55.2179 12.5009C56.533 13.9201 57.6882 15.4379 58.7258 17.0508C60.3171 19.5743 61.5397 22.2322 62.105 25.1121C58.3336 21.3634 53.6876 19.0141 47.9803 18.3749C42.9753 17.7936 38.2332 19.1383 33.6033 20.4511C33.4983 20.4809 33.3934 20.5106 33.2885 20.5404C33.2883 20.5404 33.2882 20.5405 33.288 20.5405L33.0953 20.5946C27.838 22.0717 22.7139 23.5113 17.3363 22.5139L17.3352 22.5137C16.765 22.4092 16.2851 22.3384 15.8977 22.3329C15.5203 22.3275 15.1315 22.3808 14.8309 22.6256C14.5154 22.8825 14.4095 23.2551 14.3802 23.6173C14.3512 23.9765 14.3902 24.4189 14.4565 24.9296M62.5101 137.373C62.5105 137.373 62.5109 137.373 62.5113 137.374L62.626 136.886M62.5101 137.373L62.626 136.886M62.5101 137.373C51.5128 134.843 40.7866 131.704 31.3611 125.666M62.626 136.886C51.6403 134.358 40.9832 131.234 31.6322 125.244M31.6322 125.244L31.3611 125.666C31.3611 125.666 31.3611 125.666 31.3611 125.666M31.6322 125.244C-0.602151 104.601 -0.11831 61.1822 32.5946 39.5645C32.9325 39.3612 33.2867 39.1184 33.752 38.7994C33.7928 38.7715 33.8344 38.7429 33.877 38.7138C33.643 38.6716 33.4111 38.6291 33.181 38.586M31.6322 125.244L31.3611 125.666M31.3611 125.666C-1.19127 104.82 -0.679999 60.9557 32.3213 39.1474L32.3302 39.1415L32.3393 39.1361C32.5951 38.9821 32.8578 38.8066 33.181 38.586M33.181 38.586C30.2336 38.0331 27.5974 37.3788 25.1065 36.2255C20.6054 34.1414 17.1246 31.1033 15.0779 26.7737L15.0748 26.7671L15.0719 26.7604C15.0452 26.6992 15.0167 26.6356 14.9873 26.5698C14.7798 26.1052 14.5229 25.53 14.4565 24.9296M33.181 38.586C33.2679 38.5266 33.3592 38.464 33.4559 38.3977C33.5537 38.3307 33.657 38.2599 33.7669 38.1848C30.6311 37.614 27.8904 36.9619 25.3186 35.7711C20.8992 33.7248 17.5167 30.7605 15.5298 26.5573C15.5009 26.4913 15.4713 26.4247 15.4415 26.3577C15.2309 25.8841 15.0089 25.385 14.9526 24.8669L14.4565 24.9296M39.0067 38.626C32.7997 42.2561 27.1837 46.4968 22.6505 51.8506C3.57124 74.2133 7.55258 105.618 31.7557 121.956M39.0067 38.626L39.2411 39.0664C39.2436 39.0651 39.246 39.0638 39.2485 39.0624M39.0067 38.626L39.2566 39.0577C39.2539 39.0593 39.2512 39.0609 39.2485 39.0624M39.0067 38.626C39.5591 38.3287 40.0811 38.314 40.5932 38.2995C40.6937 38.2966 40.7938 38.2938 40.8937 38.2888C43.5752 38.0774 46.2311 37.6307 48.9103 37.1802C49.5226 37.0773 50.1361 36.9741 50.7514 36.8735C52.0486 36.6557 53.4074 36.7423 54.7702 36.8291C55.7981 36.8946 56.8283 36.9603 57.8362 36.8957M39.2485 39.0624C33.0768 42.6727 27.514 46.878 23.0307 52.1728L23.0295 52.1742C4.14219 74.312 8.08305 105.371 32.0368 121.54M39.2485 39.0624C39.6854 38.8296 40.0751 38.8173 40.5764 38.8014C40.6837 38.798 40.7962 38.7945 40.9153 38.7886L40.9225 38.7882L40.9298 38.7876C43.6354 38.5743 46.318 38.1231 48.9984 37.6723C49.6086 37.5697 50.2187 37.4671 50.8289 37.3673L50.831 37.3669C51.9072 37.1863 53.0417 37.2251 54.2348 37.2972C54.3989 37.3071 54.5643 37.3176 54.7308 37.3283C55.7556 37.3937 56.8203 37.4617 57.8618 37.3952M32.0368 121.54C32.0366 121.54 32.0364 121.54 32.0363 121.54L31.7557 121.956M32.0368 121.54L31.7557 121.956M32.0368 121.54C43.6482 129.357 57.1432 133.206 71.4815 134.856M31.7557 121.956C43.4539 129.831 57.0333 133.697 71.4218 135.353M71.4218 135.353L71.4815 134.856M71.4218 135.353C81.3379 136.487 90.4883 134.195 98.8855 128.994C111.628 121.138 120.66 110.514 125.977 97.4832C133.889 78.1641 132.902 59.4311 121.885 41.7341C115.952 32.1958 106.872 27.0929 94.5288 27.3572M71.4218 135.353L71.4819 134.856C71.4818 134.856 71.4817 134.856 71.4815 134.856M71.4815 134.856C81.2784 135.976 90.3167 133.714 98.6247 128.569L98.6255 128.569C111.281 120.766 120.24 110.224 125.514 97.2964L125.514 97.2958C133.37 78.1155 132.387 59.5526 121.461 42.0007L121.461 42.0006C115.622 32.6148 106.709 27.5974 94.5383 27.8574M94.5383 27.8574C94.5391 27.8574 94.5398 27.8574 94.5406 27.8573L94.5288 27.3572M94.5383 27.8574C85.5568 28.1272 77.4484 30.9285 69.7364 35.2568M94.5383 27.8574C94.5376 27.8574 94.537 27.8574 94.5363 27.8575L94.5288 27.3572M94.5288 27.3572C85.332 27.633 77.0525 30.5348 69.2011 34.986L69.7364 35.2568M69.7364 35.2568L69.733 35.2558L69.7217 35.253C69.5402 35.2094 69.4107 35.167 69.2879 35.1068L69.7364 35.2568ZM69.7364 35.2568L69.7443 35.2591C84.3401 39.5074 93.6187 48.4767 97.3231 62.1749L97.3238 62.1774C98.3034 65.8783 98.5842 69.6944 98.2974 73.5674M69.7364 35.2568C69.7303 35.2602 69.7243 35.2636 69.7182 35.267C69.5266 35.3746 69.3352 35.4831 69.144 35.5926C69.2857 35.6546 69.4314 35.6985 69.6021 35.7396C84.049 39.9446 93.1861 48.7942 96.8407 62.3085C97.8049 65.9508 98.0825 69.712 97.7988 73.538M98.2974 73.5674C98.2975 73.5656 98.2976 73.5639 98.2977 73.5622L97.7988 73.538M98.2974 73.5674C98.2973 73.5689 98.2972 73.5704 98.2971 73.572L97.7988 73.538M98.2974 73.5674C98.2734 73.9992 98.185 74.4934 97.8827 74.8791C97.5529 75.3001 97.0473 75.4975 96.4035 75.4741L96.3929 75.4737L96.3929 75.4736C95.8397 75.4417 95.3556 75.2588 95.0088 74.902C94.6663 74.5496 94.5089 74.0804 94.5018 73.5713M97.7988 73.538C97.755 74.3417 97.4782 75.0124 96.4248 74.9741C95.5009 74.9208 95.0048 74.379 95.0012 73.5409M94.5018 73.5713C94.5026 73.5803 94.5035 73.5892 94.5045 73.5982L95.0012 73.5409M94.5018 73.5713C94.4824 73.3609 94.5039 73.1593 94.5233 72.9979C94.5268 72.9693 94.5302 72.9417 94.5334 72.9151C94.5512 72.7716 94.5656 72.6548 94.5671 72.5319L94.5671 72.5302C94.6884 65.0905 93.036 58.6662 89.5596 53.3011C86.0826 47.9353 80.7583 43.5937 73.4779 40.3588L73.4776 40.3586C68.6291 38.1998 63.3854 37.1132 57.8618 37.3952M94.5018 73.5713C94.5016 73.563 94.5016 73.5546 94.5015 73.5463L95.0012 73.5409M95.0012 73.5409L73.683 39.9012C68.7672 37.7125 63.4448 36.6088 57.8362 36.8957M57.8618 37.3952C57.8608 37.3952 57.8597 37.3953 57.8586 37.3954L57.8362 36.8957M57.8618 37.3952C57.8629 37.3951 57.864 37.3951 57.865 37.395L57.8362 36.8957M26.2562 33.9924L26.2531 33.991C22.0395 32.1316 19.0139 29.255 17.1802 24.9829C23.2061 25.8686 28.6214 24.3643 33.8914 22.9004C34.467 22.7405 35.0408 22.5811 35.6136 22.4253C41.1886 20.9838 46.6015 19.8311 52.0822 21.7987L52.0825 21.7989C56.6202 23.4238 60.0258 26.1832 62.3654 30.0759L62.3673 30.079C62.5207 30.3301 62.6174 30.5216 62.6668 30.6728C62.715 30.8204 62.7049 30.8893 62.695 30.9204C62.6861 30.9481 62.6558 31.014 62.5153 31.11C62.3699 31.2093 62.1376 31.3189 61.7791 31.4357C60.8017 31.7451 59.8297 32.0617 58.8601 32.3776C54.6862 33.7373 50.5574 35.0823 46.2379 35.7727L46.2373 35.7728C39.3259 36.8863 32.5673 36.8288 26.2562 33.9924ZM60.3205 14.6158L60.3094 14.5992L60.297 14.5835C60.2736 14.554 60.2507 14.5236 60.2282 14.4924C60.2384 14.4941 60.2488 14.4958 60.2593 14.4975C60.3451 14.5116 60.4417 14.5274 60.535 14.5389C60.7495 14.5652 61.0546 14.5852 61.3447 14.4533C61.6686 14.306 61.8726 14.0209 61.9819 13.6541L61.9874 13.6356L61.9915 13.6167C62.0621 13.2903 62.0354 12.978 61.8658 12.7118C61.7067 12.4619 61.4671 12.3272 61.2771 12.245C61.137 12.1843 60.9726 12.1326 60.8405 12.091C60.8006 12.0785 60.7636 12.0668 60.7312 12.0562C60.5639 12.0012 60.4633 11.9573 60.4003 11.9115C60.1469 11.7275 59.8271 11.6394 59.5826 11.58C59.4952 11.5588 59.4152 11.5406 59.3407 11.5237C59.1736 11.4858 59.0343 11.4542 58.9016 11.4082C58.7119 11.3424 58.678 11.2902 58.6754 11.2854C58.6748 11.2843 58.6733 11.2814 58.6718 11.2747C58.6703 11.2676 58.6681 11.2532 58.6689 11.2289C58.6707 11.1781 58.6857 11.0902 58.74 10.9538L58.7403 10.953C59.1027 10.0372 60.1207 9.59273 61.4373 9.66515L61.4373 9.66518L61.4433 9.66544C62.2502 9.70004 62.8016 10.1664 63.4946 10.7809C65.8691 13.0194 66.3295 15.9 66.3657 19.0114C66.3792 23.55 66.2637 28.1047 66.1478 32.6677C66.1348 32.8746 66.0868 33.0881 66.0229 33.341C66.015 33.3723 66.0067 33.4045 65.9983 33.4375C65.9419 33.6579 65.8772 33.9107 65.8408 34.1686C65.8311 34.231 65.8264 34.29 65.8236 34.3392C65.822 34.3665 65.8207 34.3974 65.8196 34.4247C65.7819 34.4162 65.7602 34.4071 65.7495 34.4015C65.7458 34.3996 65.7435 34.3981 65.7421 34.3972L65.7415 34.3961C65.7406 34.3942 65.7392 34.3911 65.7376 34.3864C65.7343 34.3768 65.7301 34.3613 65.7266 34.338C65.7192 34.2894 65.7167 34.2195 65.7239 34.1207L65.724 34.1207L65.7246 34.108C65.7335 33.9181 65.7451 33.7234 65.7569 33.5248C65.7952 32.8778 65.836 32.1903 65.7958 31.4972C65.5762 25.4017 63.764 19.7697 60.3205 14.6158Z" fill="#F2897D" stroke="#F2897D"/>
<path d="M110.319 104.192C107.05 110.717 97.2715 123.972 84.3078 124.793C83.3307 123.554 82.2052 120.504 85.5199 118.216C89.6632 115.357 91.2525 115.143 97.358 110.046C103.464 104.949 103.707 92.4167 105.17 90.0818C106.634 87.747 113.862 84.9661 114.146 91.8356C114.373 97.3312 111.689 102.363 110.319 104.192Z" fill="#FFDD93" stroke="#F2897D"/>
</svg>
