<svg width="146" height="146" viewBox="0 0 146 146" fill="none" xmlns="http://www.w3.org/2000/svg">
<path d="M82.9535 122.383C81.8609 121.24 75.3894 124.215 74.1119 125.106C73.3051 125.678 72.431 126.165 71.6073 126.686C69.9937 127.711 69.8088 128.233 70.3467 130.098C71.5905 134.486 68.464 138.57 63.9424 138.385C62.1102 138.301 60.5974 137.528 59.3871 136.133C57.9584 134.469 57.5045 134.401 55.5042 135.36C50.8986 137.545 46.3097 139.747 41.2165 140.554C39.7541 140.789 27.0969 141.142 25.6513 141.192C25.2143 142.15 25.1471 141.915 25.9875 143.747C16.5912 144.117 41.6031 144.857 41.6704 144.84C46.6122 144.033 51.1675 142.083 55.6387 139.982C56.3783 139.629 56.8322 139.663 57.4877 140.201C61.0176 143.109 64.9509 143.512 68.9851 141.495C73.0193 139.478 75.1204 136.082 74.8179 131.51C74.7338 130.115 75.0868 129.409 76.2635 128.77C77.9612 127.846 89.2569 120.248 82.9367 122.417L82.9535 122.383Z" fill="#8ECF9E"/>
<path d="M90.7028 7.07271C89.0387 6.19864 93.5267 2.29893 82.9706 11.1069C81.6259 12.502 80.382 13.998 79.323 15.6117C78.97 16.1496 78.6002 16.4354 77.8774 16.4858C69.5906 17.0573 65.1362 25.8821 69.5738 32.9419C69.9604 33.5638 69.9604 33.9336 69.6074 34.5555C66.6826 39.531 63.3544 44.204 59.6228 48.6247C59.0849 49.2635 58.7319 49.398 57.9082 48.9609C53.8573 46.7589 49.0331 47.4145 45.7049 50.5074C42.343 53.6339 41.3177 58.3068 43.1667 62.5595C43.5197 63.3831 43.402 63.7361 42.7128 64.2404C36.1573 68.9973 29.0471 72.7122 21.6679 76.0067C10.9101 80.7973 4.10239 89.0001 1.05995 100.38C0.656531 101.91 0.67334 103.523 0.000976562 104.969V113.188C0.505249 113.995 0.421203 114.953 0.622912 115.827C1.04314 117.744 1.49698 119.677 2.23658 121.492C2.47191 122.064 2.47191 122.517 2.01807 123.005C0.975903 124.165 0.740576 125.762 0.000976562 127.073V131.325C0.471631 131.544 0.370776 132.048 0.505249 132.418C2.50553 138.385 8.69127 141.31 14.6249 139.024C15.1964 138.805 15.6166 138.789 16.1545 139.158C19.9534 141.713 24.0884 143.411 28.4924 144.386C29.3664 142.655 30.9129 141.293 33.1317 140.839C30.5599 140.587 28.0049 139.999 25.5003 139.024C22.5924 138.2 20.0038 136.755 17.6169 134.973C16.3226 133.998 15.1964 133.847 13.7508 134.704C10.9773 136.368 7.58187 135.629 5.61521 133.141C3.64855 130.653 3.76621 127.174 6.03544 124.871C7.17845 123.711 7.27931 122.618 6.67418 121.173C0.0177856 105.271 7.46421 86.7645 23.2984 79.9232C31.8374 76.2252 39.9057 71.7877 47.3017 66.1062C48.9994 64.7951 49.1339 63.9546 47.8564 62.1897C45.8225 59.3994 46.1419 55.8863 48.6296 53.6002C51.0501 51.3814 54.5801 51.3646 57.1518 53.5666C58.7823 54.9618 59.69 54.9282 61.1188 53.3481C66.2119 47.7171 70.5655 41.5649 74.2971 34.959C75.0367 33.6647 74.9527 32.6225 73.8937 31.5299C71.927 29.4792 71.5236 27.0755 72.6498 24.4701C73.7256 22.016 76.1293 20.5704 78.9532 20.7721C80.4156 20.873 81.3569 20.4359 82.0965 19.1584C83.1891 17.2758 84.5843 15.5949 86.0971 14.0317C87.1224 12.9727 91.6273 8.33339 90.7028 7.08952V7.07271Z" fill="#13BC79"/>
<path d="M0.017469 131.308C0.488123 131.527 0.387269 132.031 0.521741 132.401C2.52202 138.368 8.70776 141.293 14.6414 139.007C15.2129 138.788 15.6331 138.771 16.171 139.141C20.7935 142.234 25.8698 144.1 31.3664 144.907C31.6185 144.94 31.9547 144.839 32.0724 145.209C21.7516 145.209 11.4308 145.209 1.11006 145.226C0.286414 145.226 -0.0161492 145.125 0.000659885 144.184C0.0678962 139.898 0.034278 135.611 0.034278 131.325L0.017469 131.308Z" fill="#E5E5E5"/>
<path d="M0.017334 113.155C0.521606 113.962 0.437561 114.92 0.63927 115.794C1.0595 117.71 1.51334 119.643 2.25294 121.459C2.48827 122.03 2.48827 122.484 2.03442 122.971C0.99226 124.131 0.756933 125.728 0.017334 127.039V113.138V113.155Z" fill="#E5E5E5"/>
<path d="M138.591 24.2348C136.12 23.865 133.851 24.84 131.33 24.9072C129.682 24.9576 128.052 24.9408 126.421 25.2266C126.337 23.8819 121.849 24.5038 121.059 23.4112C119.899 21.7807 118.303 20.8394 116.319 20.7386C115.025 20.6713 114.184 20.1839 113.714 18.9904C110.419 19.5283 107.595 22.8061 107.478 26.1007C107.394 28.3363 107.629 30.4542 109.058 32.2528C109.73 33.0932 109.091 33.4294 108.637 33.8496C105.326 36.8921 102.687 40.422 100.855 44.5234C99.3588 47.8852 97.93 51.2807 96.2155 54.5416C95.5599 55.7855 94.8035 56.9957 94.0975 58.2228C92.6015 58.8111 89.9961 64.812 89.1725 65.955C85.1551 71.5692 80.6167 76.7296 75.5403 81.3857C69.4554 86.9663 62.7486 91.6897 55.4871 95.6734C51.8899 97.6569 48.0743 99.1529 44.3931 100.951C36.745 104.649 31.1307 110.348 27.6344 118.181C25.1467 123.728 24.676 129.51 24.945 135.444C24.9954 136.654 25.7686 142.571 25.9535 143.781C31.0299 145.781 35.8205 141.428 41.1657 140.587C46.2589 139.797 50.8478 137.578 55.4535 135.393C57.4706 134.435 57.9076 134.519 59.3364 136.166C60.5466 137.562 62.0594 138.335 63.8916 138.419C68.3965 138.604 71.5398 134.536 70.2959 130.132C69.758 128.266 69.9597 127.745 71.5566 126.72C72.397 126.182 73.2543 125.694 74.0611 125.14C75.3386 124.249 76.4984 124.282 77.591 125.425L80.9865 123.072C80.4654 121.206 80.6167 120.786 82.348 119.526C99.2075 107.305 113.294 92.4461 124.606 74.9646C125.329 73.8552 126.018 72.729 126.707 71.6028C127.934 69.6362 128.321 69.4849 130.506 70.09C133.179 70.8296 135.919 69.8547 137.499 67.6023C139.028 65.4003 139.028 62.4923 137.465 60.3071C137.146 59.8533 136.725 59.4331 136.305 59.0633C134.658 57.6009 134.574 57.2143 135.498 55.1636C136.877 52.1043 138.373 49.0955 139.364 45.9017C141.247 39.8841 141.499 33.8665 139.768 27.916L138.591 24.2348ZM97.2576 94.211C93.3747 98.1275 87.0545 98.3629 82.8523 94.7657C81.3899 93.5219 81.2554 92.7655 82.2303 91.1014C81.7261 89.4036 81.2554 87.7227 81.3226 85.8737C81.4739 82.1085 85.1719 78.4105 88.9371 78.2592C90.7861 78.192 92.467 78.6458 94.1648 79.1669C95.7784 78.2256 96.5349 78.3265 97.7283 79.688C101.409 83.8903 101.208 90.2273 97.2576 94.211Z" fill="#8ECF9E"/>
<path d="M140.205 24.6044C140.827 24.6044 141.432 24.5372 142.038 24.4531C142.374 24.3859 142.727 24.3186 143.063 24.2346C140.525 19.1414 133.398 14.8719 129.195 11.4261C118.908 3.03834 105.024 1.89532 93.4257 8.36682C91.6607 9.35855 91.1564 9.30813 89.7613 8.09787C88.6687 8.92152 87.5593 9.76197 86.4667 10.5856C87.3912 11.8295 87.1391 12.9389 86.1137 13.9979C84.5841 15.5611 83.2057 17.242 82.1132 19.1246C81.3736 20.4021 80.4323 20.8392 78.9699 20.7383C76.1459 20.5366 73.7422 21.9822 72.6665 24.4363C71.5234 27.0417 71.9437 29.4454 73.9103 31.4961C74.9693 32.6055 75.0533 33.6309 74.3137 34.9252C70.5821 41.5311 66.2286 47.7001 61.1354 53.3143C59.7235 54.8775 58.799 54.928 57.1685 53.5328C54.5967 51.3308 51.0668 51.3476 48.6463 53.5664C46.1585 55.8525 45.8392 59.3656 47.8731 62.1559C49.1506 63.9208 49.0329 64.7613 47.3184 66.0724C39.9224 71.737 31.854 76.1914 23.315 79.8894C7.48085 86.7307 0.0512438 105.238 6.70764 121.139C7.31276 122.584 7.21191 123.677 6.06889 124.837C3.79967 127.157 3.682 130.619 5.64867 133.107C7.61533 135.612 11.0276 136.334 13.7843 134.67C15.2298 133.796 16.3392 133.964 17.6503 134.939C20.0372 136.721 22.6258 138.167 25.5338 138.99C25.3489 137.78 25.0631 136.586 25.0127 135.376C24.727 129.443 25.2144 123.66 27.7022 118.113C31.1985 110.28 36.8127 104.582 44.4608 100.884C48.142 99.1022 51.9577 97.5894 55.5548 95.6059C62.7995 91.6222 69.5232 86.8988 75.608 81.3182C80.6676 76.6621 85.2228 71.5185 89.2402 65.8875C90.047 64.7445 92.7365 60.475 94.1653 58.1553C94.8712 56.9282 95.6277 55.7348 96.2832 54.4741C97.9977 51.2132 99.4265 47.8177 100.923 44.4559C102.738 40.3545 105.394 36.8246 108.705 33.7821C109.159 33.3619 109.798 33.0257 109.125 32.1853C107.68 30.4035 107.461 28.2688 107.545 26.0332C107.68 22.7386 110.504 19.4608 113.781 18.9229C114.924 19.797 114.403 20.5534 116.387 20.6711C120.118 20.8728 119.749 30.538 124.27 25.8819C126.203 25.5457 129.935 24.8901 131.397 24.8397C132.961 24.7893 138.693 24.6884 141.567 24.8733C141.886 24.5372 139.802 24.5372 140.256 24.5203L140.205 24.6044ZM43.4691 96.8498C41.015 100.75 36.4261 102.582 31.9213 101.489C27.6517 100.464 24.3235 96.6313 23.8865 92.2441C23.668 90.0757 24.3404 89.2185 26.4079 89.0168C27.0466 85.2347 30.8959 82.9487 33.6694 82.7638C38.7289 82.4108 41.7714 85.5541 42.6959 89.0336C43.0489 90.3783 42.7967 91.7567 42.8303 93.1182C44.3768 94.3284 44.5281 95.1857 43.4859 96.8498H43.4691Z" fill="#13BC79"/>
<path d="M93.4257 8.38377C105.024 1.91228 118.925 3.0721 129.195 11.443C133.717 15.1242 137.112 19.6627 138.945 25.2601C139.264 24.8735 140.273 25.2601 140.76 25.2601C141.382 25.2601 141.432 24.5541 142.038 24.4701C142.424 24.4028 142.794 24.3188 143.181 24.2347C135.885 3.27381 111.21 -6.57631 91.1565 4.76982C89.5092 5.69432 89.2907 6.23221 89.7613 8.11483C91.1565 9.34189 91.6439 9.37551 93.4257 8.38377Z" fill="#13BC79"/>
<path d="M141.113 53.1796C144.744 45.5651 146.223 37.6144 144.576 29.2435C144.458 28.6384 143.231 24.8395 143.08 24.2344C141.802 24.5201 139.819 24.8227 138.508 24.8227C138.357 24.8227 139.987 27.9156 139.836 27.8819C141.567 33.8492 141.315 39.85 139.432 45.8677C138.441 49.0614 136.945 52.087 135.566 55.1295C134.642 57.1802 134.726 57.5668 136.373 59.0292C136.793 59.399 137.197 59.8192 137.533 60.273C139.113 62.4582 139.113 65.3662 137.567 67.5682C135.987 69.8206 133.247 70.7955 130.574 70.0559C128.389 69.4508 127.985 69.6021 126.775 71.5687C126.069 72.6949 125.38 73.8212 124.674 74.9305C113.362 92.412 99.2755 107.271 82.416 119.491C80.6847 120.752 80.5334 121.172 81.0545 123.038C82.5673 124.248 83.0884 124.265 84.6684 123.105C102.604 110.146 117.48 94.3114 129.28 75.5861C129.784 74.7793 130.204 74.3759 131.347 74.4767C135.667 74.8633 139.13 73.1488 141.399 69.434C143.635 65.7864 143.736 61.8531 141.281 58.3568C139.97 56.5078 139.903 55.1295 141.012 53.3981C141.063 53.3141 141.097 53.23 141.13 53.146L141.113 53.1796Z" fill="#8ECF9E"/>
<path d="M82.2816 91.0676C81.7773 89.3699 81.3066 87.689 81.3739 85.84C81.5251 82.0747 85.2231 78.3767 88.9884 78.2254C90.8374 78.1582 92.5183 78.6121 94.216 79.1331C93.3924 80.3266 93.6109 81.3519 94.5354 82.4445C96.8214 85.134 96.6701 88.7479 94.2832 91.1348C91.8795 93.5385 88.2824 93.673 85.5929 91.3869C84.5004 90.4624 83.475 90.2271 82.2816 91.0676Z" fill="#00B179"/>
<path d="M26.3906 89.0338C27.0294 85.2517 30.8786 82.9657 33.6521 82.7808C38.7117 82.4278 41.7541 85.5711 42.6786 89.0506C43.0316 90.3953 42.7795 91.7737 42.8131 93.1352C41.3843 92.7654 40.5607 93.4882 39.8211 94.6312C38.2242 97.119 35.6692 98.0435 32.8453 97.3039C30.139 96.5979 28.2901 94.4463 28.1388 91.6392C28.0715 90.3449 27.5841 89.5044 26.3906 89.0338Z" fill="#00CD8D"/>
<path d="M116.185 35.4801C120.883 35.4801 124.691 31.6721 124.691 26.9747C124.691 22.2773 120.883 18.4693 116.185 18.4693C111.488 18.4693 107.68 22.2773 107.68 26.9747C107.68 31.6721 111.488 35.4801 116.185 35.4801Z" fill="#8ECF9E"/>
<path d="M90.8877 102.968C97.8224 102.968 103.444 96.1576 103.444 87.7561C103.444 79.3546 97.8224 72.5439 90.8877 72.5439C83.953 72.5439 78.3313 79.3546 78.3313 87.7561C78.3313 96.1576 83.953 102.968 90.8877 102.968Z" fill="#8ECF9E"/>
<path d="M34.6274 103.776C41.5621 103.776 47.1838 96.9648 47.1838 88.5633C47.1838 80.1619 41.5621 73.3511 34.6274 73.3511C27.6927 73.3511 22.071 80.1619 22.071 88.5633C22.071 96.9648 27.6927 103.776 34.6274 103.776Z" fill="#13BC79"/>
<path d="M71.5066 107.255C76.204 107.255 80.012 103.447 80.012 98.7494C80.012 94.052 76.204 90.244 71.5066 90.244C66.8092 90.244 63.0012 94.052 63.0012 98.7494C63.0012 103.447 66.8092 107.255 71.5066 107.255Z" fill="#13BC79"/>
<path d="M23.8364 104.767C28.5338 104.767 32.3418 100.959 32.3418 96.2616C32.3418 91.5642 28.5338 87.7562 23.8364 87.7562C19.139 87.7562 15.3311 91.5642 15.3311 96.2616C15.3311 100.959 19.139 104.767 23.8364 104.767Z" fill="#8ECF9E"/>
<path d="M89.6602 84.5458L91.2067 82.1757L93.7448 85.0837C86.7186 88.4455 80.0959 85.6048 74.9019 76.9145C75.4061 76.7296 75.8768 76.5951 76.3306 76.3598C76.8013 76.1245 77.2383 75.7883 77.2215 75.7883L79.5748 82.3774C81.6927 78.9652 82.9534 75.2336 87.0044 76.6623C90.1309 77.7717 90.03 80.8814 89.677 84.5458H89.6602Z" fill="black"/>
<path d="M109.26 68.7622C111.831 69.7876 113.932 71.5357 114.151 74.7126C114.201 75.4018 113.479 76.1582 113.109 76.881C112.521 76.3767 111.63 75.9901 111.378 75.3514C109.646 70.9138 107.595 70.275 103.259 72.8468C102.704 73.1662 101.88 73.0149 101.174 73.0821C101.225 72.2921 101.023 71.3172 101.393 70.7289C102.704 68.6446 106.217 67.8041 109.243 68.779L109.26 68.7622Z" fill="black"/>
<path d="M80.6003 58.7772C79.5413 62.1054 77.0031 64.1561 74.7171 63.551C72.3806 62.929 71.2881 59.584 72.347 56.2726C73.4396 52.8772 76.1291 50.8433 78.4823 51.6333C80.7516 52.3897 81.6593 55.449 80.5835 58.794L80.6003 58.7772Z" fill="black"/>
</svg>
