<svg width="224" height="375" viewBox="0 0 224 375" fill="none" xmlns="http://www.w3.org/2000/svg">
<path d="M58.0691 22.8565C52.0028 25.8013 53.0856 52.4369 53.0856 52.4369L99.6321 63.8396L162.602 67.2925L166.288 70.9711L172.165 37.93L89.3028 22.0285L58.0691 22.8565Z" fill="#FFDD93"/>
<path d="M53.7668 262.527C52.9627 256.975 53.1759 251.428 53.7282 245.883C54.5607 237.329 55.2658 228.795 56.8389 220.313C59.0188 208.566 62.254 197.078 65.9825 185.75C71.386 169.411 77.8347 153.435 83.5123 137.185C87.2019 126.644 88.8036 115.738 88.9599 104.58C89.0952 94.1538 88.0932 83.7935 86.8873 73.4637C86.5338 70.5768 86.4098 67.6557 85.9288 64.7879C85.8082 64.1555 85.6312 63.8438 84.9594 63.7101C73.9478 61.3766 62.9937 58.9044 51.7183 58.1192C49.7959 57.9904 48.7196 56.7205 49.0359 54.8261C50.9608 43.1176 52.3235 31.311 54.5951 19.6547C54.9624 17.7527 55.928 17.0619 57.9409 17.0991C83.3724 17.5363 108.395 21.3386 133.313 26.015C146.159 28.4124 158.927 31.1597 171.691 33.8815C172.743 34.1145 173.773 34.3767 174.803 34.6389C176.808 35.1456 177.464 36.2182 177.06 38.2296C175.563 45.4776 174.063 52.7001 172.566 59.9481C171.818 63.4939 171.101 67.0612 170.353 70.607C169.925 72.6222 168.887 73.3498 166.857 73.0289C154.609 71.1405 142.276 70.4353 129.937 69.6792C129.174 69.6372 128.8 69.9272 128.513 70.6205C122.074 86.3082 117.161 102.444 114.425 119.191C112.512 130.975 111.576 142.848 111.801 154.808C112.007 167.342 111.005 179.823 109.767 192.288C108.995 200.025 108.012 207.743 106.762 215.422C104.61 228.752 101.976 241.997 97.3416 254.761C94.8505 261.638 91.8802 268.273 87.0953 273.932C84.4605 277.058 81.3658 279.549 77.3517 280.774C73.687 281.895 70.1585 281.486 66.6575 280.214C58.7454 277.339 55.0758 271.28 53.914 263.337C53.8429 263.035 53.8048 262.781 53.7668 262.527ZM58.9763 261.8C59.1852 263.719 59.7001 265.594 60.3604 267.394C62.2751 272.701 68.4322 276.567 73.9272 276.005C77.673 275.601 80.4053 273.475 82.7951 270.803C86.4519 266.666 88.8204 261.759 90.878 256.69C94.8207 246.969 97.2951 236.844 99.3094 226.605C102.116 212.423 103.966 198.124 105.229 183.731C105.915 175.772 106.598 167.787 106.501 159.815C106.422 150.747 106.475 141.686 107.396 132.677C107.506 131.672 107.194 131.328 106.264 131.207C101.603 130.552 96.9431 129.896 92.3006 129.185C91.5269 129.067 91.2552 129.342 91.1029 130.067C90.6873 131.82 90.2423 133.551 89.6916 135.273C86.3053 145.925 82.1186 156.281 78.29 166.765C74.2213 177.91 70.2584 189.065 66.9569 200.459C62.9129 214.383 60.4456 228.566 59.267 242.999C58.7703 249.265 58.1422 255.525 58.9763 261.8ZM59.6657 22.3564C59.2984 22.5154 59.349 23.0281 59.2824 23.4543C57.4752 32.986 56.3066 42.6043 54.7658 52.1742C54.6288 53.0011 55.0048 53.075 55.6103 53.1145C62.0899 53.7324 68.4887 54.8567 74.8632 56.1667C82.5595 57.7733 90.2239 59.5148 97.9597 61.0375C108.945 63.1929 120.095 63.8407 131.264 64.4338C142.25 65.0281 153.222 65.7026 164.098 67.302C165.349 67.4791 165.855 67.1954 165.952 65.932C166.023 65.0109 166.302 64.0847 166.504 63.17C168.069 55.6777 169.582 48.1931 171.202 40.7187C171.428 39.6182 171.523 39.0317 170.209 38.786C160.56 36.847 150.921 34.8024 141.272 32.8635C116.29 27.9365 91.2182 23.8033 65.7708 22.562C63.8012 22.4664 61.8175 22.4508 59.6657 22.3564ZM123.291 69.3463C122.813 69.2877 122.441 69.2393 122.072 69.2164C115.229 68.7829 108.426 68.2654 101.673 67.0381C98.5918 66.4842 95.5543 65.8719 92.4837 65.2124C91.4321 64.9794 91.1463 65.3344 91.2909 66.3013C91.3214 66.5049 91.3301 66.7377 91.3606 66.9413C92.5627 75.5026 93.4333 84.1135 93.9432 92.7524C94.5451 102.704 94.363 112.643 92.6052 122.506C92.3761 123.763 92.8005 123.985 93.8954 124.16C98.3658 124.766 102.848 125.449 107.337 126.182C108.06 126.308 108.12 126.013 108.171 125.485C108.327 124.083 108.537 122.699 108.743 121.289C110.687 107.965 113.986 94.9841 118.42 82.2758C119.936 77.9388 121.539 73.6667 123.291 69.3463Z" fill="#F2897D"/>
<path d="M55.068 371.986C55.2484 372.844 55.1814 373.79 54.1907 373.964C53.2255 374.135 52.8411 373.308 52.657 372.425C52.4945 371.512 52.6494 370.631 53.5636 370.468C54.5287 370.298 54.9858 371.088 55.068 371.986Z" fill="#F2897D"/>
<path d="M74.2977 264.712C71.707 264.995 69.3771 264.407 67.4547 262.535C65.87 261.003 64.812 259.158 64.2628 257.055C63.8446 255.478 64.613 254.167 66.087 253.738C67.3099 253.373 68.704 254.153 69.2448 255.503C69.3338 255.75 69.4446 255.968 69.5336 256.215C71.1359 259.955 73.3524 260.482 76.5121 257.903C79.6068 255.411 81.0474 251.969 81.9757 248.24C83.2135 243.268 83.3129 238.181 83.8355 233.134C85.1031 220.691 87.0897 208.349 89.6893 196.097C90.2599 193.462 90.8049 190.831 91.3755 188.196C91.7618 186.422 93.0833 185.495 94.5988 185.867C96.1691 186.257 96.9394 187.572 96.5275 189.351C93.4297 202.978 90.9742 216.717 89.4021 230.61C88.7938 235.956 88.6343 241.339 87.7086 246.655C86.8392 251.649 85.2753 256.358 81.7589 260.214C79.7532 262.491 77.3311 264.076 74.2977 264.712Z" fill="#F2897D"/>
<path d="M100.811 164.828C100.77 167.514 100.423 170.427 99.544 173.264C99.1402 174.573 97.7221 175.202 96.4182 174.85C95.0888 174.503 94.2382 173.173 94.5503 171.774C95.0786 169.379 95.4794 167.004 95.5807 164.543C95.634 163.157 96.7834 162.126 98.1105 162.11C99.5256 162.158 100.603 163.09 100.811 164.828Z" fill="#F2897D"/>
<path d="M65.3101 28.1989C66.0279 28.1175 66.9889 28.4421 67.9309 28.6394C82.3115 31.5358 96.847 33.5504 111.411 35.4048C127.514 37.4451 143.629 39.5618 159.684 41.9736C160.272 42.0678 160.859 42.162 161.451 42.2817C163.119 42.6305 164.039 43.8978 163.72 45.4284C163.441 46.8749 162.12 47.8009 160.506 47.4699C155.077 46.3827 149.583 45.9036 144.141 45.0784C133.182 43.4396 122.187 42.092 111.21 40.6898C96.0591 38.7412 80.9397 36.6578 65.9639 33.6163C64.9964 33.4228 63.9894 33.3133 63.3386 32.448C62.107 30.8372 63.0152 28.5421 65.3101 28.1989Z" fill="#F2897D"/>
<path d="M63.8883 40.4815C68.4436 40.0865 72.7431 40.7702 77.0682 41.4502C95.0872 44.2707 113.024 47.4156 130.997 50.4511C140.36 52.0427 149.767 53.2373 159.176 54.6139C160.91 54.8749 161.883 55.9781 161.695 57.515C161.508 59.0519 160.299 59.8571 158.512 59.7602C153.544 59.4885 148.726 58.1278 143.793 57.5648C124.319 55.3001 105.164 50.9846 85.7703 48.2135C79.8544 47.3552 73.9796 46.0745 68.0009 45.6679C66.8956 45.599 65.7725 45.5849 64.676 45.7489C62.7419 46.0641 61.497 45.2357 61.2458 43.5563C60.9984 41.9023 62.0485 40.7307 63.8883 40.4815Z" fill="#F2897D"/>
</svg>
