<svg width="141" height="140" viewBox="0 0 141 140" fill="none" xmlns="http://www.w3.org/2000/svg">
<circle cx="70.6793" cy="70.2438" r="69.7565" fill="#FFDD93"/>
<mask id="mask0_342_5887" style="mask-type:alpha" maskUnits="userSpaceOnUse" x="0" y="0" width="141" height="141">
<circle cx="70.6793" cy="70.2438" r="69.7565" fill="#EEF0F2"/>
</mask>
<g mask="url(#mask0_342_5887)">
<path d="M68.1417 118.944C68.1417 118.944 67.8035 118.606 67.8035 118.549C67.733 118.267 67.3525 118.789 67.2398 118.521C67.0707 118.07 67.0707 117.831 67.0425 117.351C67.0143 116.985 65.8447 116.886 66.0843 116.619C66.1407 116.562 66.197 116.252 65.7602 116.379C64.0128 116.901 62.1668 117.831 60.504 118.577C55.727 120.733 50.8654 120.86 46.173 118.507C40.6914 115.759 35.1252 115.28 29.249 116.858C24.5143 118.126 19.9768 114.787 19.85 109.827C19.7513 105.994 18.3281 103.02 15.5943 100.413C11.9164 96.9046 13.3538 91.0425 18.159 89.3938C20.0754 88.7315 20.4277 87.9142 19.54 86.0964C17.3558 81.6294 20.2727 76.6974 25.247 76.4014C27.1071 76.2887 27.6708 75.5559 27.3185 73.6959C26.3603 68.6793 30.3623 64.7196 35.3507 65.7341C37.0839 66.0864 37.9435 65.4664 37.9999 63.7191C38.0421 62.4085 38.4085 61.2249 39.1272 60.1539C39.7754 59.1957 43.9183 54.94 43.1151 54.1086C41.6919 53.4886 36.9148 57.0397 36.0552 58.3502C35.5057 59.1816 35.0547 60.0694 34.8434 61.0417C34.6743 61.8026 34.3783 61.9999 33.5892 62.014C27.9667 62.169 23.6406 66.5233 23.5842 72.1176C23.5842 72.9067 23.2601 73.0758 22.6401 73.2731C17.243 74.8655 14.1852 80.1921 15.5802 85.6173C15.7775 86.3782 15.538 86.6178 14.9602 86.9701C12.7338 88.2947 11.2401 90.2393 10.4509 92.7053C10.3382 93.0576 10.4087 93.5086 10 93.734L10 97.7783C10.3946 97.891 10.3382 98.2856 10.4087 98.5533C10.9582 100.428 11.9305 102.02 13.3961 103.302C15.3266 104.993 16.2566 107.065 16.2566 109.672C16.2566 112.856 17.4403 115.618 19.8359 117.774C22.936 120.55 26.5435 121.339 30.5455 120.268C35.1534 119.042 39.6063 119.197 43.9042 121.438C45.412 122.227 46.9762 122.861 48.6531 123.228C53.9797 124.355 58.954 123.467 63.8297 121.072C64.4215 120.776 66.662 120.043 67.268 119.817C67.2539 119.733 68.1698 119.042 68.1698 118.958L68.1417 118.944Z" fill="#F6B62A"/>
<path d="M66.986 118.901C67.1128 119.24 67.2115 119.437 67.2537 119.803C70.4103 119.296 74.7364 119.606 77.9069 121.015C79.8516 121.875 81.7398 122.903 83.8677 123.27C89.9975 124.355 96.381 123.383 92.083 121.635C91.9985 120.494 85.9109 120.015 84.7554 119.817C83.4731 119.592 82.2331 119.155 81.0775 118.521C76.526 116.041 71.7349 114.998 65.8164 116.238C65.915 116.435 66.0982 116.802 66.2814 116.971C66.5351 117.21 66.7464 118.676 67.0001 118.901" fill="#FFC74D"/>
<path d="M123.972 89.5211C123.719 89.4225 123.451 89.3379 123.183 89.2534C121.718 88.732 121.224 87.7315 121.999 86.4069C124.48 82.1231 121.591 76.5005 116.208 76.3737C114.559 76.3314 114.024 75.4437 114.39 73.5695C114.954 70.6666 113.756 67.9188 111.276 66.4533C109.697 65.5232 108.007 65.3682 106.231 65.7487C104.667 66.0869 103.68 65.4246 103.695 63.8463C103.737 58.9707 98.3961 55.5323 93.7459 58.0688C92.3085 58.8579 91.3362 58.407 90.8148 56.871C89.0675 51.7981 83.8254 50.3889 79.7107 53.9118C78.4848 54.9546 77.4561 54.8137 76.5542 53.4609C73.6091 49.0784 66.7042 47.9933 63.8296 52.3899C63.1532 53.4186 63.1532 53.6581 62.5331 54.4614C62.6036 56.3778 62.2231 58.3365 63.0827 60.1966C63.3645 60.8026 62.7163 60.6335 62.4345 60.7321C59.1934 61.8172 57.0093 63.8886 56.2483 67.2988C55.7551 69.5393 56.2765 71.6108 57.4461 73.5413C57.6434 73.8795 57.8829 74.1895 58.1507 74.6123C56.3188 74.9787 54.6982 75.6128 53.3736 76.8528C48.7093 81.193 50.2735 88.9152 56.2906 91.0571C57.0374 91.3248 57.1502 91.5503 56.8542 92.2126C55.431 95.4537 55.8819 98.4833 58.0661 101.203C59.2498 102.683 60.8844 103.613 62.7727 103.937C63.6886 104.092 64.055 104.205 63.4491 105.219C61.744 108.122 62.1527 112.913 64.8864 115.266C65.2387 115.576 65.6474 115.886 65.8306 116.351C65.9996 116.281 66.1687 116.253 66.3378 116.239C66.4506 116.239 66.5633 116.267 66.676 116.295C71.6785 115.464 76.4978 116.056 81.0494 118.536C82.2049 119.156 83.445 119.592 84.7273 119.832C85.8828 120.043 86.4606 120.678 86.5592 121.819C87.7288 122.073 88.8843 122.073 90.0539 121.819C90.1525 120.678 90.7303 120.043 91.8858 119.846C93.2104 119.607 94.4786 119.142 95.6764 118.507C101.059 115.633 106.64 115.323 112.474 116.915C116.18 117.93 119.998 115.886 121.365 112.378C121.689 111.56 121.901 110.701 121.873 109.827C121.76 105.994 123.38 103.035 126.114 100.428C129.609 97.1024 128.397 91.3389 123.972 89.5493L123.972 89.5211ZM63.5477 69.5393C62.5331 69.5957 61.7017 68.8206 61.6735 67.8201C61.6454 66.8196 62.4768 66.0023 63.4773 66.0164C64.4496 66.0164 65.1964 66.7774 65.2105 67.7497C65.2246 68.7361 64.52 69.497 63.5477 69.5534L63.5477 69.5393ZM90.7162 66.0023C91.7167 66.0023 92.5199 66.8196 92.4917 67.8342C92.4636 68.8488 91.6321 69.5957 90.6176 69.5393C89.6593 69.4829 88.9125 68.6656 88.9407 67.7215C88.9688 66.7915 89.7862 66.0023 90.7162 66.0023ZM70.9176 58.7593C71.8758 58.8016 72.6227 59.5907 72.6227 60.5489C72.6227 61.493 71.8335 62.2963 70.9035 62.3244C69.9171 62.3526 69.0857 61.5212 69.0857 60.5348C69.0857 59.5343 69.9171 58.7311 70.9317 58.7734L70.9176 58.7593ZM80.9367 91.508C80.1616 92.2831 79.1611 92.6635 78.1466 92.9736C79.1048 94.0304 80.1475 95.0309 80.3448 96.5387C80.6267 98.6243 79.7389 100.217 78.1606 101.499C75.2719 103.852 70.2271 103.641 67.5779 101.048C65.0273 98.5538 65.3092 95.0873 68.212 93.0158C69.8607 91.8321 71.7349 91.4799 73.7077 91.5362C73.3554 91.0148 72.9468 90.5216 73.0313 89.8311C73.2145 88.4079 74.835 87.7597 75.9905 88.732C76.8924 89.4789 77.6674 89.6198 78.6116 88.8025C79.5557 87.9992 80.5421 88.0556 81.2326 88.8447C81.8949 89.6057 81.7822 90.6625 80.9508 91.4939L80.9367 91.508ZM86.2351 108.996C85.2769 109.01 84.4737 108.277 84.4173 107.333C84.375 106.361 85.1923 105.473 86.1787 105.459C87.1651 105.445 87.9965 106.276 87.9824 107.276C87.9824 108.249 87.2215 108.982 86.2351 108.996ZM95.2678 113.336C94.3377 113.336 93.5204 112.533 93.4922 111.603C93.464 110.63 94.3095 109.785 95.2959 109.799C96.2824 109.799 97.0151 110.532 97.0433 111.518C97.0715 112.547 96.2824 113.35 95.2678 113.336ZM97.917 93.5231C96.536 94.9746 94.8309 95.6932 92.8299 95.6932C90.8148 95.6932 89.1379 94.9323 87.7711 93.4808C87.0101 92.6776 86.996 91.6349 87.6865 90.9303C88.377 90.2116 89.3775 90.2116 90.2371 90.9303C92.224 92.579 93.5486 92.5931 95.465 90.9585C96.3387 90.2257 97.311 90.1975 98.0156 90.888C98.7484 91.6067 98.7343 92.6776 97.917 93.5372L97.917 93.5231ZM97.6351 77.8956C96.6769 77.8674 95.916 77.0924 95.916 76.1342C95.916 75.1337 96.7333 74.3445 97.7479 74.3727C98.7625 74.4009 99.5093 75.2182 99.4389 76.2469C99.3825 77.2192 98.5934 77.9238 97.621 77.8956L97.6351 77.8956ZM108.007 70.8076C108.979 70.8498 109.683 71.6249 109.669 72.5972C109.655 73.5695 108.908 74.3163 107.936 74.3304C106.921 74.3304 106.118 73.5272 106.132 72.5267C106.146 71.5262 106.992 70.7512 108.007 70.7935L108.007 70.8076ZM117.885 101.273C114.925 103.993 109.049 103.584 106.499 100.484C104.85 98.4833 104.92 95.8341 106.682 93.9036C106.978 93.5795 107.274 93.2695 107.57 92.9454C106.541 92.6494 105.54 92.2831 104.765 91.4939C103.934 90.6625 103.807 89.6057 104.47 88.8447C105.146 88.0697 106.161 88.0133 107.105 88.8025C107.88 89.4648 108.655 89.6198 109.43 88.9152C110.275 88.1542 111.149 87.9288 112.079 88.7038C112.91 89.4084 112.854 90.2821 111.966 91.5362C114.08 91.4376 116.081 91.804 117.744 93.199C120.576 95.5805 120.604 98.7652 117.885 101.259L117.885 101.273Z" fill="#FFC74D"/>
<path d="M65.8448 116.337C65.6616 115.872 65.2671 115.562 64.9007 115.252C62.1669 112.884 61.7583 108.107 63.4634 105.204C64.0552 104.19 63.7029 104.077 62.787 103.922C60.8987 103.598 59.2641 102.668 58.0804 101.188C55.8962 98.4687 55.4453 95.4249 56.8685 92.198C57.1644 91.5357 57.0376 91.3102 56.3049 91.0425C50.2878 88.9006 48.7236 81.1925 53.3879 76.8382C54.7125 75.6123 56.333 74.9641 58.1649 74.5977C57.8831 74.1749 57.6577 73.8508 57.4604 73.5267C56.2908 71.5962 55.7694 69.5247 56.2626 67.2842C57.0235 63.8881 59.2077 61.8026 62.4488 60.7175C62.7165 60.633 63.3647 60.788 63.097 60.182C62.2515 58.322 62.6179 56.3632 62.5474 54.4468C60.9833 52.784 59.1091 51.7835 56.7699 52.009C53.8388 52.2908 51.8942 53.8972 50.9219 56.6592C50.2737 58.5193 49.4846 58.8574 47.709 57.9556C46.6944 57.4483 45.6376 57.1524 44.5102 57.2087C43.3829 57.2651 42.5938 56.8846 42.1429 55.8419C40.8605 55.9687 39.9587 56.8846 38.9018 57.4483C39.705 58.2797 39.7473 59.1675 39.0991 60.1257C38.3804 61.1966 38.014 62.3944 37.9718 63.6908C37.9154 65.4382 37.0699 66.0582 35.3226 65.7059C30.3342 64.6913 26.3463 68.6511 27.2904 73.6676C27.6427 75.5277 27.079 76.2746 25.2189 76.3732C20.2446 76.6691 17.3277 81.6152 19.5119 86.0682C20.3996 87.886 20.0614 88.7033 18.1309 89.3656C13.3257 91.0143 11.8883 96.8764 15.5662 100.385C18.3 102.992 19.7232 105.979 19.8219 109.798C19.9487 114.759 24.5003 118.098 29.2209 116.83C35.0971 115.252 40.6633 115.731 46.1449 118.479C50.8373 120.832 55.6989 120.691 60.476 118.549C62.1388 117.802 63.7875 117.013 65.5348 116.492C65.6194 116.421 65.7039 116.351 65.8167 116.309L65.8448 116.337ZM28.6573 95.6786C27.699 95.6786 26.9099 94.9458 26.8676 93.9876C26.8254 93.0012 27.6568 92.1275 28.6291 92.1275C29.6014 92.1275 30.4469 92.973 30.4187 93.9594C30.3905 94.9176 29.6155 95.6645 28.6573 95.6786ZM33.0961 80.0229C32.0815 80.0088 31.3206 79.1774 31.3628 78.1628C31.4051 77.2046 32.1802 76.4718 33.1525 76.4859C34.0966 76.5 34.8998 77.2892 34.9139 78.2192C34.928 79.1915 34.0825 80.037 33.0961 80.0229ZM36.1258 107.234C35.1816 107.191 34.4348 106.402 34.4348 105.444C34.4348 104.415 35.238 103.64 36.2526 103.683C37.1967 103.711 37.9859 104.514 37.9859 105.458C37.9859 106.43 37.0981 107.276 36.1258 107.234ZM41.3256 80.5725C41.3256 79.6143 42.0724 78.811 43.0165 78.7688C43.9748 78.7265 44.8766 79.572 44.8766 80.5443C44.8766 81.4884 44.1157 82.2776 43.1575 82.3198C42.1288 82.3621 41.3256 81.6012 41.3256 80.5725ZM44.6371 110.799C43.6648 110.799 42.8052 109.939 42.8334 108.967C42.8615 108.023 43.6507 107.248 44.6089 107.234C45.6235 107.234 46.4126 108.023 46.3985 109.037C46.3844 109.996 45.5953 110.771 44.6512 110.785L44.6371 110.799ZM45.2994 74.3158C44.3411 74.2736 43.5943 73.4704 43.6084 72.5121C43.6225 71.5116 44.4539 70.7366 45.4685 70.7789C46.4831 70.8211 47.2158 71.6666 47.1313 72.6953C47.0608 73.6676 46.2576 74.3581 45.2853 74.3158L45.2994 74.3158ZM50.5696 103.668C49.6396 103.64 48.8363 102.823 48.8223 101.893C48.8223 100.907 49.6396 100.089 50.6542 100.117C51.6265 100.132 52.3592 100.892 52.3733 101.865C52.3733 102.865 51.556 103.697 50.5696 103.668Z" fill="#F6B62A"/>
<path d="M62.1387 49.9091C57.7563 47.9222 51.7673 48.6409 49.0477 52.6288C48.2304 53.8266 47.5681 54.3057 46.1871 53.7843C45.6516 53.587 45.0175 53.6293 44.4257 53.6293C42.7629 53.6575 42.2978 54.1366 42.1428 55.8417C42.5938 56.8845 43.3829 57.2649 44.5102 57.2086C45.6234 57.1522 46.6944 57.4481 47.709 57.9554C49.4845 58.8573 50.2736 58.505 50.9219 56.659C51.8942 53.897 53.8388 52.2906 56.7698 52.0088C59.109 51.7833 60.9832 52.7838 62.5474 54.4466C62.646 54.4748 62.7165 54.4748 62.8151 54.4889C62.3642 54.2493 62.7165 53.7561 62.7165 53.2488C62.7165 52.5443 62.6038 52.2624 62.5192 51.5719C62.4487 51.1492 62.7447 50.7828 62.4206 50.4869" fill="#F6B62A"/>
<path d="M62.5335 54.4469C65.4222 50.0645 73.6235 49.0781 76.5686 53.4605C77.4705 54.8133 78.4992 54.9542 79.7251 53.9115C83.8258 50.4027 89.0819 51.7977 90.8293 56.8707C91.3507 58.4067 92.323 58.8576 93.7603 58.0685C98.4105 55.532 103.751 58.9703 103.709 63.846C103.709 65.4243 104.681 66.0866 106.245 65.7484C108.021 65.3679 109.712 65.5229 111.29 66.4529C113.77 67.9185 114.968 70.6663 114.404 73.5692C114.038 75.4433 114.574 76.3311 116.222 76.3734C121.605 76.5002 124.494 82.1227 122.014 86.4065C121.239 87.7311 121.732 88.7316 123.198 89.253C123.451 89.3517 123.719 89.4221 123.987 89.5208C128.425 91.3104 129.637 97.0597 126.129 100.399C123.395 103.006 121.774 105.966 121.887 109.798C121.915 110.658 121.704 111.518 121.38 112.349C120.013 115.858 116.18 117.901 112.488 116.887C106.668 115.294 101.074 115.618 95.6909 118.479C94.4931 119.113 93.2248 119.578 91.9002 119.818C90.7447 120.029 90.167 120.663 90.0683 121.79C90.6743 123.312 91.1957 123.58 92.788 123.27C94.5917 122.918 96.2686 122.227 97.8891 121.396C102.159 119.198 106.584 119.014 111.149 120.254C118.561 122.27 125.382 117.14 125.48 109.446C125.509 106.98 126.439 105.036 128.228 103.401C133.484 98.5816 132.737 90.6199 126.678 86.9138C126.1 86.5616 125.988 86.2938 126.143 85.6315C127.524 80.1217 124.452 74.8233 118.97 73.2451C118.322 73.0619 118.139 72.8082 118.139 72.1318C118.054 66.5234 113.77 62.1691 108.134 62.0141C107.359 61.9859 107.091 61.7886 106.865 61.0418C105.259 55.6447 99.9888 52.6432 94.5072 54.0242C93.7321 54.2215 93.5067 53.9256 93.1685 53.3619C90.2797 48.599 84.3049 46.9925 79.4856 49.684C78.8233 50.0504 78.4851 50.0504 77.9214 49.5008C74.1026 45.7807 66.0705 46.457 62.1389 49.9095C62.6603 51.1918 62.5335 53.0801 62.5335 54.4469Z" fill="#FFC74D"/>
<path d="M72.6087 60.5341C72.6087 61.4782 71.8196 62.2814 70.8896 62.3096C69.9032 62.3378 69.0718 61.5064 69.0718 60.52C69.0718 59.5195 69.9032 58.7163 70.9178 58.7586C71.876 58.8008 72.6228 59.5899 72.6228 60.5482L72.6087 60.5341Z" fill="#060805"/>
<path d="M92.4921 67.8337C92.4639 68.8483 91.6325 69.5951 90.6179 69.5388C89.6596 69.4824 88.9128 68.6651 88.941 67.7209C88.9691 66.7909 89.7865 66.0018 90.7165 65.9877C91.717 65.9877 92.5202 66.805 92.4921 67.8196L92.4921 67.8337Z" fill="#060805"/>
<path d="M109.684 72.5828C109.67 73.5552 108.923 74.302 107.951 74.3161C106.936 74.3161 106.133 73.5129 106.147 72.5124C106.161 71.5119 107.007 70.7368 108.021 70.7791C108.993 70.8214 109.698 71.5964 109.684 72.5687L109.684 72.5828Z" fill="#060805"/>
<path d="M97.7481 74.3588C98.7627 74.3869 99.5096 75.2043 99.4391 76.233C99.3827 77.2053 98.5936 77.9099 97.6213 77.8817C96.663 77.8535 95.9021 77.0785 95.9021 76.1202C95.9021 75.1197 96.7194 74.3306 97.734 74.3588L97.7481 74.3588Z" fill="#060805"/>
<path d="M65.2108 67.7496C65.2249 68.7361 64.5203 69.497 63.548 69.5534C62.5334 69.6097 61.702 68.8347 61.6738 67.8342C61.6456 66.8337 62.477 66.0164 63.4775 66.0305C64.4498 66.0305 65.1967 66.7914 65.2108 67.7637L65.2108 67.7496Z" fill="#060805"/>
<path d="M97.0298 111.504C97.0579 112.532 96.2688 113.335 95.2542 113.321C94.3242 113.321 93.5069 112.518 93.4787 111.588C93.4505 110.616 94.296 109.77 95.2824 109.784C96.2688 109.784 97.0016 110.517 97.0298 111.504Z" fill="#060805"/>
<path d="M28.6571 95.6789C27.6989 95.6789 26.9098 94.9461 26.8675 93.9879C26.8252 93.0015 27.6566 92.1278 28.629 92.1278C29.6013 92.1278 30.4468 92.9733 30.4186 93.9597C30.3904 94.9179 29.6154 95.6648 28.6571 95.6789Z" fill="#060805"/>
<path d="M52.3731 101.865C52.3731 102.865 51.5558 103.696 50.5694 103.668C49.6393 103.64 48.8361 102.823 48.822 101.893C48.822 100.906 49.6393 100.089 50.6539 100.117C51.6263 100.131 52.359 100.892 52.3731 101.865Z" fill="#060805"/>
<path d="M33.1521 76.4859C34.0963 76.5 34.8995 77.2891 34.9136 78.2192C34.9277 79.1915 34.0822 80.037 33.0958 80.0229C32.0812 80.0088 31.3202 79.1774 31.3625 78.1628C31.4048 77.2046 32.1798 76.4718 33.1521 76.4859Z" fill="#040403"/>
<path d="M37.972 105.458C37.972 106.431 37.0842 107.276 36.1119 107.234C35.1677 107.192 34.4209 106.402 34.4209 105.444C34.4209 104.416 35.2241 103.641 36.2387 103.683C37.1828 103.711 37.972 104.514 37.972 105.458Z" fill="#060805"/>
<path d="M44.6369 110.799C43.6646 110.799 42.805 109.939 42.8332 108.967C42.8614 108.023 43.6505 107.248 44.6087 107.234C45.6233 107.234 46.4124 108.023 46.3983 109.038C46.3842 109.996 45.5951 110.771 44.651 110.785L44.6369 110.799Z" fill="#060805"/>
<path d="M45.2996 74.3158C44.3414 74.2735 43.5945 73.4703 43.6086 72.5262C43.6227 71.5257 44.4541 70.7506 45.4687 70.7929C46.4833 70.8352 47.216 71.6807 47.1315 72.7094C47.061 73.6817 46.2578 74.3722 45.2855 74.3299L45.2996 74.3158Z" fill="#060805"/>
<path d="M44.8765 80.544C44.8765 81.4882 44.1155 82.2773 43.1573 82.3196C42.1286 82.3619 41.3254 81.6009 41.3254 80.5722C41.3254 79.614 42.0723 78.8108 43.0164 78.7685C43.9746 78.7262 44.8765 79.5717 44.8765 80.544Z" fill="#060805"/>
<path d="M92.0695 108.742C109.059 108.742 122.831 102.502 122.831 94.8052C122.831 87.1083 109.059 80.8687 92.0695 80.8687C75.0802 80.8687 61.3076 87.1083 61.3076 94.8052C61.3076 102.502 75.0802 108.742 92.0695 108.742Z" fill="#FFC74D"/>
<path d="M86.2212 109.023C85.263 109.037 84.4598 108.304 84.4034 107.36C84.3612 106.388 85.1785 105.5 86.1649 105.486C87.1513 105.472 87.9827 106.303 87.9686 107.304C87.9686 108.276 87.2076 109.009 86.2212 109.023Z" fill="#060805"/>
<path d="M82.7539 94.5374C81.8662 94.5656 80.9643 94.7065 80.1047 94.5938C79.6256 94.5374 79.0479 94.1428 78.7942 93.7201C78.6674 93.5087 79.1606 92.5787 79.4143 92.5646C80.9502 92.48 82.7962 92.0432 83.9094 92.7337C84.7408 93.2551 84.7831 95.2984 84.8958 96.6793C84.9945 97.9335 84.8818 99.2863 84.5154 100.484C84.0222 102.119 83.6135 104.204 82.4298 105.05C81.4152 105.768 79.3156 105.163 77.7656 104.796C77.3428 104.697 77.216 103.373 76.9482 102.612C77.6528 102.682 78.3574 102.809 79.062 102.795C80.0202 102.767 80.9643 102.626 81.9225 102.541C81.7112 101.541 81.8521 99.9909 81.2602 99.6245C77.7374 97.4685 79.0902 96.7357 82.0494 96.2002C82.3735 96.1438 82.6271 95.6929 82.9089 95.4111L82.768 94.5092L82.7539 94.5374Z" fill="black"/>
<path d="M66.9437 84.3631C66.9719 87.4069 65.4359 89.7884 63.3645 89.9011C61.2649 90.0139 59.4611 87.5337 59.433 84.5182C59.4189 81.418 61.0817 78.9943 63.2518 79.0084C65.3373 79.0084 66.9156 81.3053 66.9296 84.3631L66.9437 84.3631Z" fill="black"/>
<path d="M102.539 84.3631C102.567 87.4069 101.031 89.7884 98.9597 89.9011C96.8601 90.0139 95.0563 87.5337 95.0282 84.5182C95.0141 81.418 96.6769 78.9943 98.847 79.0084C100.933 79.0084 102.511 81.3053 102.525 84.3631L102.539 84.3631Z" fill="black"/>
</g>
</svg>
