<svg width="140" height="140" viewBox="0 0 140 140" fill="none" xmlns="http://www.w3.org/2000/svg">
<circle cx="69.9874" cy="69.7565" r="69.7565" fill="#FFDD93"/>
<mask id="mask0_342_5705" style="mask-type:alpha" maskUnits="userSpaceOnUse" x="0" y="0" width="140" height="140">
<circle cx="69.9874" cy="69.7565" r="69.7565" fill="#EEF0F2"/>
</mask>
<g mask="url(#mask0_342_5705)">
<path d="M84.8024 37.6649C86.4095 35.5685 87.904 33.388 89.8677 31.5724C94.7866 27.048 100.434 25.8805 106.78 27.7831C107.012 27.8471 107.233 28.0842 107.51 27.8872L109.317 28.9457C110.234 30.1118 111.001 31.3167 111.049 32.8907C111.131 36.4618 108.172 39.0245 104.586 38.362C100.047 37.518 96.2737 38.831 93.2009 42.2618C89.7514 45.8136 87.7284 50.1831 86.0132 54.7329C85.6799 55.4545 85.0666 56.1018 85.69 56.9704C87.3286 59.2966 89.0143 61.5426 92.2221 61.7142C92.3818 61.7179 92.5166 61.8867 92.6638 61.973C92.2885 63.0115 91.3563 63.436 90.5075 63.9634C89.9561 63.892 89.5481 63.5451 89.1457 63.2195C87.3621 61.815 85.3667 60.7718 83.2771 59.8891C81.8193 59.1248 80.3223 58.4275 78.9037 57.5964C75.3572 55.5186 72.2636 52.6994 68.4291 51.0821C68.4158 50.553 68.3599 50.0349 68.408 49.5238C68.4708 48.8954 68.4713 48.1587 69.4183 48.1383C71.2896 49.2705 73.0228 50.6995 75.3991 50.7255C76.0802 50.7291 76.7688 50.9347 77.4204 51.1727C78.2081 51.4544 78.5483 51.1504 78.6872 50.4228C80.4144 46.0059 82.4038 41.7245 84.7835 37.6359L84.8024 37.6649Z" fill="#13BC79"/>
<path d="M68.4591 51.1161C72.2934 52.7334 75.3869 55.5526 78.9332 57.6303C80.3517 58.4614 81.8487 59.1587 83.3064 59.9229C83.5745 60.3856 83.9635 60.7034 84.3424 61.0692C88.0616 64.7224 90.0522 68.9627 88.944 74.3176C87.8967 79.3846 85.8878 84.068 83.4326 88.5618C80.8911 93.2028 78.1945 97.7709 75.0241 102.043C73.3207 104.335 71.7221 106.724 69.9407 108.934C66.4251 113.274 62.837 117.554 58.7708 121.391C53.6428 126.243 48.1885 130.669 41.6868 133.601C38.2465 135.145 34.7112 136.237 30.8902 136.192C30.1053 136.181 29.2802 135.626 28.5206 136.277C26.475 134.216 25.3528 131.653 24.5403 128.93C24.3996 128.434 24.3941 127.891 23.9751 127.502C24.0633 125.972 23.612 124.503 23.5036 123.001C22.9811 115.307 24.3474 107.856 26.4571 100.517C27.9008 95.4488 29.6993 90.4804 31.7757 85.6208C33.9092 80.6329 36.1153 75.7055 38.8746 71.0303C39.9573 69.1839 41.0321 67.3508 42.1148 65.5044C44.3554 61.6219 47.0865 58.0987 50.1932 54.8854C53.1052 51.8816 56.4209 49.5998 60.8561 49.6097C63.498 49.6116 66.0032 50.3064 68.4702 51.1586L68.4591 51.1161Z" fill="#EC776A"/>
<path d="M68.4477 51.1182C65.9808 50.2661 63.4756 49.5713 60.8337 49.5694C56.412 49.5674 53.0829 51.8415 50.171 54.8453C47.0644 58.0586 44.3333 61.5818 42.0928 65.4644C41.0102 67.3108 39.9354 69.1439 38.8527 70.9904C36.1069 75.6734 33.9009 80.6009 31.7541 85.581C29.6778 90.4406 27.8793 95.4091 26.4357 100.478C24.3395 107.824 22.96 115.267 23.4825 122.962C23.5831 124.477 24.0343 125.946 23.954 127.463C19.381 125.143 15.191 122.293 11.6596 118.534C7.84302 114.464 7.06101 109.512 7.26792 104.222C7.64802 94.7731 9.60308 85.582 12.0113 76.4766C14.0581 68.7235 16.5267 61.1096 19.6681 53.7281C21.8039 48.7056 24.0413 43.7246 28.4372 40.1521C29.3053 39.4383 30.1733 38.7245 31.0413 38.0106C31.3883 38.124 31.6122 37.8956 31.8793 37.7466C34.3667 36.4175 37.0224 35.6904 39.8456 35.475C46.8054 34.9506 52.987 37.4399 58.9932 40.4735C62.887 42.4492 66.2408 45.2231 69.4367 48.1742C68.4977 48.1813 68.4972 48.9181 68.4266 49.5598C68.3785 50.071 68.4344 50.5891 68.4477 51.1182Z" fill="#F2897D"/>
<path d="M90.5274 63.9645C91.3627 63.4291 92.3082 63.0124 92.6834 61.9738C95.6666 62.5892 98.4399 63.7466 101.024 65.3502C102.898 67.0596 104.922 68.6051 106.647 70.4783C110.354 74.5199 113.066 79.0931 113.233 84.7274C113.397 90.0905 111.775 94.9109 108.534 99.3039C105.209 103.81 101.584 108.031 97.7004 112.048C92.7327 117.209 87.5446 122.133 82.0043 126.707C75.8679 131.776 69.6289 136.714 62.5152 140.383C59.4903 141.955 56.322 142.759 52.8427 142.285C50.3144 141.936 48.0367 140.853 45.6408 140.186C45.3284 140.075 45.2006 139.803 45.0437 139.549C45.5541 138.985 46.321 139.057 46.9647 138.787C52.565 136.441 57.5464 133.158 62.1273 129.208C66.9666 125.033 71.2766 120.349 75.3582 115.442C78.6383 111.504 81.6853 107.411 84.5205 103.157C86.3991 100.321 88.1809 97.3743 89.8343 94.3702C91.9686 90.5153 93.8094 86.5783 95.2542 82.4273C97.4416 76.2127 96.9503 70.5498 92.0322 65.691C91.4974 65.1619 90.7591 64.7653 90.514 63.9566L90.5274 63.9645Z" fill="#F2897D"/>
<path d="M90.5211 63.9655C90.7661 64.7741 91.4911 65.1629 92.0393 65.6998C96.9652 70.5452 97.4354 76.2136 95.2615 82.4361C93.8033 86.5793 91.968 90.5375 89.8417 94.379C88.1749 97.3753 86.4066 100.33 84.5281 103.166C81.7007 107.406 78.6459 111.513 75.3659 115.451C71.2766 120.372 66.9744 125.042 62.1352 129.218C57.5544 133.167 52.5731 136.451 46.9729 138.796C46.337 139.053 45.5756 139.002 45.0519 139.558C44.1253 139.483 43.2702 139.899 42.3833 140.062C37.606 140.912 33.1161 140.475 29.3013 137.108C29.006 136.845 28.761 136.557 28.4947 136.275C29.2598 135.645 30.0793 136.179 30.8643 136.19C34.685 136.235 38.2202 135.142 41.6603 133.598C48.175 130.674 53.6077 126.253 58.7432 121.388C62.809 117.55 66.4046 113.257 69.9121 108.93C71.7067 106.728 73.3052 104.339 74.995 102.039C78.1652 97.7667 80.8615 93.1984 83.4027 88.5573C85.8498 84.0767 87.8663 79.3798 88.9134 74.3127C90.0213 68.9577 88.0307 64.7175 84.3114 61.0644C83.9326 60.6986 83.5436 60.3808 83.2755 59.9182C85.3649 60.8008 87.3468 61.8361 89.1437 63.2483C89.5539 63.5606 89.954 63.9208 90.5054 63.9922L90.5211 63.9655Z" fill="#E36051"/>
<path d="M45.6543 140.193C48.0636 140.868 50.3413 141.95 52.8563 142.291C56.3357 142.766 59.4907 141.954 62.529 140.39C69.6374 136.699 75.8821 131.783 82.0187 126.714C87.5379 122.146 92.7475 117.216 97.7153 112.055C101.585 108.031 105.224 103.817 108.549 99.3119C111.79 94.9189 113.404 90.112 113.248 84.7355C113.082 79.1012 110.375 74.5492 106.663 70.4864C104.938 68.6132 102.914 67.0676 101.039 65.3582C101.318 65.2516 101.54 65.3637 101.775 65.4836C104.624 67.0632 107.274 68.9214 109.791 71.0072C115.643 75.8378 119.865 81.547 120.1 89.4866C120.101 89.6675 120.305 89.8409 120.411 90.0286C120.17 90.6243 120.016 91.2536 119.951 91.9165C119.465 96.9166 117.188 101.137 114.117 104.965C102.751 119.105 89.5703 131.282 74.4711 141.365C72.8116 142.478 71.0064 143.38 69.2657 144.355C65.0488 146.702 60.6345 146.903 56.1233 145.428C52.3809 144.206 48.9066 142.404 45.641 140.185L45.6543 140.193Z" fill="#E36051"/>
<path d="M120.406 90.0246C120.293 89.8503 120.096 89.6635 120.095 89.4826C119.846 81.5359 115.637 75.8351 109.783 71.0049C107.258 68.9328 104.615 67.0613 101.765 65.4818C101.537 65.3486 101.294 65.2421 101.029 65.3565C98.4448 63.753 95.6629 62.609 92.6867 61.9804C92.5394 61.8941 92.3968 61.7387 92.2449 61.7216C89.0365 61.5501 87.3504 59.3044 85.7114 56.9784C85.0957 56.0965 85.7091 55.4492 86.0346 54.741C88.0263 55.1166 90.0314 55.5001 92.0309 55.8623C95.0889 56.413 98.1547 56.9504 101.234 57.4955C103.657 58.1778 106.134 58.6761 108.475 59.5613C117.117 62.8253 122.136 69.1082 123.522 78.2426C124.069 81.8166 122.662 84.9827 121.324 88.1534C121.059 88.7891 120.732 89.4069 120.419 90.0324L120.406 90.0246Z" fill="#EC776A"/>
<path d="M69.4348 48.1714C66.238 45.2205 62.8912 42.4335 58.9886 40.4714C52.9807 37.438 46.8053 34.9356 39.8359 35.4733C37.012 35.6888 34.3555 36.4158 31.8676 37.7447C31.6082 37.8804 31.3764 38.1222 31.0293 38.0087C32.1455 36.2898 33.4278 34.6861 34.7692 33.135C38.3041 29.0399 43.0257 27.7968 48.1469 27.6506C55.7902 27.4357 61.8253 30.7906 66.7866 36.3746C67.4785 37.1573 68.223 37.881 68.9518 38.6314C72.2068 42.5869 75.4562 46.5212 78.7111 50.4767C78.5721 51.2042 78.2319 51.5082 77.444 51.2265C76.8057 50.9964 76.0958 50.7964 75.4223 50.7794C73.0457 50.7535 71.312 49.3247 69.4403 48.1926L69.4348 48.1714Z" fill="#EC776A"/>
<path d="M101.193 57.4934C98.1277 56.9559 95.0623 56.4184 91.9913 55.8597C89.992 55.4974 88.0005 55.1217 85.9957 54.7381C87.6977 50.1806 89.7342 45.8191 93.1839 42.2674C97.3037 45.7595 99.8446 50.196 101.018 55.4313C101.16 56.108 101.295 56.7981 101.193 57.4934Z" fill="#F2897D"/>
<path d="M78.6958 50.4673C75.4414 46.5115 72.1926 42.5769 68.9382 38.6211C72.6592 36.6305 76.6707 36.5359 80.7183 36.8398C82.095 36.9453 83.468 37.2104 84.7791 37.6729C82.3914 41.7747 80.4019 46.056 78.6824 50.4595L78.6958 50.4673Z" fill="#F2897D"/>
<path d="M65.3702 85.1139C64.6973 84.8815 63.9987 84.7238 63.3886 84.3844C63.0541 84.1884 62.7435 83.7368 62.6785 83.3571C62.642 83.174 63.2909 82.6193 63.4672 82.6867C64.6231 83.0763 66.1312 83.2947 66.7357 84.1343C67.1944 84.7625 66.6272 86.2818 66.2999 87.3304C66.0064 88.291 65.5185 89.2456 64.896 90.0313C64.0607 91.0879 63.1386 92.5071 62.0079 92.7795C61.0471 93.0075 59.6715 91.9499 58.6346 91.2346C58.3559 91.0353 58.6462 90.0189 58.661 89.3805C59.1585 89.636 59.6379 89.9528 60.1612 90.1336C60.8742 90.3895 61.613 90.5707 62.3495 90.7865C62.4931 89.9897 63.0405 88.8723 62.7087 88.4262C60.7425 85.8002 61.9543 85.6653 64.287 86.1331C64.5404 86.1917 64.857 85.9278 65.1431 85.8078L65.3009 85.1093L65.3702 85.1139Z" fill="black"/>
<path d="M44.8992 64.7871C45.8592 66.5537 46.3281 68.6978 47.602 69.4079C48.8626 70.1103 50.9337 69.4 52.8114 69.2954C52.7056 71.1928 51.1713 71.5704 49.7344 71.8432C47.5511 72.2542 45.067 70.8172 44.3189 68.6893C43.8338 67.3087 43.3792 65.7842 44.9126 64.7949L44.8992 64.7871Z" fill="black"/>
<path d="M85.2472 88.1078C85.5167 90.5305 83.9178 90.8343 82.6226 91.1722C80.534 91.7284 78.1007 90.5728 77.12 88.5962C76.3594 87.0722 75.9307 85.473 77.9829 83.6911C78.2204 88.9891 80.4173 90.9769 85.2472 88.1078Z" fill="black"/>
</g>
</svg>
