<svg width="141" height="140" viewBox="0 0 141 140" fill="none" xmlns="http://www.w3.org/2000/svg">
<circle cx="70.6793" cy="69.7565" r="69.7565" fill="#FFDD93"/>
<mask id="mask0_342_5774" style="mask-type:alpha" maskUnits="userSpaceOnUse" x="0" y="0" width="141" height="140">
<circle cx="70.6793" cy="69.7565" r="69.7565" fill="#EEF0F2"/>
</mask>
<g mask="url(#mask0_342_5774)">
<path d="M25.1077 88.684C25.1289 88.1431 25.3265 87.639 25.5114 87.1331C27.5587 81.1822 30.7127 75.8597 34.7312 71.0425C37.7442 67.4358 41.0721 64.1825 45.0479 61.5993C46.894 60.3985 48.9117 59.5576 50.8483 58.5503C51.3376 58.6682 51.8192 58.7462 52.3051 58.8895C55.8915 59.9565 59.5567 60.6327 63.3087 60.5698C68.6182 60.4842 73.9036 60.5765 79.0964 61.8346C84.5941 63.328 89.7709 65.5678 94.2984 69.0664C105.76 77.9035 111.712 89.5568 111.901 104.083C111.91 104.783 111.719 105.521 112.042 106.199L111.022 113.752C110.33 115.044 110.134 116.493 109.678 117.856C107.262 124.909 103.346 130.983 97.86 136.017C95.6555 138.049 93.2934 139.905 90.6284 141.319C80.5641 139.973 70.5126 138.628 60.7462 135.652C52.4974 133.14 44.5508 130.021 37.5431 124.841C32.3723 121.022 28.163 116.415 25.6551 110.431C24.5879 107.879 25.193 91.505 25.1331 88.6875C25.4935 88.8008 22.9518 101.961 23.3232 102.089C25.7606 102.936 29.7328 103.641 32.1957 102.86C36.3103 101.551 38.4602 97.6211 36.9841 94.0685C35.9574 91.5994 34.0198 90.1207 31.5639 89.2193C31.6797 88.9372 31.8082 88.6568 31.9113 88.3729C32.5368 86.6189 33.5637 85.8255 34.9774 86.0034C36.3768 86.1924 37.1505 87.1773 37.3358 89.0667C37.3382 89.1447 37.3406 89.2227 37.3557 89.3024C37.4432 90.2852 37.9869 90.8636 38.9605 90.9433C39.8706 91.0144 40.6097 90.3374 40.7564 89.3474C41.264 85.9721 38.5488 82.77 34.9704 82.5068L25.1077 88.684ZM76.9026 95.3425C76.0169 95.3783 75.1488 95.5718 74.3069 95.8594C68.9615 97.6492 67.4262 103.359 71.2517 107.164C74.4843 110.371 79.9858 111.166 83.9719 108.985C88.3758 106.589 88.9654 101.361 85.2325 98.0211C83.7298 96.6789 81.9752 95.8593 80.0172 95.4913C80.6766 93.1981 80.0386 91.2088 78.3921 89.5882C76.667 87.8792 74.5446 87.3854 72.2157 88.1325C69.8868 88.8797 68.5235 90.534 68.0336 92.9148C67.8216 93.909 68.3292 94.7543 69.2008 95.0144C70.0724 95.2746 70.8968 94.8292 71.2979 93.8735C71.4316 93.555 71.5161 93.2168 71.6625 92.9C72.1334 91.8113 73.3084 91.1673 74.4661 91.3236C75.5983 91.4765 76.5164 92.3514 76.7104 93.504C76.8096 94.113 76.8433 94.726 76.917 95.3315L76.9026 95.3425ZM53.1479 100.317C55.3972 100.543 57.3847 100.022 59.1352 98.6655C60.1026 97.9287 60.3135 97.0379 59.7441 96.1713C59.2076 95.3479 58.1933 95.185 57.2159 95.804C56.5349 96.2428 55.8666 96.6834 55.0453 96.8184C53.0962 97.1508 51.6342 96.3707 50.4211 94.8992C49.6879 93.9975 48.6235 93.9185 47.8895 94.5573C47.1123 95.2292 47.0777 96.1567 47.8022 97.122C49.165 98.9244 50.9812 99.9594 53.1479 100.317Z" fill="#F2897D"/>
<path d="M36.4349 100.533C36.4948 103.35 24.5641 107.863 25.6313 110.415C28.1393 116.399 32.3358 121.005 37.5194 124.825C44.527 130.005 52.4754 133.111 60.7224 135.636C70.4888 138.612 80.5386 139.97 90.6046 141.303C85.1481 144.683 79.1936 146.572 72.8338 147.241C66.9348 147.856 61.1497 147.243 55.4852 145.545C49.5604 143.761 43.5113 143.281 37.3494 143.251C25.8919 143.206 15.9091 139.242 7.55193 131.394C0.595664 124.875 -3.70728 116.836 -5.40983 107.479C-6.61862 100.7 -6.21837 93.9954 -4.25238 87.3991C-1.59979 78.5003 3.40505 71.1751 10.7137 65.4945C18.2533 59.638 26.8657 56.5804 36.4515 56.3862C37.0614 56.3779 37.6875 56.3459 38.2991 56.325C38.6461 56.3459 38.993 56.3669 39.3382 56.4005C43.2473 56.7084 47.1359 57.1688 50.8483 58.5506C48.9134 59.5451 46.8957 60.3861 45.0479 61.5995C41.0721 64.1827 37.7424 67.4488 34.7311 71.0427C30.7 75.8583 27.5586 81.1824 25.5114 87.1334C25.3392 87.641 25.1416 88.1451 25.1076 88.6843" fill="#EB796C"/>
<path d="M50.8505 58.5379C47.1381 57.1561 43.264 56.6847 39.3404 56.3878C38.9935 56.3668 38.6466 56.3459 38.3014 56.3122C35.9545 54.0273 33.6781 51.7002 31.7441 49.0438C31.3294 48.4699 30.8858 47.9181 31.2722 47.1675C31.6602 46.4043 32.3 46.2706 33.1101 46.3153C39.7319 46.6788 46.2837 47.3694 52.4445 50.0917C53.6796 50.6339 54.1881 50.4178 54.6558 49.1604C55.7762 46.1397 57.5076 43.4864 59.4339 40.9242C59.9083 40.2891 60.3971 39.643 61.2766 39.7489C62.1688 39.8564 62.4976 40.587 62.7594 41.3344C63.3682 43.0609 63.9914 44.7764 64.6391 46.5987C66.8704 44.2719 68.6661 41.7179 70.0729 38.8783C70.4644 38.0896 70.8212 37.2704 71.2728 36.5157C72.3947 34.6346 74.6717 33.984 76.589 34.9421C78.5189 35.9019 79.4145 38.0943 78.5714 40.1167C77.0045 43.8539 74.9563 47.3189 72.3334 50.4344C72.0725 50.7358 71.5393 51.0392 71.7295 51.4533C71.8977 51.8385 72.4815 51.7361 72.8827 51.7385C77.6448 51.7732 82.2861 52.6071 86.9143 53.6336C87.6435 53.7968 88.0857 54.1672 88.2636 54.8645C88.438 55.5872 88.0056 56.0078 87.5112 56.4071C84.8841 58.4993 82.0218 60.223 79.0841 61.8331C73.8914 60.575 68.6059 60.4827 63.2964 60.5683C59.5571 60.633 55.8937 59.944 52.2928 58.888C51.8197 58.7464 51.327 58.654 50.836 58.5488L50.8505 58.5379Z" fill="#8ECF9E"/>
<path d="M56.6994 132.814C77.4957 135.623 96.3749 122.939 98.8673 104.485C101.36 86.0305 86.5214 68.7933 65.7251 65.9847C44.9288 63.176 26.0496 75.8595 23.5572 94.314C21.0649 112.769 35.9031 130.006 56.6994 132.814Z" fill="#F2897D"/>
<path d="M55.9282 99.6823C57.8873 99.9469 59.8454 100.315 61.8089 100.451C64.261 100.613 64.9952 101.891 64.1545 103.991C63.1768 106.436 62.3149 109.077 60.7219 111.089C57.1672 115.541 50.2878 114.975 47.8683 109.87C46.5487 107.077 46.5365 103.619 46.2397 100.445C46.1905 99.9467 47.7863 98.7769 48.598 98.8088C51.0494 98.881 53.495 99.3796 55.9502 99.7111L55.9282 99.6823Z" fill="black"/>
<path d="M85.0004 95.0377C87.161 95.5366 88.9112 96.9641 89.371 99.6026C89.4659 100.146 89.0442 100.775 88.86 101.372C88.3762 101.022 87.7081 100.789 87.4467 100.327C85.2138 96.3353 82.7875 95.9817 79.7098 99.2041C79.3316 99.6061 78.6317 99.7058 78.0799 99.9549C78.0207 99.3385 77.7538 98.6292 77.9531 98.1123C78.8731 95.712 81.7713 94.3944 85.0004 95.0377Z" fill="black"/>
<path d="M33.8393 93.9544C32.0629 92.4327 30.577 90.1994 28.8249 89.9369C27.0711 89.6871 25.0476 91.4335 22.9509 92.3803C22.0515 90.4074 23.593 89.2562 25.0867 88.2668C27.4763 86.6864 31.0146 87.1513 32.8924 89.3599C34.0338 90.6922 35.3037 92.2231 33.8393 93.9544Z" fill="black"/>
</g>
</svg>
