<svg width="146" height="146" viewBox="0 0 146 146" fill="none" xmlns="http://www.w3.org/2000/svg">
<path d="M77.641 59.5882C78.2293 57.84 78.7672 56.0919 79.4396 54.3774C79.8262 53.3856 79.8262 52.7805 78.7168 52.293C77.6914 51.8392 76.8005 51.0828 76.0609 50.2255C73.9598 47.7882 74.2624 44.6785 76.851 42.7455C77.4897 42.2748 76.9686 42.0227 76.8005 41.7369C75.876 40.2073 74.9684 38.6609 74.5817 36.8791C74.1615 34.8956 74.5986 33.6013 75.9769 32.8113C77.3048 32.0549 78.6664 32.3911 80.1456 33.8535C80.4481 34.1392 80.7171 34.4586 81.2213 34.9965C80.7003 32.0045 79.9438 29.3486 78.3134 27.1803C75.5399 23.4823 77.7587 17.0444 80.5322 14.8424C81.4903 14.086 82.1458 13.9515 83.8267 14.1532C82.8518 10.0686 86.4994 6.06808 90.8361 6.52192C91.3908 6.57235 91.4917 6.35383 91.5925 5.96722C92.3658 2.84073 94.4501 1.09259 97.4757 0.319372C97.6606 0.268945 97.8287 0.218518 97.8959 0H101.291C103.493 1.05897 105.073 2.68945 105.998 4.94187C106.922 7.17748 106.788 9.36266 105.578 11.447C105.258 12.0017 105.208 12.2538 105.88 12.6068C107.124 13.2456 107.46 14.523 107.78 15.7669C107.914 16.2712 108.015 16.7755 108.133 17.2629C106.233 18.221 105.057 19.6498 105.208 22.0031C102.636 20.5911 100.451 21.129 98.4506 22.8267C97.6942 23.4655 96.9714 24.1546 96.3495 24.9279C94.6686 27.0626 93.3743 29.4831 94.013 32.2062C94.6854 35.131 94.1979 38.0053 94.1643 40.8965C94.1643 41.2495 94.0803 41.6697 93.7273 41.905C93.4751 41.2327 93.2902 40.5435 92.9877 39.9216C91.996 37.8708 89.9452 37.1481 88.029 38.2407C86.6675 39.0307 86.3145 40.4426 86.2472 41.8714C86.1296 43.9725 86.2304 46.0905 86.7851 48.158C85.037 48.2252 84.247 48.7631 83.1712 50.2087C82.0786 51.6711 81.8433 53.2848 81.9777 55.0161L78.8681 60.4286C78.3974 60.2269 77.9772 59.958 77.6578 59.5714L77.641 59.5882Z" fill="#86CC97"/>
<path d="M0 141.533L2.80712 137.549C3.19372 137.566 3.5131 137.482 3.84928 137.246C6.70682 135.246 10.6065 132.422 13.4977 130.439C13.8003 132.321 15.0777 131.548 16.4897 132.825C16.7755 133.078 19.8851 133.683 19.8851 134.103C16.1367 136.708 8.1524 142.239 4.35355 144.777C2.85754 145.768 1.61367 145.231 0.0168091 143.213V141.516L0 141.533Z" fill="#EC776A"/>
<path d="M81.9612 55.0498C81.8267 53.3185 82.0788 51.7048 83.1546 50.2424C84.2472 48.78 85.0204 48.259 86.7686 48.1917C86.2139 46.1242 86.113 44.0231 86.2307 41.9051C86.3147 40.4595 86.6509 39.0476 88.0124 38.2744C89.9119 37.1818 91.9794 37.9046 92.9711 39.9553C93.2737 40.5772 93.4586 41.2664 93.7107 41.9387C94.0637 41.7034 94.1309 41.2832 94.1477 40.9302C94.1814 38.039 94.6688 35.1815 93.9965 32.2399C93.3745 29.5 94.652 27.0795 96.3329 24.9616C96.938 24.1884 97.6776 23.4992 98.4341 22.8604C100.434 21.1627 102.62 20.6248 105.191 22.0368C105.04 19.6835 106.2 18.2379 108.116 17.2966C109.444 16.6243 110.839 16.2545 112.318 16.12C113.646 16.0023 114.857 16.2545 115.865 17.3134C117.983 14.1029 120.857 12.7078 124.69 13.2793C127.766 13.7331 130.052 15.0946 130.976 18.1875C132.002 21.6166 131.817 24.8607 129.01 27.4661C128.169 28.2393 127.715 28.6596 128.556 29.8362C129.531 31.1809 129.027 32.8618 128.657 34.3747C128.421 35.3328 127.984 36.2237 127.648 37.165C126.707 38.661 125.329 39.4174 123.463 39.535C124.824 41.1319 124.673 42.6951 123.917 44.3761C123.009 46.3763 121.547 47.9396 119.866 49.2171C117.983 50.6458 115.865 51.5703 113.31 51.1165C111.142 50.7131 108.906 50.7803 106.738 51.1165C105.847 51.251 104.855 51.2005 103.981 51.772C104.822 52.125 105.612 52.3436 106.267 52.7638C107.393 53.4866 108.486 54.3102 108.335 55.8735C108.167 57.4871 107.343 58.6133 105.712 58.9999C104.166 59.3529 102.653 59.8404 101.006 59.3866C100.115 59.1344 99.1064 58.9663 98.2323 59.168C97.4255 59.3529 98.1819 60.4792 97.6776 61.0339C97.5768 61.1347 97.5096 61.2692 97.4255 61.37C95.8455 63.4039 93.6939 64.9504 89.8446 63.5216C88.6344 62.782 87.3401 61.3532 86.2307 61.4877C85.0708 61.6222 84.0791 63.2526 83.0033 64.2276C82.5159 63.8073 82.0284 63.3703 81.5409 62.9501L81.3896 62.5635C82.2133 61.4877 83.0369 60.4119 83.8942 59.3529C84.2472 58.9159 84.3144 58.6133 83.8774 58.1763C83.0033 57.319 82.4654 56.2096 82.0284 55.0666L81.9612 55.0498Z" fill="#8ECF9E"/>
<path d="M89.8111 63.5048C93.6604 64.9336 95.8288 63.3872 97.392 61.3533C97.4761 61.2356 97.5433 61.1179 97.6442 61.0171C98.1484 60.4624 97.4088 59.3362 98.1989 59.1513C99.0729 58.9496 100.081 59.1177 100.972 59.3698C102.62 59.8236 104.132 59.3362 105.679 58.9832C107.309 58.6134 108.15 57.4704 108.301 55.8567C108.469 54.2934 107.36 53.453 106.234 52.747C105.578 52.3268 104.771 52.1083 103.948 51.7553C104.838 51.2006 105.83 51.251 106.704 51.0997C108.889 50.7467 111.108 50.6963 113.277 51.0997C115.832 51.5704 117.95 50.6459 119.832 49.2003C121.513 47.9228 122.975 46.3596 123.883 44.3593C124.64 42.6784 124.791 41.1151 123.429 39.5183C125.295 39.4006 126.673 38.6274 127.615 37.1482C129.027 37.4676 130.825 37.3163 131.683 38.5097C132.842 40.1066 133.8 39.5351 135.162 39.0308C138.692 37.7365 143.718 40.1738 144.861 43.5861C146.122 47.3513 143.701 52.2427 139.852 53.4362C138.86 53.7556 138.641 53.9909 138.776 55.1171C139.196 58.647 134.473 62.4122 130.96 61.3196C131.666 64.1268 129.918 65.5891 127.867 66.6817C124.488 68.4803 121.093 69.035 117.597 66.6817C115.495 65.253 113.024 64.5134 110.285 64.3453C110.772 64.7487 111.327 65.1185 111.747 65.5891C112.671 66.6481 113.125 67.8416 112.352 69.2199C111.646 70.4806 110.469 70.9849 108.856 70.7495C106.839 70.4638 105.107 69.5057 103.443 68.4131C102.872 68.0433 102.653 67.9424 102.233 68.7156C101.191 70.6151 97.5433 71.0521 95.5094 69.6233C94.2487 68.7324 93.3242 67.539 92.6519 66.1607C92.2989 65.4211 91.8786 65.3706 91.2063 65.6228C89.3405 66.2951 87.4747 66.9171 85.5921 67.5558C85.1718 67.2364 84.9197 66.7826 84.7012 66.3287L89.7607 63.5048H89.8111Z" fill="#41AB7D"/>
<path d="M84.7518 66.3286C84.9703 66.7993 85.2225 67.2363 85.6427 67.5557C87.4076 70.5309 88.8364 73.6237 89.0717 77.1536C89.4247 82.5494 87.3572 86.8861 83.3062 90.3152C81.4404 91.8952 79.3897 93.2231 77.2886 94.4838C74.7336 94.1476 72.4644 93.2567 70.9011 91.0548C73.0527 89.5587 75.2042 88.0459 77.3558 86.5499C80.1629 84.6001 82.2977 82.0955 83.4071 78.8177C85.1384 73.7414 84.2811 68.934 81.743 64.3283C81.5077 63.9081 80.7512 63.5383 81.4908 62.9332C81.9783 63.3534 82.4658 63.7904 82.97 64.2107C83.5584 64.9166 84.1635 65.6226 84.7518 66.3286Z" fill="#EC776A"/>
<path d="M40.4425 119.966C35.4166 123.463 25.6673 130.136 20.6414 133.632C20.0699 134.036 19.448 134.389 18.8596 134.758C16.187 134.489 14.0691 133.414 13.0437 130.758C15.7668 128.926 18.5067 127.093 21.2297 125.244C24.6588 122.925 30.4747 118.79 33.9038 116.47C35.3662 118.05 38.6944 118.638 40.4593 119.95L40.4425 119.966Z" fill="#EC776A"/>
<path d="M52.9992 111.31C49.671 113.646 42.1742 118.756 38.846 121.092C38.3921 120.723 37.8038 120.739 37.3163 120.521C35.6354 119.798 33.8032 119.277 32.9124 117.428C33.1309 116.974 33.5175 116.756 33.9209 116.487C35.2824 115.579 36.5599 114.57 37.9551 113.713C40.2915 112.268 44.5779 108.637 47.0656 107.427C48.2422 109.175 51.604 109.746 53.016 111.31H52.9992Z" fill="#EC776A"/>
<path d="M65.1855 102.888C62.1431 105.006 56.0414 109.192 52.9989 111.31C52.814 111.444 52.6123 111.595 52.3602 111.511C49.5531 111.495 47.3847 110.217 45.6702 108.065C46.2081 108.015 46.6115 107.696 47.0485 107.427C50.7129 105.09 56.0246 100.955 59.7562 98.7365C60.0755 99.1903 61.269 100.367 61.5379 100.854C62.3616 102.283 63.6223 102.166 65.1687 102.905L65.1855 102.888Z" fill="#EC776A"/>
<path d="M77.288 94.4839C74.1615 96.6523 67.8077 101.073 64.6644 103.241C64.4795 102.771 64.0088 102.804 63.639 102.62C61.8909 101.796 59.857 101.308 58.9829 99.2577C60.8319 97.9634 69.3205 91.5592 71.2367 90.3657" fill="#EC776A"/>
<path d="M31.4833 118.269C28.071 120.605 24.6588 122.925 21.2297 125.244C18.5067 127.093 15.7668 128.909 13.0437 130.758" fill="#F2897D"/>
<path d="M44.8127 109.192C42.3249 110.402 40.2742 112.268 37.9377 113.696C36.5426 114.554 35.2651 115.562 33.9036 116.47C33.517 116.739 33.1135 116.974 32.895 117.411" fill="#F2897D"/>
<path d="M57.8567 100.115C54.1083 102.334 50.7129 105.074 47.0485 107.41C46.6115 107.696 46.2081 108.015 45.6702 108.049" fill="#F2897D"/>
<path d="M69.4889 92.181C67.6231 92.9206 66.2111 94.3494 64.547 95.3916C62.6308 96.585 60.8322 97.9634 59 99.2745" fill="#F2897D"/>
<path d="M81.3395 62.5297C80.5159 61.8406 79.6755 61.1514 78.8518 60.4454C79.894 58.6468 80.9193 56.8315 81.9615 55.0329C82.3985 56.1759 82.9364 57.2685 83.8105 58.1426C84.2643 58.5796 84.1803 58.8822 83.8273 59.3192C82.97 60.3782 82.1632 61.454 81.3227 62.5297H81.3395Z" fill="#FEFEFE"/>
<path d="M84.7512 66.3285C84.1629 65.6226 83.5578 64.9166 82.9695 64.2106C84.0285 63.2357 85.0202 61.6052 86.1968 61.4707C87.3062 61.3362 88.6005 62.765 89.8108 63.5046L84.7512 66.3285Z" fill="#FEFEFE"/>
<path d="M81.7593 64.3281C81.5239 63.9079 80.7675 63.5381 81.5071 62.933L81.3559 62.5464C80.5322 61.8572 79.6917 61.168 78.8681 60.462C78.3974 60.2603 77.9772 59.9914 77.6579 59.6048C76.6157 59.0669 75.5903 58.4786 74.5314 57.9743C67.4715 54.6629 60.1596 56.0244 55.3186 61.521L52.3938 65.488C50.0405 68.6985 47.7545 71.9426 45.6534 75.3213L43.5859 78.246C41.5688 81.2044 39.5349 84.146 37.5178 87.1044C35.299 89.9956 30.6765 96.9882 28.6594 100.014C27.1802 102.098 23.1292 107.981 21.6836 110.099L12.8925 122.891C9.54747 127.782 6.20246 132.674 2.87427 137.565C3.26088 137.582 3.58025 137.498 3.91643 137.263C6.77397 135.262 9.66513 133.296 12.5395 131.329L70.9678 91.0546C73.1194 89.5586 75.271 88.0457 77.4225 86.5497C80.2296 84.5999 82.3644 82.0953 83.4738 78.8176C85.2051 73.7412 84.3479 68.9338 81.8097 64.3281H81.7593ZM37.6691 93.7104C37.0303 93.1053 37.6859 90.6007 37.8203 88.8358C37.9044 89.4913 37.9884 90.1469 38.2574 90.7688C39.2659 93.1221 40.93 94.7694 43.2329 95.8788C41.0477 95.9964 39.2323 95.1896 37.6691 93.7104Z" fill="#F2897D"/>
<path d="M42.947 96.232C46.6604 96.232 49.6707 94.1624 49.6707 91.6095C49.6707 89.0566 46.6604 86.987 42.947 86.987C39.2337 86.987 36.2234 89.0566 36.2234 91.6095C36.2234 94.1624 39.2337 96.232 42.947 96.232Z" fill="#F2897D"/>
<path d="M50.915 77.6916C52.1757 77.5908 56.6133 77.4227 60.6475 80.4651C63.0008 82.2469 64.2278 84.3816 64.8161 85.6255" stroke="#EC776A" stroke-miterlimit="10"/>
<path d="M41.5188 88.231C42.7795 88.1302 47.2171 87.9621 51.2513 91.0045C53.6045 92.7863 54.8316 94.921 55.4199 96.1649" stroke="#EC776A" stroke-miterlimit="10"/>
<path d="M34.6772 96.8201C35.7362 96.7361 39.4174 96.5848 42.7624 99.3079C44.7123 100.905 45.7376 102.804 46.2251 103.93" stroke="#EC776A" stroke-width="0.86" stroke-miterlimit="10"/>
<path d="M29.3823 104.519C30.1555 104.452 32.8282 104.317 35.2655 106.553C36.6943 107.864 37.4339 109.427 37.7869 110.352" stroke="#EC776A" stroke-width="0.67" stroke-miterlimit="10"/>
<path d="M63.1517 79.4397C62.0591 78.095 61.017 76.8847 60.0925 75.5904C59.9412 75.3719 60.2774 74.8004 60.3782 74.3802C60.7144 74.6323 61.2019 74.8004 61.3868 75.1198C62.7819 77.6748 64.8831 78.6665 67.7406 78.179C68.0768 78.1286 68.497 78.4648 68.8836 78.6161C68.5811 78.9354 68.2953 79.507 67.9759 79.5238C66.4463 79.5742 64.9167 79.4733 63.1517 79.4229V79.4397Z" fill="black"/>
<path d="M77.0024 75.3715C78.095 75.9934 78.9354 76.9347 78.8346 78.3971C78.8178 78.7165 78.4312 79.0023 78.2294 79.3216C77.9941 79.0527 77.6075 78.8174 77.5403 78.5148C77.036 76.38 76.1451 75.9598 74.0104 76.8507C73.7414 76.9684 73.3716 76.8507 73.0522 76.8171C73.1363 76.4641 73.1027 76.0102 73.3044 75.7581C74.044 74.9008 75.6913 74.7496 77.0024 75.3715Z" fill="black"/>
<path d="M58.7311 67.9927C58.0251 69.4383 56.7477 70.2115 55.7559 69.7745C54.7306 69.3374 54.4616 67.7406 55.1508 66.3118C55.8568 64.8326 57.2183 64.093 58.2437 64.5973C59.2354 65.0847 59.4371 66.5303 58.7311 67.9759V67.9927Z" fill="black"/>
</svg>
