<svg width="350" height="168" viewBox="0 0 350 168" fill="none" xmlns="http://www.w3.org/2000/svg">
<path d="M272.991 159.09C272.991 159.09 319.111 159.09 339.404 110.902C340.327 109.282 340.788 107.257 342.171 105.637C346.784 98.7532 360.62 71.6221 333.409 35.1772C333.409 35.1772 315.421 -4.10226 262.383 0.35211C258.693 0.757053 255.003 1.56694 251.314 2.78177C240.245 6.8312 209.344 16.1449 178.904 12.5004C176.598 12.0955 174.754 11.6905 172.909 10.8806C166.913 8.85591 150.771 3.9966 129.094 1.56694C124.482 1.162 119.87 1.162 115.719 2.37682C102.805 5.21142 74.6719 12.0955 54.3788 26.6734C54.3788 26.6734 11.0255 60.6886 31.3185 116.976C32.7021 120.215 31.7797 123.86 29.4737 126.694L0.417712 163.544C-0.965907 165.569 1.34012 167.998 3.64615 166.784L34.0858 154.23L39.159 152.206C48.3831 148.561 58.5297 148.966 67.2926 153.421C82.9736 161.924 99.1158 163.949 99.1158 163.949C114.336 165.569 129.555 163.949 134.167 163.544C135.09 163.544 136.474 163.544 137.396 163.544C154.461 163.544 172.448 165.569 179.827 165.974C182.133 166.379 184.9 166.379 187.206 165.974C209.805 165.569 272.991 159.09 272.991 159.09Z" fill="#F7EFE2"/>
<path d="M78.5781 50.1172V63.5703H85.3047C86.2266 63.5703 87.0938 63.3984 87.9062 63.0547C88.7188 62.6953 89.4297 62.2109 90.0391 61.6016C90.6484 60.9922 91.125 60.2812 91.4688 59.4688C91.8281 58.6406 92.0078 57.7656 92.0078 56.8438C92.0078 55.9219 91.8281 55.0547 91.4688 54.2422C91.125 53.4141 90.6484 52.6953 90.0391 52.0859C89.4297 51.4766 88.7188 51 87.9062 50.6562C87.0938 50.2969 86.2266 50.1172 85.3047 50.1172H78.5781ZM78.5781 77H71.8516V43.3906H85.3047C86.5391 43.3906 87.7266 43.5547 88.8672 43.8828C90.0078 44.1953 91.0703 44.6484 92.0547 45.2422C93.0547 45.8203 93.9609 46.5234 94.7734 47.3516C95.6016 48.1641 96.3047 49.0703 96.8828 50.0703C97.4766 51.0703 97.9297 52.1406 98.2422 53.2812C98.5703 54.4219 98.7344 55.6094 98.7344 56.8438C98.7344 58.6875 98.3828 60.4297 97.6797 62.0703C96.9766 63.6953 96.0156 65.1172 94.7969 66.3359C93.5781 67.5547 92.1484 68.5156 90.5078 69.2188C88.8828 69.9219 87.1484 70.2734 85.3047 70.2734H78.5781V77ZM108.414 77H102.016V51.8984H103.562L105.672 54.875C106.703 53.9375 107.875 53.2188 109.188 52.7188C110.5 52.2031 111.859 51.9453 113.266 51.9453H118.914V58.3203H113.266C112.594 58.3203 111.961 58.4453 111.367 58.6953C110.773 58.9453 110.258 59.2891 109.82 59.7266C109.383 60.1641 109.039 60.6797 108.789 61.2734C108.539 61.8672 108.414 62.5 108.414 63.1719V77ZM131.406 70.8594C131.656 70.9375 131.906 70.9922 132.156 71.0234C132.406 71.0391 132.656 71.0469 132.906 71.0469C133.531 71.0469 134.133 70.9609 134.711 70.7891C135.289 70.6172 135.828 70.375 136.328 70.0625C136.844 69.7344 137.297 69.3438 137.688 68.8906C138.094 68.4219 138.422 67.9062 138.672 67.3438L143.359 72.0547C142.766 72.8984 142.078 73.6562 141.297 74.3281C140.531 75 139.695 75.5703 138.789 76.0391C137.898 76.5078 136.953 76.8594 135.953 77.0938C134.969 77.3438 133.953 77.4688 132.906 77.4688C131.141 77.4688 129.477 77.1406 127.914 76.4844C126.367 75.8281 125.008 74.9141 123.836 73.7422C122.68 72.5703 121.766 71.1797 121.094 69.5703C120.422 67.9453 120.086 66.1641 120.086 64.2266C120.086 62.2422 120.422 60.4297 121.094 58.7891C121.766 57.1484 122.68 55.75 123.836 54.5938C125.008 53.4375 126.367 52.5391 127.914 51.8984C129.477 51.2578 131.141 50.9375 132.906 50.9375C133.953 50.9375 134.977 51.0625 135.977 51.3125C136.977 51.5625 137.922 51.9219 138.812 52.3906C139.719 52.8594 140.562 53.4375 141.344 54.125C142.125 54.7969 142.812 55.5547 143.406 56.3984L131.406 70.8594ZM134.688 57.6641C134.391 57.5547 134.094 57.4844 133.797 57.4531C133.516 57.4219 133.219 57.4062 132.906 57.4062C132.031 57.4062 131.203 57.5703 130.422 57.8984C129.656 58.2109 128.984 58.6641 128.406 59.2578C127.844 59.8516 127.398 60.5703 127.07 61.4141C126.742 62.2422 126.578 63.1797 126.578 64.2266C126.578 64.4609 126.586 64.7266 126.602 65.0234C126.633 65.3203 126.672 65.625 126.719 65.9375C126.781 66.2344 126.852 66.5234 126.93 66.8047C127.008 67.0859 127.109 67.3359 127.234 67.5547L134.688 57.6641ZM160.422 77H145.797V70.625H160.422C160.859 70.625 161.234 70.4688 161.547 70.1562C161.859 69.8438 162.016 69.4688 162.016 69.0312C162.016 68.5781 161.859 68.2812 161.547 68.1406C161.234 68 160.859 67.9297 160.422 67.9297H153.766C152.656 67.9297 151.617 67.7188 150.648 67.2969C149.68 66.875 148.836 66.3047 148.117 65.5859C147.398 64.8516 146.828 64 146.406 63.0312C146 62.0625 145.797 61.0234 145.797 59.9141C145.797 58.8047 146 57.7656 146.406 56.7969C146.828 55.8281 147.398 54.9844 148.117 54.2656C148.836 53.5469 149.68 52.9844 150.648 52.5781C151.617 52.1562 152.656 51.9453 153.766 51.9453H166.727V58.3203H153.766C153.328 58.3203 152.953 58.4766 152.641 58.7891C152.328 59.1016 152.172 59.4766 152.172 59.9141C152.172 60.3672 152.328 60.7578 152.641 61.0859C152.953 61.3984 153.328 61.5547 153.766 61.5547H160.422C161.516 61.5547 162.547 61.7422 163.516 62.1172C164.484 62.4766 165.328 62.9844 166.047 63.6406C166.766 64.2969 167.336 65.0859 167.758 66.0078C168.18 66.9297 168.391 67.9375 168.391 69.0312C168.391 70.1406 168.18 71.1797 167.758 72.1484C167.336 73.1016 166.766 73.9453 166.047 74.6797C165.328 75.3984 164.484 75.9688 163.516 76.3906C162.547 76.7969 161.516 77 160.422 77ZM185.594 77H170.969V70.625H185.594C186.031 70.625 186.406 70.4688 186.719 70.1562C187.031 69.8438 187.188 69.4688 187.188 69.0312C187.188 68.5781 187.031 68.2812 186.719 68.1406C186.406 68 186.031 67.9297 185.594 67.9297H178.938C177.828 67.9297 176.789 67.7188 175.82 67.2969C174.852 66.875 174.008 66.3047 173.289 65.5859C172.57 64.8516 172 64 171.578 63.0312C171.172 62.0625 170.969 61.0234 170.969 59.9141C170.969 58.8047 171.172 57.7656 171.578 56.7969C172 55.8281 172.57 54.9844 173.289 54.2656C174.008 53.5469 174.852 52.9844 175.82 52.5781C176.789 52.1562 177.828 51.9453 178.938 51.9453H191.898V58.3203H178.938C178.5 58.3203 178.125 58.4766 177.812 58.7891C177.5 59.1016 177.344 59.4766 177.344 59.9141C177.344 60.3672 177.5 60.7578 177.812 61.0859C178.125 61.3984 178.5 61.5547 178.938 61.5547H185.594C186.688 61.5547 187.719 61.7422 188.688 62.1172C189.656 62.4766 190.5 62.9844 191.219 63.6406C191.938 64.2969 192.508 65.0859 192.93 66.0078C193.352 66.9297 193.562 67.9375 193.562 69.0312C193.562 70.1406 193.352 71.1797 192.93 72.1484C192.508 73.1016 191.938 73.9453 191.219 74.6797C190.5 75.3984 189.656 75.9688 188.688 76.3906C187.719 76.7969 186.688 77 185.594 77ZM223.023 77C221.477 77 220.023 76.7109 218.664 76.1328C217.305 75.5391 216.109 74.7344 215.078 73.7188C214.062 72.6875 213.258 71.4922 212.664 70.1328C212.086 68.7734 211.797 67.3203 211.797 65.7734V58.3203H208.68V51.9453H211.797V41.9141H218.172V51.9453H227.875V58.3203H218.172V65.7734C218.172 66.4453 218.297 67.0781 218.547 67.6719C218.797 68.25 219.141 68.7578 219.578 69.1953C220.016 69.6328 220.531 69.9844 221.125 70.25C221.719 70.5 222.352 70.625 223.023 70.625H227.875V77H223.023ZM237.883 77H231.484V41.9141H237.883V53C238.648 52.4219 239.438 52.0156 240.25 51.7812C241.062 51.5312 241.891 51.4062 242.734 51.4062C244.281 51.4062 245.734 51.7031 247.094 52.2969C248.453 52.875 249.633 53.6797 250.633 54.7109C251.648 55.7266 252.445 56.9219 253.023 58.2969C253.617 59.6562 253.914 61.1094 253.914 62.6562V77H247.469V62.6562H247.516C247.516 62 247.391 61.3828 247.141 60.8047C246.891 60.2109 246.547 59.6953 246.109 59.2578C245.672 58.8203 245.164 58.4766 244.586 58.2266C244.008 57.9766 243.391 57.8516 242.734 57.8516C242.062 57.8516 241.43 57.9766 240.836 58.2266C240.242 58.4766 239.727 58.8203 239.289 59.2578C238.852 59.6953 238.508 60.2109 238.258 60.8047C238.008 61.3828 237.883 62 237.883 62.6562V77ZM268.469 70.8594C268.719 70.9375 268.969 70.9922 269.219 71.0234C269.469 71.0391 269.719 71.0469 269.969 71.0469C270.594 71.0469 271.195 70.9609 271.773 70.7891C272.352 70.6172 272.891 70.375 273.391 70.0625C273.906 69.7344 274.359 69.3438 274.75 68.8906C275.156 68.4219 275.484 67.9062 275.734 67.3438L280.422 72.0547C279.828 72.8984 279.141 73.6562 278.359 74.3281C277.594 75 276.758 75.5703 275.852 76.0391C274.961 76.5078 274.016 76.8594 273.016 77.0938C272.031 77.3438 271.016 77.4688 269.969 77.4688C268.203 77.4688 266.539 77.1406 264.977 76.4844C263.43 75.8281 262.07 74.9141 260.898 73.7422C259.742 72.5703 258.828 71.1797 258.156 69.5703C257.484 67.9453 257.148 66.1641 257.148 64.2266C257.148 62.2422 257.484 60.4297 258.156 58.7891C258.828 57.1484 259.742 55.75 260.898 54.5938C262.07 53.4375 263.43 52.5391 264.977 51.8984C266.539 51.2578 268.203 50.9375 269.969 50.9375C271.016 50.9375 272.039 51.0625 273.039 51.3125C274.039 51.5625 274.984 51.9219 275.875 52.3906C276.781 52.8594 277.625 53.4375 278.406 54.125C279.188 54.7969 279.875 55.5547 280.469 56.3984L268.469 70.8594ZM271.75 57.6641C271.453 57.5547 271.156 57.4844 270.859 57.4531C270.578 57.4219 270.281 57.4062 269.969 57.4062C269.094 57.4062 268.266 57.5703 267.484 57.8984C266.719 58.2109 266.047 58.6641 265.469 59.2578C264.906 59.8516 264.461 60.5703 264.133 61.4141C263.805 62.2422 263.641 63.1797 263.641 64.2266C263.641 64.4609 263.648 64.7266 263.664 65.0234C263.695 65.3203 263.734 65.625 263.781 65.9375C263.844 66.2344 263.914 66.5234 263.992 66.8047C264.07 67.0859 264.172 67.3359 264.297 67.5547L271.75 57.6641ZM126.273 124.227C126.273 126.195 125.938 127.992 125.266 129.617C124.594 131.242 123.68 132.641 122.523 133.812C121.367 134.969 120.008 135.867 118.445 136.508C116.898 137.148 115.234 137.469 113.453 137.469C111.688 137.469 110.023 137.141 108.461 136.484C106.914 135.828 105.555 134.914 104.383 133.742C103.227 132.57 102.312 131.18 101.641 129.57C100.969 127.945 100.633 126.164 100.633 124.227V101.914H107.055V113.633C107.398 113.195 107.812 112.805 108.297 112.461C108.797 112.117 109.328 111.836 109.891 111.617C110.469 111.398 111.062 111.234 111.672 111.125C112.281 111 112.875 110.938 113.453 110.938C115.234 110.938 116.898 111.273 118.445 111.945C120.008 112.602 121.367 113.523 122.523 114.711C123.68 115.898 124.594 117.305 125.266 118.93C125.938 120.539 126.273 122.305 126.273 124.227ZM119.828 124.227C119.828 123.258 119.656 122.359 119.312 121.531C118.984 120.688 118.531 119.961 117.953 119.352C117.375 118.742 116.695 118.266 115.914 117.922C115.148 117.578 114.328 117.406 113.453 117.406C112.578 117.406 111.75 117.602 110.969 117.992C110.203 118.367 109.531 118.875 108.953 119.516C108.375 120.141 107.922 120.867 107.594 121.695C107.266 122.508 107.102 123.352 107.102 124.227C107.102 125.195 107.266 126.094 107.594 126.922C107.922 127.75 108.375 128.469 108.953 129.078C109.531 129.688 110.203 130.172 110.969 130.531C111.75 130.875 112.578 131.047 113.453 131.047C114.328 131.047 115.148 130.875 115.914 130.531C116.695 130.172 117.375 129.688 117.953 129.078C118.531 128.469 118.984 127.75 119.312 126.922C119.656 126.094 119.828 125.195 119.828 124.227ZM148.281 134.07C147.766 134.539 147.211 134.984 146.617 135.406C146.039 135.812 145.43 136.172 144.789 136.484C144.148 136.781 143.484 137.016 142.797 137.188C142.125 137.375 141.438 137.469 140.734 137.469C139.188 137.469 137.734 137.195 136.375 136.648C135.016 136.102 133.82 135.328 132.789 134.328C131.773 133.312 130.969 132.086 130.375 130.648C129.797 129.195 129.508 127.57 129.508 125.773V111.898H135.883V125.773C135.883 126.617 136.008 127.375 136.258 128.047C136.523 128.703 136.875 129.258 137.312 129.711C137.75 130.164 138.258 130.508 138.836 130.742C139.43 130.977 140.062 131.094 140.734 131.094C141.391 131.094 142.008 130.945 142.586 130.648C143.18 130.336 143.695 129.93 144.133 129.43C144.57 128.93 144.914 128.367 145.164 127.742C145.414 127.102 145.539 126.445 145.539 125.773V111.898H151.938V137H150.391L148.281 134.07ZM169.422 137C167.875 137 166.422 136.711 165.062 136.133C163.703 135.539 162.508 134.734 161.477 133.719C160.461 132.688 159.656 131.492 159.062 130.133C158.484 128.773 158.195 127.32 158.195 125.773V118.32H155.078V111.945H158.195V101.914H164.57V111.945H174.273V118.32H164.57V125.773C164.57 126.445 164.695 127.078 164.945 127.672C165.195 128.25 165.539 128.758 165.977 129.195C166.414 129.633 166.93 129.984 167.523 130.25C168.117 130.5 168.75 130.625 169.422 130.625H174.273V137H169.422ZM190.469 137C188.922 137 187.469 136.711 186.109 136.133C184.75 135.539 183.555 134.734 182.523 133.719C181.508 132.688 180.703 131.492 180.109 130.133C179.531 128.773 179.242 127.32 179.242 125.773V118.32H176.125V111.945H179.242V101.914H185.617V111.945H195.32V118.32H185.617V125.773C185.617 126.445 185.742 127.078 185.992 127.672C186.242 128.25 186.586 128.758 187.023 129.195C187.461 129.633 187.977 129.984 188.57 130.25C189.164 130.5 189.797 130.625 190.469 130.625H195.32V137H190.469ZM223.188 124.227C223.188 126.102 222.852 127.852 222.18 129.477C221.508 131.086 220.594 132.484 219.438 133.672C218.281 134.844 216.922 135.773 215.359 136.461C213.812 137.133 212.148 137.469 210.367 137.469C208.602 137.469 206.938 137.133 205.375 136.461C203.828 135.773 202.469 134.844 201.297 133.672C200.141 132.484 199.227 131.086 198.555 129.477C197.883 127.852 197.547 126.102 197.547 124.227C197.547 122.32 197.883 120.555 198.555 118.93C199.227 117.305 200.141 115.906 201.297 114.734C202.469 113.547 203.828 112.617 205.375 111.945C206.938 111.273 208.602 110.938 210.367 110.938C212.148 110.938 213.812 111.258 215.359 111.898C216.922 112.523 218.281 113.422 219.438 114.594C220.594 115.75 221.508 117.148 222.18 118.789C222.852 120.414 223.188 122.227 223.188 124.227ZM216.742 124.227C216.742 123.195 216.57 122.266 216.227 121.438C215.898 120.594 215.445 119.875 214.867 119.281C214.289 118.672 213.609 118.211 212.828 117.898C212.062 117.57 211.242 117.406 210.367 117.406C209.492 117.406 208.664 117.57 207.883 117.898C207.117 118.211 206.445 118.672 205.867 119.281C205.305 119.875 204.859 120.594 204.531 121.438C204.203 122.266 204.039 123.195 204.039 124.227C204.039 125.195 204.203 126.094 204.531 126.922C204.859 127.75 205.305 128.469 205.867 129.078C206.445 129.688 207.117 130.172 207.883 130.531C208.664 130.875 209.492 131.047 210.367 131.047C211.242 131.047 212.062 130.883 212.828 130.555C213.609 130.227 214.289 129.766 214.867 129.172C215.445 128.578 215.898 127.859 216.227 127.016C216.57 126.172 216.742 125.242 216.742 124.227ZM233.125 137H226.727V111.898H228.273L230.383 114.336C231.414 113.398 232.578 112.68 233.875 112.18C235.188 111.664 236.555 111.406 237.977 111.406C239.508 111.406 240.953 111.703 242.312 112.297C243.672 112.875 244.859 113.68 245.875 114.711C246.891 115.727 247.688 116.922 248.266 118.297C248.859 119.656 249.156 121.109 249.156 122.656V137H242.758V122.656C242.758 122 242.633 121.383 242.383 120.805C242.133 120.211 241.789 119.695 241.352 119.258C240.914 118.82 240.406 118.477 239.828 118.227C239.25 117.977 238.633 117.852 237.977 117.852C237.305 117.852 236.672 117.977 236.078 118.227C235.484 118.477 234.969 118.82 234.531 119.258C234.094 119.695 233.75 120.211 233.5 120.805C233.25 121.383 233.125 122 233.125 122.656V137Z" fill="#BDA6ED"/>
</svg>
