<svg width="128" height="148" viewBox="0 0 128 148" fill="none" xmlns="http://www.w3.org/2000/svg">
<path d="M43.0791 147.031C41.7511 146.299 41.6489 145.159 42.0065 143.832C42.6705 141.416 43.1983 138.965 43.5899 136.395C41.036 137.74 38.6183 139.05 36.1666 140.309C34.6513 141.092 33.5276 140.82 32.9828 139.646C32.455 138.523 32.9317 137.621 34.3959 136.838C37.069 135.425 39.8783 134.2 42.2959 132.345C43.3345 132.43 44.356 132.533 44.4752 131.052C44.7646 127.257 45.1733 123.479 45.3265 119.684C45.4457 116.587 45.3265 113.49 45.1392 110.393C44.9519 107.449 44.7817 104.488 44.4412 101.578C43.6239 94.7882 42.33 88.0664 40.5763 81.4466C38.397 73.2273 35.6388 65.2292 32.3018 57.4012C28.7604 49.0798 24.7083 41.0476 19.9411 33.3558C19.1919 32.1646 19.3622 30.9394 20.3326 30.3438C21.3031 29.7481 22.546 30.1395 23.227 31.3137C24.7253 33.8663 26.1725 36.4359 27.6708 38.9885C30.5822 43.9235 32.9488 49.1478 35.2643 54.3892C37.3755 59.137 39.1972 64.0039 40.8828 68.9219C42.6535 74.1122 44.1006 79.3876 45.3435 84.714C46.331 88.9172 47.1483 93.1545 47.7612 97.4429C48.3741 101.731 48.936 106.02 49.0551 110.325C49.2254 117.098 49.2084 123.871 48.5103 130.627C48.0166 131.426 48.1358 131.852 49.1743 131.699C49.5319 131.648 49.8894 131.563 50.247 131.477C50.3151 132.362 49.0211 132.311 49.0892 133.196C48.4592 133.179 47.9655 133.332 47.9655 134.098C47.3696 137.519 46.7396 140.922 45.9224 144.291C45.667 145.312 45.3265 146.265 44.5093 146.98H43.0791V147.031Z" fill="#0CAD67"/>
<path d="M48.5447 130.66C49.2428 123.905 49.2428 117.132 49.0895 110.359C48.9874 106.036 48.4085 101.748 47.7956 97.4767C47.1827 93.1883 46.3654 88.951 45.3779 84.7477C44.135 79.4213 42.6878 74.1289 40.9172 68.9557C39.2316 64.0377 37.4099 59.1877 35.2987 54.4229C32.9832 49.1816 30.6336 43.9573 27.7052 39.0222C26.2069 36.4696 24.7427 33.9 23.2614 31.3474C22.5804 30.1732 21.3375 29.7819 20.367 30.3775C19.3966 30.9731 19.2263 32.1983 19.9755 33.3895C24.7427 41.0813 28.7948 49.1135 32.3362 57.435C35.6562 65.2629 38.4314 73.261 40.6107 81.4804C42.3644 88.1001 43.6413 94.822 44.4756 101.612C44.8331 104.522 45.0034 107.483 45.1736 110.427C45.3609 113.524 45.463 116.638 45.3609 119.718C45.2247 123.513 44.799 127.291 44.5096 131.086C44.3904 132.566 43.3689 132.464 42.3303 132.379C23.653 131.392 6.18457 117.013 2.08136 96.3705C1.89407 95.4006 1.75787 94.3965 1.89407 93.3755C2.16649 91.2824 3.18803 90.5336 5.28221 91.1122C6.61022 91.4696 7.88715 92.0311 9.21516 92.4736C9.60675 92.6097 9.96429 92.933 10.9858 92.5246C10.3559 92.0992 9.82809 91.861 9.47055 91.4696C6.32078 88.1342 3.95419 84.3904 3.39234 79.7276C3.34127 79.2511 3.35829 78.7746 3.39234 78.2982C3.42639 76.9878 4.0904 76.5624 5.36733 76.7666C6.95073 77.0389 8.55115 77.3452 10.2027 77.3112C10.2537 76.7326 9.79404 76.6645 9.53865 76.4433C6.28673 73.6524 4.0904 70.1979 3.11993 66.0117C2.64321 63.9696 3.08588 63.4931 5.12897 63.5101C7.54663 63.5101 9.94727 63.5101 12.3649 63.5101C10.0835 62.0296 7.9212 60.2428 6.18457 57.9965C4.77143 56.1757 3.4945 54.2697 3.06885 51.9384C2.77941 50.2877 3.29019 49.607 4.94169 49.4368C7.03586 49.2326 9.13003 49.0114 11.2242 48.7902C11.2583 48.2797 10.7815 48.2116 10.5091 48.0074C7.35935 45.5909 4.72035 42.715 2.91562 39.1584C2.3708 38.0863 1.94515 36.9802 1.94515 35.7549C1.94515 34.5467 2.45593 33.9 3.76691 33.9341C5.87811 33.9851 7.97228 33.9341 10.5261 33.9341C7.61474 32.5387 5.57164 30.6838 3.83501 28.4885C2.23459 26.4465 0.855502 24.2682 0.208522 21.7157C-0.438458 19.061 0.395806 17.9038 3.05183 17.7336C4.14148 17.6655 5.24815 17.6145 6.55914 17.5634C4.70333 14.5173 2.88157 11.5733 2.28567 8.10181C2.77941 8.06778 3.08588 8.39111 3.37532 8.71444C4.14148 9.5653 4.85656 10.4672 5.6738 11.267C6.64427 12.22 7.56366 12.0158 8.15956 10.7905C8.43197 10.229 8.61926 9.63337 8.89167 9.08882C9.45352 7.98269 10.3048 7.65936 11.4966 8.11883C13.4886 8.90163 14.6804 10.5183 15.8212 12.1519C17.7451 14.8577 19.1582 17.8187 19.8563 21.086C20.0265 21.9028 20.4522 22.5495 21.2864 22.6686C22.0185 22.7707 22.5123 22.2942 22.8528 21.6476C23.1252 21.1371 23.4147 20.6606 23.7382 20.1841C24.3681 19.2481 25.1172 19.078 26.0026 19.8608C26.8879 20.6606 27.6541 21.5625 28.267 22.6176C30.4804 26.4975 31.536 30.7178 31.9105 35.1253C31.9616 35.789 32.1148 36.3335 32.7618 36.6568C33.4939 37.0142 34.0898 36.7079 34.6006 36.2484C35.2476 35.6868 35.8265 35.0402 36.4394 34.4446C37.8185 33.0832 38.5336 33.1513 39.6573 34.802C41.1896 37.0142 41.6833 39.6178 42.2281 42.1704C42.79 44.723 42.4495 47.3097 42.5176 49.8793C42.5176 50.4919 42.6197 51.0705 43.2327 51.3257C43.8626 51.581 44.5266 51.581 45.1055 51.0535C45.8717 50.3387 46.7059 49.6921 47.4551 48.9774C48.7831 47.7181 49.2428 47.7691 50.0941 49.3688C50.2984 49.7431 50.4346 50.1516 50.6048 50.543C52.4096 55.0355 52.3925 59.7663 52.3074 64.4971C52.3074 65.1608 52.2393 65.8245 53.0395 66.1818C53.8908 66.5732 54.5208 66.2329 55.1167 65.7054C56.683 64.378 57.1938 64.4801 58.0451 66.4031C59.2199 69.0578 59.5944 71.8826 59.7477 74.7415C59.9009 77.5494 59.5774 80.3402 58.9645 83.097C58.7942 83.8969 58.5899 84.8839 59.5263 85.4454C60.2414 85.8709 60.9225 85.5475 61.5184 85.1221C63.5274 83.6586 64.7192 84.033 65.5194 86.3984C66.0642 88.0321 66.3196 89.7338 66.3537 91.4525C66.4048 94.839 66.3196 98.2084 65.8429 101.578C65.1449 106.428 63.936 111.073 61.9099 115.549C60.1903 119.327 57.8919 122.713 55.0826 125.708C53.2098 127.716 51.0986 129.537 48.5617 130.711L48.5447 130.66Z" fill="#8ECF9E"/>
<path d="M49.1067 133.247C49.0386 132.362 50.3496 132.414 50.2645 131.529C51.5074 131.597 52.563 130.916 53.6526 130.508C57.6367 129.061 61.178 126.866 64.2937 123.973C68.2097 120.331 71.0189 115.958 73.2323 111.142C73.6239 110.802 74.0666 110.495 74.39 110.087C76.2799 107.756 78.1698 105.441 79.9915 103.059C85.8143 95.4861 90.871 87.4199 95.3658 78.9963C98.2262 73.6019 100.814 68.0883 103.147 62.4556C104.917 58.1842 106.569 53.8618 107.846 49.4203C108.271 47.9569 107.846 46.8677 106.773 46.5614C105.496 46.2041 104.781 46.6806 104.236 48.1951C103.113 51.3773 101.989 54.5766 100.831 57.7588C98.8731 63.1533 96.4555 68.3435 93.9016 73.4487C91.0583 79.1665 87.9426 84.7482 84.4523 90.0916C81.8473 94.0736 79.2083 98.0217 76.1096 101.646C76.1096 101.119 76.0415 100.574 76.1437 100.081C76.8928 96.422 77.0801 92.7293 76.9439 89.0195C76.8758 87.0285 76.6374 85.0545 75.9224 83.1486C75.1051 81.0384 73.4877 80.63 71.8873 82.1786C70.9338 83.0975 70.1336 84.2036 68.9418 84.8843C68.6183 85.0715 68.397 85.7352 67.9202 85.3438C67.5797 85.0545 68.0054 84.6461 68.1246 84.3057C70.6444 77.5669 71.0019 70.743 68.6694 63.919C67.9543 61.8429 67.9543 61.5366 65.775 62.0471C66.3198 59.8349 67.2903 57.8269 68.8226 56.1251C69.8612 54.968 70.5252 55.019 71.4957 56.1932C73.062 58.1162 74.6114 60.0391 76.314 62.1663C76.2459 60.5496 76.1267 59.1542 76.1267 57.7758C76.1267 54.9339 76.6374 52.1601 77.8122 49.5565C78.1357 48.8247 78.5443 48.093 79.0381 47.4633C80.1788 45.9999 81.0471 45.9148 82.3241 47.2421C83.7542 48.7226 85.0652 50.3052 86.4273 51.8368L86.9721 51.4454C86.9721 51.0029 86.9891 50.5605 86.9721 50.118C86.7848 46.2551 87.2615 42.4943 88.7598 38.8866C89.2025 37.8146 89.7473 36.8105 90.5986 36.0107C91.6201 35.0578 92.3352 35.0918 93.2716 36.1469C94.5997 37.6444 95.8766 39.1589 97.2897 40.7756C97.5281 39.9587 97.1706 39.3461 97.1195 38.7335C96.796 34.343 97.5792 30.1568 99.7244 26.2939C100.082 25.6302 100.593 25.0176 101.138 24.5071C102.295 23.4179 103.521 23.469 104.679 24.5921C105.156 25.0516 105.598 25.5621 106.041 26.0556C106.484 26.5491 106.926 27.0256 107.522 27.6893C108.646 23.9965 109.889 20.5761 112.272 17.7172C112.17 18.8573 112.102 19.9975 111.966 21.1206C111.847 22.1587 110.961 23.2137 112.017 24.1837C113.073 25.1707 114.094 24.2178 115.099 23.9625C116.563 23.6051 117.567 24.0646 117.891 25.5621C118.197 26.9575 118.18 28.421 117.891 29.8164C117.125 33.5092 115.678 36.9126 113.481 39.9757C113.073 40.5543 112.596 41.1499 113.107 41.9157C113.669 42.7496 114.452 42.8687 115.388 42.6304C115.797 42.5283 116.222 42.4773 116.648 42.4433C117.874 42.3412 118.436 42.9368 118.334 44.145C118.3 44.6215 118.3 45.0979 118.197 45.5574C117.431 48.9779 115.746 51.9219 113.686 54.7127C112.732 55.989 111.608 57.0781 110.485 58.1842C109.838 58.8309 109.889 59.6137 110.127 60.3114C110.349 60.958 111.047 61.1452 111.694 61.0772C112.613 60.9921 113.481 61.3154 114.384 61.3835C115.865 61.4856 116.273 62.0642 115.95 63.5447C115.609 65.1103 114.86 66.4887 114.026 67.833C112.085 71.0152 109.429 73.5508 106.484 75.7631C105.922 76.1885 105.377 76.682 105.496 77.3797C105.615 78.1455 106.313 78.4518 107.028 78.7071C107.914 79.0474 108.833 78.7751 109.719 78.9963C111.898 79.5409 112.272 80.3577 111.115 82.3998C111.03 82.57 110.876 82.7061 110.791 82.8593C108.459 86.8243 105.445 90.1427 101.597 92.6953C100.967 93.1037 100.457 93.6652 100.627 94.465C100.797 95.2989 101.444 95.6903 102.295 95.8094C104.407 96.0647 104.645 96.5071 103.794 98.4471C103.606 98.8895 103.368 99.2979 103.096 99.7064C100.201 104.165 96.3703 107.585 91.6372 110.019C90.9221 110.393 90.1219 110.785 90.207 111.789C90.2921 112.691 90.9561 113.048 91.7393 113.252C94.4124 113.95 94.7869 114.954 93.2716 117.285C91.3988 120.178 88.8279 122.373 86.1038 124.415C76.9609 131.239 67.0179 135.732 55.2531 134.575C53.1419 134.371 50.9966 134.166 49.0557 133.162L49.1067 133.247Z" fill="#8ECF9E"/>
<path d="M49.1067 133.247C51.0477 134.251 53.1929 134.455 55.3041 134.66C67.0689 135.834 77.012 131.324 86.1548 124.5C88.8789 122.475 91.4498 120.28 93.3227 117.37C94.8209 115.039 94.4634 114.035 91.7903 113.337C90.9901 113.133 90.3261 112.775 90.258 111.874C90.1729 110.87 90.9561 110.478 91.6882 110.104C96.4043 107.67 100.235 104.233 103.147 99.7913C103.402 99.3999 103.64 98.9744 103.845 98.532C104.696 96.592 104.44 96.1496 102.346 95.8943C101.495 95.7922 100.865 95.3838 100.678 94.55C100.508 93.7501 101.018 93.1886 101.648 92.7802C105.479 90.2276 108.51 86.9092 110.842 82.9442C110.944 82.774 111.081 82.6379 111.166 82.4847C112.323 80.4426 111.949 79.6088 109.77 79.0813C108.867 78.86 107.965 79.1153 107.079 78.792C106.364 78.5197 105.666 78.2304 105.547 77.4646C105.445 76.7669 105.973 76.2564 106.535 75.848C109.497 73.6187 112.136 71.0831 114.077 67.9179C114.894 66.5736 115.66 65.1952 116.001 63.6296C116.324 62.1491 115.916 61.5705 114.435 61.4684C113.532 61.4003 112.664 61.077 111.745 61.1621C111.098 61.2131 110.4 61.0259 110.178 60.3963C109.923 59.6816 109.889 58.8988 110.536 58.2691C111.659 57.163 112.783 56.0739 113.737 54.7976C115.797 52.0068 117.499 49.0628 118.248 45.6423C118.351 45.1828 118.351 44.7064 118.385 44.2299C118.47 43.0216 117.925 42.426 116.699 42.5281C116.273 42.5622 115.848 42.5962 115.439 42.7153C114.52 42.9536 113.72 42.8345 113.158 42.0006C112.647 41.2348 113.124 40.6392 113.532 40.0606C115.729 36.9805 117.176 33.5941 117.942 29.9013C118.231 28.4889 118.248 27.0424 117.942 25.647C117.618 24.1495 116.614 23.69 115.15 24.0474C114.145 24.3026 113.141 25.2386 112.068 24.2686C111.012 23.2986 111.898 22.2265 112.017 21.2055C112.153 20.0824 112.221 18.9422 112.323 17.802C113.362 16.1514 114.758 14.8581 116.393 13.837C117.925 12.867 118.214 12.9521 119.236 14.5177C120.904 17.0873 121.398 20.0143 121.483 22.9923C121.568 25.8172 121.007 28.557 120.07 31.5009C121.449 31.0585 122.607 30.6671 123.765 30.3097C126.097 29.595 127.34 30.3778 127.306 32.8453C127.204 39.448 124.531 44.9106 119.645 49.4031C120.019 49.9817 120.615 49.4712 121.075 49.4031C122.454 49.2329 123.799 48.9096 125.161 48.6544C127.136 48.28 127.681 48.7735 127.596 50.7985C127.527 52.1089 127.136 53.3341 126.625 54.5253C124.667 59.154 121.773 63.068 117.738 66.1141C117.55 66.2502 117.38 66.4204 117.193 66.5736C117.159 66.6076 117.159 66.6586 117.108 66.8288C119.236 67.05 121.347 67.2542 123.458 67.4755C125.161 67.6627 125.604 68.2583 125.161 69.96C124.497 72.5126 123.05 74.6568 121.398 76.6648C118.793 79.847 115.695 82.4337 111.881 84.3396C113.771 84.5778 115.66 84.7991 117.55 85.0373C118.214 85.1224 118.878 85.1564 119.542 85.2585C121.075 85.4797 121.398 85.9733 120.819 87.4708C119.951 89.7341 118.504 91.657 116.903 93.4268C113.907 96.7452 110.74 99.8593 105.973 101.051C108.169 101.391 110.144 101.697 112.102 102.004C113.583 102.225 113.805 102.548 113.277 104.012C112.46 106.258 110.961 108.062 109.344 109.78C105.428 113.933 100.78 116.928 94.9742 118.544C95.7914 118.936 96.4214 118.919 97.0343 118.987C97.6983 119.055 98.3623 119.14 99.0263 119.225C99.7924 119.31 100.559 119.344 101.308 119.48C103.317 119.838 103.862 120.893 102.993 122.765C102.431 123.99 101.58 125.045 100.627 125.998C93.0332 133.503 84.2309 138.812 73.5557 140.565C64.498 142.045 56.1724 140.173 48.7322 134.677C48.5108 134.507 48.2555 134.37 48.0171 134.217C48.0171 133.451 48.5108 133.298 49.1408 133.315L49.1067 133.247Z" fill="#0CAD67"/>
<path d="M65.7749 62.0468C67.9542 61.5533 67.9713 61.8426 68.6693 63.9187C71.0019 70.7426 70.6613 77.5665 68.1245 84.3054C68.0053 84.6457 67.5797 85.0541 67.9202 85.3434C68.3969 85.7348 68.6012 85.0712 68.9417 84.884C70.1335 84.2033 70.9338 83.1142 71.8872 82.1782C73.4876 80.6297 75.1221 81.0381 75.9223 83.1482C76.6544 85.0371 76.8758 87.0281 76.9439 89.0192C77.0801 92.7289 76.8928 96.4387 76.1436 100.08C76.0415 100.591 76.1096 101.135 76.1096 101.646L75.8202 101.935C75.4796 103.212 75.054 104.454 74.7986 105.747C74.4411 107.602 73.4025 109.236 73.2322 111.142C71.0189 115.957 68.1926 120.331 64.2937 123.973C61.178 126.866 57.6366 129.061 53.6526 130.507C52.5459 130.916 51.5073 131.596 50.2644 131.528C49.9069 131.596 49.5494 131.698 49.1918 131.75C48.1532 131.903 48.0341 131.46 48.5278 130.677C51.0817 129.486 53.1759 127.682 55.0487 125.674C57.8579 122.662 60.1564 119.293 61.876 115.515C63.9021 111.057 65.1109 106.394 65.809 101.544C66.3027 98.1745 66.3879 94.805 66.3198 91.4186C66.2857 89.6999 66.0303 88.0151 65.4855 86.3645C64.6853 83.9991 63.4935 83.6247 61.4844 85.0882C60.8715 85.5306 60.1905 85.8369 59.4924 85.4115C58.556 84.8499 58.7603 83.8629 58.9306 83.0631C59.5265 80.3063 59.867 77.5155 59.7137 74.7076C59.5605 71.8487 59.1689 69.0239 58.0112 66.3692C57.1599 64.4462 56.6491 64.3611 55.0827 65.6715C54.4698 66.182 53.8569 66.5394 53.0056 66.148C52.2054 65.7736 52.2565 65.1269 52.2735 64.4632C52.3586 59.7324 52.3756 55.0187 50.5709 50.5091C50.4177 50.1177 50.2644 49.7093 50.0601 49.3349C49.2088 47.7353 48.7491 47.6842 47.4211 48.9435C46.655 49.6582 45.8377 50.3219 45.0716 51.0196C44.4927 51.5471 43.8457 51.5471 43.1987 51.2919C42.5858 51.0366 42.5007 50.4751 42.4837 49.8454C42.4156 47.2758 42.7561 44.6892 42.1942 42.1366C41.6324 39.584 41.1556 36.9804 39.6233 34.7681C38.4826 33.1174 37.7675 33.0494 36.4054 34.4108C35.7925 35.0234 35.2136 35.653 34.5667 36.2146C34.0559 36.657 33.443 36.9633 32.7279 36.623C32.0809 36.2997 31.9277 35.7551 31.8766 35.0914C31.502 30.684 30.4464 26.4637 28.2331 22.5838C27.6372 21.5287 26.871 20.6268 25.9686 19.827C25.1003 19.0442 24.3342 19.1973 23.7042 20.1503C23.3807 20.6268 23.0913 21.1203 22.8189 21.6138C22.4783 22.2604 21.9846 22.7369 21.2525 22.6348C20.4012 22.5157 19.9926 21.886 19.8223 21.0522C19.1243 17.7849 17.7111 14.8239 15.7872 12.1181C14.6295 10.4845 13.4377 8.86783 11.4627 8.08504C10.2709 7.60855 9.41956 7.9489 8.85771 9.05502C8.5853 9.59957 8.38099 10.1952 8.12561 10.7567C7.5297 11.982 6.59328 12.1862 5.63984 11.2332C4.8226 10.4334 4.10752 9.5315 3.34136 8.68064C3.05192 8.35731 2.74545 8.03398 2.25171 8.06802C1.46852 5.90683 1.45149 3.67756 1.75796 1.43128C1.91119 0.342179 2.45602 -0.10027 3.59674 0.0188507C6.35492 0.308144 8.70448 1.49935 10.9008 3.08196C13.5739 5.02193 15.651 7.48943 17.4898 10.4845C18.0687 9.14011 18.5454 7.96592 19.0562 6.79172C19.9585 4.73263 21.1674 4.32422 22.9891 5.61753C25.8835 7.69364 27.552 10.7227 28.9822 13.8709C30.2591 16.6788 31.0423 19.6057 30.9231 22.856C31.9106 21.1543 32.9152 19.4526 33.8856 17.7508C34.8902 16.0151 35.7755 15.896 37.1716 17.3765C38.9082 19.2313 39.9298 21.4946 40.747 23.86C42.075 27.6889 42.705 31.6029 42.2283 35.9763C43.9138 34.3257 45.4121 32.8792 46.9104 31.4157C48.3405 30.0373 49.0897 30.0713 50.1793 31.7561C52.1543 34.8192 52.8353 38.2737 53.0907 41.8303C53.295 44.7062 53.1758 47.5651 52.2905 50.3389C52.2054 50.6112 52.1203 50.9005 52.3075 51.1557C52.2735 51.1557 52.2394 51.1217 52.1884 51.1217C52.1713 51.1217 52.1373 51.1387 52.1203 51.1557H52.2905C54.1974 49.3349 56.1213 47.5481 58.0282 45.7443C59.1179 44.7232 59.7308 44.7913 60.4799 46.1016C61.7228 48.2968 62.2336 50.7303 62.5571 53.1978C63.0849 57.2479 63.3062 61.281 61.8079 65.212C61.7909 65.2631 61.8931 65.3652 62.0463 65.6545C63.3062 64.4122 64.9066 63.6294 65.7239 61.9957L65.7749 62.0468Z" fill="#0CAD67"/>
<path d="M73.249 111.141C73.4193 109.253 74.4579 107.602 74.8154 105.747C75.0708 104.454 75.4794 103.211 75.8369 101.935L76.1264 101.646C79.2251 98.0212 81.8811 94.0732 84.469 90.0911C87.9593 84.7307 91.0751 79.149 93.9184 73.4482C96.4722 68.326 98.8899 63.1357 100.848 57.7583C102.006 54.5761 103.112 51.3768 104.253 48.1946C104.798 46.6801 105.513 46.2036 106.79 46.5609C107.863 46.8672 108.288 47.9563 107.863 49.4198C106.586 53.8613 104.934 58.1837 103.163 62.4551C100.831 68.0878 98.2429 73.6014 95.3826 78.9958C90.9048 87.4364 85.8481 95.4856 80.0083 103.058C78.1865 105.441 76.2796 107.755 74.4068 110.086C74.0833 110.495 73.6406 110.784 73.249 111.141Z" fill="#0CAD67"/>
<path d="M52.3241 51.1729H52.1538C52.1538 51.1729 52.2049 51.1558 52.2219 51.1558C52.256 51.1558 52.2901 51.1729 52.3412 51.19H52.3241V51.1729Z" fill="#FDFEFE"/>
<path d="M76.1266 101.663L75.8372 101.952L76.1266 101.663Z" fill="#13BC79"/>
<path d="M40.9682 87.573C42.6878 87.1135 44.4415 86.7561 46.127 86.1946C48.2212 85.4969 49.2768 86.2967 49.2938 88.3388C49.3108 90.7042 49.5152 93.2057 48.8852 95.4179C47.455 100.353 41.5471 102.242 37.7673 98.8214C35.7072 96.9495 34.5154 94.0906 33.1703 91.538C32.966 91.1296 33.8854 89.6321 34.5665 89.3598C36.6266 88.577 38.8399 88.1516 40.9852 87.573H40.9682Z" fill="black"/>
<path d="M23.3805 78.5201C24.1978 81.5322 23.2954 84.289 21.2864 84.9526C19.2263 85.6163 16.7916 83.6253 15.9743 80.6473C15.1401 77.5671 16.1787 74.7423 18.3239 74.1807C20.401 73.6532 22.5463 75.491 23.3805 78.5201Z" fill="black"/>
<path d="M58.6924 69.211C59.5096 72.2231 58.6072 74.9799 56.5982 75.6436C54.538 76.3073 52.1034 74.3163 51.2861 71.3382C50.4518 68.2581 51.4904 65.4332 53.6357 64.8716C55.7128 64.3441 57.8581 66.182 58.6924 69.211Z" fill="black"/>
</svg>
