<svg width="350" height="168" viewBox="0 0 350 168" fill="none" xmlns="http://www.w3.org/2000/svg">
<path d="M272.991 159.09C272.991 159.09 319.111 159.09 339.404 110.902C340.327 109.282 340.788 107.257 342.171 105.637C346.784 98.7532 360.62 71.6221 333.409 35.1772C333.409 35.1772 315.421 -4.10226 262.383 0.35211C258.693 0.757053 255.003 1.56694 251.314 2.78177C240.245 6.8312 209.344 16.1449 178.904 12.5004C176.598 12.0955 174.754 11.6905 172.909 10.8806C166.913 8.85591 150.771 3.9966 129.094 1.56694C124.482 1.162 119.87 1.162 115.719 2.37682C102.805 5.21142 74.6719 12.0955 54.3788 26.6734C54.3788 26.6734 11.0255 60.6886 31.3185 116.976C32.7021 120.215 31.7797 123.86 29.4737 126.694L0.417712 163.544C-0.965907 165.569 1.34012 167.998 3.64615 166.784L34.0858 154.23L39.159 152.206C48.3831 148.561 58.5297 148.966 67.2926 153.421C82.9736 161.924 99.1158 163.949 99.1158 163.949C114.336 165.569 129.555 163.949 134.167 163.544C135.09 163.544 136.474 163.544 137.396 163.544C154.461 163.544 172.448 165.569 179.827 165.974C182.133 166.379 184.9 166.379 187.206 165.974C209.805 165.569 272.991 159.09 272.991 159.09Z" fill="#F7EFE2"/>
</svg>
