<svg width="88" height="87" viewBox="0 0 88 87" fill="none" xmlns="http://www.w3.org/2000/svg">
<path d="M80.1989 43.6868C80.1989 63.6723 63.9975 79.8737 44.012 79.8737V86.8737C67.8635 86.8737 87.1989 67.5383 87.1989 43.6868H80.1989ZM44.012 79.8737C24.0266 79.8737 7.8252 63.6723 7.8252 43.6868H0.825195C0.825195 67.5383 20.1606 86.8737 44.012 86.8737V79.8737ZM7.8252 43.6868C7.8252 23.7014 24.0266 7.5 44.012 7.5V0.5C20.1606 0.5 0.825195 19.8354 0.825195 43.6868H7.8252ZM44.012 7.5C63.9975 7.5 80.1989 23.7014 80.1989 43.6868H87.1989C87.1989 19.8354 67.8635 0.5 44.012 0.5V7.5Z" fill="#F2897D"/>
<path d="M41.9771 31.7301C43.344 30.3633 43.344 28.1472 41.9771 26.7804C40.6103 25.4135 38.3942 25.4135 37.0274 26.7804L41.9771 31.7301ZM25.9727 42.7849L23.4978 40.31C22.8414 40.9664 22.4727 41.8566 22.4727 42.7849C22.4727 43.7131 22.8414 44.6034 23.4978 45.2597L25.9727 42.7849ZM37.0274 58.7893C38.3942 60.1562 40.6103 60.1562 41.9771 58.7893C43.344 57.4225 43.344 55.2064 41.9771 53.8396L37.0274 58.7893ZM62.0516 46.2849C63.9846 46.2849 65.5516 44.7179 65.5516 42.7849C65.5516 40.8519 63.9846 39.2849 62.0516 39.2849V46.2849ZM37.0274 26.7804L23.4978 40.31L28.4475 45.2597L41.9771 31.7301L37.0274 26.7804ZM23.4978 45.2597L37.0274 58.7893L41.9771 53.8396L28.4475 40.31L23.4978 45.2597ZM62.0516 39.2849L25.9727 39.2849L25.9727 46.2849L62.0516 46.2849V39.2849Z" fill="#F2897D"/>
</svg>
