<svg width="140" height="140" viewBox="0 0 140 140" fill="none" xmlns="http://www.w3.org/2000/svg">
<circle cx="69.9874" cy="70.2438" r="69.7565" fill="#FFDD93"/>
<mask id="mask0_342_5828" style="mask-type:alpha" maskUnits="userSpaceOnUse" x="0" y="0" width="140" height="141">
<circle cx="69.9874" cy="70.2438" r="69.7565" fill="#EEF0F2"/>
</mask>
<g mask="url(#mask0_342_5828)">
<path d="M129.796 130.383C129.045 131.163 128.821 132.224 128.328 133.135C125.669 138.064 121.675 141.368 116.353 143.149C111.971 144.619 107.53 145.62 102.869 145.397C94.8447 145.008 88.5169 141.357 83.7367 135.088C77.77 127.249 75.0525 118.249 74.6597 108.468C74.3835 101.392 72.5621 94.7138 69.363 88.4121C63.0893 76.019 53.2661 67.1582 41.3539 60.3721C39.5015 59.313 37.8062 58.0835 36.1727 56.74C35.7055 55.2743 35.1889 53.812 34.7904 52.3315C34.247 50.2786 34.3207 48.2219 35.1063 46.2344C35.2765 45.824 35.3374 45.2073 36.0599 45.4251C39.7556 46.568 43.3835 45.7638 47.0109 45.0243C48.4489 44.7285 48.609 44.1047 47.6249 43.0739C47.3561 42.7941 47.0531 42.5218 46.7843 42.242C44.4109 39.8006 42.3129 37.1705 40.7097 34.0025L42.8019 33.8745C43.011 33.9444 43.2236 34.0638 43.4292 34.0841C47.6942 34.3353 51.8219 35.2485 55.9097 36.4433C59.469 37.4863 62.8893 38.818 66.2436 40.3435C72.1203 43.0351 77.7155 46.2545 83.0298 49.937C87.8207 53.258 92.3044 56.9544 96.6192 60.8668C99.4226 63.4023 102.084 66.1121 104.581 68.958C108.454 73.3896 112.105 77.9912 115.343 82.9408C119.14 88.7471 122.512 94.7528 125.257 101.116C126.996 105.146 127.987 109.373 128.715 113.679C129.593 118.85 130.026 124.053 129.506 129.303C129.473 129.683 129.391 130.003 129.836 130.166L129.769 130.424L129.796 130.383Z" fill="#BDA6ED"/>
<path d="M129.859 130.139C129.414 129.976 129.481 129.653 129.529 129.276C130.049 124.026 129.612 118.838 128.738 113.652C128.01 109.347 127.023 105.104 125.281 101.09C122.535 94.726 119.163 88.7204 115.366 82.9141C112.129 77.9645 108.477 73.3628 104.604 68.9313C102.107 66.0853 99.4418 63.3907 96.6424 60.8401C92.3237 56.9429 87.8438 53.2313 83.053 49.9102C77.7234 46.2239 72.1434 43.0084 66.2667 40.3168C62.9315 38.7799 59.496 37.4444 55.9328 36.4166C51.8298 35.2178 47.7174 34.3086 43.4523 34.0574C43.2428 34.0523 43.0341 33.9176 42.825 33.8478C47.0743 32.9598 50.2428 30.6594 52.2023 26.7516C67.8601 30.3152 81.324 38.1319 93.5852 48.2345C105.429 58.0031 114.968 69.6774 122.558 83.0081C128.863 94.0795 132.184 105.845 131.858 118.62C131.817 120.231 131.411 121.813 131.58 123.43L129.866 130.108L129.859 130.139Z" fill="#A48ADC"/>
<path d="M52.2022 26.7518C50.2428 30.6596 47.0703 32.9752 42.825 33.848C42.1657 33.8896 41.5216 33.9351 40.7327 33.976C42.336 37.144 44.4301 39.7893 46.8074 42.2155C47.0914 42.4991 47.3792 42.7676 47.648 43.0473C48.632 44.0782 48.4681 44.7172 47.034 44.9978C43.4065 45.7372 39.7787 46.5414 36.083 45.3985C35.3605 45.1807 35.2956 45.8127 35.1294 46.2079C34.3437 48.1954 34.2548 50.2482 34.8135 52.3049C35.212 53.7855 35.7286 55.2477 36.1957 56.7135C35.7489 57.5069 35.1696 57.5528 34.4335 57.0721C28.1015 52.8691 24.0169 46.2267 25.1653 37.9595C25.4407 35.9384 25.418 35.9001 23.3832 35.9942C20.6395 36.1334 18.3848 37.2737 16.6004 39.3617C15.6718 40.4531 14.6574 40.6144 13.8891 39.8173C13.1093 39.001 13.225 38.1713 13.9234 37.3451C16.9587 33.7944 20.8009 32.2182 25.4451 32.7613C26.2788 32.8617 26.672 32.7193 27.0654 31.9446C28.9007 28.3941 31.9864 26.5428 35.8312 25.778C39.3517 25.076 42.9283 25.1667 46.4877 24.945C48.0197 24.8516 49.5599 24.6631 51.0884 24.5201C51.603 24.4738 52.1757 24.264 52.565 24.7693C52.9542 25.2746 52.6502 25.7641 52.3958 26.2501C52.3224 26.4097 52.2643 26.5731 52.2061 26.7366L52.2022 26.7518Z" fill="#8ECF9E"/>
<path d="M74.79 75.0974C79.7326 76.0576 80.6219 74.5507 79.6856 70.1106C81.234 69.8269 83.2365 70.0488 84.2135 69.1482C85.1062 68.3232 84.8826 66.2876 85.2571 64.2594C85.6741 64.5934 86.4644 64.926 86.7502 65.5182C87.928 67.8798 86.5742 70.5647 83.8955 71.9043C83.0586 72.322 82.2646 73.2047 81.8669 74.0594C80.8089 76.3499 78.6544 77.9213 76.5892 77.3752C75.722 77.1527 74.9802 76.3786 74.1871 75.867L74.767 75.1239L74.79 75.0974Z" fill="black"/>
<path d="M69.113 70.3654C70.7871 71.93 71.2771 74.0016 70.2755 75.1878C69.2356 76.3966 66.9632 76.0892 65.3043 74.5284C63.6076 72.9255 63.1562 70.7666 64.2874 69.5812C65.3725 68.4489 67.4428 68.7855 69.1169 70.3501L69.113 70.3654Z" fill="black"/>
<path d="M83.5844 55.171C85.2585 56.7357 85.7485 58.8073 84.7469 59.9934C83.707 61.2022 81.4347 60.8948 79.7758 59.3341C78.079 57.7312 77.6277 55.5722 78.7588 54.3868C79.8439 53.2545 81.9142 53.5912 83.5883 55.1558L83.5844 55.171Z" fill="black"/>
</g>
</svg>
