<svg width="141" height="140" viewBox="0 0 141 140" fill="none" xmlns="http://www.w3.org/2000/svg">
<circle cx="70.4486" cy="69.7565" r="69.7565" fill="#FFDD93"/>
<mask id="mask0_342_5683" style="mask-type:alpha" maskUnits="userSpaceOnUse" x="0" y="0" width="141" height="140">
<circle cx="70.4486" cy="69.7565" r="69.7565" fill="#EEF0F2"/>
</mask>
<g mask="url(#mask0_342_5683)">
<path d="M54.3749 143.464C53.3162 142.881 53.2347 141.972 53.5198 140.914C54.0492 138.987 54.4699 137.034 54.7821 134.985C52.7461 136.057 50.8186 137.101 48.864 138.105C47.656 138.73 46.7601 138.512 46.3257 137.576C45.905 136.681 46.285 135.962 47.4524 135.338C49.5834 134.212 51.8231 133.235 53.7505 131.756C54.5785 131.824 55.3929 131.905 55.488 130.725C55.7187 127.7 56.0445 124.688 56.1666 121.662C56.2617 119.193 56.1666 116.724 56.0173 114.255C55.868 111.908 55.7323 109.547 55.4608 107.227C54.8093 101.814 53.7777 96.4551 52.3796 91.1776C50.6422 84.6248 48.4432 78.2484 45.7828 72.0076C42.9595 65.3734 39.7289 58.9698 35.9283 52.8376C35.3311 51.8879 35.4668 50.9111 36.2405 50.4363C37.0142 49.9614 38.0051 50.2735 38.548 51.2096C39.7425 53.2446 40.8963 55.2932 42.0908 57.3283C44.4119 61.2626 46.2986 65.4277 48.1446 69.6063C49.8277 73.3914 51.2801 77.2716 52.6239 81.1924C54.0356 85.3303 55.1893 89.536 56.1802 93.7825C56.9675 97.1335 57.619 100.512 58.1077 103.93C58.5963 107.349 59.0443 110.768 59.1393 114.201C59.275 119.6 59.2614 125 58.7049 130.386C58.3113 131.024 58.4063 131.363 59.2343 131.241C59.5193 131.2 59.8044 131.132 60.0894 131.064C60.1437 131.77 59.1121 131.729 59.1664 132.434C58.6642 132.421 58.2706 132.543 58.2706 133.154C57.7955 135.88 57.2933 138.594 56.6417 141.28C56.4381 142.094 56.1666 142.854 55.5151 143.424H54.3749V143.464Z" fill="#0CAD67"/>
<path d="M58.7324 130.413C59.2889 125.027 59.2889 119.627 59.1667 114.228C59.0853 110.782 58.6238 107.363 58.1351 103.957C57.6465 100.539 56.9949 97.1604 56.2077 93.8094C55.2168 89.5629 54.063 85.3436 52.6514 81.2193C51.3076 77.2985 49.8552 73.4319 48.1721 69.6332C46.326 65.4546 44.4529 61.2895 42.1182 57.3551C40.9237 55.3201 39.7564 53.2715 38.5755 51.2365C38.0325 50.3003 37.0417 49.9883 36.268 50.4631C35.4943 50.938 35.3585 51.9148 35.9558 52.8645C39.7564 58.9967 42.9869 65.4003 45.8103 72.0345C48.4571 78.2753 50.6696 84.6517 52.407 91.2045C53.8051 96.4821 54.8232 101.841 55.4883 107.254C55.7733 109.574 55.909 111.935 56.0448 114.282C56.1941 116.751 56.2755 119.234 56.1941 121.689C56.0855 124.715 55.7462 127.727 55.5154 130.752C55.4204 131.932 54.606 131.851 53.778 131.783C38.8877 130.996 24.9611 119.532 21.6899 103.076C21.5406 102.302 21.432 101.502 21.5406 100.688C21.7577 99.0191 22.5721 98.4221 24.2417 98.8834C25.3005 99.1683 26.3185 99.616 27.3772 99.9687C27.6894 100.077 27.9745 100.335 28.7889 100.009C28.2867 99.6703 27.8659 99.4803 27.5808 99.1683C25.0697 96.5092 23.183 93.5245 22.735 89.8071C22.6943 89.4273 22.7079 89.0474 22.735 88.6675C22.7622 87.6229 23.2916 87.2837 24.3096 87.4465C25.5719 87.6636 26.8479 87.9078 28.1645 87.8806C28.2052 87.4194 27.8387 87.3651 27.6351 87.1887C25.0426 84.9638 23.2916 82.2097 22.5179 78.8722C22.1378 77.2442 22.4907 76.8643 24.1195 76.8779C26.047 76.8779 27.9609 76.8779 29.8884 76.8779C28.0695 75.6976 26.3456 74.273 24.9611 72.4822C23.8345 71.0306 22.8165 69.5111 22.4771 67.6524C22.2464 66.3364 22.6536 65.7937 23.9702 65.6581C25.6398 65.4953 27.3094 65.3189 28.9789 65.1425C29.0061 64.7355 28.626 64.6812 28.4088 64.5184C25.8977 62.5919 23.7938 60.2991 22.355 57.4637C21.9206 56.6089 21.5813 55.7271 21.5813 54.7503C21.5813 53.787 21.9885 53.2715 23.0337 53.2986C24.7168 53.3393 26.3863 53.2986 28.4224 53.2986C26.1013 52.1861 24.4725 50.7074 23.0879 48.9572C21.812 47.3292 20.7126 45.5926 20.1968 43.5576C19.681 41.4412 20.3461 40.5186 22.4636 40.3829C23.3323 40.3287 24.2146 40.288 25.2597 40.2473C23.7802 37.8188 22.3278 35.4717 21.8527 32.7041C22.2464 32.677 22.4907 32.9347 22.7215 33.1925C23.3323 33.8708 23.9024 34.5899 24.5539 35.2275C25.3276 35.9873 26.0606 35.8245 26.5357 34.8477C26.7528 34.3999 26.9021 33.9251 27.1193 33.491C27.5673 32.6091 28.2459 32.3513 29.1961 32.7177C30.7842 33.3417 31.7344 34.6306 32.6438 35.933C34.1776 38.0901 35.3042 40.4508 35.8608 43.0556C35.9965 43.7068 36.3358 44.2224 37.0009 44.3173C37.5846 44.3987 37.9782 44.0189 38.2497 43.5033C38.4669 43.0963 38.6977 42.7165 38.9556 42.3366C39.4578 41.5904 40.055 41.4547 40.7608 42.0788C41.4667 42.7165 42.0775 43.4355 42.5661 44.2766C44.3307 47.3699 45.1723 50.7345 45.4709 54.2483C45.5116 54.7774 45.6338 55.2116 46.1496 55.4693C46.7333 55.7542 47.2083 55.51 47.6155 55.1437C48.1313 54.696 48.5928 54.1805 49.0815 53.7056C50.181 52.6203 50.7511 52.6746 51.6469 53.9905C52.8685 55.7542 53.2622 57.83 53.6965 59.865C54.1445 61.9 53.873 63.9622 53.9273 66.0108C53.9273 66.4992 54.0087 66.9605 54.4974 67.164C54.9996 67.3675 55.529 67.3675 55.9905 66.9469C56.6013 66.3771 57.2664 65.8616 57.8637 65.2918C58.9224 64.2878 59.2889 64.3285 59.9676 65.6038C60.1305 65.9023 60.239 66.2279 60.3748 66.5399C61.8136 70.1216 61.8 73.8932 61.7321 77.6648C61.7321 78.1939 61.6779 78.723 62.3158 79.0079C62.9945 79.3199 63.4967 79.0486 63.9718 78.628C65.2206 77.5698 65.6278 77.6512 66.3065 79.1843C67.243 81.3007 67.5417 83.5528 67.6638 85.832C67.786 88.0706 67.5281 90.2955 67.0394 92.4934C66.9037 93.131 66.7408 93.9179 67.4874 94.3656C68.0575 94.7048 68.6004 94.447 69.0755 94.1078C70.6772 92.9411 71.6273 93.2396 72.2653 95.1254C72.6997 96.4278 72.9033 97.7845 72.9304 99.1547C72.9711 101.855 72.9033 104.541 72.5232 107.227C71.9667 111.094 71.003 114.797 69.3877 118.365C68.0167 121.377 66.1843 124.077 63.9447 126.465C62.4515 128.066 60.7684 129.517 58.7459 130.454L58.7324 130.413Z" fill="#8ECF9E"/>
<path d="M59.1804 132.475C59.1261 131.77 60.1712 131.81 60.1034 131.105C61.0943 131.159 61.9358 130.616 62.8045 130.291C65.9808 129.138 68.8041 127.388 71.2881 125.081C74.41 122.178 76.6497 118.691 78.4143 114.852C78.7264 114.58 79.0794 114.336 79.3373 114.011C80.8439 112.152 82.3506 110.307 83.803 108.407C88.4452 102.37 92.4766 95.9395 96.06 89.2239C98.3404 84.9232 100.404 80.5276 102.263 76.0369C103.675 72.6316 104.991 69.1857 106.01 65.6447C106.349 64.478 106.01 63.6097 105.154 63.3655C104.136 63.0806 103.566 63.4604 103.132 64.6679C102.236 67.2049 101.34 69.7555 100.417 72.2925C98.8562 76.5932 96.9287 80.7311 94.8927 84.8011C92.6259 89.3596 90.1419 93.8095 87.3593 98.0695C85.2825 101.244 83.1786 104.392 80.7082 107.281C80.7082 106.861 80.6539 106.427 80.7353 106.033C81.3326 103.116 81.4819 100.172 81.3733 97.2148C81.319 95.6275 81.129 94.0537 80.5589 92.5342C79.9074 90.8519 78.6179 90.5263 77.3419 91.7609C76.5818 92.4935 75.9438 93.3754 74.9937 93.9181C74.7358 94.0673 74.5593 94.5964 74.1793 94.2844C73.9078 94.0537 74.2471 93.7281 74.3422 93.4568C76.3511 88.0843 76.6361 82.644 74.7765 77.2037C74.2064 75.5485 74.2064 75.3043 72.469 75.7113C72.9033 73.9476 73.677 72.3467 74.8987 70.99C75.7267 70.0675 76.256 70.1082 77.0297 71.0443C78.2785 72.5774 79.5137 74.1104 80.8711 75.8063C80.8168 74.5174 80.7218 73.405 80.7218 72.306C80.7218 70.0404 81.129 67.829 82.0656 65.7532C82.3235 65.1699 82.6492 64.5865 83.0429 64.0845C83.9523 62.9178 84.6446 62.8499 85.6626 63.9081C86.8028 65.0885 87.848 66.3502 88.9338 67.5712L89.3682 67.2592C89.3682 66.9064 89.3818 66.5537 89.3682 66.2009C89.2189 63.1213 89.599 60.123 90.7934 57.2468C91.1464 56.3921 91.5807 55.5917 92.2594 54.954C93.0738 54.1943 93.6439 54.2214 94.3905 55.0625C95.4492 56.2564 96.4672 57.4639 97.5938 58.7527C97.7839 58.1015 97.4988 57.6131 97.4581 57.1247C97.2002 53.6245 97.8246 50.287 99.5349 47.2073C99.8199 46.6782 100.227 46.1898 100.661 45.7828C101.584 44.9145 102.562 44.9552 103.485 45.8506C103.865 46.2169 104.218 46.624 104.571 47.0174C104.924 47.4108 105.277 47.7907 105.752 48.3198C106.647 45.3758 107.638 42.6489 109.539 40.3696C109.457 41.2786 109.403 42.1876 109.294 43.083C109.199 43.9106 108.493 44.7517 109.335 45.525C110.177 46.3119 110.991 45.5522 111.792 45.3487C112.959 45.0638 113.76 45.4301 114.018 46.624C114.262 47.7364 114.249 48.9032 114.018 50.0157C113.407 52.9597 112.253 55.6731 110.502 58.1151C110.177 58.5764 109.797 59.0512 110.204 59.6617C110.652 60.3265 111.276 60.4215 112.023 60.2315C112.348 60.1501 112.688 60.1094 113.027 60.0823C114.004 60.0009 114.452 60.4757 114.371 61.439C114.344 61.8188 114.344 62.1987 114.262 62.565C113.651 65.292 112.308 67.639 110.665 69.864C109.905 70.8815 109.009 71.7498 108.113 72.6316C107.598 73.1472 107.638 73.7713 107.828 74.3275C108.005 74.843 108.561 74.9923 109.077 74.938C109.81 74.8702 110.502 75.1279 111.222 75.1822C112.403 75.2636 112.728 75.7249 112.471 76.9052C112.199 78.1534 111.602 79.2523 110.937 80.3241C109.389 82.8611 107.272 84.8825 104.924 86.6462C104.476 86.9854 104.041 87.3788 104.136 87.9351C104.231 88.5456 104.788 88.7898 105.358 88.9933C106.064 89.2646 106.797 89.0475 107.503 89.2239C109.24 89.6581 109.539 90.3093 108.616 91.9373C108.548 92.073 108.426 92.1815 108.358 92.3036C106.498 95.4647 104.096 98.1102 101.028 100.145C100.526 100.471 100.119 100.919 100.254 101.556C100.39 102.221 100.906 102.533 101.585 102.628C103.268 102.831 103.458 103.184 102.779 104.731C102.63 105.084 102.44 105.409 102.222 105.735C99.9149 109.289 96.8609 112.016 93.0874 113.956C92.5173 114.255 91.8793 114.567 91.9472 115.367C92.0151 116.086 92.5444 116.371 93.1688 116.534C95.2999 117.09 95.5985 117.891 94.3905 119.749C92.8974 122.056 90.8477 123.806 88.6759 125.434C81.3869 130.874 73.4599 134.456 64.0805 133.533C62.3973 133.37 60.687 133.208 59.1396 132.407L59.1804 132.475Z" fill="#8ECF9E"/>
<path d="M59.1805 132.475C60.7279 133.276 62.4382 133.438 64.1213 133.601C73.5007 134.537 81.4277 130.942 88.7167 125.502C90.8885 123.887 92.9381 122.137 94.4312 119.817C95.6257 117.959 95.3407 117.158 93.2096 116.602C92.5717 116.439 92.0423 116.154 91.988 115.435C91.9201 114.635 92.5445 114.323 93.1282 114.024C96.8881 112.084 99.9421 109.344 102.263 105.803C102.467 105.491 102.657 105.151 102.82 104.799C103.498 103.252 103.295 102.899 101.625 102.696C100.947 102.614 100.444 102.289 100.295 101.624C100.159 100.986 100.567 100.539 101.069 100.213C104.123 98.1781 106.539 95.5325 108.399 92.3714C108.48 92.2358 108.589 92.1272 108.656 92.0051C109.579 90.3771 109.281 89.7123 107.543 89.2918C106.824 89.1154 106.105 89.3189 105.399 89.0611C104.829 88.8441 104.272 88.6134 104.177 88.0029C104.096 87.4467 104.516 87.0397 104.964 86.7141C107.326 84.9368 109.43 82.9153 110.978 80.3919C111.629 79.3201 112.24 78.2212 112.511 76.973C112.769 75.7927 112.443 75.3315 111.263 75.25C110.543 75.1958 109.851 74.938 109.118 75.0058C108.602 75.0465 108.046 74.8973 107.869 74.3953C107.666 73.8255 107.638 73.2015 108.154 72.6995C109.05 71.8176 109.946 70.9494 110.706 69.9318C112.348 67.7069 113.706 65.3598 114.303 62.6329C114.385 62.2665 114.384 61.8867 114.412 61.5068C114.48 60.5436 114.045 60.0687 113.068 60.1501C112.729 60.1772 112.389 60.2044 112.063 60.2994C111.33 60.4893 110.692 60.3943 110.245 59.7295C109.837 59.119 110.217 58.6442 110.543 58.1829C112.294 55.7273 113.448 53.0275 114.059 50.0835C114.289 48.9574 114.303 47.8043 114.059 46.6918C113.801 45.4979 113 45.1316 111.833 45.4165C111.032 45.62 110.231 46.3662 109.376 45.5929C108.534 44.8195 109.24 43.9648 109.335 43.1508C109.444 42.2554 109.498 41.3464 109.579 40.4374C110.407 39.1215 111.52 38.0904 112.824 37.2764C114.045 36.5031 114.276 36.5709 115.09 37.819C116.421 39.8676 116.814 42.2011 116.882 44.5753C116.95 46.8274 116.502 49.0117 115.755 51.3588C116.855 51.006 117.778 50.694 118.701 50.4091C120.561 49.8393 121.551 50.4634 121.524 52.4306C121.443 57.6945 119.312 62.0495 115.416 65.6311C115.715 66.0924 116.19 65.6854 116.556 65.6311C117.656 65.4955 118.728 65.2377 119.814 65.0342C121.389 64.7357 121.823 65.1292 121.755 66.7436C121.701 67.7883 121.389 68.7651 120.981 69.7148C119.42 73.405 117.113 76.5253 113.896 78.9538C113.747 79.0623 113.611 79.198 113.461 79.3201C113.434 79.3472 113.434 79.3879 113.394 79.5236C115.09 79.7 116.773 79.8628 118.457 80.0392C119.814 80.1884 120.167 80.6632 119.814 82.0199C119.285 84.055 118.131 85.7644 116.814 87.3653C114.737 89.9023 112.267 91.9644 109.227 93.4839C110.733 93.6739 112.24 93.8502 113.747 94.0402C114.276 94.108 114.805 94.1351 115.335 94.2165C116.556 94.3929 116.814 94.7864 116.353 95.9802C115.66 97.7846 114.507 99.3177 113.231 100.729C110.842 103.374 108.317 105.857 104.516 106.807C106.267 107.078 107.842 107.322 109.403 107.566C110.584 107.743 110.76 108 110.34 109.167C109.688 110.958 108.494 112.396 107.204 113.766C104.082 117.077 100.376 119.465 95.7479 120.753C96.3994 121.065 96.9016 121.052 97.3903 121.106C97.9197 121.16 98.449 121.228 98.9784 121.296C99.5892 121.364 100.2 121.391 100.797 121.5C102.399 121.784 102.833 122.626 102.141 124.118C101.693 125.095 101.014 125.936 100.254 126.696C94.2005 132.679 87.1829 136.911 78.6722 138.309C71.4511 139.489 64.8135 137.997 58.8819 133.615C58.7054 133.479 58.5018 133.371 58.3118 133.248C58.3118 132.638 58.7054 132.516 59.2076 132.529L59.1805 132.475Z" fill="#0CAD67"/>
<path d="M72.4693 75.7113C74.2068 75.3178 74.2203 75.5485 74.7769 77.2036C76.6365 82.6439 76.365 88.0842 74.3425 93.4567C74.2475 93.7281 73.9082 94.0537 74.1796 94.2843C74.5597 94.5963 74.7226 94.0672 74.994 93.918C75.9442 93.3753 76.5822 92.507 77.3423 91.7609C78.6182 90.5263 79.9213 90.8519 80.5592 92.5342C81.1429 94.0401 81.3194 95.6274 81.3737 97.2147C81.4823 100.172 81.333 103.13 80.7357 106.033C80.6543 106.44 80.7086 106.874 80.7086 107.281L80.4778 107.512C80.2063 108.53 79.867 109.52 79.6634 110.551C79.3783 112.03 78.5504 113.332 78.4146 114.852C76.65 118.691 74.3968 122.178 71.2884 125.081C68.8045 127.387 65.9811 129.138 62.8049 130.291C61.9226 130.616 61.0946 131.159 60.1037 131.105C59.8187 131.159 59.5336 131.24 59.2486 131.281C58.4206 131.403 58.3256 131.051 58.7192 130.426C60.7553 129.477 62.4248 128.039 63.9179 126.438C66.1576 124.036 67.99 121.35 69.361 118.338C70.9762 114.784 71.94 111.067 72.4965 107.2C72.8901 104.514 72.958 101.827 72.9037 99.1277C72.8766 97.7574 72.673 96.4143 72.2386 95.0983C71.6006 93.2125 70.6505 92.914 69.0488 94.0808C68.5601 94.4335 68.0172 94.6777 67.4607 94.3386C66.7141 93.8909 66.877 93.104 67.0127 92.4663C67.4878 90.2685 67.7593 88.0435 67.6371 85.805C67.515 83.5258 67.2028 81.2737 66.2798 79.1572C65.6011 77.6242 65.1939 77.5564 63.9451 78.601C63.4564 79.008 62.9678 79.2929 62.2891 78.9809C61.6511 78.6824 61.6919 78.1669 61.7054 77.6378C61.7733 73.8662 61.7869 70.1081 60.3481 66.5129C60.2259 66.2009 60.1037 65.8753 59.9409 65.5768C59.2622 64.3015 58.8957 64.2608 57.8369 65.2648C57.2261 65.8346 56.5746 66.3637 55.9638 66.9199C55.5023 67.3405 54.9865 67.3405 54.4707 67.137C53.982 66.9335 53.9142 66.4858 53.9006 65.9838C53.8463 63.9352 54.1178 61.8731 53.6698 59.838C53.2219 57.803 52.8418 55.7273 51.6202 53.9636C50.7108 52.6476 50.1407 52.5933 49.0548 53.6787C48.5661 54.1671 48.1046 54.669 47.5888 55.1168C47.1816 55.4695 46.693 55.7137 46.1229 55.4424C45.6071 55.1846 45.4849 54.7504 45.4442 54.2213C45.1456 50.7075 44.304 47.3429 42.5394 44.2497C42.0643 43.4085 41.4535 42.6895 40.7341 42.0519C40.0419 41.4278 39.431 41.5499 38.9288 42.3096C38.6709 42.6895 38.4402 43.0829 38.223 43.4764C37.9515 43.9919 37.5579 44.3718 36.9742 44.2904C36.2955 44.1954 35.9698 43.6934 35.834 43.0287C35.2775 40.4238 34.1509 38.0632 32.6171 35.9061C31.6941 34.6036 30.7439 33.3148 29.1694 32.6907C28.2192 32.3108 27.5405 32.5822 27.0926 33.464C26.8754 33.8982 26.7125 34.373 26.5089 34.8207C26.0338 35.7975 25.2873 35.9603 24.5272 35.2006C23.8756 34.5629 23.3055 33.8439 22.6947 33.1656C22.464 32.9078 22.2196 32.65 21.826 32.6772C21.2016 30.9542 21.188 29.1769 21.4324 27.3861C21.5545 26.5178 21.9889 26.1651 22.8983 26.26C25.0973 26.4907 26.9704 27.4403 28.7214 28.7021C30.8525 30.2487 32.5085 32.2159 33.9744 34.6036C34.4359 33.5319 34.816 32.5958 35.2232 31.6596C35.9426 30.018 36.9063 29.6924 38.3587 30.7235C40.6663 32.3787 41.9965 34.7936 43.1367 37.3035C44.1547 39.542 44.7791 41.8755 44.6841 44.4668C45.4713 43.1101 46.2722 41.7534 47.0459 40.3967C47.8467 39.0129 48.5526 38.9179 49.6656 40.0982C51.0501 41.577 51.8645 43.3814 52.5161 45.2672C53.5748 48.3198 54.077 51.4401 53.697 54.9268C55.0408 53.6108 56.2352 52.4576 57.4297 51.2909C58.5699 50.192 59.1672 50.2191 60.0359 51.5622C61.6104 54.0043 62.1534 56.7583 62.357 59.5938C62.5199 61.8866 62.4248 64.1659 61.719 66.3773C61.6511 66.5943 61.5833 66.825 61.7326 67.0285C61.7054 67.0285 61.6783 67.0013 61.6376 67.0013C61.624 67.0013 61.5968 67.0149 61.5833 67.0285H61.719C63.2393 65.5768 64.7731 64.1523 66.2933 62.7142C67.162 61.9002 67.6507 61.9545 68.2479 62.9991C69.2388 64.7492 69.646 66.6893 69.9039 68.6565C70.3247 71.8854 70.5012 75.1007 69.3067 78.2347C69.2931 78.2754 69.3746 78.3568 69.4967 78.5874C70.5012 77.5971 71.7771 76.973 72.4286 75.6706L72.4693 75.7113Z" fill="#0CAD67"/>
<path d="M78.4277 114.851C78.5635 113.346 79.3915 112.03 79.6765 110.551C79.8801 109.52 80.2059 108.529 80.4909 107.512L80.7217 107.281C83.1921 104.391 85.3096 101.244 87.3728 98.0692C90.1554 93.7957 92.6394 89.3457 94.9062 84.8008C96.9422 80.7172 98.8697 76.5793 100.431 72.2922C101.354 69.7552 102.236 67.2046 103.145 64.6676C103.58 63.4601 104.15 63.0803 105.168 63.3652C106.023 63.6094 106.362 64.4777 106.023 65.6444C105.005 69.1854 103.688 72.6314 102.277 76.0366C100.417 80.5273 98.3539 84.9229 96.0735 89.2236C92.5036 95.9528 88.4723 102.37 83.8165 108.407C82.3641 110.307 80.8439 112.152 79.3507 114.01C79.0928 114.336 78.7399 114.567 78.4277 114.851Z" fill="#0CAD67"/>
<path d="M61.7456 67.042H61.6096C61.6096 67.042 61.6504 67.0283 61.664 67.0283C61.6912 67.0283 61.7184 67.042 61.7592 67.0556H61.7456V67.042Z" fill="#FDFEFE"/>
<path d="M80.7217 107.295L80.491 107.526L80.7217 107.295Z" fill="#13BC79"/>
<path d="M52.692 96.0618C54.063 95.6955 55.4611 95.4106 56.8048 94.9629C58.4744 94.4066 59.316 95.0443 59.3296 96.6723C59.3431 98.5581 59.506 100.552 59.0038 102.316C57.8636 106.251 53.1535 107.756 50.1402 105.03C48.4977 103.537 47.5476 101.258 46.4753 99.2229C46.3124 98.8973 47.0453 97.7034 47.5883 97.4863C49.2307 96.8622 50.9953 96.5231 52.7056 96.0618H52.692Z" fill="black"/>
<path d="M38.6704 88.844C39.3219 91.2453 38.6025 93.4432 37.0008 93.9723C35.3584 94.5014 33.4174 92.9141 32.7658 90.5399C32.1007 88.0843 32.9287 85.8322 34.639 85.3844C36.295 84.9639 38.0053 86.4291 38.6704 88.844Z" fill="black"/>
<path d="M66.8225 81.4224C67.474 83.8237 66.7546 86.0216 65.1529 86.5507C63.5105 87.0798 61.5695 85.4925 60.9179 83.1183C60.2528 80.6626 61.0808 78.4105 62.7911 77.9628C64.4471 77.5422 66.1574 79.0075 66.8225 81.4224Z" fill="black"/>
</g>
</svg>
