<svg width="147" height="167" viewBox="0 0 147 167" fill="none" xmlns="http://www.w3.org/2000/svg">
<path d="M80.6401 27.6495C44.7248 22.2126 29.8165 48.491 28.8 61.4792" stroke="#CDC2FC" stroke-width="3"/>
<path d="M26.94 71.3136C26.6067 80.4891 29.9753 87.9612 31.7012 90.5503" stroke="#CDC2FC" stroke-width="3"/>
<path d="M106.246 97.0843C112.419 90.2878 114.665 82.4051 115.016 79.3133" stroke="#CDC2FC" stroke-width="3"/>
<path d="M109.44 52.8391C115.339 60.771 115.585 69.5841 114.971 72.9992" stroke="#CDC2FC" stroke-width="3"/>
<path d="M106.56 101.799C96.1116 111.591 83.0065 115.479 77.76 116.199" stroke="#CDC2FC" stroke-width="3"/>
<path d="M142.5 110.945C142.5 140.474 111.32 165.024 72 165.024C32.6797 165.024 1.5 140.474 1.5 110.945C1.5 81.4163 32.6797 56.8664 72 56.8664C111.32 56.8664 142.5 81.4163 142.5 110.945Z" fill="#EBDCC5" stroke="#EBDCC5" stroke-width="3"/>
<path d="M142.5 99.5771C142.5 129.106 111.32 153.656 72 153.656C32.6797 153.656 1.5 129.106 1.5 99.5771C1.5 70.0481 32.6797 45.4982 72 45.4982C111.32 45.4982 142.5 70.0481 142.5 99.5771Z" fill="#F7EFE2" stroke="#F7EFE2" stroke-width="3"/>
<path d="M134.921 93.2613C134.921 119.303 107.416 141.024 72.6313 141.024C37.8462 141.024 10.3418 119.303 10.3418 93.2613C10.3418 67.2199 37.8462 45.4982 72.6313 45.4982C107.416 45.4982 134.921 67.2199 134.921 93.2613Z" fill="#EA6B5D" stroke="#EA6B5D" stroke-width="3"/>
<line x1="135.395" y1="69.8929" x2="135.395" y2="95.156" stroke="#EA6B5D" stroke-width="3"/>
<line x1="10.3418" y1="69.8929" x2="10.3418" y2="95.156" stroke="#EA6B5D" stroke-width="3"/>
<ellipse cx="72.0002" cy="68.6295" rx="63.7895" ry="49.2631" fill="#F2897D"/>
<line x1="144.868" y1="107.157" x2="144.868" y2="113.473" stroke="#EBDCC5" stroke-width="3"/>
<line x1="1.5" y1="107.157" x2="1.5" y2="112.841" stroke="#EBDCC5" stroke-width="3"/>
<path d="M25.9199 52.8391C37.0908 34.9493 53.6145 30.025 60.4799 29.7991" stroke="#F7EFE2" stroke-width="3"/>
<path d="M111.203 20.1438L112.291 0.999992" stroke="#F7EFE2" stroke-width="3"/>
<path d="M118.08 21.1591L132.48 12.5191" stroke="#F7EFE2" stroke-width="3"/>
<path d="M125.683 31.4431L141.792 25.8652" stroke="#F7EFE2" stroke-width="3"/>
</svg>
