<svg width="222" height="256" viewBox="0 0 222 256" fill="none" xmlns="http://www.w3.org/2000/svg">
<path d="M220.5 169.738C220.5 216.458 171.379 254.536 110.5 254.536C49.6206 254.536 0.5 216.458 0.5 169.738C0.5 123.018 49.6206 84.9399 110.5 84.9399C171.379 84.9399 220.5 123.018 220.5 169.738Z" fill="#EBDCC5" stroke="#EBDCC5"/>
<path d="M220.5 152.291C220.5 199.011 171.379 237.089 110.5 237.089C49.6206 237.089 0.5 199.011 0.5 152.291C0.5 105.571 49.6206 67.4927 110.5 67.4927C171.379 67.4927 220.5 105.571 220.5 152.291Z" fill="#F7EFE2" stroke="#F7EFE2"/>
<path d="M208.868 142.598C208.868 183.965 165.389 217.703 111.469 217.703C57.5493 217.703 14.0701 183.965 14.0701 142.598C14.0701 101.231 57.5493 67.4927 111.469 67.4927C165.389 67.4927 208.868 101.231 208.868 142.598Z" fill="#84B86B" stroke="#84B86B"/>
<line x1="205.991" y1="106.734" x2="205.991" y2="145.506" stroke="#84B86B"/>
<line x1="207.93" y1="106.734" x2="207.93" y2="145.506" stroke="#84B86B"/>
<line x1="206.961" y1="106.734" x2="206.961" y2="145.506" stroke="#84B86B"/>
<line x1="16.5701" y1="106.734" x2="16.5701" y2="145.506" stroke="#84B86B" stroke-width="6"/>
<ellipse cx="110.5" cy="104.795" rx="97.8991" ry="75.6052" fill="#8ECF9E"/>
<line x1="220.531" y1="163.922" x2="220.531" y2="173.615" stroke="#EBDCC5"/>
<line x1="0.5" y1="163.922" x2="0.5" y2="172.646" stroke="#EBDCC5"/>
<path d="M38.5 81.1899C54.5 54.7899 78.1667 47.5233 88 47.1899" stroke="#F7EFE2" stroke-width="3"/>
<path d="M167.665 30.3804L169.335 0.999946" stroke="#F7EFE2" stroke-width="3"/>
<path d="M181 36.6899L199 15.6899" stroke="#F7EFE2" stroke-width="3"/>
<path d="M192.889 47.72L217.611 39.1594" stroke="#F7EFE2" stroke-width="3"/>
</svg>
