<svg width="117" height="154" viewBox="0 0 117 154" fill="none" xmlns="http://www.w3.org/2000/svg">
<path d="M32.4391 77.2383L32.5322 77.2915C32.2927 80.6586 33.7832 83.1472 35.8993 85.7557C36.2453 86.1683 36.8841 86.0884 37.1503 85.6093C38.9868 82.229 39.0534 78.995 39.1066 75.801C39.1066 75.1888 39.8253 74.8295 40.3044 75.2021C41.9679 76.5329 42.3139 79.5007 44.776 80.073C45.2152 80.1795 45.6544 79.8467 45.6943 79.3943C46.1068 74.4834 46.0536 69.8787 43.2855 65.8063C43.006 65.3805 43.1657 64.8082 43.6581 64.6485C44.1505 64.4888 44.6163 64.3291 45.0954 64.1694C45.4148 64.0629 45.7608 64.2093 45.9605 64.4888C47.4377 66.6315 49.9397 67.2969 52.109 68.3749C54.6908 69.6658 56.208 69.8388 55.5292 65.8596C54.3048 58.6597 52.1489 56.3041 45.1886 56.1045C44.7228 56.1045 44.3634 55.6653 44.4566 55.1995C46.0935 46.895 49.7267 39.429 54.1718 32.309C54.3581 32.0029 54.744 31.8831 55.0767 32.0029C72.1914 38.4442 89.7718 43.4215 107.233 48.7715C108.417 49.1309 109.934 49.9294 110.533 48.1194C110.959 46.8285 109.681 46.1365 108.696 45.7771C92.194 39.8948 76.6364 31.577 59.7347 26.7461C59.575 26.7061 59.4419 26.613 59.3487 26.4799C58.0977 24.7764 56.4608 23.0197 58.4438 20.9037C60.0674 19.1869 62.1169 20.0652 63.9934 20.7573C65.6436 21.3695 67.254 22.0349 68.8909 22.687C76.0375 25.7745 83.0245 29.288 90.6901 30.9915C90.77 31.0048 90.8498 31.0447 90.9164 31.0846C97.158 35.2235 104.291 37.3529 111.198 40.0013C117.573 42.4367 117.44 42.9158 113.501 48.1593C110.693 51.8857 112.955 57.1292 110.852 61.2948C106.487 70.9966 102.268 80.765 97.717 90.387C92.4601 101.5 85.4599 111.534 77.9539 121.236C77.9406 121.263 77.914 121.276 77.9007 121.303C69.3168 130.206 60.9591 139.335 51.5101 147.36C51.2173 147.613 50.7914 147.6 50.5119 147.334C47.9301 144.952 45.3216 142.623 42.8064 140.174C30.5759 128.21 18.3854 116.205 6.16821 104.215C5.86212 103.922 5.87543 103.429 6.16821 103.137C11.9308 97.7333 17.6135 92.2236 23.5224 86.9801" fill="#BDA6ED"/>
<path d="M5.06349 104.228C5.35628 103.922 5.84869 103.908 6.14148 104.201C18.3453 116.192 30.5492 128.196 42.7796 140.174C45.255 142.596 47.8368 144.898 50.3787 147.241C50.6981 147.533 50.7114 148.052 50.3787 148.345C43.4583 154.786 33.9428 154.973 26.9958 148.478C20.2884 142.197 13.7938 135.689 7.21946 129.274C7.19284 129.248 7.17954 129.234 7.15292 129.208C-1.31125 118.934 -1.93675 111.747 5.05018 104.214L5.06349 104.228Z" fill="#9B87C4"/>
<path d="M89.865 30.8185C82.6785 29.1017 76.0642 25.8412 69.3301 22.9133C69.0506 22.7935 68.8643 22.5007 68.8776 22.1947C69.0906 17.5766 69.2902 12.9719 69.4898 8.35388C69.4898 8.2341 69.5297 8.10102 69.5963 7.99455C75.4121 -2.1731 83.2108 -2.66551 90.6769 6.65039C90.7833 6.78348 90.8499 6.95649 90.8499 7.14281C90.8232 14.7952 90.8099 22.4475 90.7833 30.0866C90.7833 30.5657 90.3308 30.9383 89.8517 30.8185H89.865ZM80.3096 3.28336C80.2297 3.28336 80.1499 3.28336 80.0833 3.28336C74.9729 4.09517 71.8188 6.63709 72.085 12.027C72.2979 16.2192 74.2542 18.9873 77.7011 19.8524C84.1557 21.4627 90.0247 15.1146 88.1083 8.73982C87.0836 5.33286 84.209 3.6693 80.3229 3.27005L80.3096 3.28336Z" fill="#9B87C4"/>
<path d="M59.1622 26.9858C59.3619 26.8128 59.6147 26.7462 59.8676 26.8128C76.7161 31.6437 92.2204 39.9349 108.67 45.8039C109.654 46.1632 110.932 46.8553 110.506 48.1462C109.907 49.9562 108.39 49.1576 107.206 48.7983C89.7983 43.4616 72.2844 38.4976 55.2229 32.0962C54.7838 31.9365 54.5974 31.4175 54.8237 31.0182C55.8085 29.2349 57.6717 28.3033 59.1489 26.9991L59.1622 26.9858Z" fill="#9B87C4"/>
<path d="M44.5098 57.1695C44.2702 56.677 44.6695 56.1048 45.2151 56.1181C52.1355 56.331 54.2915 58.6866 55.5158 65.8732C56.1946 69.8657 54.6641 69.6794 52.0956 68.3885C49.9396 67.3105 47.4509 66.6584 45.9737 64.5423C45.7607 64.2362 45.8406 63.8104 46.1201 63.5708C47.2247 62.6126 47.9566 62.0137 47.5973 61.0289C47.2114 59.9642 45.2151 58.5668 44.5098 57.1561V57.1695Z" fill="#9B87C4"/>
<path d="M44.1104 67.2304C46.0401 70.9435 46.0401 75.0558 45.6808 79.4077C45.6409 79.8601 45.2017 80.1929 44.7625 80.0864C41.7948 79.4077 41.8879 75.2687 39.1064 74.6432V74.6699C41.3955 74.1109 40.2244 74.3505 42.4202 73.7383C42.713 73.6584 42.9393 73.3922 42.9659 73.0862C43.0591 71.6355 42.8195 69.5727 42.6997 67.643C42.6465 66.8312 43.7511 66.5251 44.1237 67.2437L44.1104 67.2304Z" fill="#9B87C4"/>
<path d="M39.1066 74.6434C39.04 78.2101 39.1997 81.83 37.1369 85.6096C36.8841 86.0887 36.232 86.1685 35.8859 85.756C34.0627 83.5201 32.7052 81.3642 32.5189 78.6626C32.479 78.077 33.1045 77.6777 33.6235 77.9439C34.3555 78.3165 34.8612 78.4496 35.5799 78.7557C35.8993 78.8888 36.2852 78.7823 36.4848 78.5029C37.4563 77.0655 38.2815 74.2175 39.1199 74.67V74.6434H39.1066Z" fill="#9B87C4"/>
</svg>
