<svg width="41" height="41" viewBox="0 0 41 41" fill="none" xmlns="http://www.w3.org/2000/svg">
<path d="M22.8917 20.4999L33.6542 9.73742C34.3375 9.05408 34.3375 8.02909 33.6542 7.34575C32.9708 6.66242 31.9458 6.66242 31.2625 7.34575L20.5 18.1083L9.73751 7.34575C9.05418 6.66242 8.02918 6.66242 7.34584 7.34575C6.66251 8.02909 6.66251 9.05408 7.34584 9.73742L18.1083 20.4999L7.34584 31.2624C7.00418 31.6041 6.83334 31.9457 6.83334 32.4582C6.83334 33.4832 7.51668 34.1666 8.54168 34.1666C9.05418 34.1666 9.39584 33.9958 9.73751 33.6541L20.5 22.8916L31.2625 33.6541C31.6042 33.9958 31.9458 34.1666 32.4583 34.1666C32.9708 34.1666 33.3125 33.9958 33.6542 33.6541C34.3375 32.9708 34.3375 31.9457 33.6542 31.2624L22.8917 20.4999Z" fill="#F2897D"/>
</svg>
