<svg width="377" height="728" viewBox="0 0 377 728" fill="none" xmlns="http://www.w3.org/2000/svg">
<path d="M272.991 159.09C272.991 159.09 319.111 159.09 339.404 110.902C340.327 109.282 340.788 107.257 342.171 105.637C346.784 98.7532 360.62 71.6221 333.409 35.1772C333.409 35.1772 315.421 -4.10226 262.383 0.35211C258.693 0.757053 255.003 1.56694 251.314 2.78177C240.245 6.8312 209.344 16.1449 178.904 12.5004C176.598 12.0955 174.754 11.6905 172.909 10.8806C166.913 8.85591 150.771 3.9966 129.094 1.56694C124.482 1.162 119.87 1.162 115.719 2.37682C102.805 5.21142 74.6719 12.0955 54.3788 26.6734C54.3788 26.6734 11.0255 60.6886 31.3185 116.976C32.7021 120.215 31.7797 123.86 29.4737 126.694L0.417712 163.544C-0.965907 165.569 1.34012 167.998 3.64615 166.784L34.0858 154.23L39.159 152.206C48.3831 148.561 58.5297 148.966 67.2926 153.421C82.9736 161.924 99.1158 163.949 99.1158 163.949C114.336 165.569 129.555 163.949 134.167 163.544C135.09 163.544 136.474 163.544 137.396 163.544C154.461 163.544 172.448 165.569 179.827 165.974C182.133 166.379 184.9 166.379 187.206 165.974C209.805 165.569 272.991 159.09 272.991 159.09Z" fill="#F7EFE2"/>
<path d="M110.523 77.4688C110.523 76.0781 110.789 74.7734 111.32 73.5547C111.852 72.3359 112.57 71.2734 113.477 70.3672C114.398 69.4453 115.469 68.7188 116.688 68.1875C117.906 67.6562 119.211 67.3906 120.602 67.3906H136.023V74.1172H120.602C120.133 74.1172 119.695 74.2031 119.289 74.375C118.883 74.5469 118.523 74.7891 118.211 75.1016C117.914 75.3984 117.68 75.75 117.508 76.1562C117.336 76.5625 117.25 77 117.25 77.4688C117.25 77.9375 117.336 78.3828 117.508 78.8047C117.68 79.2109 117.914 79.5703 118.211 79.8828C118.523 80.1797 118.883 80.4141 119.289 80.5859C119.695 80.7578 120.133 80.8438 120.602 80.8438H127.328C128.719 80.8438 130.023 81.1094 131.242 81.6406C132.477 82.1562 133.547 82.875 134.453 83.7969C135.375 84.7031 136.094 85.7734 136.609 87.0078C137.141 88.2266 137.406 89.5312 137.406 90.9219C137.406 92.3125 137.141 93.6172 136.609 94.8359C136.094 96.0547 135.375 97.125 134.453 98.0469C133.547 98.9531 132.477 99.6719 131.242 100.203C130.023 100.734 128.719 101 127.328 101H112.398V94.2734H127.328C127.797 94.2734 128.234 94.1875 128.641 94.0156C129.047 93.8438 129.398 93.6094 129.695 93.3125C130.008 93 130.25 92.6406 130.422 92.2344C130.594 91.8281 130.68 91.3906 130.68 90.9219C130.68 90.4531 130.594 90.0156 130.422 89.6094C130.25 89.2031 130.008 88.8516 129.695 88.5547C129.398 88.2422 129.047 88 128.641 87.8281C128.234 87.6562 127.797 87.5703 127.328 87.5703H120.602C119.211 87.5703 117.906 87.3047 116.688 86.7734C115.469 86.2422 114.398 85.5234 113.477 84.6172C112.57 83.6953 111.852 82.625 111.32 81.4062C110.789 80.1719 110.523 78.8594 110.523 77.4688ZM172.609 91.9297C172.609 93.2422 172.359 94.4844 171.859 95.6562C171.359 96.8125 170.672 97.8203 169.797 98.6797C168.938 99.5391 167.922 100.219 166.75 100.719C165.594 101.219 164.352 101.469 163.023 101.469C161.836 101.469 160.695 101.266 159.602 100.859C158.508 100.438 157.516 99.8281 156.625 99.0312C155.75 99.8281 154.766 100.438 153.672 100.859C152.594 101.266 151.453 101.469 150.25 101.469C148.922 101.469 147.68 101.219 146.523 100.719C145.367 100.219 144.352 99.5391 143.477 98.6797C142.617 97.8203 141.938 96.8125 141.438 95.6562C140.938 94.4844 140.688 93.2422 140.688 91.9297V75.9453H147.086V91.9297C147.086 92.3672 147.164 92.7812 147.32 93.1719C147.492 93.5469 147.719 93.8828 148 94.1797C148.297 94.4609 148.633 94.6875 149.008 94.8594C149.398 95.0156 149.812 95.0938 150.25 95.0938C150.688 95.0938 151.102 95.0156 151.492 94.8594C151.883 94.6875 152.227 94.4609 152.523 94.1797C152.82 93.8828 153.047 93.5469 153.203 93.1719C153.375 92.7812 153.461 92.3672 153.461 91.9297V75.9453H159.836V91.9297C159.836 92.3672 159.922 92.7812 160.094 93.1719C160.266 93.5469 160.492 93.8828 160.773 94.1797C161.07 94.4609 161.406 94.6875 161.781 94.8594C162.172 95.0156 162.586 95.0938 163.023 95.0938C163.461 95.0938 163.875 95.0156 164.266 94.8594C164.656 94.6875 164.992 94.4609 165.273 94.1797C165.57 93.8828 165.805 93.5469 165.977 93.1719C166.148 92.7812 166.234 92.3672 166.234 91.9297V75.9453H172.609V91.9297ZM184.797 69.0781C184.797 69.6719 184.68 70.2266 184.445 70.7422C184.227 71.2578 183.922 71.7109 183.531 72.1016C183.141 72.4766 182.68 72.7812 182.148 73.0156C181.633 73.2344 181.078 73.3438 180.484 73.3438C179.891 73.3438 179.328 73.2344 178.797 73.0156C178.281 72.7812 177.828 72.4766 177.438 72.1016C177.062 71.7109 176.758 71.2578 176.523 70.7422C176.305 70.2266 176.195 69.6719 176.195 69.0781C176.195 68.5 176.305 67.9531 176.523 67.4375C176.758 66.9062 177.062 66.4531 177.438 66.0781C177.828 65.6875 178.281 65.3828 178.797 65.1641C179.328 64.9297 179.891 64.8125 180.484 64.8125C181.078 64.8125 181.633 64.9297 182.148 65.1641C182.68 65.3828 183.141 65.6875 183.531 66.0781C183.922 66.4531 184.227 66.9062 184.445 67.4375C184.68 67.9531 184.797 68.5 184.797 69.0781ZM183.695 101H177.25V75.8984H183.695V101ZM195.039 110.562H188.594V75.8984H190.141L192.695 78.9219C193.273 78.375 193.906 77.8594 194.594 77.375C195.281 76.8906 195.992 76.4766 196.727 76.1328C197.477 75.7734 198.25 75.4922 199.047 75.2891C199.844 75.0859 200.648 74.9844 201.461 74.9844C203.227 74.9844 204.883 75.3047 206.43 75.9453C207.992 76.5703 209.352 77.4609 210.508 78.6172C211.68 79.7734 212.602 81.1719 213.273 82.8125C213.945 84.4375 214.281 86.2422 214.281 88.2266C214.281 90.2891 213.945 92.1484 213.273 93.8047C212.602 95.4453 211.68 96.8438 210.508 98C209.352 99.1406 207.992 100.016 206.43 100.625C204.883 101.234 203.227 101.539 201.461 101.539C200.898 101.539 200.336 101.477 199.773 101.352C199.227 101.227 198.68 101.062 198.133 100.859C197.602 100.641 197.07 100.398 196.539 100.133C196.023 99.8672 195.523 99.5938 195.039 99.3125V110.562ZM207.859 88.2266C207.859 87.1641 207.688 86.2109 207.344 85.3672C207.016 84.5234 206.562 83.8125 205.984 83.2344C205.406 82.6406 204.727 82.1875 203.945 81.875C203.164 81.5625 202.336 81.4062 201.461 81.4062C200.586 81.4062 199.758 81.5625 198.977 81.875C198.211 82.1875 197.539 82.6406 196.961 83.2344C196.383 83.8125 195.922 84.5234 195.578 85.3672C195.25 86.2109 195.086 87.1641 195.086 88.2266C195.086 89.2422 195.25 90.1719 195.578 91.0156C195.922 91.8594 196.383 92.5781 196.961 93.1719C197.539 93.7656 198.211 94.2266 198.977 94.5547C199.758 94.8828 200.586 95.0469 201.461 95.0469C202.336 95.0469 203.164 94.8828 203.945 94.5547C204.727 94.2266 205.406 93.7656 205.984 93.1719C206.562 92.5781 207.016 91.8594 207.344 91.0156C207.688 90.1719 207.859 89.2422 207.859 88.2266ZM227.828 94.8594C228.078 94.9375 228.328 94.9922 228.578 95.0234C228.828 95.0391 229.078 95.0469 229.328 95.0469C229.953 95.0469 230.555 94.9609 231.133 94.7891C231.711 94.6172 232.25 94.375 232.75 94.0625C233.266 93.7344 233.719 93.3438 234.109 92.8906C234.516 92.4219 234.844 91.9062 235.094 91.3438L239.781 96.0547C239.188 96.8984 238.5 97.6562 237.719 98.3281C236.953 99 236.117 99.5703 235.211 100.039C234.32 100.508 233.375 100.859 232.375 101.094C231.391 101.344 230.375 101.469 229.328 101.469C227.562 101.469 225.898 101.141 224.336 100.484C222.789 99.8281 221.43 98.9141 220.258 97.7422C219.102 96.5703 218.188 95.1797 217.516 93.5703C216.844 91.9453 216.508 90.1641 216.508 88.2266C216.508 86.2422 216.844 84.4297 217.516 82.7891C218.188 81.1484 219.102 79.75 220.258 78.5938C221.43 77.4375 222.789 76.5391 224.336 75.8984C225.898 75.2578 227.562 74.9375 229.328 74.9375C230.375 74.9375 231.398 75.0625 232.398 75.3125C233.398 75.5625 234.344 75.9219 235.234 76.3906C236.141 76.8594 236.984 77.4375 237.766 78.125C238.547 78.7969 239.234 79.5547 239.828 80.3984L227.828 94.8594ZM231.109 81.6641C230.812 81.5547 230.516 81.4844 230.219 81.4531C229.938 81.4219 229.641 81.4062 229.328 81.4062C228.453 81.4062 227.625 81.5703 226.844 81.8984C226.078 82.2109 225.406 82.6641 224.828 83.2578C224.266 83.8516 223.82 84.5703 223.492 85.4141C223.164 86.2422 223 87.1797 223 88.2266C223 88.4609 223.008 88.7266 223.023 89.0234C223.055 89.3203 223.094 89.625 223.141 89.9375C223.203 90.2344 223.273 90.5234 223.352 90.8047C223.43 91.0859 223.531 91.3359 223.656 91.5547L231.109 81.6641Z" fill="#8ECF9E"/>
<path d="M308.008 567.21C304.476 566.143 295.027 577.252 295.027 577.252L309.507 599.111L333.54 623.868L333.657 626.715L348.282 615.613L320.871 578.469L308.008 567.21Z" fill="#FFDD93"/>
<path d="M216.436 661.285C218.172 658.755 220.317 656.604 222.597 654.58C226.106 651.45 229.557 648.281 233.337 645.455C238.573 641.542 244.137 638.124 249.839 634.954C258.075 630.39 266.597 626.361 274.91 621.936C280.305 619.067 284.996 615.277 289.2 610.85C293.124 606.708 296.566 602.172 299.915 597.571C300.844 596.28 301.878 595.059 302.749 593.728C302.935 593.429 302.98 593.238 302.759 592.935C299.199 587.91 295.712 582.851 291.471 578.351C290.746 577.586 290.784 576.676 291.615 576.032C296.734 572.039 301.663 567.798 306.902 563.955C307.756 563.327 308.4 563.408 309.196 564.17C319.257 573.784 327.905 584.598 336.187 595.726C340.462 601.457 344.575 607.3 348.696 613.131C349.033 613.615 349.349 614.103 349.666 614.59C350.284 615.538 350.15 616.213 349.241 616.872C345.949 619.23 342.666 621.576 339.374 623.935C337.758 625.083 336.145 626.25 334.529 627.399C333.609 628.05 332.921 627.957 332.225 627.075C328.002 621.77 323.306 616.91 318.625 612.026C318.334 611.726 318.077 611.704 317.704 611.876C309.293 615.793 301.33 620.457 294.015 626.174C288.872 630.201 284.09 634.627 279.742 639.518C275.173 644.634 270.139 649.28 265.015 653.831C261.833 656.655 258.574 659.393 255.221 662.016C249.409 666.576 243.435 670.923 236.835 674.335C233.282 676.175 229.625 677.74 225.601 678.239C223.382 678.518 221.213 678.371 219.145 677.374C217.256 676.464 215.989 674.99 215.054 673.18C212.94 669.088 213.713 665.29 216.194 661.666C216.277 661.518 216.356 661.402 216.436 661.285ZM218.8 662.926C218.171 663.776 217.683 664.72 217.28 665.689C216.08 668.533 217.121 672.372 219.538 674.186C221.194 675.413 223.081 675.573 225.034 675.385C228.039 675.079 230.812 673.986 233.521 672.712C238.713 670.267 243.466 667.114 248.075 663.746C254.467 659.086 260.517 654.024 266.366 648.707C269.596 645.762 272.834 642.805 275.753 639.564C279.087 635.89 282.471 632.267 286.184 628.987C286.602 628.624 286.604 628.37 286.275 627.976C284.644 625.983 283.014 623.99 281.412 621.981C281.145 621.646 280.933 621.656 280.603 621.891C279.785 622.441 278.964 622.972 278.104 623.46C272.789 626.486 267.263 629.095 261.833 631.889C256.061 634.859 250.328 637.873 244.772 641.228C237.979 645.325 231.724 650.111 225.894 655.476C223.369 657.811 220.793 660.094 218.8 662.926ZM307.938 566.923C307.731 566.851 307.561 567.076 307.376 567.222C303.113 570.384 299.073 573.817 294.902 577.092C294.54 577.374 294.664 577.543 294.893 577.783C297.268 580.436 299.424 583.263 301.5 586.155C303.998 589.658 306.433 593.202 308.977 596.685C312.594 601.628 316.836 606.027 321.106 610.41C325.302 614.726 329.462 619.069 333.241 623.748C333.678 624.284 333.987 624.357 334.495 623.886C334.865 623.542 335.321 623.273 335.742 622.98C339.151 620.549 342.537 618.102 345.962 615.698C346.462 615.34 346.717 615.139 346.28 614.553C343.121 610.192 340.005 605.793 336.845 601.433C328.631 590.181 320.085 579.215 310.316 569.272C309.56 568.502 308.768 567.76 307.938 566.923ZM316.077 609.426C315.907 609.225 315.775 609.068 315.636 608.922C313.046 606.208 310.503 603.475 308.243 600.475C307.21 599.109 306.216 597.736 305.227 596.331C304.89 595.847 304.644 595.884 304.343 596.326C304.28 596.419 304.197 596.516 304.133 596.609C301.44 600.497 298.594 604.282 295.593 607.944C292.141 612.168 288.38 616.096 284.013 619.409C283.454 619.829 283.542 620.076 283.918 620.553C285.49 622.455 287.038 624.393 288.571 626.354C288.815 626.673 288.949 626.577 289.165 626.383C289.748 625.877 290.346 625.399 290.952 624.909C296.678 620.274 302.822 616.28 309.321 612.816C311.54 611.635 313.77 610.513 316.077 609.426Z" fill="white"/>
<path d="M223.878 669.783C222.732 668.935 222.013 667.834 221.935 666.368C221.867 665.164 222.126 664.03 222.686 662.981C223.103 662.192 223.898 661.95 224.65 662.324C225.277 662.632 225.548 663.463 225.264 664.206C225.208 664.338 225.172 664.467 225.116 664.599C224.372 666.697 225.068 667.732 227.295 667.867C229.464 668.014 231.321 667.165 233.078 666.011C235.42 664.471 237.349 662.463 239.432 660.628C244.559 656.096 249.938 651.872 255.53 647.911C256.737 647.064 257.933 646.208 259.14 645.361C259.954 644.791 260.829 644.909 261.3 645.621C261.787 646.36 261.608 647.175 260.782 647.737C254.48 652.066 248.394 656.678 242.606 661.679C240.378 663.603 238.316 665.708 235.971 667.501C233.768 669.186 231.392 670.499 228.547 670.744C226.896 670.915 225.334 670.653 223.878 669.783Z" fill="white"/>
<path d="M271.606 639.468C270.592 640.533 269.372 641.575 267.965 642.39C267.317 642.766 266.514 642.492 266.12 641.867C265.715 641.234 265.866 640.384 266.511 639.937C267.612 639.171 268.655 638.365 269.608 637.413C270.145 636.875 270.989 636.888 271.529 637.373C272.079 637.918 272.167 638.693 271.606 639.468Z" fill="white"/>
<path d="M308.039 571.367C308.358 571.6 308.624 572.088 308.929 572.516C313.635 579.018 318.731 585.222 323.898 591.372C329.614 598.169 335.307 605 340.866 611.928C341.068 612.184 341.269 612.44 341.462 612.708C342.004 613.467 341.903 614.318 341.207 614.815C340.558 615.293 339.683 615.175 339.157 614.443C337.378 611.991 335.347 609.759 333.466 607.408C329.668 602.682 325.748 598.06 321.856 593.423C316.488 587.016 311.183 580.568 306.291 573.787C305.974 573.35 305.61 572.933 305.669 572.343C305.772 571.239 306.989 570.653 308.039 571.367Z" fill="white"/>
<path d="M302.909 575.777C304.887 577.309 306.362 579.179 307.848 581.058C314.045 588.879 320.089 596.8 326.188 604.69C329.361 608.804 332.7 612.776 335.971 616.821C336.571 617.569 336.553 618.374 335.907 618.922C335.262 619.471 334.477 619.346 333.794 618.643C331.898 616.691 330.466 614.356 328.692 612.298C321.703 604.161 315.604 595.317 308.836 587.006C306.777 584.465 304.89 581.77 302.638 579.388C302.219 578.95 301.773 578.528 301.271 578.187C300.376 577.596 300.183 576.801 300.706 576.032C301.22 575.276 302.077 575.194 302.909 575.777Z" fill="white"/>
<path d="M201.67 258.541L193.31 264.36L236.126 325.873L244.485 320.055L201.67 258.541Z" fill="#FFDD93"/>
<path d="M191.05 252.102C190.985 250.804 190.895 249.759 190.866 248.705C190.735 243.794 192.593 239.815 196.583 236.971C202.817 232.531 209.152 228.189 215.433 223.817C216.337 223.188 217.303 222.649 218.358 222.285C221.042 221.323 223.719 220.399 226.397 219.476C228.02 218.917 229.728 218.769 231.417 219.171C234.848 220.005 236.079 223.412 233.953 226.235C231.224 229.88 226.34 230.862 222.427 228.517C221.979 228.258 221.634 228.196 221.148 228.366C220.367 228.641 219.626 229.023 218.949 229.494C212.961 233.662 206.99 237.852 200.987 241.996C198.396 243.766 197.238 246.15 197.569 249.277C197.761 251.191 197.831 253.123 197.924 255.039C197.956 255.856 198.191 256.531 198.664 257.21C199.073 257.798 199.449 258.241 200.315 258.041C201.076 257.881 201.734 258.296 202.22 258.897C202.478 259.221 202.714 259.56 202.951 259.899C216.456 279.303 229.962 298.707 243.468 318.111C244.286 319.287 244.827 320.354 244.156 321.895C243.755 322.812 244.795 323.969 245.516 324.138C247.726 324.614 248.828 326.197 249.848 327.904C250.608 329.188 251.457 329.638 253.05 329.469C257.197 329.067 261.236 329.713 265.317 330.566C266.575 330.831 268.039 331.055 269.442 330.951C270.708 330.842 271.97 330.534 273.274 330.432C280.426 329.818 286.649 327.098 292.085 322.476C292.596 322.053 293.268 320.947 293.99 321.888C294.735 322.814 293.504 323.166 292.971 323.605C287.718 328.201 281.673 331.032 274.676 331.773C273.365 331.913 272.056 332.153 270.732 332.37C270.648 332.394 270.58 332.441 270.217 332.594C270.934 332.901 271.481 333.157 272.042 333.337C278.653 335.752 285.481 336.069 292.399 335.551C295.427 335.324 298.412 334.891 301.422 334.542C301.788 334.489 302.153 334.436 302.505 334.459C302.857 334.483 303.091 334.723 303.129 335.066C303.182 335.432 302.996 335.695 302.694 335.839C302.542 335.91 302.344 335.914 302.161 335.941C293.564 337.225 284.949 338.051 276.325 336.165C273.946 335.638 271.631 334.866 269.388 333.909C268.91 333.704 268.413 333.279 267.947 334.006C267.843 334.146 267.409 334.246 267.339 334.194C266.317 333.159 265.382 334.079 264.479 334.372C261.307 335.405 258.087 335.934 254.755 335.869C254.006 335.854 253.604 335.999 253.138 336.726C252.185 338.296 250.655 339.327 248.861 339.737C247.249 340.12 245.854 339.513 244.894 338.134C243.345 335.956 241.856 333.769 240.329 331.575C239.81 330.829 239.487 329.979 239.683 329.104C239.87 328.169 239.49 327.526 239.002 326.825C238.64 326.305 238.32 325.991 237.567 326.112C236.287 326.298 235.59 325.44 234.929 324.491C228.679 315.512 222.446 306.557 216.197 297.579C208.83 286.995 201.463 276.411 194.097 265.827C193.341 264.741 193 263.77 193.545 262.384C194.003 261.259 192.976 260.362 192.104 259.929C189.689 258.723 187.214 257.625 184.674 256.674C182.526 255.853 180.427 256.306 178.514 257.605C172.368 261.882 166.245 266.144 160.116 270.444C159.619 270.79 159.192 271.188 158.742 271.602C158.082 272.195 157.889 272.833 158.092 273.8C159.066 278.09 155.342 283.1 150.944 283.576C148.162 283.867 146.138 282.019 146.126 279.208C146.124 277.229 146.921 275.532 148.136 274.048C151.778 269.499 155.476 265.079 160.584 261.96C165.201 259.15 169.541 255.893 173.945 252.728C178.755 249.279 183.747 248.692 189.101 251.277C189.648 251.533 190.241 251.758 191.05 252.102ZM215.778 294.278C216.596 295.454 217.399 296.607 218.218 297.783C224.168 306.332 230.118 314.881 236.068 323.429C237.138 324.967 237.177 324.974 238.774 323.896C239.723 323.235 240.649 322.59 241.598 321.93C243.36 320.703 243.383 320.688 242.171 318.946C228.744 299.655 215.317 280.365 201.89 261.074C201.685 260.78 201.442 260.479 201.26 260.169C200.826 259.498 200.29 259.401 199.628 259.896C198.446 260.752 197.21 261.578 196.013 262.412C194.409 263.528 194.424 263.551 195.551 265.218C202.288 274.897 209.025 284.576 215.778 294.278ZM166.377 259.875C163.327 261.998 160.276 264.121 157.226 266.244C156.39 266.826 155.593 267.415 154.937 268.207C153.05 270.46 151.148 272.69 149.316 274.973C148.325 276.2 147.636 277.619 147.662 279.246C147.66 281.027 148.829 282.127 150.546 282.04C154.162 281.839 157.556 277.463 156.591 274.005C156.213 272.69 156.424 271.838 157.315 270.95C157.824 270.428 158.333 269.906 158.943 269.481C165.224 265.109 171.527 260.722 177.808 256.35C180.338 254.589 183.06 254.306 185.911 255.511C188.191 256.475 190.443 257.493 192.717 258.495C193.233 258.707 193.652 259.02 193.982 259.495C195.17 261.152 195.192 261.137 196.819 260.004C197 259.879 197.187 259.714 197.384 259.611C197.935 259.295 198.087 258.887 197.619 258.407C196.511 257.298 196.422 255.916 196.346 254.458C196.276 252.527 196.107 250.597 196.014 248.68C195.849 245.505 197.019 242.945 199.662 241.105C205.876 236.781 212.089 232.456 218.302 228.132C219.251 227.471 220.296 227.046 221.411 226.672C221.98 226.478 222.433 226.599 222.945 226.948C226.132 229.262 230.523 228.488 232.779 225.273C234.16 223.305 233.447 221.317 231.143 220.705C229.576 220.285 228.046 220.544 226.545 221.085C224.079 221.928 221.591 222.787 219.142 223.653C218.277 223.952 217.453 224.358 216.685 224.893C210.291 229.343 203.843 233.764 197.496 238.282C193.897 240.821 192.245 244.422 192.442 248.85C192.5 250.186 192.619 251.513 192.7 252.834C192.756 254.07 192.349 254.353 191.224 253.894C189.915 253.362 188.626 252.715 187.317 252.183C183.334 250.557 179.498 250.876 175.92 253.3C172.671 255.427 169.54 257.674 166.377 259.875ZM252.181 334.002C250.355 331.379 248.709 328.966 247.017 326.584C246.703 326.132 246.139 325.853 245.582 325.871C244.734 325.857 244.275 325.438 243.818 324.782C242.629 323.025 242.606 323.041 240.927 324.243C240.814 324.322 240.717 324.423 240.588 324.479C239.719 324.916 239.806 325.427 240.339 326.096C241.084 327.021 241.79 327.94 241.268 329.31C241.037 329.941 241.509 330.62 241.918 331.208C243.13 332.949 244.417 334.605 245.516 336.425C247.444 339.581 249.73 338.192 251.589 336.428C251.799 336.248 252.172 335.821 251.68 335.693C250.882 335.51 250.119 334.799 249.127 335.59C248.158 336.366 246.999 336.098 246.229 335.089C245.397 333.99 244.61 332.859 243.868 331.697C243.189 330.625 243.402 329.436 244.351 328.776C245.329 328.061 246.533 328.298 247.35 329.374C248.128 330.444 248.944 331.521 249.61 332.669C250.108 333.531 250.834 333.898 252.181 334.002ZM252.234 331.044C252.711 331.921 253.214 332.644 253.468 333.442C253.696 334.156 254.059 334.34 254.731 334.342C257.023 334.358 259.295 334.153 261.53 333.605C262.73 333.306 263.94 333.068 265.261 332.316C260.872 330.974 256.657 330.651 252.234 331.044ZM246.541 332.791C247.548 331.586 246.579 330.918 246.037 330.187C245.88 329.961 245.609 329.813 245.323 329.98C244.968 330.193 244.99 330.513 245.156 330.8C245.574 331.449 246.022 332.044 246.541 332.791Z" fill="white"/>
<path d="M259.151 442.168C258.54 442.953 257.937 443.756 257.306 444.525C257.043 444.849 256.668 444.902 256.287 444.671C255.998 444.488 255.896 444.204 255.948 443.889C256.084 443.132 256.194 442.367 256.4 441.632C256.541 441.118 256.705 440.631 256.72 440.071C256.737 439.33 256.43 438.811 255.743 438.751C255.144 438.704 254.484 439.053 254.357 439.687C254.022 441.323 253.276 442.876 253.258 444.576C253.255 444.8 253.341 445.05 253.283 445.263C252.959 446.51 252.98 448.186 251.951 448.775C250.911 449.377 250.099 447.775 249.139 447.222C248.676 446.959 248.266 446.586 247.818 446.302C247.384 446.029 246.945 446.054 246.546 446.4C246.153 446.752 246.029 447.162 246.311 447.63C246.893 448.599 247.414 449.522 248.513 450.173C252.968 452.799 252.055 452.919 249.469 455.896C246.4 459.424 243.436 463.066 240.919 467.034C239.232 469.687 237.413 472.259 235.956 475.059C234.7 477.476 234.061 480.083 233.524 482.726C233.274 483.975 233.511 485 234.632 485.733C234.89 485.901 235.116 486.109 235.342 486.317C237.345 488.146 238.616 488.036 240.235 485.901C240.663 485.351 240.904 484.708 241.169 484.063C242.786 480.159 244.376 476.245 246.082 472.378C247.95 468.164 250.468 464.292 252.862 460.358C253.542 459.249 254.323 458.176 254.861 456.999C255.631 455.303 256.989 454.183 258.37 453.114C260.36 451.569 262.323 449.96 264.574 448.771C265.273 448.399 265.754 447.781 266.123 447.099C266.408 446.566 266.725 445.993 266.15 445.417C265.54 444.802 265.042 445.234 264.516 445.535C263.255 446.256 262.306 447.447 260.881 447.922C260.665 447.991 260.487 448.165 260.287 448.269C259.913 448.473 259.547 448.458 259.259 448.136C258.964 447.81 258.963 447.367 259.238 447.097C260.9 445.501 260.842 442.945 262.475 441.317C263.019 440.771 263.11 440.044 262.156 439.678C261.576 439.454 261.116 439.699 260.752 440.181C260.235 440.845 259.712 441.516 259.195 442.181L259.148 442.144L259.151 442.168Z" fill="#323131"/>
<path d="M168.369 553.592C167.274 554.442 166.251 555.399 165.075 556.118C163.211 557.253 161.244 558.103 158.978 557.182C157.991 556.785 157.225 556.228 157.122 555.07C157.032 553.998 157.745 553.487 158.484 552.859C163.881 548.258 168.899 543.294 171.948 536.737C173.07 534.314 174.268 531.877 174.379 529.109C174.425 527.92 174.947 526.998 176.122 526.667C177.172 526.368 177.572 525.649 177.801 524.696C178.022 523.802 178.25 522.904 178.761 522.119C179.903 520.36 182.082 520.239 183.389 521.852C184.191 522.844 184.651 523.963 184.525 525.256C184.353 527.004 184.079 528.703 183.308 530.358C181.981 533.198 181.398 536.343 179.775 539.078C177.943 542.182 176.32 545.402 174.087 548.267C172.453 550.365 170.458 552.012 168.376 553.587L168.369 553.592Z" fill="#2D2D2D"/>
<path d="M212.704 514.923C213.326 515.668 213.479 516.572 213.575 517.499C213.979 521.278 213.629 525.028 212.933 528.735C212.045 533.484 210.598 538.097 208.558 542.471C206.725 546.393 203.956 549.718 200.965 552.827C200.49 553.325 199.968 553.763 199.525 554.301C198.458 555.603 196.517 555.711 195.211 554.722C194.691 554.33 194.668 553.787 194.634 553.286C194.554 552.088 195.03 551.051 195.777 550.126C196.595 549.114 197.338 548.019 198.227 547.07C200.495 544.652 201.823 541.704 202.732 538.618C203.437 536.197 204.327 533.836 205.02 531.414C206.363 526.752 207.355 522.04 208.101 517.26C208.221 516.499 208.304 515.746 208.786 515.092C209.803 513.698 211.627 513.606 212.71 514.93L212.704 514.923Z" fill="#2D2D2D"/>
<path d="M111.089 489.876C111.986 487.502 114.443 487.692 115.678 486.215C115.544 485.424 114.949 485.468 114.312 485.417C111.748 485.222 109.196 484.974 106.571 484.732C106.693 483.41 107.223 483.116 108.279 483.215C110.241 483.4 112.218 483.445 114.484 483.557C112.489 480.987 108.965 480.583 107.289 477.769C108.65 477.127 109.573 477.444 110.394 478.237C111.776 479.563 113.59 479.857 115.499 480.519C114.759 478.13 112.96 476.378 113.156 473.944C114.112 473.343 114.764 473.534 115.245 474.507C116.056 476.161 116.948 477.766 117.696 479.441C118.466 481.18 119.589 482.488 121.251 483.487C127.116 487.003 132.91 490.635 138.762 494.173C139.999 494.921 141.387 495.423 142.717 496.02C143.21 496.242 143.762 496.35 144.207 496.633C148.258 499.187 152.661 501.019 157.071 502.825C157.358 502.941 157.642 503.065 157.898 503.232C158.883 503.856 159.066 504.826 158.893 505.857C158.718 506.907 157.788 507.235 156.974 507.165C155.474 507.023 153.909 506.842 152.521 506.29C147.748 504.411 142.93 502.604 138.34 500.329C134.646 498.493 131.208 496.096 127.744 493.822C125.313 492.222 123.036 490.387 120.663 488.693C119.006 487.507 117.259 487.573 115.483 488.469C114.397 489.021 113.306 489.579 112.191 490.063C111.973 490.158 111.638 489.973 111.086 489.864L111.089 489.876Z" fill="#2D2D2D"/>
<path d="M172.528 430.535C172.054 422.59 172.663 414.75 175.02 407.094C175.106 406.79 175.234 406.497 175.338 406.201L176.502 405.911C177.211 406.436 177.315 407.152 177.24 407.998C176.693 413.117 177.065 418.213 177.945 423.269C178.05 423.877 177.589 424.655 178.373 425.123C178.66 425.923 178.639 426.769 178.704 427.601C178.805 429.063 178.925 430.52 179.13 431.976C179.46 434.412 179.858 436.838 180.224 439.278C178.959 440.325 177.55 440.688 176.015 440.362L172.532 430.553L172.522 430.54L172.528 430.535Z" fill="#13BC79"/>
<path d="M176.012 440.343C177.54 440.675 178.942 440.317 180.221 439.26C181.742 438.681 183.18 438.716 184.478 440.013C184.724 439.068 184.942 438.35 185.091 437.599C185.385 436.078 186.254 435.09 187.73 434.633C189.066 434.371 190.216 434.77 191.162 435.683C195.449 439.816 200.516 442.471 206.224 444.176C212.008 445.897 217.566 448.256 222.748 451.392C231.073 456.439 237.123 463.327 240.458 472.571C243.405 480.718 243.911 488.843 240.698 497.046C238.575 502.464 235.243 507.034 231.066 511.042C225.851 516.03 219.887 519.887 213.258 522.721C213.199 522.368 213.468 522.256 213.706 522.092C214.805 521.358 215.941 520.658 216.971 519.848C222.955 515.102 227.392 509.266 229.683 501.886C231.482 496.106 231.762 490.213 230.623 484.324C229.675 479.332 228.181 474.483 225.837 469.885C222.234 462.82 217.121 457.152 210.586 452.773C207.499 450.713 204.282 448.775 200.834 447.275C199.898 446.86 199.275 446.946 198.875 447.859C198.48 448.737 199.036 449.188 199.739 449.525C203.76 451.431 207.614 453.606 211.228 456.248C218.79 461.769 223.68 469.159 226.533 477.949C227.59 481.209 228.373 484.575 228.684 488.038C229.326 495.132 227.932 501.739 224.414 507.885C222.074 511.985 218.794 515.277 215.087 518.144C214.214 518.823 213.334 519.603 212.26 519.953C212.075 519.687 212.154 519.54 212.237 519.411C214.325 516.594 215.603 513.415 216.508 510.074C218.54 502.583 218.037 495.059 216.562 487.6C215.541 482.459 213.9 477.477 211.857 472.613C208.951 465.739 205.009 459.582 199.739 454.295C197.903 452.458 196.015 450.651 193.919 449.103C193.247 448.612 192.599 448.555 192.037 449.315C191.467 450.092 191.781 450.677 192.429 451.164C194.23 452.512 195.885 454.005 197.481 455.575C200.49 458.548 203.124 461.8 205.323 465.422C207.87 469.615 209.887 474.015 211.416 478.674C212.905 483.225 214.145 487.83 214.825 492.546C215.485 497.138 215.507 501.784 214.702 506.404C213.788 511.605 211.983 516.366 208.283 520.253C207.052 521.553 205.709 522.791 203.858 523.582C204.272 521.592 204.59 519.783 204.635 517.928C204.729 513.806 204.332 509.732 203.815 505.642C203.261 501.227 202.339 496.892 201.41 492.563C200.072 486.279 198.225 480.144 196.265 474.03C195.596 471.976 194.957 469.92 194.173 467.912C193 464.904 191.757 461.917 190.453 458.977C189.333 456.412 188.031 453.945 186.678 451.496C186.248 450.721 185.675 450.455 184.889 450.829C183.773 451.362 184.163 452.265 184.563 452.988C189.342 461.456 192.764 470.493 195.395 479.8C197.761 488.171 200.033 496.572 201.188 505.227C201.789 509.703 202.304 514.192 202.028 518.704C201.908 520.725 201.803 522.766 200.597 524.597C200.033 525.465 199.488 525.512 198.713 525.069C197.423 524.337 196.503 523.222 195.676 522.033C193.705 519.246 192.253 516.184 190.874 513.077C188.836 508.457 187.19 503.705 185.879 498.854C183.495 489.991 181.186 481.112 180.008 471.969C179.499 468.014 179.008 464.055 178.886 460.057C178.83 458.141 178.847 456.222 178.76 454.308C178.72 453.563 178.615 452.665 177.552 452.683C176.579 452.706 176.265 453.231 176.244 454.27C176.098 461.168 176.763 467.985 177.83 474.781C178.561 479.479 179.55 484.149 180.605 488.779C182.052 495.107 183.869 501.342 186.009 507.465C187.012 510.337 188.094 513.158 189.34 515.927C190.823 519.223 192.521 522.394 194.962 525.107C195.106 525.265 195.364 525.43 195.189 525.717C195.061 525.914 194.839 525.849 194.641 525.83C193.801 525.719 192.964 525.668 192.138 525.492C186.692 524.359 182.386 521.339 178.799 517.233C174.63 512.448 171.866 506.852 170.001 500.86C168.204 495.094 166.925 489.163 166.494 483.09C165.844 473.935 167.291 465.122 170.962 456.704C171.335 455.854 171.323 455.034 170.418 454.66C169.594 454.32 168.964 454.853 168.639 455.654C167.361 458.779 166.23 461.94 165.403 465.2C162.927 475.059 163.583 484.888 165.674 494.679C166.712 499.537 168.297 504.24 170.435 508.739C173.823 515.832 178.324 521.931 185.461 525.713C185.813 525.903 186.238 526.047 186.524 526.611C183.524 526.367 180.718 525.984 177.985 525.156C172.18 523.408 167.102 520.503 162.954 516.036C159.574 512.405 157.237 508.19 155.626 503.496C154.159 499.251 153.309 494.925 153.018 490.488C152.567 483.613 153.678 476.988 156.571 470.703C157.745 468.165 158.917 465.64 160.575 463.339C161.686 461.787 162.694 460.132 163.845 458.592C164.399 457.849 164.438 457.011 163.611 456.501C162.846 456.029 162.151 456.397 161.719 457.185C161.589 457.393 161.479 457.597 161.326 457.802C158.428 461.614 155.98 465.713 154.07 470.104C150.366 478.603 149.545 487.5 151.236 496.568C152.018 500.764 153.107 504.925 155.024 508.821C157.702 514.279 161.346 518.943 166.357 522.428C172.077 526.395 178.487 528.546 185.446 529.063C185.855 529.09 186.369 528.906 186.616 529.447C175.003 530.272 163.839 528.821 153.783 522.46C146.754 518.055 142.221 511.776 139.98 503.803C136.271 490.584 138.957 478.569 146.721 467.477C149.553 463.414 152.732 459.632 156.238 456.133C160.117 452.28 162.818 447.759 164.545 442.605C165 441.25 165.792 440.301 167.143 439.823C169.815 439.255 170.944 441.458 172.528 442.984C173.141 441.195 174.413 440.573 175.971 440.332L175.981 440.345L176.012 440.343Z" fill="#BDA6ED"/>
<path d="M186.596 529.462C186.337 528.921 185.828 529.111 185.426 529.079C178.472 528.569 172.057 526.411 166.331 522.449C161.323 518.983 157.685 514.313 154.997 508.842C153.08 504.946 151.991 500.784 151.209 496.589C149.518 487.521 150.343 478.642 154.044 470.125C155.953 465.734 158.402 461.635 161.299 457.823C161.444 457.635 161.563 457.414 161.692 457.206C162.124 456.418 162.817 456.062 163.584 456.522C164.423 457.034 164.384 457.871 163.818 458.612C162.679 460.154 161.66 461.796 160.549 463.36C158.895 465.667 157.711 468.191 156.544 470.724C153.651 477.009 152.54 483.634 152.991 490.509C153.282 494.946 154.133 499.272 155.599 503.517C157.228 508.207 159.559 512.427 162.927 516.057C167.065 520.51 172.153 523.429 177.959 525.177C180.691 526.005 183.494 526.369 186.498 526.631C186.206 526.061 185.788 525.912 185.435 525.734C178.297 521.952 173.791 515.846 170.409 508.76C168.252 504.264 166.667 499.562 165.648 494.7C163.57 484.899 162.914 475.07 165.376 465.221C166.2 461.942 167.331 458.781 168.612 455.675C168.937 454.873 169.578 454.354 170.392 454.68C171.296 455.055 171.31 455.863 170.935 456.725C167.275 465.156 165.828 473.969 166.467 483.111C166.895 489.165 168.174 495.096 169.974 500.88C171.846 506.868 174.598 512.462 178.772 517.254C182.36 521.36 186.671 524.386 192.111 525.513C192.938 525.689 193.774 525.74 194.614 525.851C194.812 525.87 195.034 525.934 195.162 525.738C195.356 525.447 195.08 525.285 194.936 525.128C192.495 522.415 190.796 519.244 189.313 515.948C188.067 513.179 186.985 510.358 185.982 507.486C183.839 501.344 182.019 495.133 180.578 488.8C179.525 484.158 178.534 479.5 177.803 474.801C176.74 468.025 176.071 461.189 176.217 454.291C176.242 453.27 176.558 452.734 177.525 452.704C178.582 452.691 178.702 453.567 178.734 454.329C178.815 456.236 178.803 458.162 178.86 460.078C178.988 464.071 179.48 468.018 179.981 471.99C181.16 481.133 183.462 490.017 185.852 498.875C187.152 503.724 188.809 508.478 190.847 513.098C192.225 516.217 193.678 519.266 195.649 522.054C196.494 523.239 197.396 524.358 198.686 525.09C199.461 525.533 200.003 525.468 200.57 524.618C201.762 522.798 201.874 520.751 202.002 518.724C202.272 514.206 201.768 509.731 201.161 505.248C200.006 496.593 197.731 488.173 195.368 479.821C192.737 470.514 189.315 461.477 184.536 453.009C184.136 452.286 183.753 451.377 184.862 450.85C185.637 450.474 186.225 450.761 186.651 451.517C188.011 453.961 189.298 456.45 190.427 458.998C191.734 461.957 192.978 464.932 194.147 467.933C194.936 469.948 195.569 471.997 196.239 474.051C198.198 480.164 200.044 486.312 201.383 492.584C202.317 496.92 203.233 501.259 203.788 505.663C204.305 509.752 204.697 513.82 204.608 517.949C204.563 519.804 204.252 521.607 203.831 523.603C205.682 522.811 207.014 521.573 208.256 520.274C211.95 516.392 213.761 511.626 214.675 506.425C215.485 501.811 215.446 497.157 214.799 492.567C214.12 487.838 212.88 483.234 211.395 478.701C209.865 474.042 207.848 469.643 205.302 465.45C203.108 461.834 200.468 458.575 197.46 455.603C195.87 454.027 194.203 452.533 192.408 451.192C191.772 450.706 191.44 450.113 192.016 449.343C192.578 448.583 193.225 448.64 193.897 449.131C196 450.674 197.883 452.474 199.718 454.323C204.987 459.61 208.936 465.761 211.835 472.641C213.887 477.487 215.528 482.469 216.54 487.627C218.014 495.098 218.517 502.622 216.486 510.101C215.575 513.448 214.303 516.621 212.216 519.438C212.114 519.571 212.054 519.715 212.239 519.98C213.335 519.646 214.193 518.85 215.066 518.172C218.76 515.303 222.046 512.018 224.392 507.913C227.924 501.756 229.311 495.154 228.662 488.066C228.347 484.595 227.569 481.237 226.512 477.976C223.657 469.199 218.767 461.808 211.207 456.276C207.593 453.634 203.737 451.47 199.717 449.553C198.995 449.22 198.459 448.764 198.854 447.887C199.272 446.969 199.888 446.889 200.812 447.302C204.242 448.806 207.455 450.725 210.565 452.801C217.1 457.18 222.212 462.847 225.816 469.913C228.149 474.497 229.648 479.353 230.602 484.352C231.73 490.227 231.456 496.126 229.662 501.914C227.371 509.293 222.934 515.13 216.949 519.875C215.918 520.697 214.778 521.378 213.685 522.12C213.446 522.284 213.178 522.396 213.236 522.748C204.785 526.717 195.89 528.921 186.582 529.485L186.608 529.464L186.596 529.462Z" fill="#A48ADC"/>
<path d="M187.718 434.632C186.243 435.089 185.385 436.078 185.079 437.597C184.925 438.342 184.707 439.06 184.466 440.012C183.169 438.715 181.724 438.685 180.209 439.258C179.841 436.83 179.451 434.387 179.114 431.957C178.921 430.502 178.808 429.039 178.688 427.582C178.625 426.737 178.662 425.911 178.357 425.103C178.658 423.965 178.458 422.807 178.505 421.661C178.669 417.754 179.153 413.899 180.503 410.202C180.772 409.454 181.108 408.805 182.019 409.035C182.883 409.247 182.872 409.966 182.792 410.696C182.054 417.634 183.748 424.169 186.08 430.595C186.571 431.948 187.156 433.27 187.689 434.622L187.718 434.632Z" fill="#8ECF9E"/>
<path d="M176.012 440.343C174.466 440.585 173.182 441.206 172.569 442.996C170.992 441.464 169.857 439.255 167.184 439.834C166.798 435.621 166.175 431.464 165.039 427.382C163.999 423.602 162.542 420.006 160.34 416.742C160.242 416.602 160.155 416.476 160.076 416.333C159.711 415.766 159.66 415.202 160.212 414.719C160.79 414.216 161.32 414.44 161.817 414.873C164.032 416.878 165.894 419.179 167.554 421.649C169.292 424.261 170.731 427.042 172.048 429.875C172.151 430.118 172.151 430.451 172.512 430.527C173.676 433.801 174.834 437.08 175.995 440.335L176.008 440.324L176.012 440.343Z" fill="#8ECF9E"/>
<path d="M180.339 448.645C187.838 446.751 193.105 442.024 192.108 438.093C191.111 434.161 184.234 432.503 176.735 434.397C169.236 436.291 163.969 441.018 164.966 444.949C165.962 448.881 172.84 450.539 180.339 448.645Z" fill="#BDA6ED"/>
<ellipse cx="190.932" cy="502.074" rx="7" ry="3.5" fill="black"/>
<path d="M191.688 459.095C196.304 456.329 201.256 457.059 203.155 457.769" stroke="black"/>
<path d="M171.958 461.497C166.607 460.928 162.421 463.672 160.997 465.116" stroke="black"/>
<g clip-path="url(#clip0_668_4588)">
<path d="M161.224 356.757C162.96 360.181 162.613 363.658 161.317 367.117C160.307 369.803 159.235 372.467 158.079 375.104C156.799 378.024 156.28 380.967 157.289 384.042C157.381 384.34 157.439 384.638 157.497 384.935C157.948 387.081 157.262 388.392 155.228 389.296C153.455 390.09 151.681 389.668 150.593 388.003C148.694 385.104 148.107 381.893 148.851 378.48C149.398 375.917 150.521 373.536 151.527 371.127C152.139 369.663 152.785 368.235 153.265 366.715C154.551 362.627 153.266 359.018 149.825 357.247C147.292 355.942 144.685 356.028 142.062 357.116C141.077 357.526 140.153 358.062 139.276 358.694C137.176 360.179 136.114 362.221 135.868 364.723C135.692 366.472 135.759 368.222 135.98 369.966C136.06 370.63 136.125 371.301 136.05 371.971C135.836 373.893 134.577 375.208 132.615 375.58C130.85 375.89 128.848 374.927 128.142 373.334C126.516 369.634 126.784 365.887 128.286 362.207C130.532 356.692 134.776 353.17 140.199 350.925C143.766 349.447 147.444 348.772 151.28 349.459C155.805 350.274 159.165 352.668 161.224 356.757Z" fill="#FFDD93"/>
<path d="M155.661 400.245C154.412 397.75 155.425 394.891 157.961 393.623C160.532 392.355 163.365 393.274 164.607 395.789C165.876 398.326 164.892 401.102 162.293 402.383C159.68 403.672 156.93 402.782 155.661 400.245Z" fill="#FFDD93"/>
</g>
<path d="M21 616.049V638.338" stroke="white" stroke-width="3"/>
<path d="M59.6723 564.867C59.6723 566.518 51.0785 568.004 40.3362 568.004C29.5939 568.004 21 566.683 21 564.867C21 563.876 23.8095 563.051 28.1065 562.39C28.437 562.72 28.7675 563.051 29.2633 563.216C33.2297 564.371 43.311 566.683 52.5659 563.216C52.8964 563.051 53.227 562.885 53.5575 562.555C57.3586 563.216 59.6723 564.041 59.6723 564.867Z" fill="#FFDD93" stroke="#FFDD93" stroke-width="3" stroke-miterlimit="10"/>
<path d="M53.0618 563.381C53.3923 563.05 53.5576 562.555 53.5576 561.895L53.8881 544.064C53.8881 541.092 52.4007 538.285 49.7564 536.964L30.255 526.232C29.0981 525.572 27.776 526.398 27.776 527.718V528.544V528.709C27.776 528.874 27.776 529.534 27.776 531.516V540.762V563.216" stroke="white" stroke-width="3" stroke-miterlimit="10" stroke-linecap="round" stroke-linejoin="round"/>
<path d="M21 615.553V564.867" stroke="white" stroke-width="3" stroke-miterlimit="10" stroke-linecap="round" stroke-linejoin="round"/>
<path d="M58.6808 624.799C58.8461 624.304 58.8461 623.974 58.8461 623.478L59.6724 564.867" stroke="white" stroke-width="3" stroke-miterlimit="10" stroke-linecap="round" stroke-linejoin="round"/>
<path d="M82.0937 648.059C83.5068 647.691 82.8961 640.669 80.7297 632.375C78.5633 624.082 75.6616 617.657 74.2485 618.025C72.8355 618.394 73.4461 625.416 75.6125 633.709C77.7789 642.003 80.6806 648.427 82.0937 648.059Z" fill="#FFDD93" stroke="#FFDD93" stroke-width="3" stroke-miterlimit="10"/>
<path d="M74.2157 618.03L105.121 609.94C106.443 609.61 107.93 609.94 108.922 610.93C117.02 619.516 116.359 631.898 115.532 637.017C115.367 638.503 114.21 639.658 112.723 639.989L81.9832 647.913" stroke="white" stroke-width="3" stroke-miterlimit="10"/>
<path d="M59.0113 622.653V639.989C49.9216 651.546 25.958 646.593 21 637.512" stroke="white" stroke-width="3"/>
<defs>
<clipPath id="clip0_668_4588">
<rect width="37" height="56" fill="white" transform="translate(121.614 359.917) rotate(-25.9459)"/>
</clipPath>
</defs>
</svg>
