<svg width="350" height="624" viewBox="0 0 350 624" fill="none" xmlns="http://www.w3.org/2000/svg">
<path d="M272.991 159.09C272.991 159.09 319.111 159.09 339.404 110.902C340.327 109.282 340.788 107.257 342.171 105.637C346.784 98.7532 360.62 71.6221 333.409 35.1772C333.409 35.1772 315.421 -4.10226 262.383 0.35211C258.693 0.757053 255.003 1.56694 251.314 2.78177C240.245 6.8312 209.344 16.1449 178.904 12.5004C176.598 12.0955 174.754 11.6905 172.909 10.8806C166.913 8.85591 150.771 3.9966 129.094 1.56694C124.482 1.162 119.87 1.162 115.719 2.37682C102.805 5.21142 74.6719 12.0955 54.3788 26.6734C54.3788 26.6734 11.0255 60.6886 31.3185 116.976C32.7021 120.215 31.7797 123.86 29.4737 126.694L0.417712 163.544C-0.965907 165.569 1.34012 167.998 3.64615 166.784L34.0858 154.23L39.159 152.206C48.3831 148.561 58.5297 148.966 67.2926 153.421C82.9736 161.924 99.1158 163.949 99.1158 163.949C114.336 165.569 129.555 163.949 134.167 163.544C135.09 163.544 136.474 163.544 137.396 163.544C154.461 163.544 172.448 165.569 179.827 165.974C182.133 166.379 184.9 166.379 187.206 165.974C209.805 165.569 272.991 159.09 272.991 159.09Z" fill="#F7EFE2"/>
<path d="M78.5781 50.1172V63.5703H85.3047C86.2266 63.5703 87.0938 63.3984 87.9062 63.0547C88.7188 62.6953 89.4297 62.2109 90.0391 61.6016C90.6484 60.9922 91.125 60.2812 91.4688 59.4688C91.8281 58.6406 92.0078 57.7656 92.0078 56.8438C92.0078 55.9219 91.8281 55.0547 91.4688 54.2422C91.125 53.4141 90.6484 52.6953 90.0391 52.0859C89.4297 51.4766 88.7188 51 87.9062 50.6562C87.0938 50.2969 86.2266 50.1172 85.3047 50.1172H78.5781ZM78.5781 77H71.8516V43.3906H85.3047C86.5391 43.3906 87.7266 43.5547 88.8672 43.8828C90.0078 44.1953 91.0703 44.6484 92.0547 45.2422C93.0547 45.8203 93.9609 46.5234 94.7734 47.3516C95.6016 48.1641 96.3047 49.0703 96.8828 50.0703C97.4766 51.0703 97.9297 52.1406 98.2422 53.2812C98.5703 54.4219 98.7344 55.6094 98.7344 56.8438C98.7344 58.6875 98.3828 60.4297 97.6797 62.0703C96.9766 63.6953 96.0156 65.1172 94.7969 66.3359C93.5781 67.5547 92.1484 68.5156 90.5078 69.2188C88.8828 69.9219 87.1484 70.2734 85.3047 70.2734H78.5781V77ZM108.414 77H102.016V51.8984H103.562L105.672 54.875C106.703 53.9375 107.875 53.2188 109.188 52.7188C110.5 52.2031 111.859 51.9453 113.266 51.9453H118.914V58.3203H113.266C112.594 58.3203 111.961 58.4453 111.367 58.6953C110.773 58.9453 110.258 59.2891 109.82 59.7266C109.383 60.1641 109.039 60.6797 108.789 61.2734C108.539 61.8672 108.414 62.5 108.414 63.1719V77ZM131.406 70.8594C131.656 70.9375 131.906 70.9922 132.156 71.0234C132.406 71.0391 132.656 71.0469 132.906 71.0469C133.531 71.0469 134.133 70.9609 134.711 70.7891C135.289 70.6172 135.828 70.375 136.328 70.0625C136.844 69.7344 137.297 69.3438 137.688 68.8906C138.094 68.4219 138.422 67.9062 138.672 67.3438L143.359 72.0547C142.766 72.8984 142.078 73.6562 141.297 74.3281C140.531 75 139.695 75.5703 138.789 76.0391C137.898 76.5078 136.953 76.8594 135.953 77.0938C134.969 77.3438 133.953 77.4688 132.906 77.4688C131.141 77.4688 129.477 77.1406 127.914 76.4844C126.367 75.8281 125.008 74.9141 123.836 73.7422C122.68 72.5703 121.766 71.1797 121.094 69.5703C120.422 67.9453 120.086 66.1641 120.086 64.2266C120.086 62.2422 120.422 60.4297 121.094 58.7891C121.766 57.1484 122.68 55.75 123.836 54.5938C125.008 53.4375 126.367 52.5391 127.914 51.8984C129.477 51.2578 131.141 50.9375 132.906 50.9375C133.953 50.9375 134.977 51.0625 135.977 51.3125C136.977 51.5625 137.922 51.9219 138.812 52.3906C139.719 52.8594 140.562 53.4375 141.344 54.125C142.125 54.7969 142.812 55.5547 143.406 56.3984L131.406 70.8594ZM134.688 57.6641C134.391 57.5547 134.094 57.4844 133.797 57.4531C133.516 57.4219 133.219 57.4062 132.906 57.4062C132.031 57.4062 131.203 57.5703 130.422 57.8984C129.656 58.2109 128.984 58.6641 128.406 59.2578C127.844 59.8516 127.398 60.5703 127.07 61.4141C126.742 62.2422 126.578 63.1797 126.578 64.2266C126.578 64.4609 126.586 64.7266 126.602 65.0234C126.633 65.3203 126.672 65.625 126.719 65.9375C126.781 66.2344 126.852 66.5234 126.93 66.8047C127.008 67.0859 127.109 67.3359 127.234 67.5547L134.688 57.6641ZM160.422 77H145.797V70.625H160.422C160.859 70.625 161.234 70.4688 161.547 70.1562C161.859 69.8438 162.016 69.4688 162.016 69.0312C162.016 68.5781 161.859 68.2812 161.547 68.1406C161.234 68 160.859 67.9297 160.422 67.9297H153.766C152.656 67.9297 151.617 67.7188 150.648 67.2969C149.68 66.875 148.836 66.3047 148.117 65.5859C147.398 64.8516 146.828 64 146.406 63.0312C146 62.0625 145.797 61.0234 145.797 59.9141C145.797 58.8047 146 57.7656 146.406 56.7969C146.828 55.8281 147.398 54.9844 148.117 54.2656C148.836 53.5469 149.68 52.9844 150.648 52.5781C151.617 52.1562 152.656 51.9453 153.766 51.9453H166.727V58.3203H153.766C153.328 58.3203 152.953 58.4766 152.641 58.7891C152.328 59.1016 152.172 59.4766 152.172 59.9141C152.172 60.3672 152.328 60.7578 152.641 61.0859C152.953 61.3984 153.328 61.5547 153.766 61.5547H160.422C161.516 61.5547 162.547 61.7422 163.516 62.1172C164.484 62.4766 165.328 62.9844 166.047 63.6406C166.766 64.2969 167.336 65.0859 167.758 66.0078C168.18 66.9297 168.391 67.9375 168.391 69.0312C168.391 70.1406 168.18 71.1797 167.758 72.1484C167.336 73.1016 166.766 73.9453 166.047 74.6797C165.328 75.3984 164.484 75.9688 163.516 76.3906C162.547 76.7969 161.516 77 160.422 77ZM185.594 77H170.969V70.625H185.594C186.031 70.625 186.406 70.4688 186.719 70.1562C187.031 69.8438 187.188 69.4688 187.188 69.0312C187.188 68.5781 187.031 68.2812 186.719 68.1406C186.406 68 186.031 67.9297 185.594 67.9297H178.938C177.828 67.9297 176.789 67.7188 175.82 67.2969C174.852 66.875 174.008 66.3047 173.289 65.5859C172.57 64.8516 172 64 171.578 63.0312C171.172 62.0625 170.969 61.0234 170.969 59.9141C170.969 58.8047 171.172 57.7656 171.578 56.7969C172 55.8281 172.57 54.9844 173.289 54.2656C174.008 53.5469 174.852 52.9844 175.82 52.5781C176.789 52.1562 177.828 51.9453 178.938 51.9453H191.898V58.3203H178.938C178.5 58.3203 178.125 58.4766 177.812 58.7891C177.5 59.1016 177.344 59.4766 177.344 59.9141C177.344 60.3672 177.5 60.7578 177.812 61.0859C178.125 61.3984 178.5 61.5547 178.938 61.5547H185.594C186.688 61.5547 187.719 61.7422 188.688 62.1172C189.656 62.4766 190.5 62.9844 191.219 63.6406C191.938 64.2969 192.508 65.0859 192.93 66.0078C193.352 66.9297 193.562 67.9375 193.562 69.0312C193.562 70.1406 193.352 71.1797 192.93 72.1484C192.508 73.1016 191.938 73.9453 191.219 74.6797C190.5 75.3984 189.656 75.9688 188.688 76.3906C187.719 76.7969 186.688 77 185.594 77ZM223.023 77C221.477 77 220.023 76.7109 218.664 76.1328C217.305 75.5391 216.109 74.7344 215.078 73.7188C214.062 72.6875 213.258 71.4922 212.664 70.1328C212.086 68.7734 211.797 67.3203 211.797 65.7734V58.3203H208.68V51.9453H211.797V41.9141H218.172V51.9453H227.875V58.3203H218.172V65.7734C218.172 66.4453 218.297 67.0781 218.547 67.6719C218.797 68.25 219.141 68.7578 219.578 69.1953C220.016 69.6328 220.531 69.9844 221.125 70.25C221.719 70.5 222.352 70.625 223.023 70.625H227.875V77H223.023ZM237.883 77H231.484V41.9141H237.883V53C238.648 52.4219 239.438 52.0156 240.25 51.7812C241.062 51.5312 241.891 51.4062 242.734 51.4062C244.281 51.4062 245.734 51.7031 247.094 52.2969C248.453 52.875 249.633 53.6797 250.633 54.7109C251.648 55.7266 252.445 56.9219 253.023 58.2969C253.617 59.6562 253.914 61.1094 253.914 62.6562V77H247.469V62.6562H247.516C247.516 62 247.391 61.3828 247.141 60.8047C246.891 60.2109 246.547 59.6953 246.109 59.2578C245.672 58.8203 245.164 58.4766 244.586 58.2266C244.008 57.9766 243.391 57.8516 242.734 57.8516C242.062 57.8516 241.43 57.9766 240.836 58.2266C240.242 58.4766 239.727 58.8203 239.289 59.2578C238.852 59.6953 238.508 60.2109 238.258 60.8047C238.008 61.3828 237.883 62 237.883 62.6562V77ZM268.469 70.8594C268.719 70.9375 268.969 70.9922 269.219 71.0234C269.469 71.0391 269.719 71.0469 269.969 71.0469C270.594 71.0469 271.195 70.9609 271.773 70.7891C272.352 70.6172 272.891 70.375 273.391 70.0625C273.906 69.7344 274.359 69.3438 274.75 68.8906C275.156 68.4219 275.484 67.9062 275.734 67.3438L280.422 72.0547C279.828 72.8984 279.141 73.6562 278.359 74.3281C277.594 75 276.758 75.5703 275.852 76.0391C274.961 76.5078 274.016 76.8594 273.016 77.0938C272.031 77.3438 271.016 77.4688 269.969 77.4688C268.203 77.4688 266.539 77.1406 264.977 76.4844C263.43 75.8281 262.07 74.9141 260.898 73.7422C259.742 72.5703 258.828 71.1797 258.156 69.5703C257.484 67.9453 257.148 66.1641 257.148 64.2266C257.148 62.2422 257.484 60.4297 258.156 58.7891C258.828 57.1484 259.742 55.75 260.898 54.5938C262.07 53.4375 263.43 52.5391 264.977 51.8984C266.539 51.2578 268.203 50.9375 269.969 50.9375C271.016 50.9375 272.039 51.0625 273.039 51.3125C274.039 51.5625 274.984 51.9219 275.875 52.3906C276.781 52.8594 277.625 53.4375 278.406 54.125C279.188 54.7969 279.875 55.5547 280.469 56.3984L268.469 70.8594ZM271.75 57.6641C271.453 57.5547 271.156 57.4844 270.859 57.4531C270.578 57.4219 270.281 57.4062 269.969 57.4062C269.094 57.4062 268.266 57.5703 267.484 57.8984C266.719 58.2109 266.047 58.6641 265.469 59.2578C264.906 59.8516 264.461 60.5703 264.133 61.4141C263.805 62.2422 263.641 63.1797 263.641 64.2266C263.641 64.4609 263.648 64.7266 263.664 65.0234C263.695 65.3203 263.734 65.625 263.781 65.9375C263.844 66.2344 263.914 66.5234 263.992 66.8047C264.07 67.0859 264.172 67.3359 264.297 67.5547L271.75 57.6641ZM126.273 124.227C126.273 126.195 125.938 127.992 125.266 129.617C124.594 131.242 123.68 132.641 122.523 133.812C121.367 134.969 120.008 135.867 118.445 136.508C116.898 137.148 115.234 137.469 113.453 137.469C111.688 137.469 110.023 137.141 108.461 136.484C106.914 135.828 105.555 134.914 104.383 133.742C103.227 132.57 102.312 131.18 101.641 129.57C100.969 127.945 100.633 126.164 100.633 124.227V101.914H107.055V113.633C107.398 113.195 107.812 112.805 108.297 112.461C108.797 112.117 109.328 111.836 109.891 111.617C110.469 111.398 111.062 111.234 111.672 111.125C112.281 111 112.875 110.938 113.453 110.938C115.234 110.938 116.898 111.273 118.445 111.945C120.008 112.602 121.367 113.523 122.523 114.711C123.68 115.898 124.594 117.305 125.266 118.93C125.938 120.539 126.273 122.305 126.273 124.227ZM119.828 124.227C119.828 123.258 119.656 122.359 119.312 121.531C118.984 120.688 118.531 119.961 117.953 119.352C117.375 118.742 116.695 118.266 115.914 117.922C115.148 117.578 114.328 117.406 113.453 117.406C112.578 117.406 111.75 117.602 110.969 117.992C110.203 118.367 109.531 118.875 108.953 119.516C108.375 120.141 107.922 120.867 107.594 121.695C107.266 122.508 107.102 123.352 107.102 124.227C107.102 125.195 107.266 126.094 107.594 126.922C107.922 127.75 108.375 128.469 108.953 129.078C109.531 129.688 110.203 130.172 110.969 130.531C111.75 130.875 112.578 131.047 113.453 131.047C114.328 131.047 115.148 130.875 115.914 130.531C116.695 130.172 117.375 129.688 117.953 129.078C118.531 128.469 118.984 127.75 119.312 126.922C119.656 126.094 119.828 125.195 119.828 124.227ZM148.281 134.07C147.766 134.539 147.211 134.984 146.617 135.406C146.039 135.812 145.43 136.172 144.789 136.484C144.148 136.781 143.484 137.016 142.797 137.188C142.125 137.375 141.438 137.469 140.734 137.469C139.188 137.469 137.734 137.195 136.375 136.648C135.016 136.102 133.82 135.328 132.789 134.328C131.773 133.312 130.969 132.086 130.375 130.648C129.797 129.195 129.508 127.57 129.508 125.773V111.898H135.883V125.773C135.883 126.617 136.008 127.375 136.258 128.047C136.523 128.703 136.875 129.258 137.312 129.711C137.75 130.164 138.258 130.508 138.836 130.742C139.43 130.977 140.062 131.094 140.734 131.094C141.391 131.094 142.008 130.945 142.586 130.648C143.18 130.336 143.695 129.93 144.133 129.43C144.57 128.93 144.914 128.367 145.164 127.742C145.414 127.102 145.539 126.445 145.539 125.773V111.898H151.938V137H150.391L148.281 134.07ZM169.422 137C167.875 137 166.422 136.711 165.062 136.133C163.703 135.539 162.508 134.734 161.477 133.719C160.461 132.688 159.656 131.492 159.062 130.133C158.484 128.773 158.195 127.32 158.195 125.773V118.32H155.078V111.945H158.195V101.914H164.57V111.945H174.273V118.32H164.57V125.773C164.57 126.445 164.695 127.078 164.945 127.672C165.195 128.25 165.539 128.758 165.977 129.195C166.414 129.633 166.93 129.984 167.523 130.25C168.117 130.5 168.75 130.625 169.422 130.625H174.273V137H169.422ZM190.469 137C188.922 137 187.469 136.711 186.109 136.133C184.75 135.539 183.555 134.734 182.523 133.719C181.508 132.688 180.703 131.492 180.109 130.133C179.531 128.773 179.242 127.32 179.242 125.773V118.32H176.125V111.945H179.242V101.914H185.617V111.945H195.32V118.32H185.617V125.773C185.617 126.445 185.742 127.078 185.992 127.672C186.242 128.25 186.586 128.758 187.023 129.195C187.461 129.633 187.977 129.984 188.57 130.25C189.164 130.5 189.797 130.625 190.469 130.625H195.32V137H190.469ZM223.188 124.227C223.188 126.102 222.852 127.852 222.18 129.477C221.508 131.086 220.594 132.484 219.438 133.672C218.281 134.844 216.922 135.773 215.359 136.461C213.812 137.133 212.148 137.469 210.367 137.469C208.602 137.469 206.938 137.133 205.375 136.461C203.828 135.773 202.469 134.844 201.297 133.672C200.141 132.484 199.227 131.086 198.555 129.477C197.883 127.852 197.547 126.102 197.547 124.227C197.547 122.32 197.883 120.555 198.555 118.93C199.227 117.305 200.141 115.906 201.297 114.734C202.469 113.547 203.828 112.617 205.375 111.945C206.938 111.273 208.602 110.938 210.367 110.938C212.148 110.938 213.812 111.258 215.359 111.898C216.922 112.523 218.281 113.422 219.438 114.594C220.594 115.75 221.508 117.148 222.18 118.789C222.852 120.414 223.188 122.227 223.188 124.227ZM216.742 124.227C216.742 123.195 216.57 122.266 216.227 121.438C215.898 120.594 215.445 119.875 214.867 119.281C214.289 118.672 213.609 118.211 212.828 117.898C212.062 117.57 211.242 117.406 210.367 117.406C209.492 117.406 208.664 117.57 207.883 117.898C207.117 118.211 206.445 118.672 205.867 119.281C205.305 119.875 204.859 120.594 204.531 121.438C204.203 122.266 204.039 123.195 204.039 124.227C204.039 125.195 204.203 126.094 204.531 126.922C204.859 127.75 205.305 128.469 205.867 129.078C206.445 129.688 207.117 130.172 207.883 130.531C208.664 130.875 209.492 131.047 210.367 131.047C211.242 131.047 212.062 130.883 212.828 130.555C213.609 130.227 214.289 129.766 214.867 129.172C215.445 128.578 215.898 127.859 216.227 127.016C216.57 126.172 216.742 125.242 216.742 124.227ZM233.125 137H226.727V111.898H228.273L230.383 114.336C231.414 113.398 232.578 112.68 233.875 112.18C235.188 111.664 236.555 111.406 237.977 111.406C239.508 111.406 240.953 111.703 242.312 112.297C243.672 112.875 244.859 113.68 245.875 114.711C246.891 115.727 247.688 116.922 248.266 118.297C248.859 119.656 249.156 121.109 249.156 122.656V137H242.758V122.656C242.758 122 242.633 121.383 242.383 120.805C242.133 120.211 241.789 119.695 241.352 119.258C240.914 118.82 240.406 118.477 239.828 118.227C239.25 117.977 238.633 117.852 237.977 117.852C237.305 117.852 236.672 117.977 236.078 118.227C235.484 118.477 234.969 118.82 234.531 119.258C234.094 119.695 233.75 120.211 233.5 120.805C233.25 121.383 233.125 122 233.125 122.656V137Z" fill="#BDA6ED"/>
<path d="M273.017 598.175C273.041 596.253 273.805 595.721 275.183 596.302C275.405 596.399 275.644 596.585 275.851 596.56C277.993 596.31 278.439 597.893 279.012 599.427C279.697 601.292 279.92 603.262 280.398 605.167C281.369 608.978 282.213 612.814 283.089 616.649C283.392 617.973 283.694 619.297 283.917 620.629C284.132 621.873 283.989 622.059 282.818 622.6C280.724 623.568 279.307 623.092 278.359 620.961C277.229 618.425 276.671 615.688 276.027 612.999C275.262 609.834 274.753 606.605 274.108 603.415C273.733 601.55 273.327 599.685 273.001 598.175H273.017Z" fill="#383838"/>
<path d="M319.027 613.069C317.964 613.069 317.173 612.629 316.422 612.114C313.785 610.311 311.908 607.895 310.414 605.213C309.247 603.115 308.249 600.926 307.777 598.57C307.681 598.1 307.426 597.714 307.25 597.282C306.763 596.063 306.842 594.722 308.856 594.57C309.727 594.51 310.03 594.161 310.046 593.389C310.054 592.76 310.038 592.108 310.51 591.571C311.069 590.927 311.612 590.904 312.139 591.571C312.539 592.078 312.851 592.631 312.986 593.283C313.729 596.737 315.04 600.04 316.086 603.418C316.286 604.069 316.726 604.668 317.101 605.259C318.204 606.993 319.314 608.721 320.449 610.433C320.816 610.986 321.264 611.546 320.808 612.175C320.385 612.766 319.738 613.114 319.027 613.076V613.069Z" fill="#383838"/>
<path d="M346.001 526.021C345.953 527.624 345.692 528.83 345.327 530.044C344.503 532.799 343.448 535.468 341.942 537.903C340.595 540.09 338.93 542.074 336.861 543.685C335.513 544.735 333.769 545.031 332.311 545.902C331.843 546.182 331.336 545.856 330.955 545.599C330.242 545.132 329.568 545.225 328.894 545.591C328.046 546.058 327.079 546.245 326.247 546.774C325.668 547.147 324.939 547.248 324.4 546.673C323.829 546.066 323.916 545.365 324.376 544.704C325.43 543.179 326.397 541.623 328.141 540.665C331.185 539 333.714 536.65 336.235 534.339C338.7 532.083 340.674 529.445 341.213 526.021C341.371 525.002 341.784 524.076 342.743 523.485C344.059 522.668 345.398 523.111 345.826 524.582C345.993 525.142 345.969 525.757 345.993 526.006L346.001 526.021Z" fill="#383838"/>
<path d="M345.303 525.079C344.877 524.414 344.638 524.04 344.406 523.681C342.663 524.071 342.506 524.002 341.931 522.428C341.34 520.824 340.779 519.204 340.173 517.608C339.881 516.836 339.866 516.202 340.884 515.721C342.379 517.111 342.207 519.495 343.912 521.183C344.01 518.968 344.092 517.043 344.182 515.079C345.67 515.064 345.326 516.088 345.393 516.768C345.46 517.524 345.408 518.288 345.408 519.182C346.852 518.754 347.158 517.058 348.706 517.065C348.938 519.105 346.979 519.984 346.515 521.947C347.173 521.68 347.592 521.519 348.011 521.343C348.43 521.168 348.826 520.9 349.26 520.839C349.484 520.809 349.828 521.076 349.978 521.305C350.06 521.42 349.91 521.848 349.746 521.962C348.332 522.986 346.896 523.964 345.296 525.079H345.303Z" fill="#383838"/>
<path d="M250.552 555.079C249.338 555.101 248.377 554.416 247.352 553.966C246.32 553.509 245.437 553.304 244.279 553.761C242.963 554.279 241.742 553.426 240.599 552.87C237.802 551.506 235.627 549.404 233.633 547.119C231.963 545.207 230.363 543.234 228.771 541.261C227.29 539.425 226.549 537.285 226.053 535.038C225.871 534.238 226.163 533.659 226.888 533.301C228.125 532.684 230.363 533.423 230.946 534.649C231.245 535.282 231.45 535.96 231.695 536.615C232.68 539.243 234.65 541.17 236.817 542.83C240.3 545.504 243.909 548.025 247.762 550.211C248.842 550.821 249.858 551.567 250.93 552.215C251.41 552.504 251.765 552.885 251.915 553.418C252.214 554.492 251.718 555.094 250.552 555.079Z" fill="#383838"/>
<path d="M226.338 526.079C227.018 527.903 227.581 529.42 228.214 531.11C229.136 529.697 228.105 527.91 229.699 526.722C229.817 527.126 229.988 527.44 229.988 527.761C230.004 529.63 230.012 531.506 229.957 533.375C229.942 533.823 229.684 534.272 229.41 535.079C228.855 534.279 228.558 533.846 228.347 533.554C226.713 533.928 225.174 534.309 223.634 534.631C223.024 534.758 223.008 534.698 222 533.42C222.93 533.128 223.759 532.874 224.665 532.59C224.22 531.237 221.562 531.072 222.469 528.927C224.118 528.905 224.486 530.833 226.182 530.96C226.862 529.48 225.064 528.023 226.346 526.079H226.338Z" fill="#383838"/>
<path d="M262.331 560.753C262.206 560.314 262.221 559.86 262.237 559.406C262.261 554.113 263.341 549.016 265.244 544.099C266.669 540.411 268.446 536.919 270.92 533.795C272.071 532.339 273.449 531.125 274.718 529.802C275.14 529.763 275.548 529.7 275.97 529.677C279.118 529.56 282.218 529.113 285.194 528.048C289.398 526.553 293.634 525.198 298.113 524.799C302.896 524.509 307.626 524.901 312.175 526.467C323.684 530.421 331.569 538.109 335.632 549.635C335.828 550.191 335.875 550.833 336.313 551.287L337.535 557.582C337.331 558.795 337.566 560.009 337.574 561.215C337.551 567.486 336.071 573.382 333.056 578.878C331.851 581.094 330.465 583.208 328.727 585.056C320.349 586.692 311.979 588.329 303.39 588.595C296.139 588.814 288.968 588.47 281.991 586.23C276.839 584.578 272.243 582.042 268.634 577.947C267.099 576.201 263.161 562.984 262.355 560.753C262.676 560.753 264.195 571.918 264.523 571.926C266.692 571.941 270.051 571.432 271.797 570.148C274.725 567.995 275.375 564.284 273.246 561.849C271.766 560.158 269.816 559.5 267.624 559.445C267.64 559.187 267.663 558.929 267.671 558.678C267.694 557.112 268.297 556.204 269.472 555.961C270.638 555.734 271.523 556.313 272.173 557.77C272.196 557.832 272.22 557.895 272.251 557.95C272.588 558.709 273.175 559.022 273.974 558.827C274.718 558.639 275.125 557.903 274.976 557.073C274.467 554.246 271.445 552.422 268.524 553.182L262.331 560.761V560.753ZM305.394 552.101C304.697 552.367 304.055 552.759 303.468 553.213C299.694 556.079 300.007 561.043 304.079 563.047C307.516 564.73 312.112 563.885 314.704 561.074C317.569 557.981 316.63 553.651 312.754 551.991C311.196 551.326 309.575 551.146 307.915 551.381C307.821 549.376 306.78 547.959 305.026 547.114C303.194 546.213 301.37 546.393 299.71 547.615C298.058 548.836 297.416 550.527 297.666 552.555C297.768 553.409 298.394 553.941 299.162 553.918C299.929 553.886 300.461 553.315 300.524 552.446C300.548 552.156 300.524 551.866 300.555 551.569C300.634 550.574 301.401 549.744 302.364 549.556C303.327 549.369 304.275 549.823 304.736 550.692C304.979 551.154 305.175 551.631 305.394 552.093V552.109V552.101ZM287.801 562.468C289.657 562.045 291.097 561.09 292.123 559.539C292.694 558.694 292.624 557.926 291.935 557.386C291.285 556.877 290.432 557.018 289.821 557.778C289.398 558.31 288.983 558.842 288.365 559.171C286.901 559.962 285.53 559.735 284.16 558.889C283.33 558.365 282.461 558.592 282.054 559.297C281.616 560.04 281.835 560.792 282.673 561.364C284.246 562.436 285.969 562.765 287.793 562.468H287.801Z" fill="#F2897D"/>
<path d="M274.545 567.149C275.352 569.38 267.06 576.192 268.603 577.938C272.212 582.033 276.8 584.57 281.96 586.222C288.936 588.461 296.108 588.798 303.358 588.587C311.94 588.328 320.317 586.7 328.695 585.048C325.258 589.213 321.022 592.321 316.136 594.568C311.603 596.651 306.827 597.716 301.855 597.896C296.656 598.068 291.708 599.321 286.791 600.957C277.654 604.011 268.626 603.541 259.857 599.532C252.56 596.213 246.961 590.959 243.086 583.959C240.298 578.878 238.811 573.428 238.599 567.642C238.318 559.836 240.33 552.649 244.62 546.15C249.052 539.448 255.089 534.695 262.668 531.955C263.153 531.783 263.639 531.587 264.124 531.407C264.406 531.328 264.688 531.25 264.97 531.187C268.164 530.381 271.39 529.7 274.718 529.802C273.441 531.117 272.063 532.331 270.92 533.795C268.446 536.927 266.677 540.426 265.244 544.099C263.333 549.023 262.261 554.113 262.237 559.406C262.237 559.86 262.214 560.314 262.331 560.752" fill="#EB796C"/>
<path d="M274.71 529.786C271.382 529.684 268.164 530.35 264.962 531.172C264.68 531.25 264.398 531.329 264.116 531.391C261.634 530.201 259.191 528.964 256.936 527.367C256.451 527.022 255.95 526.701 256.052 525.997C256.153 525.284 256.631 525.002 257.289 524.822C262.66 523.327 268.07 522.113 273.708 522.622C274.835 522.724 275.187 522.411 275.219 521.283C275.297 518.574 275.962 515.99 276.808 513.43C277.012 512.796 277.231 512.146 277.959 511.997C278.695 511.841 279.157 512.334 279.564 512.859C280.511 514.072 281.475 515.27 282.477 516.546C283.628 514.088 284.372 511.567 284.724 508.928C284.826 508.192 284.888 507.448 285.045 506.72C285.429 504.919 287.073 503.784 288.858 504.035C290.651 504.277 291.958 505.788 291.833 507.628C291.59 511.026 290.894 514.346 289.641 517.533C289.516 517.846 289.171 518.23 289.437 518.512C289.672 518.77 290.111 518.535 290.432 518.425C294.237 517.173 298.16 516.585 302.121 516.155C302.748 516.092 303.202 516.264 303.531 516.773C303.867 517.306 303.632 517.752 303.351 518.206C301.824 520.579 300.007 522.724 298.097 524.799C293.618 525.198 289.383 526.545 285.178 528.048C282.218 529.105 279.11 529.544 275.962 529.677C275.547 529.692 275.133 529.747 274.71 529.802V529.786Z" fill="#8ECF9E"/>
<path d="M299.389 587.421C316.716 584.054 328.335 568.857 325.352 553.471C322.361 538.086 305.895 528.346 288.568 531.713C271.241 535.079 259.622 550.277 262.605 565.662C265.588 581.047 282.062 590.787 299.389 587.421Z" fill="#F2897D"/>
<path d="M289.844 561.214C291.473 560.901 293.133 560.666 294.738 560.244C296.734 559.711 297.666 560.533 297.564 562.436C297.447 564.652 297.47 566.985 296.742 569.021C295.114 573.53 289.476 574.932 286.172 571.51C284.371 569.639 283.424 566.883 282.336 564.44C282.163 564.057 283.119 562.694 283.776 562.499C285.749 561.896 287.832 561.637 289.876 561.238L289.852 561.222L289.844 561.214Z" fill="black"/>
<path d="M311.76 549.682C313.615 549.494 315.393 550.167 316.473 552.14C316.692 552.547 316.528 553.166 316.544 553.69C316.066 553.542 315.471 553.534 315.134 553.236C312.276 550.652 310.249 551.028 308.667 554.426C308.471 554.849 307.947 555.115 307.571 555.468C307.359 554.99 306.952 554.497 306.976 554.035C307.062 551.874 309.019 550.042 311.76 549.682Z" fill="black"/>
<path d="M270.701 562.6C268.877 561.864 267.092 560.486 265.62 560.752C264.155 561.026 263.012 562.96 261.595 564.283C260.35 562.952 261.266 561.621 262.19 560.431C263.67 558.529 266.614 557.941 268.704 559.202C269.973 559.954 271.398 560.838 270.701 562.608V562.6Z" fill="black"/>
<path d="M197.199 333.088C149.911 325.933 130.279 360.527 128.937 377.632" stroke="#CDC2FC" stroke-width="4"/>
<path d="M126.499 390.582C126.065 402.663 130.497 412.504 132.767 415.909" stroke="#CDC2FC" stroke-width="4"/>
<path d="M230.915 424.516C239.038 415.564 241.999 405.191 242.463 401.114" stroke="#CDC2FC" stroke-width="4"/>
<path d="M235.12 366.261C242.888 376.704 243.213 388.311 242.404 392.802" stroke="#CDC2FC" stroke-width="4"/>
<path d="M231.33 430.725C217.571 443.615 200.318 448.738 193.409 449.686" stroke="#CDC2FC" stroke-width="4"/>
<path d="M278.657 442.765C278.657 481.643 237.607 513.968 185.829 513.968C134.05 513.968 93 481.643 93 442.765C93 403.886 134.05 371.562 185.829 371.562C237.607 371.562 278.657 403.886 278.657 442.765Z" fill="#EBDCC5" stroke="#EBDCC5" stroke-width="4"/>
<path d="M278.657 427.792C278.657 466.67 237.607 498.995 185.829 498.995C134.05 498.995 93 466.67 93 427.792C93 388.913 134.05 356.588 185.829 356.588C237.607 356.588 278.657 388.913 278.657 427.792Z" fill="#F7EFE2" stroke="#F7EFE2" stroke-width="4"/>
<path d="M268.678 419.481C268.678 453.77 232.465 482.373 186.658 482.373C140.85 482.373 104.637 453.77 104.637 419.481C104.637 385.192 140.85 356.588 186.658 356.588C232.465 356.588 268.678 385.192 268.678 419.481Z" fill="#84B86B" stroke="#84B86B" stroke-width="4"/>
<path d="M269.3 388.716V421.978" stroke="#84B86B" stroke-width="4"/>
<path d="M104.637 388.716V421.978" stroke="#84B86B" stroke-width="4"/>
<path d="M185.828 451.916C232.217 451.916 269.823 422.874 269.823 387.049C269.823 351.224 232.217 322.183 185.828 322.183C139.439 322.183 101.834 351.224 101.834 387.049C101.834 422.874 139.439 451.916 185.828 451.916Z" fill="#8ECF9E"/>
<path d="M125.157 366.262C139.863 342.702 161.627 336.227 170.658 335.921" stroke="#F7EFE2" stroke-width="4"/>
<path d="M237.449 323.208L238.88 298" stroke="#F7EFE2" stroke-width="4"/>
<path d="M246.5 324.54L265.461 313.16" stroke="#F7EFE2" stroke-width="4"/>
<path d="M256.508 338.083L277.719 330.739" stroke="#F7EFE2" stroke-width="4"/>
<path d="M158.387 340.215C157.479 340.149 156.564 340.068 155.654 340.025C155.274 340.005 155.009 340.219 154.934 340.604C154.882 340.9 155.013 341.134 155.259 341.287C155.858 341.645 156.446 342.025 157.072 342.325C157.51 342.537 157.941 342.718 158.331 343.039C158.847 343.466 159.013 343.973 158.635 344.456C158.301 344.874 157.661 345.098 157.151 344.807C155.832 344.059 154.319 343.627 153.15 342.635C152.995 342.504 152.877 342.301 152.697 342.213C151.65 341.687 150.521 340.683 149.491 341.007C148.446 341.329 149.042 342.805 148.833 343.757C148.73 344.215 148.734 344.703 148.654 345.162C148.575 345.607 148.29 345.879 147.811 345.934C147.331 345.982 146.976 345.822 146.83 345.361C146.524 344.409 146.213 343.524 146.441 342.422C147.37 337.966 146.732 338.49 143.125 338.418C138.849 338.335 134.559 338.116 130.319 337.413C127.482 336.946 124.62 336.613 121.823 335.909C119.41 335.3 117.244 334.176 115.116 332.965C114.112 332.39 113.558 331.63 113.744 330.466C113.786 330.199 113.782 329.929 113.778 329.658C113.755 327.271 114.606 326.507 117.048 326.713C117.685 326.759 118.269 326.981 118.871 327.189C122.517 328.442 126.154 329.717 129.829 330.889C133.841 332.161 138.014 332.806 142.156 333.57C143.327 333.781 144.535 333.906 145.664 334.25C147.29 334.749 148.882 334.527 150.453 334.257C152.72 333.873 155.014 333.543 157.198 332.777C157.878 332.541 158.592 332.593 159.283 332.755C159.819 332.884 160.403 333.016 160.445 333.731C160.491 334.492 159.894 334.562 159.367 334.726C158.106 335.123 156.716 335.038 155.522 335.687C155.343 335.787 155.116 335.801 154.924 335.869C154.556 335.993 154.343 336.24 154.386 336.618C154.429 337.004 154.73 337.266 155.082 337.246C157.183 337.105 158.889 338.653 160.995 338.549C161.699 338.518 162.25 338.887 161.916 339.726C161.716 340.237 161.268 340.392 160.717 340.345C159.949 340.29 159.173 340.234 158.405 340.178L158.401 340.231L158.387 340.215Z" fill="#383838"/>
<path d="M24.5614 349.809C23.3231 349.72 22.0689 349.746 20.8557 349.519C18.9346 349.157 17.1158 348.538 16.1598 346.543C15.7411 345.677 15.5649 344.837 16.1908 343.992C16.7737 343.214 17.554 343.301 18.4228 343.325C24.7722 343.489 31.087 343.177 37.0459 340.597C39.2453 339.642 41.5033 338.721 43.2366 336.92C43.9797 336.145 44.8799 335.839 45.8604 336.327C46.7378 336.762 47.435 336.518 48.1587 336.013C48.8415 335.544 49.532 335.075 50.3421 334.855C52.1571 334.359 53.6791 335.598 53.5819 337.479C53.5215 338.635 53.1569 339.669 52.2977 340.465C51.1358 341.542 49.935 342.523 48.4296 343.173C45.8447 344.287 43.5714 346.057 40.8517 346.921C37.772 347.906 34.7615 349.097 31.5581 349.679C29.2136 350.106 26.8991 350.009 24.569 349.81L24.5614 349.809Z" fill="#383838"/>
<path d="M77.1232 350.511C77.0904 351.399 76.6412 352.11 76.1389 352.801C74.1016 355.625 71.5684 357.968 68.8262 360.069C65.3156 362.763 61.5086 365.022 57.443 366.754C53.7962 368.305 49.8767 368.875 45.9385 369.162C45.3107 369.211 44.6879 369.189 44.0568 369.285C42.5338 369.519 41.147 368.403 40.863 366.928C40.7492 366.342 41.0656 365.958 41.3492 365.595C42.0281 364.729 42.9866 364.314 44.0604 364.141C45.2368 363.952 46.4126 363.661 47.5984 363.559C50.6215 363.3 53.3297 362.103 55.8369 360.556C57.7976 359.337 59.8486 358.273 61.802 357.045C65.5692 354.69 69.128 352.085 72.5605 349.283C73.1077 348.838 73.6248 348.375 74.3536 348.224C75.8989 347.897 77.1964 348.952 77.1226 350.518L77.1232 350.511Z" fill="#383838"/>
<path d="M13.6149 303.299C13.3444 301.069 15.3914 300.221 15.7651 298.558C15.3287 297.991 14.8701 298.268 14.3386 298.486C12.2041 299.373 10.0576 300.214 7.85472 301.089C7.40198 300 7.7035 299.554 8.59088 299.203C10.2388 298.553 11.8412 297.786 13.7023 296.954C11.0338 295.744 8.04406 296.856 5.52951 295.325C6.35227 294.268 7.22344 294.142 8.21093 294.432C9.86969 294.913 11.4455 294.408 13.2497 294.153C11.6621 292.576 9.49185 291.929 8.63468 289.937C9.15078 289.076 9.75177 288.961 10.5421 289.531C11.8807 290.502 13.2631 291.401 14.5603 292.415C15.9006 293.469 17.3451 294.041 19.0921 294.152C25.2532 294.535 31.4057 295.038 37.5651 295.444C38.8675 295.531 40.1882 295.362 41.5019 295.29C41.9887 295.265 42.4759 295.127 42.9501 295.168C47.2576 295.531 51.547 295.184 55.8303 294.814C56.1092 294.788 56.3876 294.771 56.6627 294.798C57.7108 294.889 58.2616 295.577 58.5522 296.458C58.8495 297.354 58.2418 297.989 57.56 298.264C56.3003 298.762 54.9717 299.255 53.6307 299.384C49.0253 299.845 44.4145 300.38 39.7907 300.454C36.0688 300.511 32.3169 300.022 28.5957 299.641C25.9827 299.37 23.3952 298.851 20.7893 298.483C18.9683 298.223 17.5972 298.984 16.5478 300.41C15.9075 301.284 15.2667 302.166 14.5756 302.998C14.4406 303.162 14.095 303.152 13.6078 303.291L13.6149 303.299Z" fill="#383838"/>
<path d="M117.97 302.267C120.577 303.175 122.932 304.46 124.786 306.585C129.587 312.09 129.67 319.649 125.122 325.364C122.406 328.77 118.958 331.249 115.422 333.659C111.87 336.083 108.196 338.375 105.06 341.372C103.753 342.626 102.556 343.973 101.527 345.463C97.9508 350.59 94.1275 355.489 89.2544 359.476C87.0657 361.256 84.718 362.767 82.0212 363.642C78.4593 364.803 75.0618 364.543 71.8227 362.513C70.6666 361.787 70.1001 360.723 69.6836 359.516C69.201 358.149 68.9073 356.741 68.7936 355.307C68.7362 354.598 68.5706 354.424 67.8603 354.713C66.4061 355.329 64.898 355.832 63.3229 356.083C63.1331 355.922 62.8871 355.788 62.7391 355.584C60.9294 353.068 60.0106 350.228 59.7751 347.151C59.4157 342.354 60.2859 337.691 61.5922 333.106C62.712 329.174 64.1933 325.384 65.8701 321.678C68.2 316.539 68.6508 311.033 68.9628 305.516C69.2342 300.78 69.2127 296.022 70.3533 291.37C71.197 287.937 72.5767 284.807 75.0076 282.139C76.6227 280.365 78.5798 279.22 80.6877 278.24C82.0462 280.352 82.5711 282.745 83.1356 285.125C83.3147 285.866 83.16 286.831 83.5891 287.327C84.0886 287.921 85.0423 287.37 85.8043 287.332C88.0652 287.239 90.24 287.697 92.4191 288.203C93.8496 288.67 95.2062 289.302 96.4978 290.085C97.8751 291.075 99.3284 291.977 100.52 293.186C100.538 293.25 100.539 293.343 100.59 293.393C103.016 295.853 104.658 298.76 105.478 302.111C105.639 302.781 106.049 302.788 106.556 302.63C108.998 301.853 111.531 301.741 114.079 301.855C115.392 301.911 116.687 302.113 117.987 302.237L117.97 302.267Z" fill="#FFC74D"/>
<path d="M80.6952 278.241C78.5868 279.228 76.622 280.373 75.0151 282.139C72.5914 284.816 71.2045 287.938 70.3608 291.371C69.2131 296.014 69.2258 300.787 68.9704 305.517C68.6732 311.043 68.2076 316.54 65.8777 321.679C64.1921 325.4 62.7107 329.19 61.5992 333.115C60.293 337.699 59.4232 342.355 59.7821 347.16C60.0176 350.237 60.9364 353.076 62.7461 355.593C62.8946 355.789 63.1406 355.923 63.3299 356.092C56.7901 357.728 51.4709 355.323 49.597 348.751C48.9108 346.338 48.7074 343.891 48.7623 341.409C48.7853 340.659 48.6092 340.522 47.905 340.727C46.7019 341.082 45.4643 341.272 44.2239 341.5C41.5691 342.006 39.6661 340.893 38.0813 338.912C35.899 336.191 35.281 333.048 35.4932 329.67C35.7792 325.376 37.1886 321.402 38.9992 317.559C40.8385 313.64 43.1224 310.001 45.512 306.4C48.0234 302.615 49.2045 298.261 50.2326 293.881C51.1664 289.842 51.918 285.752 53.3691 281.843C54.6367 278.441 56.459 275.404 59.3504 273.118C65.2743 268.416 74.331 269.479 79.0861 275.414C79.3777 275.776 79.5921 276.241 80.0235 276.489C79.9576 277.189 80.6483 277.603 80.703 278.242L80.6952 278.241Z" fill="#ECBF04"/>
<path d="M117.97 302.267C116.662 302.134 115.359 301.94 114.062 301.885C111.529 301.773 108.996 301.885 106.538 302.66C106.022 302.832 105.636 302.82 105.46 302.141C104.633 298.789 103.014 295.876 100.572 293.423C100.521 293.388 100.52 293.287 100.502 293.216C101.114 293.322 101.312 292.833 101.579 292.457C103.119 290.329 104.259 287.94 105.689 285.735C107.187 286.331 108.715 286.851 110.119 287.688C114.138 290.077 116.419 293.673 117.446 298.139C117.758 299.502 118.078 300.865 117.969 302.275L117.961 302.275L117.97 302.267Z" fill="#FFC74D"/>
<path d="M96.489 290.099C95.198 289.309 93.8408 288.685 92.4104 288.218C92.2428 287.64 92.7059 287.34 92.9858 287.004C93.7499 286.075 94.5568 285.196 95.1878 284.18C97.8457 281.157 100.496 278.133 102.268 274.495C104.503 269.931 103.776 265.928 100.119 262.062C99.4062 261.314 98.6431 260.616 97.87 259.948C97.4684 259.609 97.3325 259.344 97.6615 258.864C98.467 257.683 99.2444 256.46 100.036 255.262C102.387 257.035 104.039 259.37 105.148 262.045C106.826 266.062 106.561 270.18 105.467 274.292C103.988 279.872 101.193 284.806 97.9773 289.548C97.5448 290.175 97.144 290.363 96.4874 290.122L96.4885 290.107L96.489 290.099Z" fill="#8ECF9E"/>
<path d="M96.4966 290.1C97.1681 290.35 97.569 290.162 97.9866 289.526C101.202 284.784 103.983 279.841 105.476 274.27C106.57 270.165 106.843 266.048 105.157 262.023C104.034 259.339 102.405 256.998 100.045 255.24C101.247 255.443 102.082 256.317 102.963 257C107.05 260.153 109.682 264.169 110.077 269.442C110.347 273.002 109.606 276.403 108.416 279.703C107.671 281.772 106.736 283.781 105.697 285.72C104.275 287.934 103.129 290.299 101.588 292.442C101.328 292.819 101.123 293.308 100.511 293.201C99.313 291.976 97.8662 291.09 96.4889 290.1L96.5043 290.101L96.4966 290.1Z" fill="#8ECF9E"/>
<path d="M95.1951 284.181C94.5714 285.206 93.7561 286.092 92.9932 287.005C92.7133 287.341 92.2502 287.641 92.4177 288.219C90.2463 287.714 88.0638 287.255 85.8029 287.347C85.0498 287.371 84.0866 287.944 83.5877 287.343C83.1663 286.848 83.3133 285.882 83.1342 285.141C82.5697 282.761 82.03 280.359 80.6863 278.256C80.6404 277.602 79.941 277.203 80.0069 276.503C81.1971 275.466 82.6456 275.252 84.1248 275.258C88.5635 275.26 94.2825 278.352 95.1797 284.18L95.1951 284.181Z" fill="#FFC74D"/>
<path d="M78.3026 321.582C76.7577 319.046 75.3337 316.875 74.1427 314.589C73.9051 314.123 74.5211 313.206 74.7423 312.502C75.2843 312.936 76.1126 313.267 76.3203 313.824C78.0412 318.542 81.3352 320.777 86.3476 320.666C86.9454 320.647 87.5605 321.357 88.1608 321.734C87.5627 322.186 86.9259 323.07 86.4117 323.002C83.7547 322.679 81.1308 322.111 78.28 321.572L78.2877 321.573L78.3026 321.582Z" fill="black"/>
<path d="M76.3294 303.584C74.882 305.718 72.685 306.644 71.1849 305.746C69.6715 304.816 69.5789 302.23 71.0175 300.11C72.4908 297.939 74.816 297.06 76.3221 298.091C77.8283 299.121 77.7697 301.441 76.3289 303.591L76.3294 303.584Z" fill="black"/>
<path d="M101.171 320.603C99.7238 322.737 97.5268 323.663 96.0267 322.765C94.5133 321.835 94.4207 319.249 95.8593 317.129C97.3326 314.958 99.6578 314.079 101.164 315.11C102.67 316.14 102.611 318.46 101.171 320.61L101.171 320.603Z" fill="black"/>
</svg>
