<svg width="262" height="245" viewBox="0 0 262 245" fill="none" xmlns="http://www.w3.org/2000/svg">
<path d="M26.6497 128.324C26.2578 127.075 25.7202 125.878 25.0479 124.755C19.7955 115.652 -9.19837 60.1099 41.9227 19.8901C97.5636 -23.6378 303.302 4.28227 240.595 103.601C240.024 104.508 239.167 105.889 238.621 106.809C235.666 111.784 203.17 133.709 218.245 150.523C235.629 169.899 236.759 217.78 147.356 235.092C127.65 238.91 114.463 236.074 98.9294 235.092C42.1462 231.498 2.32466 202.869 22.1672 159.017C26.8732 148.745 29.5056 137.726 26.6497 128.324Z" fill="#F2897D"/>
<path d="M43.003 50.9815C42.469 50.9815 42.0593 50.6084 41.7613 49.8497C41.4482 49.0197 41.2966 48.1375 41.3142 47.2505V46.9769C41.327 46.2201 41.4698 45.4713 41.7364 44.7632C41.8075 44.4375 41.9881 44.1461 42.2481 43.9378C42.508 43.7296 42.8315 43.617 43.1644 43.619L69.9977 43.5195C70.5316 43.5195 70.9414 43.8926 71.2394 44.6513C71.5585 45.4807 71.7226 46.3617 71.7236 47.2505C71.7324 48.1004 71.5808 48.9444 71.2766 49.7378C71.1975 50.0559 71.0161 50.3392 70.7602 50.5438C70.5044 50.7484 70.1884 50.8628 69.8611 50.8695H62.0259L61.7155 134.331C61.7155 135.102 61.7155 136.818 59.2321 136.818H53.0235C51.9681 136.818 51.7818 135.276 51.7818 134.331L51.9805 50.9815H43.003Z" fill="#1E1E1E"/>
<path d="M89.1076 196.489C88.2136 196.414 87.6796 196.041 87.5058 195.407C85.9246 186.511 85.1268 177.493 85.1217 168.457C85.1217 158.993 86.0033 130.065 87.7665 120.601C88.1515 119.681 88.5985 119.569 90.2499 119.432C90.6597 119.432 92.3236 119.432 92.7334 119.432H96.4585C97.8492 119.432 98.9419 119.631 98.9419 120.601C97.5015 128.299 95.4155 156.903 95.0305 165.372C94.9436 167.362 94.8939 169.34 94.8939 171.292C94.8797 177.465 95.353 183.627 96.3095 189.723C97.2035 189.723 98.2217 189.661 99.3641 189.537L102.729 189.263L104.902 189.089H104.989C105.356 189.085 105.717 189.191 106.024 189.392C106.331 189.594 106.572 189.882 106.715 190.221C107.041 190.905 107.206 191.653 107.199 192.41C107.199 192.521 107.199 192.832 107.199 193.355C107.168 193.636 107.072 193.906 106.919 194.143C106.766 194.381 106.56 194.578 106.318 194.723C104.883 195.177 103.406 195.485 101.91 195.643C99.7158 195.959 97.4063 196.195 94.9809 196.352C93.3542 196.464 91.9511 196.526 90.7715 196.526C90.1755 196.576 89.6291 196.563 89.1076 196.489Z" fill="#1E1E1E"/>
<path d="M85.483 61.4421C84.5484 61.5522 83.6549 62.7912 82.8027 65.1593C81.9779 67.4997 81.2493 70.4046 80.617 73.8739C79.9847 77.3433 79.5174 80.8128 79.215 84.2821H89.9779C89.8954 80.8128 89.6343 77.3433 89.1945 73.8739C88.782 70.377 88.246 67.4584 87.5861 65.118C86.9264 62.7775 86.2253 61.5522 85.483 61.4421ZM79.0088 107.205C79.0088 108.058 78.7889 108.719 78.3489 109.187C77.9091 109.655 77.3318 109.986 76.617 110.179C75.9023 110.371 75.1324 110.468 74.3077 110.468H73.8953C72.9331 110.468 72.0397 110.289 71.215 109.931C70.3902 109.6 69.909 108.871 69.7716 107.742C69.4967 105.401 69.3454 102.028 69.318 97.6227V96.8793C69.318 92.694 69.5379 88.0819 69.9778 83.043C70.4177 77.9766 71.1737 73.0617 72.2458 68.2982C73.3455 63.5347 74.8438 59.5973 76.7407 56.4858C78.6652 53.3744 81.0982 51.7223 84.0398 51.5295H84.2047C86.3766 51.5295 88.1909 52.5483 89.6481 54.5858C91.1051 56.5959 92.2598 59.1428 93.1119 62.2267C93.9917 65.2831 94.6377 68.3119 95.0501 71.3132C95.4901 74.2869 95.7786 76.6688 95.9161 78.4585C96.191 82.0655 96.3285 86.416 96.3285 91.5099C96.3285 91.978 96.3285 93.7541 96.3285 96.838C96.3285 99.9219 96.1773 103.639 95.8749 107.989C95.6824 108.953 95.2838 109.573 94.679 109.848C94.2116 110.041 93.6893 110.137 93.1119 110.137C92.9195 110.137 92.7134 110.123 92.4934 110.096C91.6961 110.068 90.9951 109.903 90.3902 109.6C89.813 109.27 89.5106 108.595 89.4831 107.576C89.5106 107.246 89.5381 106.833 89.5655 106.337C89.703 104.3 89.8404 101.629 89.9779 98.3248C90.0329 96.9481 90.0605 95.6402 90.0605 94.4011C90.0605 92.6664 90.0054 91.0969 89.8954 89.6927L78.9263 89.734C78.7889 92.6526 78.7201 95.3786 78.7201 97.9118C78.7201 100.473 78.7889 102.84 78.9263 105.016C78.9538 105.787 78.9813 106.516 79.0088 107.205Z" fill="#1E1E1E"/>
<path d="M117.87 67.7865C117.205 71.8237 116.666 76.2179 116.254 80.969C115.872 85.6913 115.644 90.032 115.571 93.9914C118.414 93.4235 120.775 91.8563 122.652 89.2899C124.529 86.7236 125.704 83.834 126.176 80.6209C126.309 79.8253 126.382 79.0581 126.396 78.3194C126.438 76.0443 125.889 73.8172 124.749 71.6384C123.609 69.4595 121.316 68.1755 117.87 67.7865ZM117.558 118.236C119.754 117.538 121.489 116.299 122.761 114.52C124.034 112.74 124.703 110.832 124.77 108.793L124.773 108.66C124.81 106.681 124.133 104.983 122.742 103.568C121.38 102.213 119.21 101.508 116.23 101.452L115.832 101.445C115.852 103.544 116.021 106.37 116.339 109.923C116.686 113.476 117.093 116.247 117.558 118.236ZM109.592 125.271C108.946 125.112 108.467 124.674 108.156 123.959C107.874 123.215 107.681 122.472 107.577 121.731C105.885 112.685 105.096 103.478 105.21 94.1098L105.253 91.7608C105.411 83.251 106.004 75.0891 107.034 67.2754L107.036 67.1424C107.215 65.4314 107.521 64.0921 107.952 63.1247C108.413 62.1283 109.383 61.5256 110.862 61.3165C112.489 61.1102 114.04 61.0207 115.515 61.048C119.174 61.1158 122.535 62.0648 125.6 63.8951C128.695 65.6964 130.886 68.5302 132.172 72.3966C132.899 74.5678 133.241 76.8353 133.197 79.1992C133.163 81.0312 132.732 83.5651 131.905 86.8012C131.078 90.0374 128.813 93.6457 125.109 97.6265C128.374 99.8743 130.389 102.572 131.158 105.719C131.432 106.818 131.56 107.914 131.54 109.007C131.503 111.017 130.856 113.281 129.599 115.799C128.373 118.289 126.015 120.521 122.525 122.496C119.066 124.441 114.755 125.367 109.592 125.271Z" fill="#1E1E1E"/>
<path d="M154.092 74.7514C152.142 75.2653 150.603 76.8969 149.474 79.646C148.371 82.3695 147.652 85.6454 147.32 89.4737C147.166 91.2465 147.089 93.0194 147.089 94.7922C147.089 96.822 147.23 99.2885 147.512 102.192C147.794 105.095 148.448 107.832 149.474 110.401C150.526 112.97 151.861 114.37 153.476 114.602H153.707C154.99 114.602 156.118 113.934 157.093 112.598C158.094 111.236 158.902 109.386 159.517 107.048C160.159 104.684 160.608 102.076 160.864 99.2243C160.992 97.5285 161.057 95.82 161.057 94.0985C161.057 92.968 161.006 91.4008 160.903 89.3966C160.8 87.3926 160.467 85.1958 159.902 82.8064C159.364 80.3912 158.607 78.4513 157.632 76.9868C156.657 75.4965 155.478 74.7514 154.092 74.7514ZM153.207 121.153C152.874 121.179 152.54 121.192 152.207 121.192C149.257 121.192 146.691 120.01 144.511 117.646C142.355 115.283 140.714 112.02 139.585 107.857C138.482 103.798 137.931 99.4555 137.931 94.8308C137.931 94.728 137.931 93.469 137.931 91.0539C137.931 88.6387 138.521 85.3371 139.701 81.1491C140.88 76.9611 142.638 73.5824 144.973 71.0131C147.204 68.598 149.962 67.3904 153.245 67.3904H153.823C157.389 67.7758 160.224 69.7413 162.327 73.2869C164.43 76.8326 165.829 81.1748 166.521 86.3135C166.828 88.7029 166.982 91.0923 166.982 93.4819C166.982 96.231 166.688 99.5968 166.098 103.579C165.533 107.536 164.149 111.326 161.942 114.949C159.736 118.571 156.824 120.64 153.207 121.153Z" fill="#1E1E1E"/>
<path d="M194.839 121.648C190.883 121.506 187.823 120.294 185.659 118.013C183.524 115.733 182.03 112.54 181.176 108.434C180.322 104.329 179.838 99.4537 179.725 93.8089C179.696 92.3263 179.681 90.8439 179.681 89.3613C179.681 85.2845 179.809 80.8797 180.066 76.1471C180.35 71.4146 180.663 67.6228 181.005 64.7719C181.205 63.5174 181.788 62.6622 182.756 62.206C183.724 61.7213 184.749 61.4791 185.83 61.4791C187.112 61.4791 188.235 61.6073 189.203 61.8638C190.171 62.1204 190.896 62.6051 191.381 63.3178C191.779 63.888 191.979 64.672 191.979 65.6699C191.979 65.898 191.964 66.1403 191.936 66.3968C191.794 67.4803 191.58 69.7895 191.295 73.3247C191.01 76.8598 190.783 80.951 190.612 85.5981C190.526 87.9074 190.484 90.1881 190.484 92.4403C190.484 94.6641 190.555 97.4152 190.698 100.694C190.84 103.973 191.323 106.98 192.149 109.717C192.889 112.197 194.014 113.438 195.523 113.438C195.664 113.438 195.807 113.423 195.949 113.395C197.657 112.939 199.01 111.299 200.005 108.477C201.03 105.626 201.77 102.134 202.226 97.9997C202.71 93.8658 203.009 89.6322 203.122 85.2987C203.179 83.132 203.208 81.0793 203.208 79.1407C203.208 77.1735 203.166 74.9071 203.08 72.3411C203.023 69.7468 202.937 67.7083 202.824 66.2258C202.796 65.8837 202.781 65.5559 202.781 65.2422C202.781 64.7006 202.838 64.1304 202.952 63.5317C203.094 62.9045 203.606 62.3485 204.489 61.8638C205.058 61.6073 205.756 61.4648 206.581 61.4363H206.752C207.52 61.4363 208.232 61.6501 208.886 62.0778C209.542 62.4768 209.94 63.2181 210.082 64.3014C210.253 67.1524 210.353 70.9157 210.381 75.5912V77.1735C210.381 81.3644 210.282 85.6836 210.082 90.1311C209.912 94.1795 209.542 98.071 208.972 101.806C208.403 105.541 207.549 108.905 206.41 111.898C205.3 114.863 203.805 117.229 201.926 118.997C200.048 120.765 197.686 121.648 194.839 121.648Z" fill="#1E1E1E"/>
<path d="M123.627 134.903C123.479 134.971 123.351 135.077 123.258 135.211C123.165 135.346 123.11 135.502 123.098 135.665C123.087 135.829 123.12 135.992 123.193 136.138C123.266 136.283 123.378 136.408 123.515 136.495L127.128 139.206C127.351 139.395 127.624 139.513 127.913 139.546C128.204 139.579 128.495 139.526 128.755 139.393C132.046 137.714 142.985 132.167 146.909 130.961C147.443 130.799 147.592 130.339 147.232 130.028L142.724 125.924C142.451 125.711 142.123 125.581 141.778 125.544C141.434 125.51 141.086 125.572 140.775 125.725C137.385 127.453 127.178 132.702 123.627 134.903Z" fill="#1E1E1E"/>
<path d="M139.246 199.888C138.808 200.161 137.726 200.409 136 200.628C134.302 200.82 132.412 200.957 130.33 201.039C129.7 201.067 129.098 201.08 128.522 201.08C127.179 201.08 125.837 201.012 124.495 200.875C123.153 200.711 122.386 200.354 122.194 199.806C121.345 196.239 120.77 191.986 120.469 187.047C120.195 182.108 120.058 177.253 120.058 172.479C120.058 163.013 120.784 153.809 122.235 144.865C122.454 144.234 123.386 143.795 125.03 143.548C126.372 143.356 127.906 143.26 129.632 143.26C129.988 143.26 130.809 143.274 132.096 143.301C133.384 143.329 134.904 143.479 136.657 143.754C138.411 144 139.48 144.289 139.862 144.618C140.273 145.085 140.507 145.688 140.561 146.429V146.634C140.561 147.294 140.438 147.924 140.191 148.527C139.973 149.104 139.616 149.433 139.123 149.515C138.274 149.571 137.082 149.598 135.548 149.598C133.713 149.625 132.137 149.68 130.822 149.762C129.891 157.581 129.426 165.415 129.426 173.261C129.426 174.797 129.439 176.334 129.467 177.87L136.534 177.376C137.22 177.431 137.699 177.966 137.972 178.982C138.137 179.585 138.219 180.202 138.219 180.834C138.219 181.245 138.151 181.821 138.013 182.561C137.904 183.302 137.493 183.741 136.781 183.878L129.878 184.331C129.988 185.593 130.056 187.047 130.084 188.694C130.111 190.971 130.234 192.973 130.454 194.702L138.548 194.579C139.096 194.606 139.493 194.99 139.739 195.731C139.904 196.28 139.986 196.856 139.986 197.459C139.986 197.706 139.959 198.104 139.904 198.653C139.848 199.174 139.63 199.586 139.246 199.888Z" fill="#1E1E1E"/>
<path d="M13.9776 36.6879C9.83862 45.1861 2.05726 65.0432 4.04399 76.4848C6.5274 90.7869 28.2572 98.8706 24.5321 113.794" stroke="#FFDD93" stroke-width="5" stroke-linecap="round"/>
<path d="M132.561 241.269C147.669 240.233 179.373 232.812 185.333 211.421" stroke="#8ECF9E" stroke-width="5" stroke-linecap="round"/>
<path d="M173.537 36.0228C184.92 32.7064 211.161 30.1776 225.068 46.5938C238.975 63.0101 252.799 67.5286 257.973 67.736" stroke="#BDA6ED" stroke-width="5" stroke-linecap="round"/>
<path d="M64.662 177.843C62.7995 184.475 67.1456 210.8 85.771 214.53" stroke="#F7EFE2" stroke-width="5" stroke-linecap="round"/>
</svg>
