<svg width="124" height="146" viewBox="0 0 124 146" fill="none" xmlns="http://www.w3.org/2000/svg">
<path d="M58.1958 26.9283C59.9439 17.7337 62.9023 8.97617 67.7938 0.924621C67.9787 0.605249 68.214 0.302685 68.4157 0.00012207H69.8277C70.4832 0.806958 70.3992 1.64741 70.063 2.58872C67.9619 8.27019 66.9197 14.187 66.4659 20.2046C66.4154 20.9274 65.659 21.6838 66.4154 22.4402C66.5163 23.432 66.2474 24.3901 66.0793 25.365C65.7767 27.0627 65.4909 28.7605 65.306 30.475C64.9867 33.3493 64.7345 36.2237 64.4488 39.1148C62.7006 39.9441 60.9973 39.9497 59.3388 39.1317L58.1958 26.9451V26.9283Z" fill="#13BC79"/>
<path d="M59.3383 39.1148C60.9856 39.9328 62.689 39.9272 64.4483 39.098C66.3477 38.8795 67.9782 39.3333 69.0876 41.1823C69.6423 40.1738 70.0962 39.4174 70.4828 38.6105C71.256 36.9632 72.5335 36.0892 74.3489 35.9883C75.9457 36.0724 77.1392 36.8624 77.9628 38.1735C81.6608 44.1239 86.6699 48.6119 92.6876 52.1923C98.7892 55.823 104.437 60.1093 109.446 65.1857C117.481 73.3381 122.389 82.9361 123.532 94.4335C124.541 104.569 122.776 113.982 116.758 122.404C112.774 127.968 107.664 132.22 101.748 135.582C94.3685 139.768 86.4514 142.44 78.0805 143.768C78.1141 143.348 78.4503 143.297 78.7696 143.18C80.232 142.659 81.728 142.188 83.14 141.566C91.326 137.885 98.0665 132.506 102.807 124.757C106.521 118.689 108.539 112.049 108.942 105.006C109.295 99.0392 108.992 93.0887 107.648 87.1719C105.58 78.0782 101.378 70.1443 95.1921 63.2694C92.2673 60.0253 89.1576 56.8988 85.6614 54.1925C84.72 53.4529 83.9805 53.3689 83.2577 54.2934C82.5517 55.1843 83.056 55.8566 83.7619 56.445C87.7961 59.7732 91.5613 63.3703 94.9232 67.4213C101.949 75.8931 105.395 85.7264 106.118 96.5682C106.387 100.586 106.303 104.653 105.664 108.688C104.353 116.958 100.857 124.085 95.0744 130.086C91.2252 134.086 86.5354 136.893 81.4927 139.095C80.2993 139.616 79.0722 140.255 77.7443 140.339C77.6098 139.986 77.7443 139.835 77.8788 139.717C81.0725 137.112 83.4426 133.851 85.4428 130.304C89.9141 122.353 91.5109 113.629 91.9816 104.704C92.3009 98.5517 91.8639 92.3996 90.9394 86.2643C89.6115 77.5908 86.8884 69.4384 82.4004 61.8911C80.8372 59.2689 79.2067 56.6635 77.2568 54.2934C76.6349 53.537 75.9121 53.2848 75.0548 53.9908C74.1808 54.7136 74.3657 55.47 74.9708 56.2096C76.6349 58.2603 78.0973 60.4455 79.4588 62.6979C82.0306 66.9506 84.0981 71.4218 85.5605 76.1788C87.2582 81.6922 88.2836 87.2896 88.687 93.0383C89.0736 98.6525 89.1576 104.267 88.5693 109.831C87.9978 115.26 86.6867 120.555 84.4343 125.597C81.8961 131.262 78.4671 136.17 73.1218 139.532C71.34 140.658 69.4574 141.684 67.1209 142.054C68.1631 139.902 69.054 137.935 69.6423 135.834C70.9366 131.161 71.6594 126.404 72.2477 121.597C72.8865 116.403 73.0882 111.192 73.2731 105.998C73.5588 98.4508 73.2226 90.9204 72.752 83.3899C72.5839 80.8517 72.4494 78.3304 72.1301 75.809C71.6594 72.0438 71.1047 68.2785 70.466 64.5469C69.9281 61.3028 69.1548 58.1091 68.3144 54.9321C68.0454 53.9236 67.4739 53.4529 66.4654 53.6546C65.0366 53.9404 65.2215 55.0834 65.4737 56.0247C68.4825 67.0515 69.7768 78.3472 70.0962 89.7101C70.3819 99.93 70.55 110.167 69.3734 120.37C68.7682 125.648 68.0623 130.909 66.4486 135.969C65.7258 138.238 65.0198 140.541 63.1204 142.272C62.2295 143.096 61.5908 142.995 60.8344 142.272C59.5737 141.062 58.8509 139.532 58.2458 137.935C56.8002 134.187 56.027 130.287 55.3546 126.337C54.3629 120.488 53.8586 114.588 53.7577 108.688C53.5896 97.8961 53.5224 87.1047 54.8167 76.3469C55.3714 71.6908 55.9597 67.0347 56.9683 62.4458C57.4557 60.2438 58.0272 58.0586 58.4811 55.8566C58.6492 54.9994 58.7836 53.9404 57.5734 53.6546C56.464 53.4025 55.9429 53.9068 55.6235 55.0834C53.472 62.8996 52.2617 70.8671 51.5221 78.9187C51.001 84.4825 50.7825 90.0967 50.6481 95.6773C50.48 103.309 50.7489 110.94 51.4213 118.538C51.7406 122.101 52.1609 125.631 52.7828 129.144C53.5224 133.33 54.5478 137.431 56.548 141.23C56.6657 141.448 56.9178 141.717 56.6321 141.986C56.4304 142.171 56.195 142.037 55.9765 141.953C55.052 141.583 54.1107 141.28 53.2198 140.843C47.3367 137.986 43.3025 133.296 40.3945 127.581C37.0159 120.925 35.4863 113.747 35.0829 106.385C34.6962 99.2913 34.9484 92.1642 36.2091 85.1212C38.1085 74.4979 42.2939 64.8663 48.8999 56.3273C49.5723 55.47 49.7908 54.5287 48.8663 53.8395C48.0258 53.2176 47.1518 53.6378 46.5466 54.4615C44.1934 57.6552 41.9914 60.933 40.1088 64.4125C34.4441 74.9349 32.3598 86.3315 31.9227 98.0978C31.7042 103.931 32.1581 109.747 33.3011 115.495C35.1165 124.555 38.4951 132.809 45.5381 139.179C45.8911 139.499 46.3281 139.784 46.4962 140.507C43.1512 139.364 40.0583 138.12 37.184 136.389C31.0655 132.725 26.1236 127.951 22.6778 121.664C19.8706 116.554 18.4251 111.074 17.9376 105.259C17.4837 99.9973 17.7695 94.8201 18.7108 89.6765C20.1732 81.709 23.3501 74.4811 28.4601 68.1441C30.5276 65.5891 32.5951 63.0509 35.1501 60.8994C36.8646 59.4538 38.4951 57.8569 40.2432 56.4281C41.0837 55.739 41.3694 54.7977 40.5794 53.974C39.8398 53.2176 38.9489 53.4361 38.2261 54.2093C38.0244 54.4111 37.8395 54.6128 37.6042 54.7977C33.2002 58.3108 29.2333 62.2777 25.7874 66.7321C19.1142 75.3552 15.6179 85.2557 14.9288 96.0808C14.6094 101.09 14.6598 106.149 15.7188 111.142C17.198 118.134 20.0051 124.505 24.7116 129.917C30.0906 136.086 36.7806 140.389 44.5632 142.978C45.017 143.129 45.6558 143.062 45.7902 143.751C32.3094 141.348 20.0051 136.473 10.3735 126.32C3.63307 119.277 0.271254 110.806 0.0191174 101.073C-0.401109 84.9363 6.12081 72.0102 18.1729 61.6053C22.5769 57.7897 27.2834 54.3942 32.2925 51.419C37.8227 48.1413 42.2099 43.7709 45.6558 38.392C46.5634 36.98 47.7401 36.1228 49.421 35.9715C52.6315 36.0892 53.2871 38.9299 54.6486 41.1319C55.8589 39.2661 57.4893 38.9299 59.3383 39.098V39.1148Z" fill="#BDA6ED"/>
<path d="M45.7231 143.751C45.5887 143.062 44.9499 143.129 44.4961 142.978C36.7135 140.39 30.0234 136.086 24.6445 129.918C19.938 124.522 17.1309 118.151 15.6517 111.142C14.5927 106.149 14.5423 101.09 14.8617 96.0808C15.5508 85.2558 19.0471 75.3721 25.7203 66.7322C29.1662 62.2778 33.1331 58.3108 37.5371 54.7977C37.7556 54.6297 37.9573 54.4111 38.159 54.2094C38.8818 53.4362 39.7727 53.2345 40.5123 53.9741C41.3191 54.7977 41.0334 55.7391 40.1761 56.4282C38.428 57.857 36.7975 59.437 35.083 60.8994C32.528 63.051 30.4605 65.5892 28.393 68.1442C23.283 74.4812 20.1061 81.7091 18.6437 89.6766C17.7024 94.8202 17.4166 99.9974 17.8705 105.259C18.3748 111.075 19.8203 116.554 22.6106 121.664C26.0397 127.934 30.9984 132.725 37.1169 136.389C39.9912 138.12 43.0841 139.347 46.4291 140.507C46.261 139.768 45.824 139.482 45.471 139.179C38.428 132.809 35.0494 124.555 33.234 115.495C32.0742 109.747 31.6203 103.931 31.8556 98.0979C32.3095 86.3316 34.3938 74.935 40.0417 64.4125C41.9243 60.9162 44.1263 57.6385 46.4795 54.4616C47.0847 53.6379 47.9587 53.2345 48.7992 53.8396C49.7237 54.5288 49.5052 55.4533 48.8328 56.3274C42.2268 64.8832 38.0414 74.5148 36.142 85.1213C34.8813 92.1475 34.6291 99.2746 35.0157 106.385C35.4192 113.747 36.9488 120.925 40.3274 127.581C43.2354 133.296 47.2696 137.986 53.1527 140.843C54.0436 141.28 54.9849 141.583 55.9094 141.953C56.1279 142.037 56.3633 142.171 56.565 141.986C56.8675 141.717 56.5986 141.449 56.4809 141.23C54.4807 137.431 53.4553 133.33 52.7157 129.144C52.0938 125.631 51.6735 122.101 51.3542 118.538C50.6818 110.923 50.396 103.309 50.5809 95.6774C50.7154 90.08 50.9339 84.4826 51.455 78.9188C52.1946 70.884 53.4049 62.8997 55.5564 55.0835C55.8758 53.9237 56.3969 53.4026 57.5063 53.6547C58.7165 53.9405 58.5989 54.9826 58.414 55.8567C57.9601 58.0587 57.3886 60.2439 56.9012 62.4459C55.8926 67.0348 55.3211 71.6741 54.7496 76.347C53.4553 87.1048 53.5225 97.8962 53.6906 108.688C53.7747 114.588 54.2958 120.488 55.2875 126.337C55.9599 130.287 56.7331 134.187 58.1786 137.935C58.8006 139.532 59.5066 141.062 60.7673 142.272C61.5237 142.995 62.1624 143.079 63.0533 142.272C64.9359 140.541 65.6587 138.238 66.3815 135.969C67.9952 130.892 68.7011 125.648 69.3063 120.37C70.4829 110.167 70.3148 99.9133 70.0291 89.7102C69.7097 78.3473 68.4154 67.0516 65.4066 56.0248C65.1544 55.0835 64.9863 53.9405 66.3983 53.6547C67.39 53.453 67.9783 53.9405 68.2473 54.9322C69.0877 58.1091 69.8442 61.3197 70.3989 64.547C71.0376 68.2954 71.5923 72.0439 72.0629 75.8091C72.3823 78.3304 72.5168 80.8518 72.6849 83.39C73.1555 90.9205 73.4917 98.4677 73.206 105.998C73.0211 111.209 72.8194 116.42 72.1806 121.597C71.5923 126.404 70.8695 131.161 69.5752 135.834C68.9869 137.935 68.1128 139.902 67.0538 142.054C69.3903 141.684 71.2729 140.659 73.0547 139.532C78.3832 136.17 81.829 131.262 84.3672 125.598C86.6196 120.572 87.9139 115.26 88.5022 109.831C89.0905 104.25 89.0065 98.6358 88.6199 93.0384C88.2165 87.2897 87.1911 81.6923 85.4934 76.1789C84.031 71.4219 81.9635 66.9507 79.3917 62.698C78.0302 60.4456 76.5678 58.2604 74.9037 56.2097C74.3154 55.4701 74.1137 54.6969 74.9877 53.9909C75.845 53.2849 76.5678 53.5371 77.1897 54.2935C79.1396 56.6636 80.7701 59.2521 82.3333 61.8912C86.8213 69.4384 89.5444 77.5909 90.8723 86.2643C91.8136 92.3828 92.2506 98.535 91.9145 104.704C91.4438 113.646 89.847 122.37 85.3757 130.304C83.3755 133.851 81.0054 137.112 77.8117 139.717C77.6604 139.835 77.5427 139.986 77.6772 140.339C79.0219 140.272 80.2322 139.616 81.4256 139.095C86.4683 136.893 91.1581 134.086 95.0073 130.086C100.806 124.085 104.286 116.958 105.597 108.688C106.236 104.637 106.32 100.586 106.051 96.5683C105.328 85.7433 101.882 75.9099 94.8561 67.4214C91.4942 63.3704 87.729 59.79 83.6948 56.445C82.972 55.8567 82.4846 55.1844 83.1906 54.2935C83.9302 53.369 84.6529 53.453 85.5943 54.1926C89.0737 56.8989 92.1834 60.0086 95.125 63.2695C101.311 70.1444 105.513 78.0783 107.581 87.172C108.925 93.072 109.228 99.0392 108.875 105.006C108.471 112.033 106.454 118.672 102.74 124.757C97.9994 132.506 91.2589 137.885 83.0729 141.566C81.6609 142.205 80.1649 142.659 78.7025 143.18C78.3832 143.298 78.047 143.348 78.0134 143.768C67.2387 145.853 56.4641 145.802 45.6895 143.768L45.7231 143.751Z" fill="#A48ADC"/>
<path d="M74.3322 35.9715C72.5168 36.0724 71.2561 36.9464 70.4661 38.5937C70.0795 39.4006 69.6256 40.157 69.0709 41.1655C67.9615 39.3165 66.3311 38.8627 64.4316 39.0812C64.7174 36.2068 64.9695 33.3157 65.2889 30.4413C65.4906 28.7268 65.7764 27.0291 66.0621 25.3314C66.2302 24.3564 66.516 23.4151 66.3983 22.4066C67.0707 21.1963 67.1715 19.818 67.5581 18.5237C68.8692 14.1197 70.5333 9.86702 73.1387 6.03455C73.6598 5.26134 74.2313 4.62259 75.2063 5.14367C76.1308 5.63114 75.9122 6.45478 75.6097 7.26162C72.7689 14.9602 72.8194 22.8941 73.6262 30.8952C73.7943 32.5761 74.08 34.257 74.2986 35.9547L74.3322 35.9715Z" fill="#8ECF9E"/>
<path d="M59.3385 39.1148C57.5063 38.9467 55.859 39.2829 54.6487 41.1487C53.2872 38.9467 52.6316 36.106 49.4211 35.9883C50.1943 31.0801 50.6818 26.155 50.5641 21.1795C50.4633 16.5738 49.8413 12.0522 48.2781 7.69863C48.2108 7.51373 48.1436 7.34564 48.0932 7.16074C47.8411 6.40433 47.9419 5.74877 48.7151 5.36216C49.522 4.95875 50.0598 5.36216 50.4969 6.00091C52.4467 8.92569 53.9091 12.0858 55.0858 15.3804C56.3128 18.8599 57.1533 22.4402 57.8425 26.0541C57.8929 26.3567 57.792 26.7433 58.1786 26.9282C58.5652 30.996 58.935 35.0638 59.3217 39.1148H59.3385Z" fill="#8ECF9E"/>
<path d="M61.8767 49.8225C70.9652 49.8225 78.3328 45.9543 78.3328 41.1826C78.3328 36.4109 70.9652 32.5427 61.8767 32.5427C52.7883 32.5427 45.4207 36.4109 45.4207 41.1826C45.4207 45.9543 52.7883 49.8225 61.8767 49.8225Z" fill="#BDA6ED"/>
<path d="M75.8278 101.829L76.0295 97.5094C78.097 98.1985 79.8452 98.7869 81.6101 99.3752C74.9537 109.225 64.0447 110.587 50.4797 103.14C51.0008 102.502 51.5219 101.947 51.9253 101.325C52.3624 100.636 52.6817 99.8795 52.6649 99.8963L60.8509 106.771C61.019 100.636 59.792 94.7527 66.2298 93.5088C71.1885 92.5507 73.4746 96.7193 75.8278 101.846V101.829Z" fill="black"/>
<path d="M94.9739 77.9104C97.8651 78.1793 100.386 79.7258 101.445 83.0708C101.664 83.76 101.227 84.6508 101.092 85.4577C100.403 85.0879 99.4956 84.903 99.0753 84.3483C95.4782 79.5577 92.2677 79.5241 88.8386 84.2474C88.4184 84.8357 87.5275 85.0879 86.8551 85.5081C86.6702 84.7181 86.1996 83.844 86.3677 83.138C87.1409 79.8603 90.6708 77.6415 94.9739 77.9104Z" fill="black"/>
<path d="M40.1592 85.4745C37.5874 83.8104 35.2678 81.1714 32.9481 81.1378C30.6285 81.121 28.3088 83.7432 25.7539 85.34C24.241 82.9363 26.0396 81.1714 27.8046 79.6249C30.6285 77.154 35.3014 77.1372 38.1253 79.6754C39.8399 81.205 41.7561 82.97 40.1592 85.4745Z" fill="black"/>
</svg>
