<svg width="290" height="139" viewBox="0 0 290 139" fill="none" xmlns="http://www.w3.org/2000/svg">
<path d="M225.616 131.481C225.616 131.481 263.733 131.481 280.504 91.6558C281.267 90.3171 281.648 88.6437 282.791 87.3051C286.603 81.6157 298.038 59.1928 275.549 29.0726C275.549 29.0726 260.684 -3.39036 216.849 0.291005C213.8 0.625675 210.75 1.29501 207.701 2.29902C198.553 5.64572 173.015 13.3431 147.858 10.3311C145.952 9.99642 144.427 9.66175 142.902 8.99241C137.947 7.31906 124.606 3.30303 106.691 1.29501C102.88 0.960344 99.0679 0.960344 95.6374 1.96435C84.9647 4.30704 61.7134 9.99642 44.942 22.0445C44.942 22.0445 9.1121 50.1568 25.8835 96.6758C27.027 99.3532 26.2647 102.365 24.3589 104.708L0.345222 135.163C-0.798284 136.836 1.10756 138.844 3.0134 137.84L28.1705 127.465L32.3634 125.792C39.9868 122.78 48.3725 123.115 55.6147 126.796C68.5744 133.824 81.9153 135.497 81.9153 135.497C94.4939 136.836 107.072 135.497 110.884 135.163C111.647 135.163 112.79 135.163 113.552 135.163C127.656 135.163 142.521 136.836 148.62 137.171C150.526 137.505 152.813 137.505 154.719 137.171C173.396 136.836 225.616 131.481 225.616 131.481Z" fill="#BDA6ED"/>
</svg>
