<svg width="142" height="146" viewBox="0 0 142 146" fill="none" xmlns="http://www.w3.org/2000/svg">
<g clip-path="url(#clip0_342_6296)">
<path d="M56.3745 13.305C59.9453 16.9744 63.0909 22.0185 69.1942 19.4018C73.6677 17.5376 73.3472 13.3442 72.6686 8.88193C87.6716 20.9943 92.6243 20.1958 94.8011 5.31351C99.1848 10.158 103.462 15.3462 110.64 13.5359C117.353 11.8004 119.469 5.90787 122.694 1.61523e-06C128.971 41.2757 135.247 82.5514 141.621 124.465C130.536 112.047 124.297 112.727 119.711 126.365C108.506 118.375 108.506 118.375 102.352 129C92.4189 119.989 91.3355 120.163 86.7925 131.998C82.8544 129.041 79.9214 123.31 73.639 125.792C69.3203 127.631 69.5924 131.506 69.7003 136.387C65.0461 132.892 62.0311 127.664 56.5171 127.9C49.7407 128.176 48.659 133.575 47.9501 140.384C43.3725 134.264 38.9066 129.923 31.7535 131.892C25.0647 133.787 23.2818 139.789 20.0574 145.697C13.8048 104.581 7.52803 63.305 1.10581 21.0731C5.40199 24.299 7.45479 30.4989 13.5394 29.8445C19.4692 29.2149 21.4702 24.6472 23.1469 18.9889C26.7364 20.696 28.5711 25.4616 32.9047 24.7629C37.3931 24.0392 38.2622 19.3275 40.4814 16.194C49.8195 25.4645 50.9029 25.2898 56.3745 13.305ZM121.091 11.3609C110.686 22.1819 96.3653 11.429 86.5397 20.8502C85.1617 22.2153 81.9059 20.6177 79.9611 19.2986C77.6582 17.7106 76.0862 17.8007 74.0797 20.2468C70.5888 24.4017 66.1918 23.6411 61.1758 22.9804C54.2055 21.9817 46.864 24.7981 39.8507 25.6023C31.135 26.681 20.8809 27.0281 12.9407 33.2064C12.5248 33.6 11.393 33.456 10.7254 33.2371C4.28663 30.5199 5.40529 34.7479 6.1417 38.5477C9.81988 60.6497 13.6286 82.5673 17.1278 104.535C18.7124 113.912 20.0117 123.499 21.49 133.221C25.6298 131.247 29.1114 128.073 32.1732 128.396C40.4059 129.354 47.477 127.888 55.3313 125.315C61.0672 123.411 68.444 124.997 75.3454 122.415C80.1527 120.66 86.7275 125.315 91.8576 119.426C92.9261 118.111 95.7176 119.783 97.8508 120.256C105.228 121.842 112.627 118.363 119.209 116.812C125.018 115.386 130.26 111.275 136.447 113.38C131.464 79.5694 126.375 46.1026 121.091 11.3609Z" fill="#F2897D"/>
<path d="M69.149 29.532C77.6615 28.1595 90.5319 26.2477 103.33 23.8578C110.27 22.5755 113.516 25.1543 115.023 31.9321C119.963 53.9938 125.189 75.8462 128.892 98.1075C129.982 105.279 127.633 108.597 121.026 109.988C102.574 113.78 83.9774 116.615 65.2351 118.494C55.3875 119.428 45.482 121.025 36.1527 124.326C29.8461 126.649 26.6482 124.389 26.0947 117.62C24.3222 95.5377 20.7168 73.9139 16.0036 52.3054C14.0516 43.6401 15.357 41.7969 24.2369 39.7121C37.7115 36.5599 51.2103 33.5672 69.149 29.532ZM66.3014 33.7464C52.2078 36.9983 37.9593 40.2753 23.7109 43.5522C19.7353 44.5197 17.9413 46.2784 19.1085 50.8252C24.4164 72.1745 27.2723 94.0825 29.6396 115.906C30.2603 121.031 31.8956 122.4 36.5482 120.67C47.6621 116.592 59.3912 115.517 71.1203 114.443C87.2073 112.829 103.149 110.258 118.969 106.891C124.207 105.883 126.596 103.866 125.496 97.6753C121.581 76.1014 116.892 54.6522 111.739 33.2779C110.499 28.2531 108.375 26.7995 103.577 27.5731C91.2441 29.8882 78.838 31.7251 66.3014 33.7464Z" fill="#F2897D"/>
<path d="M75.2005 107.907C56.0087 111.001 38.6021 99.7663 35.2444 81.8578C31.8383 63.6306 43.611 47.2011 63.2522 42.8915C67.8469 41.8241 72.4659 40.9161 77.1482 41.4674C93.8988 43.1751 105.148 54.5864 105.463 70.2099C105.991 90.3706 94.3681 104.653 75.2005 107.907ZM65.4637 45.9637C64.0949 46.3476 60.4289 47.2652 57.145 48.6111C45.4848 53.2667 37.9863 64.4353 38.3867 76.453C38.7051 88.9737 47.1779 99.8531 59.4551 103.425C67.2625 105.758 74.8128 105.357 82.4154 102.172C97.4658 95.827 105.77 78.4873 101.286 62.5564C97.9207 50.8535 82.4644 43.0594 65.4637 45.9637Z" fill="#F2897D"/>
<path d="M72.3535 98.5697C59.5074 100.641 47.9688 92.5415 46.127 80.4297C44.164 67.5211 53.5775 55.3906 67.0185 53.0603C80.1742 50.9392 92.4045 59.4167 94.3433 72.166C96.3884 84.5716 86.462 96.4582 72.3535 98.5697ZM71.9993 95.198C83.9168 93.2766 92.5136 83.0738 90.9383 72.715C89.2903 61.8781 78.6953 54.7696 67.5517 56.5663C56.1227 58.5723 48.063 69.1783 49.711 80.0152C51.262 90.2146 61.1652 96.9448 71.9993 95.198Z" fill="#F2897D"/>
<ellipse cx="70.6007" cy="75.8145" rx="22.7155" ry="20.97" fill="#FFDD93"/>
</g>
<defs>
<clipPath id="clip0_342_6296">
<rect width="123.379" height="127.669" fill="white" transform="matrix(0.987251 -0.159175 0.150342 0.988634 0.887695 19.6388)"/>
</clipPath>
</defs>
</svg>
