<svg width="140" height="140" viewBox="0 0 140 140" fill="none" xmlns="http://www.w3.org/2000/svg">
<circle cx="70.2182" cy="69.7565" r="69.7565" fill="#FFDD93"/>
<mask id="mask0_342_5743" style="mask-type:alpha" maskUnits="userSpaceOnUse" x="0" y="0" width="140" height="140">
<circle cx="70.2182" cy="69.7565" r="69.7565" fill="#EEF0F2"/>
</mask>
<g mask="url(#mask0_342_5743)">
<path d="M60.8672 70.0282C61.5904 68.2846 62.2623 66.5374 63.0688 64.8341C63.5329 63.8487 63.5758 63.2306 62.4803 62.6537C61.468 62.1171 60.6141 61.2811 59.9215 60.3528C57.954 57.7137 58.4827 54.5591 61.2566 52.7691C61.9407 52.3339 61.4277 52.0392 61.2768 51.7354C60.4435 50.1072 59.6285 48.463 59.361 46.6156C59.0736 44.5598 59.6106 43.269 61.0706 42.5603C62.477 41.8823 63.8401 42.3227 65.2432 43.9217C65.5311 44.2351 65.7824 44.5805 66.258 45.1658C65.9393 42.0727 65.3571 39.3062 63.85 36.9753C61.2869 33.0006 64.0036 26.5832 66.985 24.5317C68.0146 23.8274 68.6919 23.7368 70.3899 24.0625C69.6864 19.8211 73.6857 15.9949 78.0712 16.7674C78.6326 16.8584 78.7509 16.6424 78.881 16.2547C79.8903 13.1165 82.1375 11.4795 85.2744 10.9053C85.4663 10.8669 85.6411 10.8274 85.7251 10.609L89.1839 10.8509C91.3519 12.0894 92.8458 13.8673 93.6278 16.2337C94.4111 18.583 94.1192 20.8053 92.7385 22.848C92.3739 23.3918 92.3046 23.6457 92.9645 24.0542C94.1863 24.7952 94.4382 26.1239 94.6753 27.4172C94.7765 27.9418 94.8435 28.464 94.9288 28.9703C92.926 29.8136 91.6261 31.1891 91.6133 33.6034C89.0937 31.9781 86.8296 32.3718 84.6716 33.9633C83.8558 34.5618 83.0707 35.2142 82.3823 35.9597C80.5187 38.0203 79.0286 40.4003 79.4862 43.2271C79.9637 46.2624 79.2633 49.1634 79.0241 52.114C78.9991 52.4745 78.8837 52.8978 78.5074 53.113C78.2982 52.4083 78.1588 51.6912 77.8946 51.0344C77.0298 48.8692 74.9921 47.9849 72.9626 48.9643C71.5197 49.6742 71.06 51.0912 70.8902 52.5457C70.6214 54.6834 70.5739 56.8538 70.9924 59.0051C69.2068 58.9492 68.3639 59.4423 67.1656 60.8422C65.9489 62.258 65.5948 63.8894 65.609 65.6673L62.0575 70.974C61.5924 70.7345 61.1834 70.4298 60.8855 70.0122L60.8672 70.0282Z" fill="#86CC97"/>
<path d="M65.6228 65.6619C65.6087 63.8856 65.9806 62.2569 67.1819 60.8412C68.4002 59.4268 69.2259 58.9501 71.0137 59.006C70.5949 56.8567 70.6415 54.7054 70.9121 52.5526C71.1006 51.0834 71.5438 49.6665 72.9875 48.9745C75.0025 47.9948 77.0599 48.8797 77.9256 51.043C78.19 51.6992 78.3296 52.4156 78.5389 53.1197C78.9157 52.9047 79.0142 52.4807 79.0564 52.1216C79.2962 49.1737 79.9966 46.2925 79.52 43.2429C79.0804 40.4026 80.5555 38.0236 82.4205 35.9821C83.0927 35.2362 83.896 34.5856 84.7129 33.9877C86.8738 32.3977 89.1409 32.0045 91.6636 33.6285C91.6766 31.2163 92.9623 29.8238 94.9837 28.9998C96.3859 28.4082 97.8352 28.1303 99.3535 28.0984C100.716 28.0729 101.933 28.4164 102.886 29.5689C105.275 26.4436 108.305 25.2246 112.174 26.0808C115.279 26.763 117.514 28.3153 118.237 31.5372C119.039 35.1094 118.62 38.4068 115.571 40.8655C114.659 41.5947 114.166 41.9911 114.94 43.2517C115.839 44.6934 115.205 46.3727 114.72 47.8902C114.412 48.8511 113.903 49.7291 113.493 50.6657C112.427 52.1252 110.967 52.7989 109.056 52.7861C110.331 54.5126 110.065 56.097 109.174 57.7584C108.106 59.735 106.504 61.226 104.698 62.4099C102.676 63.7338 100.451 64.5263 97.8769 63.8812C95.6939 63.3151 93.4089 63.2244 91.1734 63.413C90.2552 63.4868 89.2472 63.3647 88.3151 63.8856C89.1472 64.3057 89.9375 64.585 90.5762 65.0605C91.6735 65.8783 92.7293 66.7966 92.4639 68.381C92.1777 70.0157 91.2576 71.1063 89.5671 71.3847C87.9647 71.6347 86.387 72.0244 84.7391 71.4439C83.8484 71.1232 82.8317 70.8798 81.9258 71.0234C81.0898 71.1546 81.7812 72.3577 81.2274 72.8878C81.1174 72.9836 81.0392 73.116 80.9464 73.2129C79.1902 75.1759 76.8857 76.6007 73.0612 74.8685C71.8794 74.0276 70.6609 72.4774 69.5198 72.5356C68.3273 72.5902 67.1998 74.1834 66.0333 75.1016C65.5659 74.6381 65.0998 74.1574 64.6325 73.6938L64.5057 73.2885C65.4223 72.2494 66.3388 71.2103 67.2885 70.1908C67.6796 69.7699 67.7697 69.466 67.355 68.9889C66.5244 68.0518 66.0547 66.8814 65.6902 65.6839L65.6228 65.6619Z" fill="#8ECF9E"/>
<path d="M73.0543 74.8545C76.8826 76.5839 79.2063 75.1621 80.9468 73.2006C81.041 73.0866 81.118 72.9715 81.2282 72.8759C81.7824 72.3465 81.1074 71.1463 81.9271 71.014C82.8338 70.8706 83.8515 71.1135 84.7431 71.4337C86.3926 72.0132 87.9718 71.6239 89.5757 71.3741C91.2666 71.1131 92.2059 70.008 92.475 68.3744C92.7578 66.7934 91.685 65.8582 90.5854 65.0588C89.946 64.584 89.1378 64.304 88.322 63.8858C89.271 63.3839 90.2799 63.5057 91.183 63.4136C93.439 63.2091 95.7078 63.3154 97.8929 63.8805C100.468 64.5415 102.696 63.7499 104.721 62.4106C106.528 61.2282 108.132 59.7391 109.201 57.7653C110.092 56.1062 110.358 54.524 109.082 52.8001C110.995 52.8127 112.457 52.1227 113.523 50.6822C114.942 51.108 116.789 51.0816 117.579 52.3586C118.65 54.0682 119.669 53.5539 121.094 53.1367C124.79 52.0686 129.748 54.9092 130.672 58.4675C131.692 62.3938 128.873 67.2063 124.858 68.149C123.823 68.404 123.583 68.6283 123.64 69.7854C123.818 73.4123 118.728 76.9136 115.219 75.5507C115.741 78.4613 113.852 79.8273 111.681 80.795C108.103 82.3877 104.597 82.7118 101.195 80.0655C99.1518 78.4603 96.6817 77.5311 93.8965 77.1652C94.3655 77.6109 94.9055 78.0272 95.301 78.5366C96.1696 79.6814 96.5481 80.9297 95.6607 82.2793C94.8503 83.5138 93.6132 83.9441 91.9825 83.5897C89.9435 83.1552 88.244 82.0559 86.6228 80.8244C86.0656 80.407 85.8497 80.2887 85.3657 81.0467C84.1667 82.9082 80.4117 83.0945 78.4368 81.4941C77.2131 80.4967 76.3541 79.2149 75.7657 77.7626C75.4579 76.9839 75.0324 76.9027 74.3281 77.1118C72.3754 77.6644 70.4263 78.1657 68.4589 78.6828C68.0526 78.3275 67.8275 77.8471 67.6366 77.3692L73.0028 74.8509L73.0543 74.8545Z" fill="#41AB7D"/>
<path d="M67.6883 77.5034C67.8775 77.9997 68.1034 78.464 68.5088 78.8201C70.0959 81.9845 71.332 85.2452 71.3214 88.8672C71.2984 94.4031 68.8845 98.6851 64.5144 101.899C62.5016 103.38 60.3183 104.59 58.0884 105.728C55.5094 105.202 53.2608 104.131 51.8244 101.77C54.1224 100.396 56.4216 99.0038 58.7196 97.6292C61.7176 95.8377 64.0699 93.4318 65.4326 90.1632C67.5564 85.1019 67.024 80.1309 64.7649 75.2461C64.555 74.8001 63.8106 74.3685 64.607 73.8032C65.0738 74.2671 65.5394 74.7482 66.0233 75.2133C66.5726 75.9763 67.139 76.7404 67.6883 77.5034Z" fill="#F57364"/>
<path d="M18.6857 129.314C13.3072 132.521 2.88171 138.631 -2.4968 141.838C-3.10881 142.209 -3.76872 142.524 -4.3955 142.859C-7.10428 142.395 -9.18951 141.148 -10.0472 138.367C-7.13749 136.693 -4.21064 135.02 -1.29976 133.329C2.36518 131.208 8.59549 127.406 12.2604 125.285C13.6407 126.999 16.9959 127.836 18.7041 129.298L18.6857 129.314Z" fill="#F57364"/>
<path d="M32.1161 121.312C28.553 123.458 20.5379 128.134 16.9748 130.28C16.5379 129.87 15.9362 129.846 15.4542 129.588C13.79 128.732 11.9571 128.07 11.1793 126.122C11.4346 125.675 11.8447 125.479 12.2756 125.234C13.7298 124.405 15.1054 123.468 16.5904 122.693C19.0779 121.385 23.711 117.988 26.3361 116.931C27.4127 118.797 30.8033 119.619 32.1333 121.313L32.1161 121.312Z" fill="#F57364"/>
<path d="M45.1515 113.54C41.8954 115.483 35.3697 119.316 32.1136 121.258C31.9153 121.382 31.6987 121.522 31.4473 121.418C28.5833 121.202 26.4609 119.745 24.8639 117.43C25.4165 117.417 25.8509 117.12 26.3162 116.877C30.2226 114.755 35.9383 110.918 39.905 108.921C40.1987 109.407 41.3332 110.691 41.573 111.207C42.3121 112.722 43.6072 112.692 45.1331 113.556L45.1515 113.54Z" fill="#F57364"/>
<path d="M58.101 105.779C54.7558 107.768 47.9567 111.823 44.5944 113.811C44.4392 113.318 43.9564 113.319 43.5922 113.104C41.8666 112.14 39.8254 111.498 39.0792 109.345C41.0584 108.157 50.1773 102.231 52.2179 101.15" fill="#F57364"/>
<path d="M9.65319 126.952C6.00429 129.092 2.35659 131.214 -1.30827 133.335C-4.21909 135.027 -7.14468 136.683 -10.0555 138.374" fill="#F86464"/>
<path d="M23.903 118.576C21.2778 119.633 19.0521 121.39 16.5658 122.68C15.0809 123.455 13.7054 124.392 12.2512 125.221C11.8375 125.468 11.409 125.679 11.1549 126.109" fill="#F86464"/>
<path d="M37.8611 110.196C33.8773 112.191 30.2166 114.743 26.3102 116.864C25.8438 117.124 25.4093 117.421 24.8579 117.417" fill="#F86464"/>
<path d="M50.2973 102.881C48.3404 103.503 46.7976 104.859 45.025 105.803C42.9843 106.884 41.0506 108.161 39.0873 109.367" fill="#F86464"/>
<path d="M64.7493 75.3798C64.5392 74.9342 63.7939 74.503 64.5913 73.9382L64.4645 73.5329C63.6734 72.771 62.8652 72.0079 62.0752 71.2288C61.6095 70.9895 61.2 70.6851 60.9018 70.2679C59.877 69.6448 58.873 68.9714 57.8287 68.3814C50.8632 64.4996 43.3083 65.3681 37.9797 70.632L34.7143 74.4716C32.0858 77.5801 29.5234 80.7276 27.14 84.0255L24.8232 86.8627C22.5554 89.7379 20.2717 92.5946 18.004 95.4697C15.5353 98.2619 10.3232 105.068 8.05064 108.012C6.39368 110.033 1.84341 115.748 0.218341 117.806L-9.65805 130.233C-13.4177 134.986 -17.1774 139.739 -20.9199 144.493C-20.5267 144.538 -20.195 144.475 -19.8354 144.258C-16.7785 142.421 -13.6897 140.62 -10.6181 138.818L51.8419 101.883C54.1428 100.51 56.445 99.1193 58.7459 97.746C61.7478 95.9563 64.1033 93.5527 65.4679 90.287C67.5948 85.2304 67.0622 80.2638 64.8008 75.3834L64.7493 75.3798ZM17.6886 102.221C17.0801 101.558 17.9268 99.0493 18.1895 97.2579C18.2286 97.9329 18.2677 98.6078 18.4978 99.2616C19.3592 101.735 20.9395 103.534 23.2095 104.83C20.9722 104.795 19.1779 103.842 17.6886 102.221Z" fill="#F2897D"/>
<path d="M22.8799 105.157C26.6698 105.421 29.8894 103.525 30.071 100.922C30.2526 98.319 27.3274 95.9949 23.5374 95.7308C19.7474 95.4667 16.5279 97.3626 16.3463 99.9655C16.1647 102.568 19.0899 104.892 22.8799 105.157Z" fill="#F2897D"/>
<path d="M32.329 86.7616C33.6232 86.7484 38.1654 86.8923 42.0675 90.2795C44.3433 92.2624 45.4442 94.5251 45.9563 95.8345" stroke="#E45C5C" stroke-miterlimit="10"/>
<path d="M21.9985 96.89C23.2926 96.8768 27.8349 97.0207 31.737 100.408C34.0127 102.391 35.1136 104.654 35.6258 105.963" stroke="#E45C5C" stroke-miterlimit="10"/>
<path d="M14.4116 105.201C15.4985 105.191 19.267 105.298 22.4879 108.312C24.3648 110.078 25.2764 112.087 25.6939 113.269" stroke="#E45C5C" stroke-width="0.86" stroke-miterlimit="10"/>
<path d="M8.46645 112.708C9.26038 112.695 11.9977 112.748 14.3262 115.2C15.6912 116.639 16.3348 118.285 16.6293 119.253" stroke="#E45C5C" stroke-width="0.67" stroke-miterlimit="10"/>
<path d="M44.6965 89.3866C43.675 87.9375 42.6955 86.6292 41.8421 85.2434C41.7029 85.0098 42.0864 84.4502 42.2189 84.0284C42.5446 84.3093 43.0307 84.5151 43.1971 84.854C44.4427 87.5594 46.5191 88.7191 49.472 88.4223C49.8189 88.3944 50.2245 88.767 50.6088 88.9486C50.2773 89.2533 49.9453 89.8164 49.618 89.8112C48.0521 89.7552 46.4968 89.5449 44.6977 89.3695L44.6965 89.3866Z" fill="black"/>
<path d="M59.137 86.1936C60.209 86.9053 61.0012 87.9254 60.7955 89.4113C60.7559 89.7361 60.3411 90.0007 60.1127 90.3126C59.8912 90.0215 59.513 89.754 59.4655 89.4404C59.1005 87.2256 58.2202 86.7339 55.9778 87.4934C55.6949 87.5947 55.3255 87.4485 55.0017 87.3918C55.1123 87.0373 55.1099 86.5716 55.3336 86.3284C56.149 85.5051 57.8418 85.4665 59.137 86.1936Z" fill="black"/>
<path d="M40.9663 77.384C40.1444 78.811 38.7863 79.511 37.8048 78.9948C36.7889 78.4763 36.6265 76.8261 37.4301 75.415C38.2544 73.9536 39.6959 73.2938 40.7071 73.8811C41.685 74.4488 41.7895 75.9397 40.9675 77.3668L40.9663 77.384Z" fill="black"/>
</g>
</svg>
