<svg width="114" height="155" viewBox="0 0 114 155" fill="none" xmlns="http://www.w3.org/2000/svg">
<path d="M37.9522 124.428C37.3812 124.765 36.9702 125.227 36.5945 125.779C30.0119 135.632 22.2737 144.503 13.5932 152.551C13.0217 153.084 12.3434 153.527 11.7364 154.007L9.63385 154.001C9.06552 153.287 7.99713 153.016 7.78603 151.965C8.69844 150.542 10.1617 149.69 11.3407 148.553C14.5025 145.479 17.4864 142.262 20.3993 138.974C24.2772 134.601 27.8705 130.013 31.2149 125.229C36.1867 118.133 40.3935 110.589 44.0131 102.723C46.1096 98.1853 47.9035 93.5216 49.4482 88.7682C51.9449 81.0415 53.8541 73.1529 55.0687 65.102C55.9751 59.135 56.4182 53.149 56.7901 47.1449C56.976 44.1518 56.8413 41.14 56.8491 38.1285L61.0349 38.7104C61.4744 54.7489 59.7587 70.532 55.2642 85.9688C55.1023 86.5386 54.6733 87.072 54.9389 87.732C54.2748 89.5834 53.6107 91.4526 52.9466 93.3039C49.3747 103.38 44.8062 112.989 39.0454 122.026C38.5802 122.755 37.8835 123.43 37.9879 124.428L37.9522 124.428Z" fill="#EB796C"/>
<path d="M37.9709 124.443C37.8664 123.445 38.5808 122.752 39.0281 122.041C44.7701 113.005 49.3374 103.396 52.9257 93.321C53.5895 91.4698 54.2534 89.6007 54.9172 87.7495C57.0252 85.5816 58.5283 82.9843 60.1382 80.4587C66.381 70.7118 71.1107 60.2658 74.0068 49.0484C77.1237 49.7165 80.2592 50.0282 83.3797 49.2351C84.7883 48.8827 84.9836 49.1862 84.6953 50.5039C83.8486 54.2969 84.1602 58.0752 85.0244 61.8195C85.4123 63.5133 86.5694 63.9976 88.033 63.0396C89.211 62.2767 90.3179 61.4245 91.4248 60.5546C93.7101 58.7435 95.4799 56.4499 97.2146 53.889C98.8461 57.1543 101.353 59.353 104.057 61.3563C94.9462 78.2046 83.1674 92.8715 68.4541 105.143C59.6153 112.53 49.9776 118.704 39.6298 123.735C39.0946 124.001 38.5238 124.213 37.9887 124.443L37.9709 124.443Z" fill="#EB796C"/>
<path d="M56.8136 38.1272C56.8058 41.1387 56.9404 44.1505 56.7544 47.1436C56.3824 53.1477 55.9391 59.1516 55.0327 65.1007C53.8179 73.1517 51.9086 81.0404 49.4117 88.767C47.867 93.5205 46.073 98.1842 43.9764 102.722C40.3567 110.588 36.1497 118.132 31.1778 125.228C27.8333 130.012 24.2577 134.6 20.362 138.973C17.4313 142.261 14.4472 145.478 11.3032 148.552C10.1243 149.689 8.66099 150.541 7.74855 151.964C7.00382 150.572 7.55929 149.379 8.34631 148.223C11.4048 143.777 14.232 139.187 16.7924 134.437C17.1684 133.743 17.4733 132.995 17.7958 132.283C20.4446 127.818 22.3636 123.03 24.2648 118.224C24.4084 117.85 24.4091 117.547 24.0356 117.314C24.7319 116.764 25.0724 116.034 25.3596 115.215C29.6676 103.075 32.2125 90.5903 32.7094 77.6905C33.1674 66.0558 31.9143 54.6301 28.8076 43.4131C32.2675 42.1932 35.5146 40.5985 38.1058 37.6655C38.3183 38.2006 38.4422 38.5039 38.5661 38.825C39.8395 42.4637 41.8446 45.6767 44.4564 48.4994C45.9667 50.143 47.1431 49.9859 48.1283 47.9928C49.8301 44.505 50.98 40.8552 51.0793 36.9174C51.0813 36.1868 51.1182 35.688 52.0432 36.2608C53.5019 37.1736 55.14 37.6236 56.7601 38.1449L56.8136 38.1272Z" fill="#F2897D"/>
<path d="M104.084 61.3461C101.38 59.325 98.8546 57.1441 97.2407 53.8788C95.506 56.4397 93.7542 58.7333 91.451 60.5442C90.3619 61.4142 89.2372 62.2663 88.0592 63.0291C86.5956 63.9871 85.4385 63.5028 85.0505 61.809C84.1862 58.0647 83.8745 54.2864 84.7211 50.4935C85.0094 49.1758 84.8141 48.8724 83.4054 49.2247C80.285 50.0177 77.1493 49.7059 74.0324 49.0378C71.4148 48.1752 71.2023 47.6222 72.4735 45.1313C74.2281 41.7152 76.3917 38.6209 79.427 36.1885C84.1228 32.4065 89.453 31.6376 95.1339 33.2217C96.4695 33.5996 96.9511 33.4228 97.5066 32.1237C99.5496 27.3186 102.695 23.4788 107.548 21.2474C108.458 20.8224 109.367 20.3973 110.418 20.5963C112.075 20.9039 113.301 22.2615 113.404 23.9011C113.507 25.6119 112.506 27.0523 110.669 27.5282C106.55 28.6213 103.408 31 100.976 34.4142C100.529 35.0366 100.528 35.3573 101.24 35.7691C109.604 40.7106 111.617 48.5741 109.349 57.8687C109.115 58.7946 108.828 59.7025 108.541 60.5926C107.93 62.5152 107.02 62.869 105.276 61.9197C104.885 61.7048 104.475 61.5076 104.084 61.3105L104.084 61.3461Z" fill="#8ECF9E"/>
<path d="M56.8385 38.1322C55.2182 37.6287 53.5621 37.1608 52.121 36.2481C51.1958 35.6753 51.1767 36.192 51.1571 36.9047C51.0584 40.8245 49.909 44.4741 48.2075 47.9796C47.2404 49.9726 46.0639 50.1297 44.5355 48.4861C41.9229 45.6635 39.8993 42.4683 38.6431 38.812C38.537 38.491 38.3952 38.1876 38.1827 37.6525C35.5738 40.5853 32.3268 42.1621 28.8846 43.3998C26.0503 43.8195 25.6591 43.4621 25.5417 40.486C25.4244 37.4744 25.5564 34.4812 26.3298 31.5611C28.128 24.9555 32.3792 20.7978 38.959 19.0343C40.2963 18.6816 40.7072 18.2551 40.5149 16.74C39.8686 11.4283 40.6651 6.37002 43.9725 1.96024C44.1513 1.7291 44.3834 1.53374 44.5977 1.33834C46.059 1.30677 46.8762 2.30689 47.1763 3.46593C47.5118 4.73199 47.5617 6.15761 46.383 7.22344C44.4364 8.98205 43.2548 11.2239 42.3401 13.6268C41.0487 17.0444 42.2735 19.0079 45.9433 19.3923C46.1928 19.4108 46.4242 19.4827 46.6736 19.5369C50.7163 20.4747 54.0972 22.4442 56.5479 25.8544C59.2827 29.6573 61.001 33.8495 61.3636 38.5546L61.0247 38.6784C59.6353 38.4785 58.2458 38.2965 56.8386 38.0965L56.8385 38.1322Z" fill="#8ECF9E"/>
<path d="M24.0732 117.307C24.4469 117.54 24.4462 117.843 24.3028 118.217C22.3846 123.022 20.4844 127.809 17.8364 132.274C13.6634 133.455 9.47272 134.601 5.2291 135.516C3.83834 135.815 2.51969 135.757 1.54232 134.561C0.689318 133.525 0.406889 132.366 0.94457 131.067C1.24924 130.337 1.74953 129.786 2.4453 129.467C9.97407 125.979 17.1657 121.866 24.091 117.325L24.0732 117.307Z" fill="#EB796C"/>
<path d="M61.3678 38.5952C61.0232 33.8901 59.2875 29.6978 56.553 25.8948C54.1026 22.4846 50.722 20.5152 46.6794 19.5774C46.4301 19.5232 46.1987 19.4513 45.9492 19.4328C42.2795 19.0484 41.055 17.085 42.3465 13.6673C43.2613 11.2643 44.443 9.02236 46.3897 7.26368C47.5862 6.19785 47.5185 4.77215 47.1832 3.50608C46.8831 2.36483 46.066 1.36471 44.6048 1.37848C46.1053 -0.114156 48.0478 -0.21569 49.5234 1.12482C50.9812 2.46528 51.1003 4.7108 49.6176 6.20348C46.6522 9.17103 45.1464 12.7485 44.6906 16.8634C44.5814 17.7718 44.6337 18.2175 45.7563 18.2206C54.3984 18.2445 59.8216 22.8034 62.8669 30.5809C63.4689 32.115 63.9104 33.7021 64.3162 35.3069C65.0041 38.0707 64.3074 38.7994 61.3855 38.6131L61.3678 38.5952Z" fill="#8DBF99"/>
<path d="M44.644 62.8676C44.0203 62.8837 43.3963 62.9889 42.7907 62.8981C42.4523 62.8615 42.0432 62.5752 41.8657 62.2896C41.777 62.1468 42.1172 61.4885 42.2954 61.4712C43.3647 61.4029 44.6662 61.1036 45.449 61.6047C46.036 61.9806 46.0681 63.4062 46.137 64.3686C46.206 65.2598 46.1324 66.1862 45.863 67.0407C45.5216 68.1802 45.2327 69.6584 44.3938 70.2441C43.6798 70.741 42.2019 70.3093 41.1156 70.0567C40.8129 69.9846 40.7261 69.0578 40.5493 68.5227C41.0481 68.5776 41.5289 68.668 42.0279 68.6516C42.705 68.6535 43.3646 68.5484 44.0418 68.479C43.9011 67.7658 43.9929 66.6791 43.5837 66.4285C41.1107 64.907 42.0564 64.3929 44.1421 64.0245C44.3739 63.9895 44.5528 63.6692 44.7493 63.4738L44.6618 62.8499L44.644 62.8676Z" fill="black"/>
<path d="M55.206 53.3869C56.8091 53.7481 58.1974 54.554 58.6386 56.4084C58.7268 56.8185 58.387 57.3163 58.2433 57.7792C57.8518 57.5464 57.2818 57.4021 57.0866 57.0452C55.6487 54.6177 54.3837 54.4357 52.098 56.3531C51.8123 56.6017 51.2955 56.5824 50.9032 56.6881C50.8686 56.2247 50.6382 55.6717 50.7995 55.298C51.3729 53.9634 53.3353 53.1319 55.2059 53.4047L55.206 53.3869Z" fill="black"/>
<path d="M37.0767 54.0395C36.7687 56.0878 35.4821 57.5275 34.0926 57.3811C32.6675 57.2345 31.7098 55.3787 32.0178 53.3482C32.3259 51.2642 33.7016 49.8069 35.1621 50.0427C36.5693 50.2604 37.3847 51.9733 37.0767 54.0216L37.0767 54.0395Z" fill="black"/>
</svg>
