<svg width="290" height="146" viewBox="0 0 290 146" fill="none" xmlns="http://www.w3.org/2000/svg">
<path d="M225.616 138.239C225.616 138.239 263.733 138.239 280.504 96.5593C281.267 95.1583 281.648 93.4071 282.791 92.0061C286.603 86.0518 298.038 62.5851 275.549 31.0627C275.549 31.0627 260.684 -2.91147 216.849 0.941271C213.8 1.29152 210.75 1.99202 207.701 3.04277C198.553 6.54526 173.015 14.601 147.858 11.4487C145.952 11.0985 144.427 10.7483 142.902 10.0478C137.947 8.29651 124.606 4.09351 106.691 1.99202C102.88 1.64177 99.0679 1.64177 95.6374 2.69252C84.9647 5.14426 61.7134 11.0985 44.942 23.7075C44.942 23.7075 9.1121 53.1284 25.8835 101.813C27.027 104.615 26.2647 107.767 24.3589 110.219L0.345222 142.092C-0.798284 143.843 1.10756 145.944 3.0134 144.894L28.1705 134.036L32.3634 132.285C39.9868 129.133 48.3725 129.483 55.6147 133.335C68.5744 140.691 81.9153 142.442 81.9153 142.442C94.4939 143.843 107.072 142.442 110.884 142.092C111.647 142.092 112.79 142.092 113.552 142.092C127.656 142.092 142.521 143.843 148.62 144.193C150.526 144.543 152.813 144.543 154.719 144.193C173.396 143.843 225.616 138.239 225.616 138.239Z" fill="#F2897D"/>
</svg>
