<svg width="158" height="121" viewBox="0 0 158 121" fill="none" xmlns="http://www.w3.org/2000/svg">
<path d="M153.387 89.2145C152.479 89.1491 151.564 89.0683 150.654 89.0253C150.274 89.0054 150.009 89.2188 149.934 89.6035C149.882 89.8998 150.013 90.1343 150.259 90.2871C150.858 90.6452 151.446 91.0252 152.072 91.3253C152.51 91.5369 152.941 91.718 153.331 92.0386C153.847 92.4658 154.013 92.9729 153.635 93.4558C153.301 93.8743 152.661 94.0983 152.151 93.8065C150.832 93.0589 149.319 92.6274 148.15 91.6355C147.995 91.5044 147.877 91.3008 147.697 91.2128C146.65 90.6873 145.521 89.6833 144.491 90.0068C143.446 90.3291 144.042 91.8048 143.833 92.7575C143.73 93.2151 143.734 93.703 143.654 94.1624C143.575 94.6068 143.29 94.8788 142.811 94.9343C142.331 94.9823 141.976 94.8217 141.83 94.3611C141.524 93.4089 141.213 92.5238 141.441 91.4225C142.37 86.9659 141.732 87.4901 138.125 87.4179C133.849 87.335 129.559 87.1161 125.319 86.4132C122.482 85.9464 119.62 85.6127 116.823 84.9088C114.41 84.2999 112.244 83.1762 110.116 81.9653C109.112 81.3904 108.558 80.6303 108.744 79.4659C108.786 79.1989 108.782 78.9286 108.778 78.6583C108.755 76.2711 109.606 75.5072 112.048 75.7131C112.685 75.7589 113.269 75.981 113.871 76.1894C117.517 77.4421 121.154 78.7167 124.829 79.8891C128.841 81.1607 133.014 81.8063 137.156 82.5696C138.327 82.7814 139.535 82.9059 140.664 83.2498C142.29 83.7495 143.882 83.5265 145.453 83.2571C147.72 82.8727 150.014 82.5428 152.198 81.7774C152.878 81.5413 153.592 81.5927 154.283 81.755C154.819 81.8836 155.403 82.0157 155.445 82.7313C155.491 83.4924 154.894 83.5618 154.367 83.7264C153.106 84.1232 151.716 84.0381 150.522 84.6874C150.343 84.787 150.116 84.8006 149.924 84.8693C149.556 84.9929 149.343 85.2401 149.386 85.6183C149.429 86.0039 149.73 86.2656 150.082 86.246C152.183 86.1047 153.889 87.6529 155.995 87.5495C156.699 87.5177 157.25 87.8874 156.916 88.726C156.716 89.2367 156.268 89.392 155.717 89.3449C154.949 89.2895 154.173 89.2336 153.405 89.1783L153.401 89.2306L153.387 89.2145Z" fill="#383838"/>
<path d="M19.5614 98.8093C18.3231 98.7201 17.0689 98.7458 15.8557 98.5192C13.9346 98.1565 12.1158 97.5382 11.1598 95.5431C10.7411 94.6774 10.5649 93.837 11.1908 92.9924C11.7737 92.2143 12.554 92.3015 13.4228 92.3253C19.7722 92.4886 26.087 92.1774 32.0459 89.5972C34.2453 88.6416 36.5033 87.7211 38.2366 85.9197C38.9797 85.1454 39.8799 84.8389 40.8604 85.3272C41.7378 85.7618 42.435 85.518 43.1587 85.0131C43.8415 84.544 44.532 84.0754 45.3421 83.8552C47.1571 83.3593 48.6791 84.5983 48.5819 86.4789C48.5215 87.635 48.1569 88.6686 47.2977 89.4654C46.1358 90.5422 44.935 91.5233 43.4296 92.173C40.8447 93.2866 38.5714 95.0569 35.8517 95.9209C32.772 96.9059 29.7615 98.0971 26.5581 98.6787C24.2136 99.1056 21.8991 99.0085 19.569 98.8098L19.5614 98.8093Z" fill="#383838"/>
<path d="M72.1232 99.5106C72.0904 100.399 71.6412 101.11 71.1389 101.801C69.1016 104.625 66.5684 106.968 63.8262 109.069C60.3156 111.763 56.5086 114.022 52.443 115.754C48.7962 117.305 44.8767 117.875 40.9385 118.162C40.3107 118.211 39.6879 118.189 39.0568 118.285C37.5338 118.519 36.147 117.403 35.863 115.928C35.7492 115.342 36.0656 114.958 36.3492 114.595C37.0281 113.729 37.9866 113.314 39.0604 113.141C40.2368 112.952 41.4126 112.661 42.5984 112.559C45.6215 112.3 48.3297 111.103 50.8369 109.556C52.7976 108.337 54.8486 107.273 56.802 106.045C60.5692 103.69 64.128 101.085 67.5605 98.283C68.1077 97.8377 68.6248 97.3746 69.3536 97.2238C70.8989 96.8973 72.1964 97.9523 72.1226 99.5184L72.1232 99.5106Z" fill="#383838"/>
<path d="M8.61488 52.2987C8.34437 50.0692 10.3914 49.221 10.7651 47.5584C10.3287 46.9915 9.87006 47.2677 9.33862 47.4859C7.20414 48.373 5.05758 49.2141 2.85472 50.0888C2.40198 49.0002 2.7035 48.5543 3.59088 48.2034C5.2388 47.5527 6.84121 46.7856 8.70227 45.9542C6.03376 44.7438 3.04406 45.856 0.529509 44.3248C1.35227 43.2677 2.22344 43.1419 3.21093 43.4317C4.86969 43.9132 6.44553 43.4082 8.24967 43.1535C6.66215 41.5759 4.49185 40.9293 3.63468 38.9367C4.15078 38.0763 4.75177 37.9612 5.54206 38.531C6.88074 39.5023 8.26311 40.4014 9.56025 41.415C10.9006 42.4694 12.3451 43.0411 14.0921 43.1518C20.2532 43.5351 26.4057 44.0385 32.5651 44.4443C33.8675 44.5305 35.1882 44.3617 36.5019 44.2903C36.9887 44.265 37.4759 44.1266 37.9501 44.1683C42.2576 44.5313 46.547 44.184 50.8303 43.8136C51.1092 43.7884 51.3876 43.7708 51.6627 43.7981C52.7108 43.8887 53.2616 44.577 53.5522 45.4578C53.8495 46.3541 53.2418 46.9892 52.56 47.2644C51.3003 47.762 49.9717 48.2547 48.6307 48.3844C44.0253 48.8447 39.4145 49.3801 34.7907 49.4544C31.0688 49.5107 27.3169 49.0218 23.5957 48.6407C20.9827 48.3696 18.3952 47.8514 15.7893 47.4827C13.9683 47.2234 12.5972 47.9845 11.5478 49.4099C10.9075 50.284 10.2667 51.1656 9.57559 51.9983C9.44064 52.162 9.09497 52.1522 8.60776 52.2906L8.61488 52.2987Z" fill="#383838"/>
<path d="M112.97 51.267C115.577 52.1752 117.932 53.4603 119.786 55.5847C124.587 61.0897 124.67 68.6487 120.122 74.3635C117.406 77.7701 113.958 80.2486 110.422 82.6589C106.87 85.0834 103.196 87.3752 100.06 90.372C98.7533 91.6258 97.5562 92.9727 96.5271 94.4635C92.9508 99.5898 89.1275 104.489 84.2544 108.476C82.0657 110.256 79.718 111.767 77.0212 112.642C73.4593 113.803 70.0618 113.543 66.8227 111.513C65.6666 110.787 65.1001 109.723 64.6836 108.516C64.201 107.149 63.9073 105.741 63.7936 104.307C63.7362 103.598 63.5706 103.424 62.8603 103.713C61.4061 104.329 59.898 104.832 58.3229 105.083C58.1331 104.922 57.8871 104.788 57.7391 104.584C55.9294 102.068 55.0106 99.2282 54.7751 96.1514C54.4157 91.3536 55.2859 86.6908 56.5922 82.1059C57.712 78.1738 59.1933 74.3839 60.8701 70.6778C63.2 65.5391 63.6508 60.0328 63.9628 54.5164C64.2342 49.7795 64.2127 45.0215 65.3533 40.3705C66.197 36.9375 67.5767 33.8065 70.0076 31.1385C71.6227 29.3647 73.5798 28.2197 75.6877 27.2404C77.0462 29.3524 77.5711 31.7452 78.1356 34.1253C78.3147 34.8664 78.16 35.8313 78.5891 36.327C79.0886 36.9207 80.0423 36.3697 80.8043 36.3316C83.0652 36.2388 85.24 36.6975 87.4191 37.203C88.8496 37.6701 90.2062 38.3023 91.4978 39.0848C92.8751 40.0748 94.3284 40.9774 95.5196 42.1864C95.5383 42.2497 95.5393 42.3427 95.5899 42.3929C98.0156 44.8528 99.6578 47.7598 100.478 51.1112C100.639 51.7812 101.049 51.7875 101.556 51.6304C103.998 50.8534 106.531 50.7414 109.079 50.8552C110.392 50.911 111.687 51.1127 112.987 51.2373L112.97 51.267Z" fill="#FFC74D"/>
<path d="M75.6952 27.2414C73.5868 28.2283 71.622 29.3728 70.0151 31.1395C67.5914 33.8157 66.2045 36.9384 65.3608 40.3714C64.2131 45.0142 64.2258 49.787 63.9704 54.5173C63.6732 60.0425 63.2076 65.5401 60.8777 70.6788C59.1921 74.3997 57.7107 78.1896 56.5992 82.1145C55.293 86.6994 54.4232 91.3545 54.7821 96.16C55.0176 99.2369 55.9364 102.076 57.7461 104.593C57.8946 104.789 58.1406 104.923 58.3299 105.092C51.7901 106.728 46.4709 104.323 44.597 97.7506C43.9108 95.3385 43.7074 92.8914 43.7623 90.4086C43.7853 89.6589 43.6092 89.5223 42.905 89.7272C41.7019 90.0821 40.4643 90.2719 39.2239 90.5002C36.5691 91.0062 34.6661 89.8931 33.0813 87.912C30.899 85.1907 30.281 82.0476 30.4932 78.6699C30.7792 74.3756 32.1886 70.4023 33.9992 66.5587C35.8385 62.6397 38.1224 59.0005 40.512 55.4C43.0234 51.6146 44.2045 47.2608 45.2326 42.8805C46.1664 38.8421 46.918 34.7517 48.3691 30.8435C49.6367 27.441 51.459 24.4039 54.3504 22.1177C60.2743 17.416 69.331 18.4787 74.0861 24.4142C74.3777 24.776 74.5921 25.2408 75.0235 25.4888C74.9576 26.189 75.6483 26.6028 75.703 27.2419L75.6952 27.2414Z" fill="#ECBF04"/>
<path d="M112.97 51.2674C111.662 51.1345 110.359 50.94 109.062 50.8853C106.529 50.7726 103.996 50.8845 101.538 51.6604C101.022 51.8324 100.636 51.8201 100.46 51.1412C99.6325 47.7893 98.0141 44.8762 95.5724 42.4229C95.5207 42.3882 95.5202 42.2874 95.502 42.2164C96.1141 42.3225 96.312 41.8332 96.5793 41.4573C98.1191 39.3295 99.2595 36.9404 100.689 34.7348C102.187 35.3308 103.715 35.8513 105.119 36.6884C109.138 39.0771 111.419 42.6732 112.446 47.1394C112.758 48.5021 113.078 49.8653 112.969 51.2751L112.961 51.2745L112.97 51.2674Z" fill="#FFC74D"/>
<path d="M91.489 39.0993C90.198 38.3092 88.8408 37.6847 87.4104 37.2176C87.2428 36.64 87.7059 36.3402 87.9858 36.004C88.7499 35.0752 89.5568 34.196 90.1878 33.1802C92.8457 30.1567 95.4959 27.1327 97.2684 23.4955C99.5027 18.9309 98.7762 14.9278 95.1192 11.0623C94.4062 10.3138 93.6431 9.61584 92.87 8.94819C92.4684 8.6094 92.3325 8.34398 92.6615 7.86414C93.467 6.68268 94.2444 5.46047 95.0356 4.26249C97.3869 6.03536 99.0393 8.36988 100.148 11.0448C101.826 15.0623 101.561 19.1798 100.467 23.292C98.9883 28.8715 96.1928 33.8062 92.9773 38.548C92.5448 39.1754 92.144 39.3634 91.4874 39.1224L91.4885 39.107L91.489 39.0993Z" fill="#8ECF9E"/>
<path d="M91.4966 39.1004C92.1681 39.3502 92.569 39.1621 92.9866 38.526C96.2021 33.7842 98.9827 28.8407 100.476 23.2699C101.57 19.1655 101.843 15.0485 100.157 11.0228C99.0337 8.33902 97.405 5.99845 95.0449 4.24045C96.2465 4.44317 97.0822 5.31675 97.9626 5.99988C102.05 9.15274 104.682 13.1691 105.077 18.442C105.347 22.0016 104.606 25.4033 103.416 28.7029C102.671 30.7718 101.736 32.7805 100.697 34.7199C99.2753 36.9337 98.1289 39.2991 96.5879 41.4424C96.3284 41.8188 96.1228 42.3075 95.5107 42.2015C94.313 40.9765 92.8662 40.0899 91.4889 39.0998L91.5043 39.101L91.4966 39.1004Z" fill="#8ECF9E"/>
<path d="M90.1951 33.1814C89.5714 34.2055 88.7561 35.0919 87.9932 36.0053C87.7133 36.3415 87.2502 36.6412 87.4177 37.2188C85.2463 36.7139 83.0638 36.2546 80.8029 36.3474C80.0498 36.3706 79.0866 36.9443 78.5877 36.3428C78.1663 35.8477 78.3133 34.8822 78.1342 34.1411C77.5697 31.761 77.03 29.3594 75.6863 27.2563C75.6404 26.6022 74.941 26.2033 75.0069 25.5031C76.1971 24.4655 77.6456 24.2522 79.1248 24.258C83.5635 24.26 89.2825 27.3522 90.1797 33.1803L90.1951 33.1814Z" fill="#FFC74D"/>
<path d="M73.3026 70.5816C71.7577 68.0457 70.3337 65.8748 69.1427 63.589C68.9051 63.1226 69.5211 62.2063 69.7423 61.5018C70.2843 61.9359 71.1126 62.2667 71.3203 62.8239C73.0412 67.5416 76.3352 69.7774 81.3476 69.6658C81.9454 69.6469 82.5605 70.3574 83.1608 70.7337C82.5627 71.1865 81.9259 72.0702 81.4117 72.0022C78.7547 71.6792 76.1308 71.1106 73.28 70.5722L73.2877 70.5728L73.3026 70.5816Z" fill="black"/>
<path d="M71.3294 52.5835C69.882 54.7181 67.685 55.6444 66.1849 54.7462C64.6715 53.8161 64.5789 51.2298 66.0175 49.1101C67.4908 46.9387 69.816 46.0604 71.3221 47.0907C72.8283 48.121 72.7697 50.4407 71.3289 52.5913L71.3294 52.5835Z" fill="black"/>
<path d="M96.1712 69.6026C94.7238 71.7371 92.5268 72.6635 91.0267 71.7653C89.5133 70.8352 89.4207 68.2489 90.8593 66.1292C92.3326 63.9578 94.6578 63.0794 96.1639 64.1097C97.6701 65.14 97.6115 67.4598 96.1707 69.6103L96.1712 69.6026Z" fill="black"/>
</svg>
