<svg width="222" height="269" viewBox="0 0 222 269" fill="none" xmlns="http://www.w3.org/2000/svg">
<path d="M104.036 49.4004L87.1384 52.5759L110.505 176.914L127.402 173.739L104.036 49.4004Z" fill="#FFDD93"/>
<path d="M92.1389 32.1376C92.937 30.0946 93.5212 28.423 94.2053 26.78C97.4008 19.1277 103.016 14.2863 111.128 12.6672C123.798 10.1442 136.556 7.84114 149.252 5.45525C151.079 5.11195 152.94 4.95151 154.815 5.11963C159.614 5.49564 164.376 5.92594 169.138 6.35624C172.024 6.61842 174.756 7.57206 177.078 9.3601C181.785 13.019 181.323 19.1163 176.095 21.9919C169.372 25.7164 161.172 23.8497 156.77 17.5307C156.258 16.8223 155.77 16.4881 154.905 16.414C153.512 16.2972 152.107 16.3718 150.737 16.6293C138.635 18.9036 126.542 21.2236 114.431 23.4523C109.216 24.3849 105.784 27.2544 104.131 32.2977C103.102 35.3779 101.874 38.4011 100.691 41.4157C100.175 42.6958 100.07 43.8987 100.328 45.2701C100.551 46.4586 100.823 47.4014 102.296 47.6925C103.578 47.9722 104.304 49.0663 104.636 50.3291C104.81 51.0062 104.939 51.6919 105.068 52.3776C112.439 91.5991 119.809 130.821 127.18 170.042C127.627 172.419 127.722 174.436 125.623 176.345C124.37 177.48 125.171 179.98 126.165 180.74C129.238 183.002 129.839 186.202 130.229 189.536C130.51 192.039 131.507 193.318 134.077 194.161C140.741 196.411 146.512 200.201 152.207 204.336C153.96 205.616 156.059 206.973 158.292 207.784C160.316 208.492 162.472 208.891 164.55 209.636C175.988 213.639 187.452 213.757 199.02 210.4C200.099 210.102 201.899 208.865 202.36 210.813C202.866 212.753 200.728 212.445 199.604 212.751C188.336 216.194 177.069 216.371 165.782 212.67C163.667 211.98 161.485 211.443 159.296 210.861C159.15 210.841 159.013 210.866 158.348 210.849C159.239 211.818 159.905 212.592 160.644 213.257C169.153 221.55 179.447 226.762 190.457 230.75C195.276 232.495 200.173 233.894 205.049 235.438C205.649 235.61 206.248 235.781 206.774 236.061C207.299 236.341 207.494 236.872 207.314 237.426C207.143 238.027 206.675 238.304 206.11 238.315C205.827 238.321 205.519 238.19 205.219 238.104C191.092 234.133 177.256 229.445 165.282 220.573C161.983 218.117 158.953 215.326 156.162 212.301C155.568 211.656 155.096 210.656 153.875 211.453C153.618 211.596 152.882 211.451 152.81 211.322C151.953 209.022 149.875 209.791 148.282 209.617C142.684 209.013 137.359 207.6 132.274 205.195C131.131 204.653 130.412 204.599 129.191 205.396C126.637 207.154 123.569 207.683 120.522 207.073C117.776 206.547 116.048 204.648 115.524 201.859C114.645 197.434 113.866 193.037 113.032 188.603C112.749 187.094 112.839 185.563 113.746 184.351C114.682 183.039 114.541 181.788 114.275 180.371C114.078 179.32 113.803 178.614 112.558 178.28C110.46 177.68 109.979 175.878 109.618 173.958C106.208 155.81 102.806 137.708 99.3954 119.56C95.375 98.1661 91.3545 76.7725 87.3341 55.379C86.9217 53.1848 87.0691 51.4533 88.8665 49.6957C90.35 48.2811 89.3897 46.1899 88.347 44.9187C85.4618 41.3907 82.4111 37.9886 79.1578 34.7665C76.4186 32.0157 72.8728 31.2622 69.0281 31.9374C56.6063 34.2718 44.2302 36.5976 31.817 38.9778C30.8123 39.1666 29.879 39.4839 28.9001 39.8099C27.473 40.2674 26.7342 41.1161 26.3783 42.7448C24.9097 50.0252 15.7095 55.1617 8.60878 52.852C4.12335 51.3759 2.28535 47.1306 4.2125 42.7929C5.57805 39.744 7.9804 37.6834 10.877 36.2398C19.6322 31.7549 28.3847 27.507 38.4064 26.2389C47.4605 25.1053 56.397 23.0946 65.3679 21.2668C75.1608 19.2844 83.2522 21.8339 89.7081 29.5182C90.3737 30.2923 91.1306 31.0493 92.1389 32.1376ZM101.034 114.188C101.48 116.565 101.918 118.896 102.365 121.273C105.612 138.553 108.86 155.832 112.107 173.111C112.691 176.22 112.745 176.257 115.951 175.702C117.869 175.341 119.741 174.99 121.659 174.629C125.222 173.96 125.267 173.951 124.606 170.431C117.278 131.438 109.95 92.4454 102.622 53.4525C102.51 52.8582 102.344 52.2268 102.278 51.624C102.075 50.2897 101.315 49.7699 99.9539 50.0731C97.5421 50.5737 95.0674 50.9914 92.647 51.4463C89.4045 52.0556 89.4131 52.1013 89.9946 55.4469C93.6714 75.012 97.3482 94.577 101.034 114.188ZM48.769 27.0365C42.6038 28.1951 36.4386 29.3537 30.2734 30.5123C28.5836 30.8299 26.9482 31.1845 25.39 31.9506C20.9267 34.1146 16.4548 36.2328 12.0544 38.4796C9.68005 39.683 7.63718 41.3921 6.55107 43.9152C5.31664 46.6556 6.35433 49.1582 9.05825 50.2118C14.7659 52.4048 23.0187 48.0142 23.9258 42.0225C24.2528 39.7367 25.1684 38.5708 27.1547 37.8188C28.2992 37.3671 29.4436 36.9154 30.6766 36.6837C43.3724 34.2978 56.1139 31.9033 68.8097 29.5174C73.9246 28.5562 78.31 30.0038 81.8663 33.8315C84.7112 36.8937 87.4735 40.0188 90.2814 43.1353C90.9298 43.818 91.3584 44.5894 91.5388 45.5493C92.2202 48.9235 92.2658 48.9149 95.554 48.297C95.9193 48.2283 96.3217 48.1054 96.6957 48.0824C97.7632 47.9765 98.2796 47.4535 97.8907 46.3907C96.953 43.9166 97.771 41.7278 98.6631 39.4304C99.8916 36.4073 100.966 33.3184 102.149 30.3038C104.093 25.3004 107.665 22.1681 113.008 21.164C125.567 18.8039 138.126 16.4437 150.684 14.0836C152.602 13.7231 154.507 13.7912 156.482 13.9879C157.493 14.0819 158.107 14.5818 158.652 15.4731C161.959 21.2409 169.256 23.0878 174.955 19.6978C178.442 17.6227 178.719 14.0683 175.595 11.5319C173.473 9.80096 170.938 9.14156 168.251 8.93648C163.872 8.52894 159.447 8.12999 155.077 7.76817C153.538 7.63139 151.988 7.68604 150.435 7.97785C137.511 10.4067 124.524 12.7526 111.626 15.3186C104.328 16.7375 99.2917 21.1387 96.5326 28.0937C95.6974 30.1911 94.9622 32.317 94.1727 34.4057C93.4031 36.3488 92.5811 36.5033 91.1672 35.0179C89.5191 33.2926 87.9822 31.4043 86.3341 29.679C81.3269 24.4201 75.1997 22.2587 68.0126 23.5147C61.539 24.542 55.1626 25.8349 48.769 27.0365ZM129.602 200.539C128.605 195.236 127.74 190.382 126.784 185.545C126.612 184.631 125.938 183.811 125.067 183.454C123.771 182.846 123.354 181.883 123.104 180.557C122.489 177.029 122.443 177.038 119.026 177.727C118.798 177.77 118.578 177.858 118.341 177.856C116.7 177.927 116.481 178.773 116.838 180.173C117.345 182.113 117.797 184.016 116.045 185.765C115.252 186.576 115.51 187.948 115.733 189.136C116.395 192.656 117.23 196.096 117.663 199.659C118.449 205.853 122.931 205.295 127.012 203.865C127.46 203.734 128.33 203.334 127.662 202.797C126.56 201.963 125.876 200.34 123.802 200.872C121.772 201.395 120.173 200.181 119.686 198.096C119.166 195.827 118.736 193.541 118.398 191.239C118.094 189.119 119.243 187.436 121.161 187.075C123.162 186.652 124.853 187.849 125.365 190.071C125.823 192.257 126.335 194.48 126.565 196.708C126.737 198.38 127.6 199.448 129.602 200.539ZM131.732 196.021C131.858 197.701 132.133 199.164 131.971 200.567C131.829 201.824 132.261 202.358 133.294 202.827C136.812 204.437 140.452 205.694 144.272 206.395C146.328 206.766 148.355 207.237 150.909 206.994C145.08 201.89 138.812 198.477 131.732 196.021ZM121.757 194.772C124.14 193.614 123.111 191.915 122.782 190.415C122.696 189.958 122.382 189.543 121.825 189.601C121.132 189.684 120.943 190.192 121.001 190.749C121.196 192.038 121.473 193.264 121.757 194.772Z" fill="#F2897D"/>
</svg>
